<svg width="21" height="29" viewBox="0 0 21 29" fill="none" xmlns="http://www.w3.org/2000/svg">
<path d="M10.5 28.7809C12.1556 28.7809 13.4986 27.1704 13.4986 25.1833H7.50142C7.50142 27.1704 8.84438 28.7809 10.5 28.7809V28.7809ZM20.5964 20.3653C19.6908 19.1983 17.9962 17.4428 17.9962 11.6922C17.9962 7.32451 15.4425 3.82808 11.9991 2.97028V1.7988C11.9991 0.805527 11.3278 0 10.5 0C9.67219 0 9.00094 0.805527 9.00094 1.7988V2.97028C5.55752 3.82808 3.00377 7.32451 3.00377 11.6922C3.00377 17.4428 1.30925 19.1983 0.403625 20.3653C0.122376 20.7278 -0.00231133 21.1612 3.24087e-05 21.5857C0.00518864 22.5075 0.608468 23.3845 1.50472 23.3845H19.4953C20.3915 23.3845 20.9953 22.5075 21 21.5857C21.0023 21.1612 20.8776 20.7273 20.5964 20.3653Z" fill="#DB5A42"/>
</svg>
