<svg width="21" height="29" viewBox="0 0 21 29" fill="none" xmlns="http://www.w3.org/2000/svg">
<path d="M10.5 28.8905C12.1556 28.8905 13.4986 27.28 13.4986 25.2929H7.50142C7.50142 27.28 8.84438 28.8905 10.5 28.8905V28.8905ZM20.5964 20.4749C19.6908 19.3079 17.9962 17.5524 17.9962 11.8018C17.9962 7.43413 15.4425 3.9377 11.9991 3.07989V1.90842C11.9991 0.915146 11.3278 0.109619 10.5 0.109619C9.67219 0.109619 9.00094 0.915146 9.00094 1.90842V3.07989C5.55752 3.9377 3.00377 7.43413 3.00377 11.8018C3.00377 17.5524 1.30925 19.3079 0.403625 20.4749C0.122376 20.8375 -0.00231133 21.2709 3.24087e-05 21.6953C0.00518864 22.6172 0.608468 23.4941 1.50472 23.4941H19.4953C20.3915 23.4941 20.9953 22.6172 21 21.6953C21.0023 21.2709 20.8776 20.8369 20.5964 20.4749Z" fill="#DB5A42"/>
</svg>
