<svg width="21" height="29" viewBox="0 0 21 29" fill="none" xmlns="http://www.w3.org/2000/svg">
<path d="M10.5 28.8902C12.1556 28.8902 13.4986 27.2798 13.4986 25.2926H7.50142C7.50142 27.2798 8.84438 28.8902 10.5 28.8902V28.8902ZM20.5964 20.4747C19.6908 19.3077 17.9962 17.5522 17.9962 11.8016C17.9962 7.43388 15.4425 3.93746 11.9991 3.07965V1.90818C11.9991 0.914902 11.3278 0.109375 10.5 0.109375C9.67219 0.109375 9.00094 0.914902 9.00094 1.90818V3.07965C5.55752 3.93746 3.00377 7.43388 3.00377 11.8016C3.00377 17.5522 1.30925 19.3077 0.403625 20.4747C0.122376 20.8372 -0.00231133 21.2706 3.24087e-05 21.695C0.00518864 22.6169 0.608468 23.4938 1.50472 23.4938H19.4953C20.3915 23.4938 20.9953 22.6169 21 21.695C21.0023 21.2706 20.8776 20.8367 20.5964 20.4747Z" fill="#DB5A42"/>
</svg>
