<svg width="57" height="46" viewBox="0 0 57 46" fill="none" xmlns="http://www.w3.org/2000/svg">
<path d="M3.03839 0.0610527C2.09338 0.223342 1.24714 0.781916 0.685835 1.6139C0.124529 2.44588 -0.105866 3.48311 0.0453354 4.49742C0.196537 5.51172 0.716948 6.42002 1.49208 7.02249C2.26722 7.62495 3.23359 7.87224 4.1786 7.70995H14.8681L15.5094 9.62218L18.4312 19.1833L21.353 28.7444C21.6381 29.7388 22.8495 30.6567 23.776 30.6567H48.7181C49.7157 30.6567 50.8559 29.7388 51.141 28.7444L56.9133 9.62218C57.1984 8.62782 56.7708 7.70995 55.7731 7.70995H24.1323L21.4243 2.20275C21.1358 1.57063 20.6905 1.03622 20.1373 0.658337C19.584 0.280458 18.9443 0.0737768 18.2887 0.0610527L4.03607 0.0610527C3.82272 0.0403587 3.60806 0.0403587 3.3947 0.0610527C3.2523 0.0518658 3.10952 0.0518658 2.96712 0.0610527L3.03839 0.0610527ZM25.5575 38.3056C23.5622 38.3056 21.9944 39.9883 21.9944 42.13C21.9944 44.2717 23.5622 45.9545 25.5575 45.9545C27.5529 45.9545 29.1207 44.2717 29.1207 42.13C29.1207 39.9883 27.5529 38.3056 25.5575 38.3056ZM46.9365 38.3056C44.9411 38.3056 43.3733 39.9883 43.3733 42.13C43.3733 44.2717 44.9411 45.9545 46.9365 45.9545C48.9318 45.9545 50.4996 44.2717 50.4996 42.13C50.4996 39.9883 48.9318 38.3056 46.9365 38.3056Z" fill="black"/>
</svg>
