<svg width="28" height="29" viewBox="0 0 28 29" fill="none" xmlns="http://www.w3.org/2000/svg">
<rect width="28" height="28" transform="translate(0 0.356445)" fill="white"/>
<g clip-path="url(#clip0_314_534)">
<rect y="0.356445" width="28" height="28" rx="12" fill="#0659FD"/>
<path fill-rule="evenodd" clip-rule="evenodd" d="M16.4545 7.35645C14.6471 7.35645 13.1818 8.8217 13.1818 10.6292C13.1818 12.4366 14.6471 13.9019 16.4545 13.9019C18.262 13.9019 19.7273 12.4366 19.7273 10.6292C19.7273 8.8217 18.262 7.35645 16.4545 7.35645V7.35645ZM16.4545 8.91099C17.4036 8.91099 18.1727 9.68008 18.1727 10.6292C18.1727 11.5783 17.4036 12.3474 16.4545 12.3474C15.5056 12.3474 14.7364 11.5781 14.7364 10.6292C14.7364 9.68025 15.5056 8.91099 16.4545 8.91099V8.91099ZM7.45455 9.81099V12.2655H5V13.9019H7.45455V16.3564H9.09091V13.9019H11.5455V12.2655H9.09091V9.81099H7.45455V9.81099ZM16.4545 14.7201C14.27 14.7201 9.90909 15.8083 9.90909 17.9928V20.4474H23V17.9928C23 15.8083 18.6391 14.7201 16.4545 14.7201V14.7201ZM16.4545 16.2746C18.8845 16.2746 21.4455 17.4692 21.4455 17.9928V18.8928H11.4636V17.9928C11.4636 17.4692 14 16.2746 16.4545 16.2746Z" fill="#1E1F20"/>
<mask id="mask0_314_534" style="mask-type:alpha" maskUnits="userSpaceOnUse" x="5" y="7" width="18" height="14">
<path fill-rule="evenodd" clip-rule="evenodd" d="M16.4545 7.35645C14.6471 7.35645 13.1818 8.8217 13.1818 10.6292C13.1818 12.4366 14.6471 13.9019 16.4545 13.9019C18.262 13.9019 19.7273 12.4366 19.7273 10.6292C19.7273 8.8217 18.262 7.35645 16.4545 7.35645V7.35645ZM16.4545 8.91099C17.4036 8.91099 18.1727 9.68008 18.1727 10.6292C18.1727 11.5783 17.4036 12.3474 16.4545 12.3474C15.5056 12.3474 14.7364 11.5781 14.7364 10.6292C14.7364 9.68025 15.5056 8.91099 16.4545 8.91099V8.91099ZM7.45455 9.81099V12.2655H5V13.9019H7.45455V16.3564H9.09091V13.9019H11.5455V12.2655H9.09091V9.81099H7.45455V9.81099ZM16.4545 14.7201C14.27 14.7201 9.90909 15.8083 9.90909 17.9928V20.4474H23V17.9928C23 15.8083 18.6391 14.7201 16.4545 14.7201V14.7201ZM16.4545 16.2746C18.8845 16.2746 21.4455 17.4692 21.4455 17.9928V18.8928H11.4636V17.9928C11.4636 17.4692 14 16.2746 16.4545 16.2746Z" fill="white"/>
</mask>
<g mask="url(#mask0_314_534)">
</g>
</g>
<defs>
<clipPath id="clip0_314_534">
<rect width="28" height="28" fill="white" transform="translate(0 0.356445)"/>
</clipPath>
</defs>
</svg>
