<svg width="90" height="34" viewBox="0 0 90 34" fill="none" xmlns="http://www.w3.org/2000/svg">
<path d="M4.35066 12.8459C3.53248 12.8459 2.82794 12.6527 2.23703 12.2663C1.64612 11.88 1.19157 11.3478 0.873391 10.6697C0.555209 9.99171 0.396118 9.21709 0.396118 8.34588C0.396118 7.45952 0.558997 6.67732 0.884755 5.99929C1.2143 5.31747 1.67263 4.78527 2.25975 4.4027C2.85066 4.01634 3.54006 3.82315 4.32794 3.82315C4.94157 3.82315 5.4946 3.93679 5.98703 4.16406C6.47945 4.39134 6.88286 4.70952 7.19725 5.11861C7.51165 5.5277 7.70672 6.00497 7.78248 6.55043H6.44157C6.3393 6.1527 6.11203 5.80043 5.75975 5.49361C5.41127 5.183 4.94157 5.0277 4.35066 5.0277C3.82794 5.0277 3.3696 5.16406 2.97566 5.43679C2.58551 5.70573 2.28059 6.08641 2.06089 6.57883C1.84498 7.06747 1.73703 7.64134 1.73703 8.30043C1.73703 8.97467 1.84309 9.56179 2.05521 10.0618C2.27112 10.5618 2.57415 10.95 2.9643 11.2266C3.35824 11.5031 3.82036 11.6413 4.35066 11.6413C4.69915 11.6413 5.01544 11.5807 5.29953 11.4595C5.58362 11.3383 5.82415 11.1641 6.02112 10.9368C6.21809 10.7095 6.35824 10.4368 6.44157 10.1186H7.78248C7.70672 10.6338 7.51922 11.0978 7.21998 11.5107C6.92453 11.9197 6.53248 12.2455 6.04385 12.4879C5.559 12.7266 4.9946 12.8459 4.35066 12.8459Z" fill="black"/>
<path d="M11.0836 7.41406V12.6641H9.74271V1.0277H11.0836V5.30043H11.1973C11.4018 4.84967 11.7086 4.49171 12.1177 4.22656C12.5306 3.95762 13.0798 3.82315 13.7654 3.82315C14.3601 3.82315 14.881 3.94247 15.3279 4.18111C15.7749 4.41596 16.1215 4.7777 16.3677 5.26634C16.6177 5.75118 16.7427 6.36861 16.7427 7.11861V12.6641H15.4018V7.20952C15.4018 6.51633 15.2219 5.98035 14.862 5.60156C14.506 5.21899 14.0116 5.0277 13.3791 5.0277C12.9397 5.0277 12.5457 5.1205 12.1973 5.30611C11.8526 5.49171 11.5798 5.76255 11.3791 6.11861C11.1821 6.47467 11.0836 6.90649 11.0836 7.41406Z" fill="black"/>
<path d="M19.1958 12.6641V3.93679H20.5367V12.6641H19.1958ZM19.8777 2.48224C19.6163 2.48224 19.3909 2.39323 19.2015 2.2152C19.0159 2.03717 18.9231 1.82315 18.9231 1.57315C18.9231 1.32315 19.0159 1.10914 19.2015 0.931108C19.3909 0.753078 19.6163 0.664062 19.8777 0.664062C20.139 0.664062 20.3625 0.753078 20.5481 0.931108C20.7375 1.10914 20.8322 1.32315 20.8322 1.57315C20.8322 1.82315 20.7375 2.03717 20.5481 2.2152C20.3625 2.39323 20.139 2.48224 19.8777 2.48224Z" fill="black"/>
<path d="M26.5382 12.8459C25.72 12.8459 25.0154 12.6527 24.4245 12.2663C23.8336 11.88 23.3791 11.3478 23.0609 10.6697C22.7427 9.99171 22.5836 9.21709 22.5836 8.34588C22.5836 7.45952 22.7465 6.67732 23.0723 5.99929C23.4018 5.31747 23.8601 4.78527 24.4473 4.4027C25.0382 4.01634 25.7276 3.82315 26.5154 3.82315C27.1291 3.82315 27.6821 3.93679 28.1745 4.16406C28.667 4.39134 29.0704 4.70952 29.3848 5.11861C29.6991 5.5277 29.8942 6.00497 29.97 6.55043H28.6291C28.5268 6.1527 28.2995 5.80043 27.9473 5.49361C27.5988 5.183 27.1291 5.0277 26.5382 5.0277C26.0154 5.0277 25.5571 5.16406 25.1632 5.43679C24.773 5.70573 24.4681 6.08641 24.2484 6.57883C24.0325 7.06747 23.9245 7.64134 23.9245 8.30043C23.9245 8.97467 24.0306 9.56179 24.2427 10.0618C24.4586 10.5618 24.7616 10.95 25.1518 11.2266C25.5457 11.5031 26.0079 11.6413 26.5382 11.6413C26.8866 11.6413 27.2029 11.5807 27.487 11.4595C27.7711 11.3383 28.0116 11.1641 28.2086 10.9368C28.4056 10.7095 28.5457 10.4368 28.6291 10.1186H29.97C29.8942 10.6338 29.7067 11.0978 29.4075 11.5107C29.112 11.9197 28.72 12.2455 28.2313 12.4879C27.7465 12.7266 27.1821 12.8459 26.5382 12.8459Z" fill="black"/>
<path d="M33.1802 9.48224L33.1575 7.82315H33.4302L37.2484 3.93679H38.9075L34.8393 8.05043H34.7257L33.1802 9.48224ZM31.9302 12.6641V1.0277H33.2711V12.6641H31.9302ZM37.4757 12.6641L34.0666 8.34588L35.0211 7.41406L39.1802 12.6641H37.4757Z" fill="black"/>
<path d="M43.9331 12.8459C43.0921 12.8459 42.3668 12.6603 41.7569 12.2891C41.1509 11.9141 40.6831 11.3913 40.3535 10.7209C40.0278 10.0466 39.8649 9.26255 39.8649 8.36861C39.8649 7.47467 40.0278 6.68679 40.3535 6.00497C40.6831 5.31937 41.1414 4.78527 41.7285 4.4027C42.3194 4.01634 43.0088 3.82315 43.7967 3.82315C44.2512 3.82315 44.7001 3.89891 45.1433 4.05043C45.5865 4.20194 45.9899 4.44815 46.3535 4.78906C46.7171 5.12618 47.0069 5.57315 47.2228 6.12997C47.4387 6.68679 47.5467 7.3724 47.5467 8.18679V8.75497H40.8194V7.59588H46.1831C46.1831 7.10346 46.0846 6.66406 45.8876 6.2777C45.6944 5.89134 45.4179 5.58641 45.0581 5.36293C44.702 5.13944 44.2815 5.0277 43.7967 5.0277C43.2626 5.0277 42.8005 5.16027 42.4103 5.42543C42.024 5.68679 41.7266 6.0277 41.5183 6.44815C41.3099 6.86861 41.2058 7.31937 41.2058 7.80043V8.57315C41.2058 9.23224 41.3194 9.79096 41.5467 10.2493C41.7777 10.7038 42.0978 11.0504 42.5069 11.2891C42.916 11.5239 43.3914 11.6413 43.9331 11.6413C44.2853 11.6413 44.6035 11.5921 44.8876 11.4936C45.1755 11.3913 45.4236 11.2398 45.6319 11.0391C45.8402 10.8345 46.0012 10.5807 46.1149 10.2777L47.4103 10.6413C47.274 11.0807 47.0448 11.4671 46.7228 11.8004C46.4009 12.13 46.0031 12.3875 45.5296 12.5732C45.0562 12.755 44.524 12.8459 43.9331 12.8459Z" fill="black"/>
<path d="M50.9274 7.41406V12.6641H49.5865V3.93679H50.8819V5.30043H50.9956C51.2001 4.85724 51.5107 4.50118 51.9274 4.23224C52.344 3.95952 52.8819 3.82315 53.541 3.82315C54.1319 3.82315 54.649 3.94437 55.0921 4.18679C55.5353 4.42543 55.88 4.78906 56.1262 5.2777C56.3724 5.76255 56.4956 6.37618 56.4956 7.11861V12.6641H55.1546V7.20952C55.1546 6.52391 54.9766 5.98982 54.6206 5.60724C54.2645 5.22088 53.7759 5.0277 53.1546 5.0277C52.7266 5.0277 52.344 5.1205 52.0069 5.30611C51.6736 5.49171 51.4103 5.76255 51.2171 6.11861C51.024 6.47467 50.9274 6.90649 50.9274 7.41406Z" fill="black"/>
<path d="M67.1049 12.8459C66.264 12.8459 65.5386 12.6603 64.9288 12.2891C64.3227 11.9141 63.8549 11.3913 63.5254 10.7209C63.1996 10.0466 63.0367 9.26255 63.0367 8.36861C63.0367 7.47467 63.1996 6.68679 63.5254 6.00497C63.8549 5.31937 64.3133 4.78527 64.9004 4.4027C65.4913 4.01634 66.1807 3.82315 66.9686 3.82315C67.4231 3.82315 67.872 3.89891 68.3151 4.05043C68.7583 4.20194 69.1617 4.44815 69.5254 4.78906C69.889 5.12618 70.1788 5.57315 70.3947 6.12997C70.6106 6.68679 70.7186 7.3724 70.7186 8.18679V8.75497H63.9913V7.59588H69.3549C69.3549 7.10346 69.2564 6.66406 69.0595 6.2777C68.8663 5.89134 68.5898 5.58641 68.2299 5.36293C67.8739 5.13944 67.4534 5.0277 66.9686 5.0277C66.4345 5.0277 65.9724 5.16027 65.5822 5.42543C65.1958 5.68679 64.8985 6.0277 64.6901 6.44815C64.4818 6.86861 64.3777 7.31937 64.3777 7.80043V8.57315C64.3777 9.23224 64.4913 9.79096 64.7186 10.2493C64.9496 10.7038 65.2697 11.0504 65.6788 11.2891C66.0879 11.5239 66.5633 11.6413 67.1049 11.6413C67.4572 11.6413 67.7754 11.5921 68.0595 11.4936C68.3474 11.3913 68.5955 11.2398 68.8038 11.0391C69.0121 10.8345 69.1731 10.5807 69.2867 10.2777L70.5822 10.6413C70.4458 11.0807 70.2167 11.4671 69.8947 11.8004C69.5727 12.13 69.175 12.3875 68.7015 12.5732C68.228 12.755 67.6958 12.8459 67.1049 12.8459Z" fill="black"/>
<path d="M76.2811 16.1186C75.6333 16.1186 75.0765 16.0353 74.6106 15.8686C74.1447 15.7057 73.7564 15.4898 73.4458 15.2209C73.139 14.9557 72.8947 14.6716 72.7129 14.3686L73.7811 13.6186C73.9023 13.7777 74.0557 13.9595 74.2413 14.1641C74.4269 14.3724 74.6807 14.5523 75.0026 14.7038C75.3284 14.8591 75.7545 14.9368 76.2811 14.9368C76.9856 14.9368 77.567 14.7663 78.0254 14.4254C78.4837 14.0845 78.7129 13.5504 78.7129 12.8232V11.0504H78.5992C78.5008 11.2095 78.3606 11.4065 78.1788 11.6413C78.0008 11.8724 77.7432 12.0788 77.4061 12.2607C77.0727 12.4387 76.622 12.5277 76.0538 12.5277C75.3492 12.5277 74.7167 12.361 74.1561 12.0277C73.5992 11.6944 73.158 11.2095 72.8322 10.5732C72.5102 9.93679 72.3492 9.16406 72.3492 8.25497C72.3492 7.36103 72.5064 6.58262 72.8208 5.91974C73.1352 5.25308 73.5727 4.73793 74.1333 4.37429C74.6939 4.00687 75.3417 3.82315 76.0765 3.82315C76.6447 3.82315 77.0955 3.91785 77.4288 4.10724C77.7659 4.29285 78.0235 4.50497 78.2015 4.74361C78.3833 4.97846 78.5235 5.17164 78.622 5.32315H78.7583V3.93679H80.0538V12.9141C80.0538 13.6641 79.8833 14.2739 79.5424 14.7436C79.2053 15.2171 78.7508 15.5637 78.1788 15.7834C77.6106 16.0069 76.978 16.1186 76.2811 16.1186ZM76.2356 11.3232C76.7735 11.3232 77.228 11.2 77.5992 10.9538C77.9705 10.7076 78.2526 10.3535 78.4458 9.89134C78.639 9.42921 78.7356 8.87618 78.7356 8.23224C78.7356 7.60346 78.6409 7.04853 78.4515 6.56747C78.2621 6.08641 77.9818 5.70952 77.6106 5.43679C77.2394 5.16406 76.7811 5.0277 76.2356 5.0277C75.6674 5.0277 75.1939 5.17164 74.8151 5.45952C74.4401 5.7474 74.158 6.13376 73.9686 6.61861C73.783 7.10346 73.6901 7.64134 73.6901 8.23224C73.6901 8.83831 73.7849 9.37429 73.9742 9.8402C74.1674 10.3023 74.4515 10.666 74.8265 10.9311C75.2053 11.1925 75.675 11.3232 76.2356 11.3232Z" fill="black"/>
<path d="M86.0311 16.1186C85.3833 16.1186 84.8265 16.0353 84.3606 15.8686C83.8947 15.7057 83.5064 15.4898 83.1958 15.2209C82.889 14.9557 82.6447 14.6716 82.4629 14.3686L83.5311 13.6186C83.6523 13.7777 83.8057 13.9595 83.9913 14.1641C84.1769 14.3724 84.4307 14.5523 84.7526 14.7038C85.0784 14.8591 85.5045 14.9368 86.0311 14.9368C86.7356 14.9368 87.317 14.7663 87.7754 14.4254C88.2337 14.0845 88.4629 13.5504 88.4629 12.8232V11.0504H88.3492C88.2508 11.2095 88.1106 11.4065 87.9288 11.6413C87.7508 11.8724 87.4932 12.0788 87.1561 12.2607C86.8227 12.4387 86.372 12.5277 85.8038 12.5277C85.0992 12.5277 84.4667 12.361 83.9061 12.0277C83.3492 11.6944 82.908 11.2095 82.5822 10.5732C82.2602 9.93679 82.0992 9.16406 82.0992 8.25497C82.0992 7.36103 82.2564 6.58262 82.5708 5.91974C82.8852 5.25308 83.3227 4.73793 83.8833 4.37429C84.4439 4.00687 85.0917 3.82315 85.8265 3.82315C86.3947 3.82315 86.8455 3.91785 87.1788 4.10724C87.5159 4.29285 87.7735 4.50497 87.9515 4.74361C88.1333 4.97846 88.2735 5.17164 88.372 5.32315H88.5083V3.93679H89.8038V12.9141C89.8038 13.6641 89.6333 14.2739 89.2924 14.7436C88.9553 15.2171 88.5008 15.5637 87.9288 15.7834C87.3606 16.0069 86.728 16.1186 86.0311 16.1186ZM85.9856 11.3232C86.5235 11.3232 86.978 11.2 87.3492 10.9538C87.7205 10.7076 88.0026 10.3535 88.1958 9.89134C88.389 9.42921 88.4856 8.87618 88.4856 8.23224C88.4856 7.60346 88.3909 7.04853 88.2015 6.56747C88.0121 6.08641 87.7318 5.70952 87.3606 5.43679C86.9894 5.16406 86.5311 5.0277 85.9856 5.0277C85.4174 5.0277 84.9439 5.17164 84.5651 5.45952C84.1901 5.7474 83.908 6.13376 83.7186 6.61861C83.533 7.10346 83.4401 7.64134 83.4401 8.23224C83.4401 8.83831 83.5349 9.37429 83.7242 9.8402C83.9174 10.3023 84.2015 10.666 84.5765 10.9311C84.9553 11.1925 85.425 11.3232 85.9856 11.3232Z" fill="black"/>
<path d="M32.8024 31.9197C31.8251 31.916 30.9842 31.6754 30.2796 31.1982C29.5789 30.7209 29.0391 30.0296 28.6603 29.1243C28.2853 28.219 28.0997 27.13 28.1035 25.8572C28.1035 24.5883 28.291 23.5069 28.666 22.6129C29.0448 21.719 29.5846 21.0391 30.2853 20.5732C30.9899 20.1035 31.8289 19.8686 32.8024 19.8686C33.7759 19.8686 34.613 20.1035 35.3137 20.5732C36.0183 21.0429 36.5599 21.7247 36.9387 22.6186C37.3175 23.5088 37.505 24.5883 37.5012 25.8572C37.5012 27.1338 37.3118 28.2247 36.9331 29.13C36.5581 30.0353 36.0202 30.7266 35.3194 31.2038C34.6187 31.6811 33.7796 31.9197 32.8024 31.9197ZM32.8024 29.88C33.469 29.88 34.0012 29.5447 34.399 28.8743C34.7967 28.2038 34.9937 27.1982 34.9899 25.8572C34.9899 24.9747 34.899 24.2398 34.7171 23.6527C34.5391 23.0656 34.2853 22.6243 33.9558 22.3288C33.63 22.0334 33.2456 21.8857 32.8024 21.8857C32.1395 21.8857 31.6092 22.2171 31.2115 22.88C30.8137 23.5428 30.613 24.5353 30.6092 25.8572C30.6092 26.7512 30.6982 27.4974 30.8762 28.0959C31.0581 28.6906 31.3137 29.1375 31.6433 29.4368C31.9728 29.7322 32.3592 29.88 32.8024 29.88Z" fill="black"/>
<path d="M40.2242 31.8118C39.8492 31.8118 39.5273 31.6792 39.2583 31.4141C38.9932 31.1451 38.8606 30.8232 38.8606 30.4482C38.8606 30.0769 38.9932 29.7588 39.2583 29.4936C39.5273 29.2285 39.8492 29.0959 40.2242 29.0959C40.5879 29.0959 40.9061 29.2285 41.1788 29.4936C41.4515 29.7588 41.5879 30.0769 41.5879 30.4482C41.5879 30.6982 41.5235 30.9273 41.3947 31.1357C41.2697 31.3402 41.1049 31.505 40.9004 31.63C40.6958 31.7512 40.4705 31.8118 40.2242 31.8118Z" fill="black"/>
<path d="M47.7086 31.8232C46.9056 31.8232 46.1897 31.6754 45.5609 31.38C44.9359 31.0845 44.4397 30.6773 44.0723 30.1584C43.7048 29.6394 43.5135 29.0447 43.4984 28.3743H45.8848C45.9113 28.825 46.1007 29.1906 46.4529 29.4709C46.8052 29.7512 47.2238 29.8913 47.7086 29.8913C48.095 29.8913 48.4359 29.8061 48.7313 29.6357C49.0306 29.4614 49.2635 29.2209 49.4302 28.9141C49.6007 28.6035 49.6859 28.2474 49.6859 27.8459C49.6859 27.4368 49.5988 27.0769 49.4245 26.7663C49.2541 26.4557 49.0173 26.2133 48.7143 26.0391C48.4113 25.8648 48.0647 25.7758 47.6745 25.772C47.3336 25.772 47.0022 25.8421 46.6802 25.9822C46.362 26.1224 46.1139 26.3137 45.9359 26.5561L43.7484 26.1641L44.2995 20.0277H51.4132V22.0391H46.3279L46.0268 24.9538H46.095C46.2995 24.666 46.6082 24.4273 47.0211 24.2379C47.434 24.0485 47.8961 23.9538 48.4075 23.9538C49.1082 23.9538 49.7332 24.1186 50.2825 24.4482C50.8317 24.7777 51.2654 25.2304 51.5836 25.8061C51.9018 26.3781 52.059 27.0372 52.0552 27.7834C52.059 28.5675 51.8772 29.2644 51.5098 29.8743C51.1461 30.4804 50.6367 30.9576 49.9813 31.3061C49.3298 31.6508 48.5723 31.8232 47.7086 31.8232Z" fill="black"/>
<path d="M57.6802 33.1186V18.5732H58.612V33.1186H57.6802ZM60.1518 23.3743C60.1063 22.916 59.9113 22.5599 59.5666 22.3061C59.2219 22.0523 58.7541 21.9254 58.1632 21.9254C57.7617 21.9254 57.4226 21.9822 57.1461 22.0959C56.8696 22.2057 56.6575 22.3591 56.5098 22.5561C56.3658 22.7531 56.2938 22.9766 56.2938 23.2266C56.2863 23.4349 56.3298 23.6167 56.4245 23.772C56.523 23.9273 56.6575 24.0618 56.8279 24.1754C56.9984 24.2853 57.1954 24.3819 57.4188 24.4652C57.6423 24.5447 57.881 24.6129 58.1348 24.6697L59.1802 24.9197C59.6878 25.0334 60.1537 25.1849 60.5779 25.3743C61.0022 25.5637 61.3696 25.7966 61.6802 26.0732C61.9908 26.3497 62.2313 26.6754 62.4018 27.0504C62.576 27.4254 62.6651 27.8554 62.6688 28.3402C62.6651 29.0523 62.4832 29.6697 62.1234 30.1925C61.7673 30.7114 61.2522 31.1148 60.5779 31.4027C59.9075 31.6868 59.0988 31.8288 58.1518 31.8288C57.2124 31.8288 56.3942 31.6849 55.6973 31.397C55.0041 31.1091 54.4624 30.683 54.0723 30.1186C53.6859 29.5504 53.4832 28.8478 53.4643 28.0107H55.845C55.8715 28.4008 55.9832 28.7266 56.1802 28.9879C56.381 29.2455 56.648 29.4406 56.9813 29.5732C57.3185 29.7019 57.6992 29.7663 58.1234 29.7663C58.5401 29.7663 58.9018 29.7057 59.2086 29.5845C59.5192 29.4633 59.7598 29.2947 59.9302 29.0788C60.1007 28.8629 60.1859 28.6148 60.1859 28.3345C60.1859 28.0732 60.1082 27.8535 59.9529 27.6754C59.8014 27.4974 59.5779 27.3459 59.2825 27.2209C58.9908 27.0959 58.6329 26.9822 58.2086 26.88L56.9416 26.5618C55.9605 26.3232 55.1859 25.95 54.6177 25.4425C54.0495 24.9349 53.7673 24.2512 53.7711 23.3913C53.7673 22.6868 53.9548 22.0713 54.3336 21.5447C54.7162 21.0182 55.2408 20.6072 55.9075 20.3118C56.5742 20.0163 57.3317 19.8686 58.1802 19.8686C59.0438 19.8686 59.7976 20.0163 60.4416 20.3118C61.0893 20.6072 61.5931 21.0182 61.9529 21.5447C62.3128 22.0713 62.4984 22.6811 62.5098 23.3743H60.1518Z" fill="black"/>
</svg>
