<svg width="91" height="34" viewBox="0 0 91 34" fill="none" xmlns="http://www.w3.org/2000/svg">
<path d="M4.55068 12.8459C3.73249 12.8459 3.02795 12.6527 2.43704 12.2663C1.84613 11.88 1.39158 11.3478 1.0734 10.6697C0.755221 9.99171 0.59613 9.21709 0.59613 8.34588C0.59613 7.45952 0.759009 6.67732 1.08477 5.99929C1.41431 5.31747 1.87265 4.78527 2.45977 4.4027C3.05068 4.01634 3.74007 3.82315 4.52795 3.82315C5.14158 3.82315 5.69461 3.93679 6.18704 4.16406C6.67946 4.39134 7.08287 4.70952 7.39727 5.11861C7.71166 5.5277 7.90674 6.00497 7.98249 6.55043H6.64158C6.53931 6.1527 6.31204 5.80043 5.95977 5.49361C5.61128 5.183 5.14158 5.0277 4.55068 5.0277C4.02795 5.0277 3.56962 5.16406 3.17568 5.43679C2.78552 5.70573 2.4806 6.08641 2.2609 6.57883C2.04499 7.06747 1.93704 7.64134 1.93704 8.30043C1.93704 8.97467 2.0431 9.56179 2.25522 10.0618C2.47113 10.5618 2.77416 10.95 3.16431 11.2266C3.55825 11.5031 4.02037 11.6413 4.55068 11.6413C4.89916 11.6413 5.21545 11.5807 5.49954 11.4595C5.78363 11.3383 6.02416 11.1641 6.22113 10.9368C6.4181 10.7095 6.55825 10.4368 6.64158 10.1186H7.98249C7.90674 10.6338 7.71924 11.0978 7.41999 11.5107C7.12454 11.9197 6.73249 12.2455 6.24386 12.4879C5.75901 12.7266 5.19462 12.8459 4.55068 12.8459Z" fill="black"/>
<path d="M11.2836 7.41406V12.6641H9.94272V1.0277H11.2836V5.30043H11.3973C11.6018 4.84967 11.9086 4.49171 12.3177 4.22656C12.7306 3.95762 13.2798 3.82315 13.9654 3.82315C14.5601 3.82315 15.081 3.94247 15.5279 4.18111C15.9749 4.41596 16.3215 4.7777 16.5677 5.26634C16.8177 5.75118 16.9427 6.36861 16.9427 7.11861V12.6641H15.6018V7.20952C15.6018 6.51633 15.4219 5.98035 15.062 5.60156C14.706 5.21899 14.2117 5.0277 13.5791 5.0277C13.1397 5.0277 12.7458 5.1205 12.3973 5.30611C12.0526 5.49171 11.7798 5.76255 11.5791 6.11861C11.3821 6.47467 11.2836 6.90649 11.2836 7.41406Z" fill="black"/>
<path d="M19.3958 12.6641V3.93679H20.7368V12.6641H19.3958ZM20.0777 2.48224C19.8163 2.48224 19.5909 2.39323 19.4015 2.2152C19.2159 2.03717 19.1231 1.82315 19.1231 1.57315C19.1231 1.32315 19.2159 1.10914 19.4015 0.931108C19.5909 0.753078 19.8163 0.664062 20.0777 0.664062C20.339 0.664062 20.5625 0.753078 20.7481 0.931108C20.9375 1.10914 21.0322 1.32315 21.0322 1.57315C21.0322 1.82315 20.9375 2.03717 20.7481 2.2152C20.5625 2.39323 20.339 2.48224 20.0777 2.48224Z" fill="black"/>
<path d="M26.7382 12.8459C25.92 12.8459 25.2155 12.6527 24.6245 12.2663C24.0336 11.88 23.5791 11.3478 23.2609 10.6697C22.9427 9.99171 22.7836 9.21709 22.7836 8.34588C22.7836 7.45952 22.9465 6.67732 23.2723 5.99929C23.6018 5.31747 24.0601 4.78527 24.6473 4.4027C25.2382 4.01634 25.9276 3.82315 26.7154 3.82315C27.3291 3.82315 27.8821 3.93679 28.3745 4.16406C28.867 4.39134 29.2704 4.70952 29.5848 5.11861C29.8992 5.5277 30.0942 6.00497 30.17 6.55043H28.8291C28.7268 6.1527 28.4995 5.80043 28.1473 5.49361C27.7988 5.183 27.3291 5.0277 26.7382 5.0277C26.2154 5.0277 25.7571 5.16406 25.3632 5.43679C24.973 5.70573 24.6681 6.08641 24.4484 6.57883C24.2325 7.06747 24.1245 7.64134 24.1245 8.30043C24.1245 8.97467 24.2306 9.56179 24.4427 10.0618C24.6586 10.5618 24.9617 10.95 25.3518 11.2266C25.7458 11.5031 26.2079 11.6413 26.7382 11.6413C27.0867 11.6413 27.403 11.5807 27.687 11.4595C27.9711 11.3383 28.2117 11.1641 28.4086 10.9368C28.6056 10.7095 28.7458 10.4368 28.8291 10.1186H30.17C30.0942 10.6338 29.9067 11.0978 29.6075 11.5107C29.312 11.9197 28.92 12.2455 28.4314 12.4879C27.9465 12.7266 27.3821 12.8459 26.7382 12.8459Z" fill="black"/>
<path d="M33.3802 9.48224L33.3575 7.82315H33.6302L37.4484 3.93679H39.1075L35.0393 8.05043H34.9257L33.3802 9.48224ZM32.1302 12.6641V1.0277H33.4711V12.6641H32.1302ZM37.6757 12.6641L34.2666 8.34588L35.2211 7.41406L39.3802 12.6641H37.6757Z" fill="black"/>
<path d="M44.1331 12.8459C43.2922 12.8459 42.5668 12.6603 41.9569 12.2891C41.3509 11.9141 40.8831 11.3913 40.5535 10.7209C40.2278 10.0466 40.0649 9.26255 40.0649 8.36861C40.0649 7.47467 40.2278 6.68679 40.5535 6.00497C40.8831 5.31937 41.3414 4.78527 41.9285 4.4027C42.5194 4.01634 43.2088 3.82315 43.9967 3.82315C44.4512 3.82315 44.9001 3.89891 45.3433 4.05043C45.7865 4.20194 46.1899 4.44815 46.5535 4.78906C46.9172 5.12618 47.2069 5.57315 47.4228 6.12997C47.6387 6.68679 47.7467 7.3724 47.7467 8.18679V8.75497H41.0194V7.59588H46.3831C46.3831 7.10346 46.2846 6.66406 46.0876 6.2777C45.8944 5.89134 45.6179 5.58641 45.2581 5.36293C44.902 5.13944 44.4815 5.0277 43.9967 5.0277C43.4626 5.0277 43.0005 5.16027 42.6103 5.42543C42.224 5.68679 41.9266 6.0277 41.7183 6.44815C41.51 6.86861 41.4058 7.31937 41.4058 7.80043V8.57315C41.4058 9.23224 41.5194 9.79096 41.7467 10.2493C41.9778 10.7038 42.2978 11.0504 42.7069 11.2891C43.116 11.5239 43.5914 11.6413 44.1331 11.6413C44.4853 11.6413 44.8035 11.5921 45.0876 11.4936C45.3755 11.3913 45.6236 11.2398 45.8319 11.0391C46.0403 10.8345 46.2012 10.5807 46.3149 10.2777L47.6103 10.6413C47.474 11.0807 47.2448 11.4671 46.9228 11.8004C46.6009 12.13 46.2031 12.3875 45.7297 12.5732C45.2562 12.755 44.724 12.8459 44.1331 12.8459Z" fill="black"/>
<path d="M51.1274 7.41406V12.6641H49.7865V3.93679H51.0819V5.30043H51.1956C51.4001 4.85724 51.7107 4.50118 52.1274 4.23224C52.5441 3.95952 53.0819 3.82315 53.741 3.82315C54.3319 3.82315 54.849 3.94437 55.2922 4.18679C55.7353 4.42543 56.08 4.78906 56.3262 5.2777C56.5725 5.76255 56.6956 6.37618 56.6956 7.11861V12.6641H55.3547V7.20952C55.3547 6.52391 55.1766 5.98982 54.8206 5.60724C54.4645 5.22088 53.9759 5.0277 53.3547 5.0277C52.9266 5.0277 52.544 5.1205 52.2069 5.30611C51.8736 5.49171 51.6103 5.76255 51.4172 6.11861C51.224 6.47467 51.1274 6.90649 51.1274 7.41406Z" fill="black"/>
<path d="M67.3049 12.8459C66.464 12.8459 65.7386 12.6603 65.1288 12.2891C64.5227 11.9141 64.0549 11.3913 63.7254 10.7209C63.3996 10.0466 63.2368 9.26255 63.2368 8.36861C63.2368 7.47467 63.3996 6.68679 63.7254 6.00497C64.0549 5.31937 64.5133 4.78527 65.1004 4.4027C65.6913 4.01634 66.3807 3.82315 67.1686 3.82315C67.6231 3.82315 68.072 3.89891 68.5152 4.05043C68.9583 4.20194 69.3617 4.44815 69.7254 4.78906C70.089 5.12618 70.3788 5.57315 70.5947 6.12997C70.8106 6.68679 70.9186 7.3724 70.9186 8.18679V8.75497H64.1913V7.59588H69.5549C69.5549 7.10346 69.4565 6.66406 69.2595 6.2777C69.0663 5.89134 68.7898 5.58641 68.4299 5.36293C68.0739 5.13944 67.6534 5.0277 67.1686 5.0277C66.6345 5.0277 66.1724 5.16027 65.7822 5.42543C65.3959 5.68679 65.0985 6.0277 64.8902 6.44815C64.6818 6.86861 64.5777 7.31937 64.5777 7.80043V8.57315C64.5777 9.23224 64.6913 9.79096 64.9186 10.2493C65.1496 10.7038 65.4697 11.0504 65.8788 11.2891C66.2879 11.5239 66.7633 11.6413 67.3049 11.6413C67.6572 11.6413 67.9754 11.5921 68.2595 11.4936C68.5474 11.3913 68.7955 11.2398 69.0038 11.0391C69.2121 10.8345 69.3731 10.5807 69.4868 10.2777L70.7822 10.6413C70.6458 11.0807 70.4167 11.4671 70.0947 11.8004C69.7727 12.13 69.375 12.3875 68.9015 12.5732C68.428 12.755 67.8959 12.8459 67.3049 12.8459Z" fill="black"/>
<path d="M76.4811 16.1186C75.8333 16.1186 75.2765 16.0353 74.8106 15.8686C74.3447 15.7057 73.9565 15.4898 73.6458 15.2209C73.339 14.9557 73.0947 14.6716 72.9129 14.3686L73.9811 13.6186C74.1023 13.7777 74.2557 13.9595 74.4413 14.1641C74.6269 14.3724 74.8807 14.5523 75.2027 14.7038C75.5284 14.8591 75.9546 14.9368 76.4811 14.9368C77.1856 14.9368 77.7671 14.7663 78.2254 14.4254C78.6837 14.0845 78.9129 13.5504 78.9129 12.8232V11.0504H78.7993C78.7008 11.2095 78.5606 11.4065 78.3788 11.6413C78.2008 11.8724 77.9432 12.0788 77.6061 12.2607C77.2727 12.4387 76.822 12.5277 76.2538 12.5277C75.5493 12.5277 74.9167 12.361 74.3561 12.0277C73.7993 11.6944 73.358 11.2095 73.0322 10.5732C72.7102 9.93679 72.5493 9.16406 72.5493 8.25497C72.5493 7.36103 72.7065 6.58262 73.0208 5.91974C73.3352 5.25308 73.7727 4.73793 74.3333 4.37429C74.894 4.00687 75.5417 3.82315 76.2765 3.82315C76.8447 3.82315 77.2955 3.91785 77.6288 4.10724C77.9659 4.29285 78.2235 4.50497 78.4015 4.74361C78.5833 4.97846 78.7235 5.17164 78.822 5.32315H78.9583V3.93679H80.2538V12.9141C80.2538 13.6641 80.0834 14.2739 79.7424 14.7436C79.4053 15.2171 78.9508 15.5637 78.3788 15.7834C77.8106 16.0069 77.178 16.1186 76.4811 16.1186ZM76.4356 11.3232C76.9735 11.3232 77.428 11.2 77.7993 10.9538C78.1705 10.7076 78.4527 10.3535 78.6458 9.89134C78.839 9.42921 78.9356 8.87618 78.9356 8.23224C78.9356 7.60346 78.8409 7.04853 78.6515 6.56747C78.4621 6.08641 78.1818 5.70952 77.8106 5.43679C77.4394 5.16406 76.9811 5.0277 76.4356 5.0277C75.8674 5.0277 75.3939 5.17164 75.0152 5.45952C74.6402 5.7474 74.358 6.13376 74.1686 6.61861C73.983 7.10346 73.8902 7.64134 73.8902 8.23224C73.8902 8.83831 73.9849 9.37429 74.1743 9.8402C74.3674 10.3023 74.6515 10.666 75.0265 10.9311C75.4053 11.1925 75.875 11.3232 76.4356 11.3232Z" fill="black"/>
<path d="M86.2311 16.1186C85.5833 16.1186 85.0265 16.0353 84.5606 15.8686C84.0947 15.7057 83.7065 15.4898 83.3958 15.2209C83.089 14.9557 82.8447 14.6716 82.6629 14.3686L83.7311 13.6186C83.8523 13.7777 84.0057 13.9595 84.1913 14.1641C84.3769 14.3724 84.6307 14.5523 84.9527 14.7038C85.2784 14.8591 85.7046 14.9368 86.2311 14.9368C86.9356 14.9368 87.5171 14.7663 87.9754 14.4254C88.4337 14.0845 88.6629 13.5504 88.6629 12.8232V11.0504H88.5493C88.4508 11.2095 88.3106 11.4065 88.1288 11.6413C87.9508 11.8724 87.6932 12.0788 87.3561 12.2607C87.0227 12.4387 86.572 12.5277 86.0038 12.5277C85.2993 12.5277 84.6667 12.361 84.1061 12.0277C83.5493 11.6944 83.108 11.2095 82.7822 10.5732C82.4602 9.93679 82.2993 9.16406 82.2993 8.25497C82.2993 7.36103 82.4565 6.58262 82.7708 5.91974C83.0852 5.25308 83.5227 4.73793 84.0833 4.37429C84.644 4.00687 85.2917 3.82315 86.0265 3.82315C86.5947 3.82315 87.0455 3.91785 87.3788 4.10724C87.7159 4.29285 87.9735 4.50497 88.1515 4.74361C88.3333 4.97846 88.4735 5.17164 88.572 5.32315H88.7083V3.93679H90.0038V12.9141C90.0038 13.6641 89.8334 14.2739 89.4924 14.7436C89.1553 15.2171 88.7008 15.5637 88.1288 15.7834C87.5606 16.0069 86.928 16.1186 86.2311 16.1186ZM86.1856 11.3232C86.7235 11.3232 87.178 11.2 87.5493 10.9538C87.9205 10.7076 88.2027 10.3535 88.3958 9.89134C88.589 9.42921 88.6856 8.87618 88.6856 8.23224C88.6856 7.60346 88.5909 7.04853 88.4015 6.56747C88.2121 6.08641 87.9318 5.70952 87.5606 5.43679C87.1894 5.16406 86.7311 5.0277 86.1856 5.0277C85.6174 5.0277 85.1439 5.17164 84.7652 5.45952C84.3902 5.7474 84.108 6.13376 83.9186 6.61861C83.733 7.10346 83.6402 7.64134 83.6402 8.23224C83.6402 8.83831 83.7349 9.37429 83.9243 9.8402C84.1174 10.3023 84.4015 10.666 84.7765 10.9311C85.1553 11.1925 85.625 11.3232 86.1856 11.3232Z" fill="black"/>
<path d="M33.0024 31.9197C32.0251 31.916 31.1842 31.6754 30.4797 31.1982C29.7789 30.7209 29.2391 30.0296 28.8603 29.1243C28.4853 28.219 28.2997 27.13 28.3035 25.8572C28.3035 24.5883 28.491 23.5069 28.866 22.6129C29.2448 21.719 29.7846 21.0391 30.4853 20.5732C31.1899 20.1035 32.0289 19.8686 33.0024 19.8686C33.9759 19.8686 34.813 20.1035 35.5137 20.5732C36.2183 21.0429 36.76 21.7247 37.1387 22.6186C37.5175 23.5088 37.705 24.5883 37.7012 25.8572C37.7012 27.1338 37.5119 28.2247 37.1331 29.13C36.7581 30.0353 36.2202 30.7266 35.5194 31.2038C34.8187 31.6811 33.9797 31.9197 33.0024 31.9197ZM33.0024 29.88C33.6691 29.88 34.2012 29.5447 34.599 28.8743C34.9967 28.2038 35.1937 27.1982 35.1899 25.8572C35.1899 24.9747 35.099 24.2398 34.9172 23.6527C34.7391 23.0656 34.4853 22.6243 34.1558 22.3288C33.83 22.0334 33.4456 21.8857 33.0024 21.8857C32.3395 21.8857 31.8092 22.2171 31.4115 22.88C31.0137 23.5428 30.813 24.5353 30.8092 25.8572C30.8092 26.7512 30.8982 27.4974 31.0762 28.0959C31.2581 28.6906 31.5137 29.1375 31.8433 29.4368C32.1728 29.7322 32.5592 29.88 33.0024 29.88Z" fill="black"/>
<path d="M40.4243 31.8118C40.0493 31.8118 39.7273 31.6792 39.4583 31.4141C39.1932 31.1451 39.0606 30.8232 39.0606 30.4482C39.0606 30.0769 39.1932 29.7588 39.4583 29.4936C39.7273 29.2285 40.0493 29.0959 40.4243 29.0959C40.7879 29.0959 41.1061 29.2285 41.3788 29.4936C41.6515 29.7588 41.7879 30.0769 41.7879 30.4482C41.7879 30.6982 41.7235 30.9273 41.5947 31.1357C41.4697 31.3402 41.3049 31.505 41.1004 31.63C40.8959 31.7512 40.6705 31.8118 40.4243 31.8118Z" fill="black"/>
<path d="M47.9086 31.8232C47.1056 31.8232 46.3897 31.6754 45.7609 31.38C45.1359 31.0845 44.6397 30.6773 44.2723 30.1584C43.9048 29.6394 43.7136 29.0447 43.6984 28.3743H46.0848C46.1113 28.825 46.3007 29.1906 46.653 29.4709C47.0052 29.7512 47.4238 29.8913 47.9086 29.8913C48.295 29.8913 48.6359 29.8061 48.9314 29.6357C49.2306 29.4614 49.4636 29.2209 49.6302 28.9141C49.8007 28.6035 49.8859 28.2474 49.8859 27.8459C49.8859 27.4368 49.7988 27.0769 49.6245 26.7663C49.4541 26.4557 49.2173 26.2133 48.9143 26.0391C48.6113 25.8648 48.2647 25.7758 47.8745 25.772C47.5336 25.772 47.2022 25.8421 46.8802 25.9822C46.562 26.1224 46.3139 26.3137 46.1359 26.5561L43.9484 26.1641L44.4995 20.0277H51.6132V22.0391H46.528L46.2268 24.9538H46.295C46.4995 24.666 46.8083 24.4273 47.2211 24.2379C47.634 24.0485 48.0961 23.9538 48.6075 23.9538C49.3083 23.9538 49.9333 24.1186 50.4825 24.4482C51.0317 24.7777 51.4655 25.2304 51.7836 25.8061C52.1018 26.3781 52.259 27.0372 52.2552 27.7834C52.259 28.5675 52.0772 29.2644 51.7098 29.8743C51.3461 30.4804 50.8367 30.9576 50.1814 31.3061C49.5298 31.6508 48.7723 31.8232 47.9086 31.8232Z" fill="black"/>
<path d="M57.8802 33.1186V18.5732H58.812V33.1186H57.8802ZM60.3518 23.3743C60.3064 22.916 60.1113 22.5599 59.7666 22.3061C59.4219 22.0523 58.9541 21.9254 58.3632 21.9254C57.9617 21.9254 57.6227 21.9822 57.3461 22.0959C57.0696 22.2057 56.8575 22.3591 56.7098 22.5561C56.5658 22.7531 56.4939 22.9766 56.4939 23.2266C56.4863 23.4349 56.5298 23.6167 56.6245 23.772C56.723 23.9273 56.8575 24.0618 57.028 24.1754C57.1984 24.2853 57.3954 24.3819 57.6189 24.4652C57.8423 24.5447 58.081 24.6129 58.3348 24.6697L59.3802 24.9197C59.8878 25.0334 60.3537 25.1849 60.778 25.3743C61.2022 25.5637 61.5696 25.7966 61.8802 26.0732C62.1908 26.3497 62.4314 26.6754 62.6018 27.0504C62.7761 27.4254 62.8651 27.8554 62.8689 28.3402C62.8651 29.0523 62.6833 29.6697 62.3234 30.1925C61.9673 30.7114 61.4522 31.1148 60.778 31.4027C60.1075 31.6868 59.2988 31.8288 58.3518 31.8288C57.4124 31.8288 56.5942 31.6849 55.8973 31.397C55.2041 31.1091 54.6624 30.683 54.2723 30.1186C53.8859 29.5504 53.6833 28.8478 53.6643 28.0107H56.045C56.0715 28.4008 56.1833 28.7266 56.3802 28.9879C56.581 29.2455 56.848 29.4406 57.1814 29.5732C57.5185 29.7019 57.8992 29.7663 58.3234 29.7663C58.7401 29.7663 59.1018 29.7057 59.4086 29.5845C59.7192 29.4633 59.9598 29.2947 60.1302 29.0788C60.3007 28.8629 60.3859 28.6148 60.3859 28.3345C60.3859 28.0732 60.3083 27.8535 60.153 27.6754C60.0014 27.4974 59.778 27.3459 59.4825 27.2209C59.1908 27.0959 58.8329 26.9822 58.4086 26.88L57.1416 26.5618C56.1605 26.3232 55.3859 25.95 54.8177 25.4425C54.2495 24.9349 53.9673 24.2512 53.9711 23.3913C53.9673 22.6868 54.1548 22.0713 54.5336 21.5447C54.9162 21.0182 55.4408 20.6072 56.1075 20.3118C56.7742 20.0163 57.5317 19.8686 58.3802 19.8686C59.2439 19.8686 59.9976 20.0163 60.6416 20.3118C61.2893 20.6072 61.7931 21.0182 62.153 21.5447C62.5128 22.0713 62.6984 22.6811 62.7098 23.3743H60.3518Z" fill="black"/>
</svg>
