<svg width="90" height="34" viewBox="0 0 90 34" fill="none" xmlns="http://www.w3.org/2000/svg">
<path d="M4.15071 12.8459C3.33253 12.8459 2.62799 12.6527 2.03708 12.2663C1.44617 11.88 0.991622 11.3478 0.67344 10.6697C0.355258 9.99171 0.196167 9.21709 0.196167 8.34588C0.196167 7.45952 0.359046 6.67732 0.684803 5.99929C1.01435 5.31747 1.47268 4.78527 2.0598 4.4027C2.65071 4.01634 3.34011 3.82315 4.12799 3.82315C4.74162 3.82315 5.29465 3.93679 5.78708 4.16406C6.2795 4.39134 6.68291 4.70952 6.9973 5.11861C7.3117 5.5277 7.50677 6.00497 7.58253 6.55043H6.24162C6.13935 6.1527 5.91208 5.80043 5.5598 5.49361C5.21132 5.183 4.74162 5.0277 4.15071 5.0277C3.62799 5.0277 3.16965 5.16406 2.77571 5.43679C2.38556 5.70573 2.08064 6.08641 1.86094 6.57883C1.64503 7.06747 1.53708 7.64134 1.53708 8.30043C1.53708 8.97467 1.64314 9.56179 1.85526 10.0618C2.07117 10.5618 2.3742 10.95 2.76435 11.2266C3.15829 11.5031 3.62041 11.6413 4.15071 11.6413C4.4992 11.6413 4.81549 11.5807 5.09958 11.4595C5.38367 11.3383 5.6242 11.1641 5.82117 10.9368C6.01814 10.7095 6.15829 10.4368 6.24162 10.1186H7.58253C7.50677 10.6338 7.31927 11.0978 7.02003 11.5107C6.72458 11.9197 6.33253 12.2455 5.84389 12.4879C5.35905 12.7266 4.79465 12.8459 4.15071 12.8459Z" fill="black"/>
<path d="M10.8837 7.41406V12.6641H9.54276V1.0277H10.8837V5.30043H10.9973C11.2018 4.84967 11.5087 4.49171 11.9178 4.22656C12.3306 3.95762 12.8799 3.82315 13.5655 3.82315C14.1602 3.82315 14.681 3.94247 15.128 4.18111C15.575 4.41596 15.9215 4.7777 16.1678 5.26634C16.4178 5.75118 16.5428 6.36861 16.5428 7.11861V12.6641H15.2018V7.20952C15.2018 6.51633 15.0219 5.98035 14.6621 5.60156C14.306 5.21899 13.8117 5.0277 13.1791 5.0277C12.7397 5.0277 12.3458 5.1205 11.9973 5.30611C11.6526 5.49171 11.3799 5.76255 11.1791 6.11861C10.9822 6.47467 10.8837 6.90649 10.8837 7.41406Z" fill="black"/>
<path d="M18.9959 12.6641V3.93679H20.3368V12.6641H18.9959ZM19.6777 2.48224C19.4163 2.48224 19.191 2.39323 19.0016 2.2152C18.816 2.03717 18.7232 1.82315 18.7232 1.57315C18.7232 1.32315 18.816 1.10914 19.0016 0.931108C19.191 0.753078 19.4163 0.664062 19.6777 0.664062C19.9391 0.664062 20.1625 0.753078 20.3482 0.931108C20.5375 1.10914 20.6322 1.32315 20.6322 1.57315C20.6322 1.82315 20.5375 2.03717 20.3482 2.2152C20.1625 2.39323 19.9391 2.48224 19.6777 2.48224Z" fill="black"/>
<path d="M26.3382 12.8459C25.52 12.8459 24.8155 12.6527 24.2246 12.2663C23.6337 11.88 23.1791 11.3478 22.8609 10.6697C22.5428 9.99171 22.3837 9.21709 22.3837 8.34588C22.3837 7.45952 22.5465 6.67732 22.8723 5.99929C23.2018 5.31747 23.6602 4.78527 24.2473 4.4027C24.8382 4.01634 25.5276 3.82315 26.3155 3.82315C26.9291 3.82315 27.4822 3.93679 27.9746 4.16406C28.467 4.39134 28.8704 4.70952 29.1848 5.11861C29.4992 5.5277 29.6943 6.00497 29.77 6.55043H28.4291C28.3268 6.1527 28.0996 5.80043 27.7473 5.49361C27.3988 5.183 26.9291 5.0277 26.3382 5.0277C25.8155 5.0277 25.3572 5.16406 24.9632 5.43679C24.5731 5.70573 24.2681 6.08641 24.0484 6.57883C23.8325 7.06747 23.7246 7.64134 23.7246 8.30043C23.7246 8.97467 23.8306 9.56179 24.0428 10.0618C24.2587 10.5618 24.5617 10.95 24.9518 11.2266C25.3458 11.5031 25.8079 11.6413 26.3382 11.6413C26.6867 11.6413 27.003 11.5807 27.2871 11.4595C27.5712 11.3383 27.8117 11.1641 28.0087 10.9368C28.2056 10.7095 28.3458 10.4368 28.4291 10.1186H29.77C29.6943 10.6338 29.5068 11.0978 29.2075 11.5107C28.9121 11.9197 28.52 12.2455 28.0314 12.4879C27.5465 12.7266 26.9822 12.8459 26.3382 12.8459Z" fill="black"/>
<path d="M32.9803 9.48224L32.9575 7.82315H33.2303L37.0484 3.93679H38.7075L34.6394 8.05043H34.5257L32.9803 9.48224ZM31.7303 12.6641V1.0277H33.0712V12.6641H31.7303ZM37.2757 12.6641L33.8666 8.34588L34.8212 7.41406L38.9803 12.6641H37.2757Z" fill="black"/>
<path d="M43.7331 12.8459C42.8922 12.8459 42.1668 12.6603 41.557 12.2891C40.9509 11.9141 40.4831 11.3913 40.1536 10.7209C39.8278 10.0466 39.6649 9.26255 39.6649 8.36861C39.6649 7.47467 39.8278 6.68679 40.1536 6.00497C40.4831 5.31937 40.9414 4.78527 41.5286 4.4027C42.1195 4.01634 42.8089 3.82315 43.5967 3.82315C44.0513 3.82315 44.5001 3.89891 44.9433 4.05043C45.3865 4.20194 45.7899 4.44815 46.1536 4.78906C46.5172 5.12618 46.807 5.57315 47.0229 6.12997C47.2388 6.68679 47.3467 7.3724 47.3467 8.18679V8.75497H40.6195V7.59588H45.9831C45.9831 7.10346 45.8846 6.66406 45.6876 6.2777C45.4945 5.89134 45.2179 5.58641 44.8581 5.36293C44.502 5.13944 44.0816 5.0277 43.5967 5.0277C43.0626 5.0277 42.6005 5.16027 42.2104 5.42543C41.824 5.68679 41.5267 6.0277 41.3183 6.44815C41.11 6.86861 41.0058 7.31937 41.0058 7.80043V8.57315C41.0058 9.23224 41.1195 9.79096 41.3467 10.2493C41.5778 10.7038 41.8979 11.0504 42.307 11.2891C42.7161 11.5239 43.1914 11.6413 43.7331 11.6413C44.0854 11.6413 44.4036 11.5921 44.6876 11.4936C44.9755 11.3913 45.2236 11.2398 45.432 11.0391C45.6403 10.8345 45.8013 10.5807 45.9149 10.2777L47.2104 10.6413C47.074 11.0807 46.8448 11.4671 46.5229 11.8004C46.2009 12.13 45.8032 12.3875 45.3297 12.5732C44.8562 12.755 44.324 12.8459 43.7331 12.8459Z" fill="black"/>
<path d="M50.7274 7.41406V12.6641H49.3865V3.93679H50.682V5.30043H50.7956C51.0001 4.85724 51.3108 4.50118 51.7274 4.23224C52.1441 3.95952 52.682 3.82315 53.3411 3.82315C53.932 3.82315 54.449 3.94437 54.8922 4.18679C55.3354 4.42543 55.6801 4.78906 55.9263 5.2777C56.1725 5.76255 56.2956 6.37618 56.2956 7.11861V12.6641H54.9547V7.20952C54.9547 6.52391 54.7767 5.98982 54.4206 5.60724C54.0645 5.22088 53.5759 5.0277 52.9547 5.0277C52.5267 5.0277 52.1441 5.1205 51.807 5.30611C51.4736 5.49171 51.2104 5.76255 51.0172 6.11861C50.824 6.47467 50.7274 6.90649 50.7274 7.41406Z" fill="black"/>
<path d="M66.905 12.8459C66.0641 12.8459 65.3387 12.6603 64.7288 12.2891C64.1228 11.9141 63.655 11.3913 63.3254 10.7209C62.9997 10.0466 62.8368 9.26255 62.8368 8.36861C62.8368 7.47467 62.9997 6.68679 63.3254 6.00497C63.655 5.31937 64.1133 4.78527 64.7004 4.4027C65.2913 4.01634 65.9807 3.82315 66.7686 3.82315C67.2232 3.82315 67.672 3.89891 68.1152 4.05043C68.5584 4.20194 68.9618 4.44815 69.3254 4.78906C69.6891 5.12618 69.9788 5.57315 70.1947 6.12997C70.4107 6.68679 70.5186 7.3724 70.5186 8.18679V8.75497H63.7913V7.59588H69.155C69.155 7.10346 69.0565 6.66406 68.8595 6.2777C68.6663 5.89134 68.3898 5.58641 68.03 5.36293C67.6739 5.13944 67.2535 5.0277 66.7686 5.0277C66.2345 5.0277 65.7724 5.16027 65.3822 5.42543C64.9959 5.68679 64.6985 6.0277 64.4902 6.44815C64.2819 6.86861 64.1777 7.31937 64.1777 7.80043V8.57315C64.1777 9.23224 64.2913 9.79096 64.5186 10.2493C64.7497 10.7038 65.0697 11.0504 65.4788 11.2891C65.8879 11.5239 66.3633 11.6413 66.905 11.6413C67.2572 11.6413 67.5754 11.5921 67.8595 11.4936C68.1474 11.3913 68.3955 11.2398 68.6038 11.0391C68.8122 10.8345 68.9732 10.5807 69.0868 10.2777L70.3822 10.6413C70.2459 11.0807 70.0167 11.4671 69.6947 11.8004C69.3728 12.13 68.9751 12.3875 68.5016 12.5732C68.0281 12.755 67.4959 12.8459 66.905 12.8459Z" fill="black"/>
<path d="M76.0811 16.1186C75.4334 16.1186 74.8766 16.0353 74.4107 15.8686C73.9447 15.7057 73.5565 15.4898 73.2459 15.2209C72.9391 14.9557 72.6947 14.6716 72.5129 14.3686L73.5811 13.6186C73.7023 13.7777 73.8557 13.9595 74.0413 14.1641C74.2269 14.3724 74.4807 14.5523 74.8027 14.7038C75.1285 14.8591 75.5546 14.9368 76.0811 14.9368C76.7857 14.9368 77.3671 14.7663 77.8254 14.4254C78.2838 14.0845 78.5129 13.5504 78.5129 12.8232V11.0504H78.3993C78.3008 11.2095 78.1607 11.4065 77.9788 11.6413C77.8008 11.8724 77.5432 12.0788 77.2061 12.2607C76.8728 12.4387 76.422 12.5277 75.8538 12.5277C75.1493 12.5277 74.5167 12.361 73.9561 12.0277C73.3993 11.6944 72.958 11.2095 72.6322 10.5732C72.3103 9.93679 72.1493 9.16406 72.1493 8.25497C72.1493 7.36103 72.3065 6.58262 72.6209 5.91974C72.9353 5.25308 73.3728 4.73793 73.9334 4.37429C74.494 4.00687 75.1417 3.82315 75.8766 3.82315C76.4447 3.82315 76.8955 3.91785 77.2288 4.10724C77.566 4.29285 77.8235 4.50497 78.0016 4.74361C78.1834 4.97846 78.3235 5.17164 78.422 5.32315H78.5584V3.93679H79.8538V12.9141C79.8538 13.6641 79.6834 14.2739 79.3425 14.7436C79.0054 15.2171 78.5508 15.5637 77.9788 15.7834C77.4107 16.0069 76.7781 16.1186 76.0811 16.1186ZM76.0357 11.3232C76.5735 11.3232 77.0281 11.2 77.3993 10.9538C77.7705 10.7076 78.0527 10.3535 78.2459 9.89134C78.4391 9.42921 78.5357 8.87618 78.5357 8.23224C78.5357 7.60346 78.441 7.04853 78.2516 6.56747C78.0622 6.08641 77.7819 5.70952 77.4107 5.43679C77.0394 5.16406 76.5811 5.0277 76.0357 5.0277C75.4675 5.0277 74.994 5.17164 74.6152 5.45952C74.2402 5.7474 73.958 6.13376 73.7686 6.61861C73.583 7.10346 73.4902 7.64134 73.4902 8.23224C73.4902 8.83831 73.5849 9.37429 73.7743 9.8402C73.9675 10.3023 74.2516 10.666 74.6266 10.9311C75.0053 11.1925 75.475 11.3232 76.0357 11.3232Z" fill="black"/>
<path d="M85.8311 16.1186C85.1834 16.1186 84.6266 16.0353 84.1607 15.8686C83.6947 15.7057 83.3065 15.4898 82.9959 15.2209C82.6891 14.9557 82.4447 14.6716 82.2629 14.3686L83.3311 13.6186C83.4523 13.7777 83.6057 13.9595 83.7913 14.1641C83.9769 14.3724 84.2307 14.5523 84.5527 14.7038C84.8785 14.8591 85.3046 14.9368 85.8311 14.9368C86.5357 14.9368 87.1171 14.7663 87.5754 14.4254C88.0338 14.0845 88.2629 13.5504 88.2629 12.8232V11.0504H88.1493C88.0508 11.2095 87.9107 11.4065 87.7288 11.6413C87.5508 11.8724 87.2932 12.0788 86.9561 12.2607C86.6228 12.4387 86.172 12.5277 85.6038 12.5277C84.8993 12.5277 84.2667 12.361 83.7061 12.0277C83.1493 11.6944 82.708 11.2095 82.3822 10.5732C82.0603 9.93679 81.8993 9.16406 81.8993 8.25497C81.8993 7.36103 82.0565 6.58262 82.3709 5.91974C82.6853 5.25308 83.1228 4.73793 83.6834 4.37429C84.244 4.00687 84.8917 3.82315 85.6266 3.82315C86.1947 3.82315 86.6455 3.91785 86.9788 4.10724C87.316 4.29285 87.5735 4.50497 87.7516 4.74361C87.9334 4.97846 88.0735 5.17164 88.172 5.32315H88.3084V3.93679H89.6038V12.9141C89.6038 13.6641 89.4334 14.2739 89.0925 14.7436C88.7554 15.2171 88.3008 15.5637 87.7288 15.7834C87.1607 16.0069 86.5281 16.1186 85.8311 16.1186ZM85.7857 11.3232C86.3235 11.3232 86.7781 11.2 87.1493 10.9538C87.5205 10.7076 87.8027 10.3535 87.9959 9.89134C88.1891 9.42921 88.2857 8.87618 88.2857 8.23224C88.2857 7.60346 88.191 7.04853 88.0016 6.56747C87.8122 6.08641 87.5319 5.70952 87.1607 5.43679C86.7894 5.16406 86.3311 5.0277 85.7857 5.0277C85.2175 5.0277 84.744 5.17164 84.3652 5.45952C83.9902 5.7474 83.708 6.13376 83.5186 6.61861C83.333 7.10346 83.2402 7.64134 83.2402 8.23224C83.2402 8.83831 83.3349 9.37429 83.5243 9.8402C83.7175 10.3023 84.0016 10.666 84.3766 10.9311C84.7553 11.1925 85.225 11.3232 85.7857 11.3232Z" fill="black"/>
<path d="M32.6024 31.9197C31.6251 31.916 30.7842 31.6754 30.0797 31.1982C29.3789 30.7209 28.8392 30.0296 28.4604 29.1243C28.0854 28.219 27.8998 27.13 27.9036 25.8572C27.9036 24.5883 28.0911 23.5069 28.4661 22.6129C28.8448 21.719 29.3846 21.0391 30.0854 20.5732C30.7899 20.1035 31.6289 19.8686 32.6024 19.8686C33.5759 19.8686 34.413 20.1035 35.1138 20.5732C35.8183 21.0429 36.36 21.7247 36.7388 22.6186C37.1176 23.5088 37.3051 24.5883 37.3013 25.8572C37.3013 27.1338 37.1119 28.2247 36.7331 29.13C36.3581 30.0353 35.8202 30.7266 35.1195 31.2038C34.4187 31.6811 33.5797 31.9197 32.6024 31.9197ZM32.6024 29.88C33.2691 29.88 33.8013 29.5447 34.199 28.8743C34.5967 28.2038 34.7937 27.1982 34.7899 25.8572C34.7899 24.9747 34.699 24.2398 34.5172 23.6527C34.3392 23.0656 34.0854 22.6243 33.7558 22.3288C33.4301 22.0334 33.0456 21.8857 32.6024 21.8857C31.9395 21.8857 31.4092 22.2171 31.0115 22.88C30.6138 23.5428 30.413 24.5353 30.4092 25.8572C30.4092 26.7512 30.4983 27.4974 30.6763 28.0959C30.8581 28.6906 31.1138 29.1375 31.4433 29.4368C31.7729 29.7322 32.1592 29.88 32.6024 29.88Z" fill="black"/>
<path d="M40.0243 31.8118C39.6493 31.8118 39.3273 31.6792 39.0584 31.4141C38.7932 31.1451 38.6607 30.8232 38.6607 30.4482C38.6607 30.0769 38.7932 29.7588 39.0584 29.4936C39.3273 29.2285 39.6493 29.0959 40.0243 29.0959C40.3879 29.0959 40.7061 29.2285 40.9788 29.4936C41.2516 29.7588 41.3879 30.0769 41.3879 30.4482C41.3879 30.6982 41.3235 30.9273 41.1947 31.1357C41.0697 31.3402 40.905 31.505 40.7004 31.63C40.4959 31.7512 40.2705 31.8118 40.0243 31.8118Z" fill="black"/>
<path d="M47.5087 31.8232C46.7056 31.8232 45.9897 31.6754 45.3609 31.38C44.7359 31.0845 44.2397 30.6773 43.8723 30.1584C43.5049 29.6394 43.3136 29.0447 43.2984 28.3743H45.6848C45.7113 28.825 45.9007 29.1906 46.253 29.4709C46.6053 29.7512 47.0238 29.8913 47.5087 29.8913C47.895 29.8913 48.2359 29.8061 48.5314 29.6357C48.8306 29.4614 49.0636 29.2209 49.2303 28.9141C49.4007 28.6035 49.4859 28.2474 49.4859 27.8459C49.4859 27.4368 49.3988 27.0769 49.2246 26.7663C49.0541 26.4557 48.8174 26.2133 48.5144 26.0391C48.2113 25.8648 47.8647 25.7758 47.4746 25.772C47.1337 25.772 46.8022 25.8421 46.4803 25.9822C46.1621 26.1224 45.914 26.3137 45.7359 26.5561L43.5484 26.1641L44.0996 20.0277H51.2132V22.0391H46.128L45.8269 24.9538H45.895C46.0996 24.666 46.4083 24.4273 46.8212 24.2379C47.2341 24.0485 47.6962 23.9538 48.2075 23.9538C48.9083 23.9538 49.5333 24.1186 50.0825 24.4482C50.6318 24.7777 51.0655 25.2304 51.3837 25.8061C51.7019 26.3781 51.859 27.0372 51.8553 27.7834C51.859 28.5675 51.6772 29.2644 51.3098 29.8743C50.9462 30.4804 50.4367 30.9576 49.7814 31.3061C49.1299 31.6508 48.3723 31.8232 47.5087 31.8232Z" fill="black"/>
<path d="M57.4803 33.1186V18.5732H58.4121V33.1186H57.4803ZM59.9519 23.3743C59.9064 22.916 59.7113 22.5599 59.3666 22.3061C59.0219 22.0523 58.5541 21.9254 57.9632 21.9254C57.5617 21.9254 57.2227 21.9822 56.9462 22.0959C56.6697 22.2057 56.4575 22.3591 56.3098 22.5561C56.1659 22.7531 56.0939 22.9766 56.0939 23.2266C56.0863 23.4349 56.1299 23.6167 56.2246 23.772C56.3231 23.9273 56.4575 24.0618 56.628 24.1754C56.7984 24.2853 56.9954 24.3819 57.2189 24.4652C57.4424 24.5447 57.681 24.6129 57.9348 24.6697L58.9803 24.9197C59.4878 25.0334 59.9537 25.1849 60.378 25.3743C60.8022 25.5637 61.1697 25.7966 61.4803 26.0732C61.7909 26.3497 62.0314 26.6754 62.2019 27.0504C62.3761 27.4254 62.4651 27.8554 62.4689 28.3402C62.4651 29.0523 62.2833 29.6697 61.9234 30.1925C61.5674 30.7114 61.0522 31.1148 60.378 31.4027C59.7075 31.6868 58.8988 31.8288 57.9519 31.8288C57.0125 31.8288 56.1943 31.6849 55.4973 31.397C54.8041 31.1091 54.2625 30.683 53.8723 30.1186C53.4859 29.5504 53.2833 28.8478 53.2644 28.0107H55.645C55.6715 28.4008 55.7833 28.7266 55.9803 28.9879C56.181 29.2455 56.4481 29.4406 56.7814 29.5732C57.1185 29.7019 57.4992 29.7663 57.9234 29.7663C58.3401 29.7663 58.7019 29.7057 59.0087 29.5845C59.3193 29.4633 59.5598 29.2947 59.7303 29.0788C59.9007 28.8629 59.9859 28.6148 59.9859 28.3345C59.9859 28.0732 59.9083 27.8535 59.753 27.6754C59.6015 27.4974 59.378 27.3459 59.0825 27.2209C58.7909 27.0959 58.4329 26.9822 58.0087 26.88L56.7416 26.5618C55.7606 26.3232 54.9859 25.95 54.4178 25.4425C53.8496 24.9349 53.5674 24.2512 53.5712 23.3913C53.5674 22.6868 53.7549 22.0713 54.1337 21.5447C54.5162 21.0182 55.0409 20.6072 55.7075 20.3118C56.3742 20.0163 57.1318 19.8686 57.9803 19.8686C58.8439 19.8686 59.5977 20.0163 60.2416 20.3118C60.8894 20.6072 61.3931 21.0182 61.753 21.5447C62.1128 22.0713 62.2984 22.6811 62.3098 23.3743H59.9519Z" fill="black"/>
</svg>
