<svg width="91" height="34" viewBox="0 0 91 34" fill="none" xmlns="http://www.w3.org/2000/svg">
<path d="M4.75069 12.8459C3.93251 12.8459 3.22796 12.6527 2.63705 12.2663C2.04614 11.88 1.5916 11.3478 1.27342 10.6697C0.955233 9.99171 0.796143 9.21709 0.796143 8.34588C0.796143 7.45952 0.959021 6.67732 1.28478 5.99929C1.61432 5.31747 2.07266 4.78527 2.65978 4.4027C3.25069 4.01634 3.94008 3.82315 4.72796 3.82315C5.3416 3.82315 5.89463 3.93679 6.38705 4.16406C6.87948 4.39134 7.28289 4.70952 7.59728 5.11861C7.91167 5.5277 8.10675 6.00497 8.18251 6.55043H6.8416C6.73932 6.1527 6.51205 5.80043 6.15978 5.49361C5.81129 5.183 5.3416 5.0277 4.75069 5.0277C4.22796 5.0277 3.76963 5.16406 3.37569 5.43679C2.98554 5.70573 2.68061 6.08641 2.46092 6.57883C2.24501 7.06747 2.13705 7.64134 2.13705 8.30043C2.13705 8.97467 2.24311 9.56179 2.45523 10.0618C2.67114 10.5618 2.97417 10.95 3.36432 11.2266C3.75826 11.5031 4.22038 11.6413 4.75069 11.6413C5.09917 11.6413 5.41546 11.5807 5.69955 11.4595C5.98364 11.3383 6.22417 11.1641 6.42114 10.9368C6.61811 10.7095 6.75826 10.4368 6.8416 10.1186H8.18251C8.10675 10.6338 7.91925 11.0978 7.62001 11.5107C7.32455 11.9197 6.93251 12.2455 6.44387 12.4879C5.95902 12.7266 5.39463 12.8459 4.75069 12.8459Z" fill="black"/>
<path d="M11.4836 7.41406V12.6641H10.1427V1.0277H11.4836V5.30043H11.5973C11.8018 4.84967 12.1086 4.49171 12.5177 4.22656C12.9306 3.95762 13.4799 3.82315 14.1655 3.82315C14.7602 3.82315 15.281 3.94247 15.728 4.18111C16.1749 4.41596 16.5215 4.7777 16.7677 5.26634C17.0177 5.75118 17.1427 6.36861 17.1427 7.11861V12.6641H15.8018V7.20952C15.8018 6.51633 15.6219 5.98035 15.2621 5.60156C14.906 5.21899 14.4117 5.0277 13.7791 5.0277C13.3397 5.0277 12.9458 5.1205 12.5973 5.30611C12.2526 5.49171 11.9799 5.76255 11.7791 6.11861C11.5821 6.47467 11.4836 6.90649 11.4836 7.41406Z" fill="black"/>
<path d="M19.5959 12.6641V3.93679H20.9368V12.6641H19.5959ZM20.2777 2.48224C20.0163 2.48224 19.7909 2.39323 19.6015 2.2152C19.4159 2.03717 19.3231 1.82315 19.3231 1.57315C19.3231 1.32315 19.4159 1.10914 19.6015 0.931108C19.7909 0.753078 20.0163 0.664062 20.2777 0.664062C20.539 0.664062 20.7625 0.753078 20.9481 0.931108C21.1375 1.10914 21.2322 1.32315 21.2322 1.57315C21.2322 1.82315 21.1375 2.03717 20.9481 2.2152C20.7625 2.39323 20.539 2.48224 20.2777 2.48224Z" fill="black"/>
<path d="M26.9382 12.8459C26.12 12.8459 25.4155 12.6527 24.8246 12.2663C24.2336 11.88 23.7791 11.3478 23.4609 10.6697C23.1427 9.99171 22.9836 9.21709 22.9836 8.34588C22.9836 7.45952 23.1465 6.67732 23.4723 5.99929C23.8018 5.31747 24.2602 4.78527 24.8473 4.4027C25.4382 4.01634 26.1276 3.82315 26.9155 3.82315C27.5291 3.82315 28.0821 3.93679 28.5746 4.16406C29.067 4.39134 29.4704 4.70952 29.7848 5.11861C30.0992 5.5277 30.2942 6.00497 30.37 6.55043H29.0291C28.9268 6.1527 28.6996 5.80043 28.3473 5.49361C27.9988 5.183 27.5291 5.0277 26.9382 5.0277C26.4155 5.0277 25.9571 5.16406 25.5632 5.43679C25.173 5.70573 24.8681 6.08641 24.6484 6.57883C24.4325 7.06747 24.3246 7.64134 24.3246 8.30043C24.3246 8.97467 24.4306 9.56179 24.6427 10.0618C24.8586 10.5618 25.1617 10.95 25.5518 11.2266C25.9458 11.5031 26.4079 11.6413 26.9382 11.6413C27.2867 11.6413 27.603 11.5807 27.8871 11.4595C28.1711 11.3383 28.4117 11.1641 28.6086 10.9368C28.8056 10.7095 28.9458 10.4368 29.0291 10.1186H30.37C30.2942 10.6338 30.1067 11.0978 29.8075 11.5107C29.5121 11.9197 29.12 12.2455 28.6314 12.4879C28.1465 12.7266 27.5821 12.8459 26.9382 12.8459Z" fill="black"/>
<path d="M33.5802 9.48224L33.5575 7.82315H33.8302L37.6484 3.93679H39.3075L35.2393 8.05043H35.1257L33.5802 9.48224ZM32.3302 12.6641V1.0277H33.6711V12.6641H32.3302ZM37.8757 12.6641L34.4666 8.34588L35.4211 7.41406L39.5802 12.6641H37.8757Z" fill="black"/>
<path d="M44.3331 12.8459C43.4922 12.8459 42.7668 12.6603 42.1569 12.2891C41.5509 11.9141 41.0831 11.3913 40.7535 10.7209C40.4278 10.0466 40.2649 9.26255 40.2649 8.36861C40.2649 7.47467 40.4278 6.68679 40.7535 6.00497C41.0831 5.31937 41.5414 4.78527 42.1285 4.4027C42.7194 4.01634 43.4088 3.82315 44.1967 3.82315C44.6513 3.82315 45.1001 3.89891 45.5433 4.05043C45.9865 4.20194 46.3899 4.44815 46.7535 4.78906C47.1172 5.12618 47.4069 5.57315 47.6228 6.12997C47.8388 6.68679 47.9467 7.3724 47.9467 8.18679V8.75497H41.2194V7.59588H46.5831C46.5831 7.10346 46.4846 6.66406 46.2876 6.2777C46.0944 5.89134 45.8179 5.58641 45.4581 5.36293C45.102 5.13944 44.6816 5.0277 44.1967 5.0277C43.6626 5.0277 43.2005 5.16027 42.8103 5.42543C42.424 5.68679 42.1266 6.0277 41.9183 6.44815C41.71 6.86861 41.6058 7.31937 41.6058 7.80043V8.57315C41.6058 9.23224 41.7194 9.79096 41.9467 10.2493C42.1778 10.7038 42.4978 11.0504 42.9069 11.2891C43.316 11.5239 43.7914 11.6413 44.3331 11.6413C44.6853 11.6413 45.0035 11.5921 45.2876 11.4936C45.5755 11.3913 45.8236 11.2398 46.0319 11.0391C46.2403 10.8345 46.4013 10.5807 46.5149 10.2777L47.8103 10.6413C47.674 11.0807 47.4448 11.4671 47.1228 11.8004C46.8009 12.13 46.4032 12.3875 45.9297 12.5732C45.4562 12.755 44.924 12.8459 44.3331 12.8459Z" fill="black"/>
<path d="M51.3274 7.41406V12.6641H49.9865V3.93679H51.2819V5.30043H51.3956C51.6001 4.85724 51.9107 4.50118 52.3274 4.23224C52.7441 3.95952 53.2819 3.82315 53.941 3.82315C54.5319 3.82315 55.049 3.94437 55.4922 4.18679C55.9353 4.42543 56.28 4.78906 56.5263 5.2777C56.7725 5.76255 56.8956 6.37618 56.8956 7.11861V12.6641H55.5547V7.20952C55.5547 6.52391 55.3766 5.98982 55.0206 5.60724C54.6645 5.22088 54.1759 5.0277 53.5547 5.0277C53.1266 5.0277 52.7441 5.1205 52.4069 5.30611C52.0736 5.49171 51.8103 5.76255 51.6172 6.11861C51.424 6.47467 51.3274 6.90649 51.3274 7.41406Z" fill="black"/>
<path d="M67.505 12.8459C66.664 12.8459 65.9387 12.6603 65.3288 12.2891C64.7228 11.9141 64.2549 11.3913 63.9254 10.7209C63.5996 10.0466 63.4368 9.26255 63.4368 8.36861C63.4368 7.47467 63.5996 6.68679 63.9254 6.00497C64.2549 5.31937 64.7133 4.78527 65.3004 4.4027C65.8913 4.01634 66.5807 3.82315 67.3686 3.82315C67.8231 3.82315 68.272 3.89891 68.7152 4.05043C69.1584 4.20194 69.5618 4.44815 69.9254 4.78906C70.289 5.12618 70.5788 5.57315 70.7947 6.12997C71.0106 6.68679 71.1186 7.3724 71.1186 8.18679V8.75497H64.3913V7.59588H69.755C69.755 7.10346 69.6565 6.66406 69.4595 6.2777C69.2663 5.89134 68.9898 5.58641 68.63 5.36293C68.2739 5.13944 67.8534 5.0277 67.3686 5.0277C66.8345 5.0277 66.3724 5.16027 65.9822 5.42543C65.5959 5.68679 65.2985 6.0277 65.0902 6.44815C64.8818 6.86861 64.7777 7.31937 64.7777 7.80043V8.57315C64.7777 9.23224 64.8913 9.79096 65.1186 10.2493C65.3496 10.7038 65.6697 11.0504 66.0788 11.2891C66.4879 11.5239 66.9633 11.6413 67.505 11.6413C67.8572 11.6413 68.1754 11.5921 68.4595 11.4936C68.7474 11.3913 68.9955 11.2398 69.2038 11.0391C69.4121 10.8345 69.5731 10.5807 69.6868 10.2777L70.9822 10.6413C70.8459 11.0807 70.6167 11.4671 70.2947 11.8004C69.9728 12.13 69.575 12.3875 69.1015 12.5732C68.6281 12.755 68.0959 12.8459 67.505 12.8459Z" fill="black"/>
<path d="M76.6811 16.1186C76.0334 16.1186 75.4765 16.0353 75.0106 15.8686C74.5447 15.7057 74.1565 15.4898 73.8459 15.2209C73.539 14.9557 73.2947 14.6716 73.1129 14.3686L74.1811 13.6186C74.3023 13.7777 74.4557 13.9595 74.6413 14.1641C74.8269 14.3724 75.0807 14.5523 75.4027 14.7038C75.7284 14.8591 76.1546 14.9368 76.6811 14.9368C77.3856 14.9368 77.9671 14.7663 78.4254 14.4254C78.8837 14.0845 79.1129 13.5504 79.1129 12.8232V11.0504H78.9993C78.9008 11.2095 78.7606 11.4065 78.5788 11.6413C78.4008 11.8724 78.1432 12.0788 77.8061 12.2607C77.4727 12.4387 77.022 12.5277 76.4538 12.5277C75.7493 12.5277 75.1167 12.361 74.5561 12.0277C73.9993 11.6944 73.558 11.2095 73.2322 10.5732C72.9103 9.93679 72.7493 9.16406 72.7493 8.25497C72.7493 7.36103 72.9065 6.58262 73.2209 5.91974C73.5352 5.25308 73.9727 4.73793 74.5334 4.37429C75.094 4.00687 75.7417 3.82315 76.4765 3.82315C77.0447 3.82315 77.4955 3.91785 77.8288 4.10724C78.1659 4.29285 78.4235 4.50497 78.6015 4.74361C78.7834 4.97846 78.9235 5.17164 79.022 5.32315H79.1584V3.93679H80.4538V12.9141C80.4538 13.6641 80.2834 14.2739 79.9425 14.7436C79.6053 15.2171 79.1508 15.5637 78.5788 15.7834C78.0106 16.0069 77.3781 16.1186 76.6811 16.1186ZM76.6356 11.3232C77.1735 11.3232 77.6281 11.2 77.9993 10.9538C78.3705 10.7076 78.6527 10.3535 78.8459 9.89134C79.039 9.42921 79.1356 8.87618 79.1356 8.23224C79.1356 7.60346 79.0409 7.04853 78.8515 6.56747C78.6621 6.08641 78.3818 5.70952 78.0106 5.43679C77.6394 5.16406 77.1811 5.0277 76.6356 5.0277C76.0674 5.0277 75.594 5.17164 75.2152 5.45952C74.8402 5.7474 74.558 6.13376 74.3686 6.61861C74.183 7.10346 74.0902 7.64134 74.0902 8.23224C74.0902 8.83831 74.1849 9.37429 74.3743 9.8402C74.5675 10.3023 74.8515 10.666 75.2265 10.9311C75.6053 11.1925 76.075 11.3232 76.6356 11.3232Z" fill="black"/>
<path d="M86.4311 16.1186C85.7834 16.1186 85.2265 16.0353 84.7606 15.8686C84.2947 15.7057 83.9065 15.4898 83.5959 15.2209C83.289 14.9557 83.0447 14.6716 82.8629 14.3686L83.9311 13.6186C84.0523 13.7777 84.2057 13.9595 84.3913 14.1641C84.5769 14.3724 84.8307 14.5523 85.1527 14.7038C85.4784 14.8591 85.9046 14.9368 86.4311 14.9368C87.1356 14.9368 87.7171 14.7663 88.1754 14.4254C88.6337 14.0845 88.8629 13.5504 88.8629 12.8232V11.0504H88.7493C88.6508 11.2095 88.5106 11.4065 88.3288 11.6413C88.1508 11.8724 87.8932 12.0788 87.5561 12.2607C87.2227 12.4387 86.772 12.5277 86.2038 12.5277C85.4993 12.5277 84.8667 12.361 84.3061 12.0277C83.7493 11.6944 83.308 11.2095 82.9822 10.5732C82.6603 9.93679 82.4993 9.16406 82.4993 8.25497C82.4993 7.36103 82.6565 6.58262 82.9709 5.91974C83.2852 5.25308 83.7227 4.73793 84.2834 4.37429C84.844 4.00687 85.4917 3.82315 86.2265 3.82315C86.7947 3.82315 87.2455 3.91785 87.5788 4.10724C87.9159 4.29285 88.1735 4.50497 88.3515 4.74361C88.5334 4.97846 88.6735 5.17164 88.772 5.32315H88.9084V3.93679H90.2038V12.9141C90.2038 13.6641 90.0334 14.2739 89.6925 14.7436C89.3553 15.2171 88.9008 15.5637 88.3288 15.7834C87.7606 16.0069 87.1281 16.1186 86.4311 16.1186ZM86.3856 11.3232C86.9235 11.3232 87.3781 11.2 87.7493 10.9538C88.1205 10.7076 88.4027 10.3535 88.5959 9.89134C88.789 9.42921 88.8856 8.87618 88.8856 8.23224C88.8856 7.60346 88.7909 7.04853 88.6015 6.56747C88.4121 6.08641 88.1318 5.70952 87.7606 5.43679C87.3894 5.16406 86.9311 5.0277 86.3856 5.0277C85.8174 5.0277 85.344 5.17164 84.9652 5.45952C84.5902 5.7474 84.308 6.13376 84.1186 6.61861C83.933 7.10346 83.8402 7.64134 83.8402 8.23224C83.8402 8.83831 83.9349 9.37429 84.1243 9.8402C84.3175 10.3023 84.6015 10.666 84.9765 10.9311C85.3553 11.1925 85.825 11.3232 86.3856 11.3232Z" fill="black"/>
<path d="M33.2024 31.9197C32.2251 31.916 31.3842 31.6754 30.6797 31.1982C29.9789 30.7209 29.4391 30.0296 29.0603 29.1243C28.6853 28.219 28.4997 27.13 28.5035 25.8572C28.5035 24.5883 28.691 23.5069 29.066 22.6129C29.4448 21.719 29.9846 21.0391 30.6853 20.5732C31.3899 20.1035 32.2289 19.8686 33.2024 19.8686C34.1759 19.8686 35.013 20.1035 35.7138 20.5732C36.4183 21.0429 36.96 21.7247 37.3388 22.6186C37.7175 23.5088 37.905 24.5883 37.9013 25.8572C37.9013 27.1338 37.7119 28.2247 37.3331 29.13C36.9581 30.0353 36.4202 30.7266 35.7194 31.2038C35.0187 31.6811 34.1797 31.9197 33.2024 31.9197ZM33.2024 29.88C33.8691 29.88 34.4013 29.5447 34.799 28.8743C35.1967 28.2038 35.3937 27.1982 35.3899 25.8572C35.3899 24.9747 35.299 24.2398 35.1172 23.6527C34.9391 23.0656 34.6853 22.6243 34.3558 22.3288C34.03 22.0334 33.6456 21.8857 33.2024 21.8857C32.5395 21.8857 32.0092 22.2171 31.6115 22.88C31.2138 23.5428 31.013 24.5353 31.0092 25.8572C31.0092 26.7512 31.0982 27.4974 31.2763 28.0959C31.4581 28.6906 31.7138 29.1375 32.0433 29.4368C32.3728 29.7322 32.7592 29.88 33.2024 29.88Z" fill="black"/>
<path d="M40.6243 31.8118C40.2493 31.8118 39.9273 31.6792 39.6584 31.4141C39.3932 31.1451 39.2606 30.8232 39.2606 30.4482C39.2606 30.0769 39.3932 29.7588 39.6584 29.4936C39.9273 29.2285 40.2493 29.0959 40.6243 29.0959C40.9879 29.0959 41.3061 29.2285 41.5788 29.4936C41.8515 29.7588 41.9879 30.0769 41.9879 30.4482C41.9879 30.6982 41.9235 30.9273 41.7947 31.1357C41.6697 31.3402 41.505 31.505 41.3004 31.63C41.0959 31.7512 40.8705 31.8118 40.6243 31.8118Z" fill="black"/>
<path d="M48.1086 31.8232C47.3056 31.8232 46.5897 31.6754 45.9609 31.38C45.3359 31.0845 44.8397 30.6773 44.4723 30.1584C44.1049 29.6394 43.9136 29.0447 43.8984 28.3743H46.2848C46.3113 28.825 46.5007 29.1906 46.853 29.4709C47.2052 29.7512 47.6238 29.8913 48.1086 29.8913C48.495 29.8913 48.8359 29.8061 49.1314 29.6357C49.4306 29.4614 49.6636 29.2209 49.8302 28.9141C50.0007 28.6035 50.0859 28.2474 50.0859 27.8459C50.0859 27.4368 49.9988 27.0769 49.8246 26.7663C49.6541 26.4557 49.4174 26.2133 49.1143 26.0391C48.8113 25.8648 48.4647 25.7758 48.0746 25.772C47.7336 25.772 47.4022 25.8421 47.0802 25.9822C46.7621 26.1224 46.514 26.3137 46.3359 26.5561L44.1484 26.1641L44.6996 20.0277H51.8132V22.0391H46.728L46.4268 24.9538H46.495C46.6996 24.666 47.0083 24.4273 47.4211 24.2379C47.834 24.0485 48.2961 23.9538 48.8075 23.9538C49.5083 23.9538 50.1333 24.1186 50.6825 24.4482C51.2318 24.7777 51.6655 25.2304 51.9836 25.8061C52.3018 26.3781 52.459 27.0372 52.4552 27.7834C52.459 28.5675 52.2772 29.2644 51.9098 29.8743C51.5461 30.4804 51.0367 30.9576 50.3814 31.3061C49.7299 31.6508 48.9723 31.8232 48.1086 31.8232Z" fill="black"/>
<path d="M58.0802 33.1186V18.5732H59.0121V33.1186H58.0802ZM60.5518 23.3743C60.5064 22.916 60.3113 22.5599 59.9666 22.3061C59.6219 22.0523 59.1541 21.9254 58.5632 21.9254C58.1617 21.9254 57.8227 21.9822 57.5461 22.0959C57.2696 22.2057 57.0575 22.3591 56.9098 22.5561C56.7658 22.7531 56.6939 22.9766 56.6939 23.2266C56.6863 23.4349 56.7299 23.6167 56.8246 23.772C56.923 23.9273 57.0575 24.0618 57.228 24.1754C57.3984 24.2853 57.5954 24.3819 57.8189 24.4652C58.0424 24.5447 58.281 24.6129 58.5348 24.6697L59.5802 24.9197C60.0878 25.0334 60.5537 25.1849 60.978 25.3743C61.4022 25.5637 61.7696 25.7966 62.0802 26.0732C62.3908 26.3497 62.6314 26.6754 62.8018 27.0504C62.9761 27.4254 63.0651 27.8554 63.0689 28.3402C63.0651 29.0523 62.8833 29.6697 62.5234 30.1925C62.1674 30.7114 61.6522 31.1148 60.978 31.4027C60.3075 31.6868 59.4988 31.8288 58.5518 31.8288C57.6124 31.8288 56.7943 31.6849 56.0973 31.397C55.4041 31.1091 54.8624 30.683 54.4723 30.1186C54.0859 29.5504 53.8833 28.8478 53.8643 28.0107H56.245C56.2715 28.4008 56.3833 28.7266 56.5802 28.9879C56.781 29.2455 57.048 29.4406 57.3814 29.5732C57.7185 29.7019 58.0992 29.7663 58.5234 29.7663C58.9401 29.7663 59.3018 29.7057 59.6086 29.5845C59.9193 29.4633 60.1598 29.2947 60.3302 29.0788C60.5007 28.8629 60.5859 28.6148 60.5859 28.3345C60.5859 28.0732 60.5083 27.8535 60.353 27.6754C60.2014 27.4974 59.978 27.3459 59.6825 27.2209C59.3908 27.0959 59.0329 26.9822 58.6086 26.88L57.3416 26.5618C56.3605 26.3232 55.5859 25.95 55.0177 25.4425C54.4496 24.9349 54.1674 24.2512 54.1711 23.3913C54.1674 22.6868 54.3549 22.0713 54.7336 21.5447C55.1162 21.0182 55.6408 20.6072 56.3075 20.3118C56.9742 20.0163 57.7318 19.8686 58.5802 19.8686C59.4439 19.8686 60.1977 20.0163 60.8416 20.3118C61.4893 20.6072 61.9931 21.0182 62.353 21.5447C62.7128 22.0713 62.8984 22.6811 62.9098 23.3743H60.5518Z" fill="black"/>
</svg>
