<svg width="91" height="34" viewBox="0 0 91 34" fill="none" xmlns="http://www.w3.org/2000/svg">
<path d="M4.9507 12.8459C4.13252 12.8459 3.42797 12.6527 2.83706 12.2663C2.24615 11.88 1.79161 11.3478 1.47343 10.6697C1.15525 9.99171 0.996155 9.21709 0.996155 8.34588C0.996155 7.45952 1.15903 6.67732 1.48479 5.99929C1.81434 5.31747 2.27267 4.78527 2.85979 4.4027C3.4507 4.01634 4.14009 3.82315 4.92797 3.82315C5.54161 3.82315 6.09464 3.93679 6.58706 4.16406C7.07949 4.39134 7.4829 4.70952 7.79729 5.11861C8.11168 5.5277 8.30676 6.00497 8.38252 6.55043H7.04161C6.93934 6.1527 6.71206 5.80043 6.35979 5.49361C6.01131 5.183 5.54161 5.0277 4.9507 5.0277C4.42797 5.0277 3.96964 5.16406 3.5757 5.43679C3.18555 5.70573 2.88062 6.08641 2.66093 6.57883C2.44502 7.06747 2.33706 7.64134 2.33706 8.30043C2.33706 8.97467 2.44312 9.56179 2.65525 10.0618C2.87115 10.5618 3.17419 10.95 3.56434 11.2266C3.95828 11.5031 4.4204 11.6413 4.9507 11.6413C5.29918 11.6413 5.61547 11.5807 5.89956 11.4595C6.18365 11.3383 6.42419 11.1641 6.62115 10.9368C6.81812 10.7095 6.95828 10.4368 7.04161 10.1186H8.38252C8.30676 10.6338 8.11926 11.0978 7.82002 11.5107C7.52456 11.9197 7.13252 12.2455 6.64388 12.4879C6.15903 12.7266 5.59464 12.8459 4.9507 12.8459Z" fill="black"/>
<path d="M11.6837 7.41406V12.6641H10.3427V1.0277H11.6837V5.30043H11.7973C12.0018 4.84967 12.3087 4.49171 12.7177 4.22656C13.1306 3.95762 13.6799 3.82315 14.3655 3.82315C14.9602 3.82315 15.481 3.94247 15.928 4.18111C16.3749 4.41596 16.7215 4.7777 16.9677 5.26634C17.2177 5.75118 17.3427 6.36861 17.3427 7.11861V12.6641H16.0018V7.20952C16.0018 6.51633 15.8219 5.98035 15.4621 5.60156C15.106 5.21899 14.6117 5.0277 13.9791 5.0277C13.5397 5.0277 13.1458 5.1205 12.7973 5.30611C12.4526 5.49171 12.1799 5.76255 11.9791 6.11861C11.7821 6.47467 11.6837 6.90649 11.6837 7.41406Z" fill="black"/>
<path d="M19.7959 12.6641V3.93679H21.1368V12.6641H19.7959ZM20.4777 2.48224C20.2163 2.48224 19.9909 2.39323 19.8016 2.2152C19.6159 2.03717 19.5231 1.82315 19.5231 1.57315C19.5231 1.32315 19.6159 1.10914 19.8016 0.931108C19.9909 0.753078 20.2163 0.664062 20.4777 0.664062C20.7391 0.664062 20.9625 0.753078 21.1481 0.931108C21.3375 1.10914 21.4322 1.32315 21.4322 1.57315C21.4322 1.82315 21.3375 2.03717 21.1481 2.2152C20.9625 2.39323 20.7391 2.48224 20.4777 2.48224Z" fill="black"/>
<path d="M27.1382 12.8459C26.32 12.8459 25.6155 12.6527 25.0246 12.2663C24.4337 11.88 23.9791 11.3478 23.6609 10.6697C23.3427 9.99171 23.1837 9.21709 23.1837 8.34588C23.1837 7.45952 23.3465 6.67732 23.6723 5.99929C24.0018 5.31747 24.4602 4.78527 25.0473 4.4027C25.6382 4.01634 26.3276 3.82315 27.1155 3.82315C27.7291 3.82315 28.2821 3.93679 28.7746 4.16406C29.267 4.39134 29.6704 4.70952 29.9848 5.11861C30.2992 5.5277 30.4943 6.00497 30.57 6.55043H29.2291C29.1268 6.1527 28.8996 5.80043 28.5473 5.49361C28.1988 5.183 27.7291 5.0277 27.1382 5.0277C26.6155 5.0277 26.1571 5.16406 25.7632 5.43679C25.373 5.70573 25.0681 6.08641 24.8484 6.57883C24.6325 7.06747 24.5246 7.64134 24.5246 8.30043C24.5246 8.97467 24.6306 9.56179 24.8427 10.0618C25.0587 10.5618 25.3617 10.95 25.7518 11.2266C26.1458 11.5031 26.6079 11.6413 27.1382 11.6413C27.4867 11.6413 27.803 11.5807 28.0871 11.4595C28.3712 11.3383 28.6117 11.1641 28.8087 10.9368C29.0056 10.7095 29.1458 10.4368 29.2291 10.1186H30.57C30.4943 10.6338 30.3068 11.0978 30.0075 11.5107C29.7121 11.9197 29.32 12.2455 28.8314 12.4879C28.3465 12.7266 27.7821 12.8459 27.1382 12.8459Z" fill="black"/>
<path d="M33.7802 9.48224L33.7575 7.82315H34.0302L37.8484 3.93679H39.5075L35.4393 8.05043H35.3257L33.7802 9.48224ZM32.5302 12.6641V1.0277H33.8712V12.6641H32.5302ZM38.0757 12.6641L34.6666 8.34588L35.6212 7.41406L39.7802 12.6641H38.0757Z" fill="black"/>
<path d="M44.5331 12.8459C43.6922 12.8459 42.9668 12.6603 42.357 12.2891C41.7509 11.9141 41.2831 11.3913 40.9535 10.7209C40.6278 10.0466 40.4649 9.26255 40.4649 8.36861C40.4649 7.47467 40.6278 6.68679 40.9535 6.00497C41.2831 5.31937 41.7414 4.78527 42.3285 4.4027C42.9195 4.01634 43.6088 3.82315 44.3967 3.82315C44.8513 3.82315 45.3001 3.89891 45.7433 4.05043C46.1865 4.20194 46.5899 4.44815 46.9535 4.78906C47.3172 5.12618 47.607 5.57315 47.8229 6.12997C48.0388 6.68679 48.1467 7.3724 48.1467 8.18679V8.75497H41.4195V7.59588H46.7831C46.7831 7.10346 46.6846 6.66406 46.4876 6.2777C46.2944 5.89134 46.0179 5.58641 45.6581 5.36293C45.302 5.13944 44.8816 5.0277 44.3967 5.0277C43.8626 5.0277 43.4005 5.16027 43.0104 5.42543C42.624 5.68679 42.3266 6.0277 42.1183 6.44815C41.91 6.86861 41.8058 7.31937 41.8058 7.80043V8.57315C41.8058 9.23224 41.9195 9.79096 42.1467 10.2493C42.3778 10.7038 42.6979 11.0504 43.107 11.2891C43.516 11.5239 43.9914 11.6413 44.5331 11.6413C44.8854 11.6413 45.2035 11.5921 45.4876 11.4936C45.7755 11.3913 46.0236 11.2398 46.232 11.0391C46.4403 10.8345 46.6013 10.5807 46.7149 10.2777L48.0104 10.6413C47.874 11.0807 47.6448 11.4671 47.3229 11.8004C47.0009 12.13 46.6032 12.3875 46.1297 12.5732C45.6562 12.755 45.124 12.8459 44.5331 12.8459Z" fill="black"/>
<path d="M51.5274 7.41406V12.6641H50.1865V3.93679H51.482V5.30043H51.5956C51.8001 4.85724 52.1107 4.50118 52.5274 4.23224C52.9441 3.95952 53.482 3.82315 54.141 3.82315C54.732 3.82315 55.249 3.94437 55.6922 4.18679C56.1354 4.42543 56.4801 4.78906 56.7263 5.2777C56.9725 5.76255 57.0956 6.37618 57.0956 7.11861V12.6641H55.7547V7.20952C55.7547 6.52391 55.5766 5.98982 55.2206 5.60724C54.8645 5.22088 54.3759 5.0277 53.7547 5.0277C53.3266 5.0277 52.9441 5.1205 52.607 5.30611C52.2736 5.49171 52.0104 5.76255 51.8172 6.11861C51.624 6.47467 51.5274 6.90649 51.5274 7.41406Z" fill="black"/>
<path d="M67.705 12.8459C66.8641 12.8459 66.1387 12.6603 65.5288 12.2891C64.9228 11.9141 64.455 11.3913 64.1254 10.7209C63.7997 10.0466 63.6368 9.26255 63.6368 8.36861C63.6368 7.47467 63.7997 6.68679 64.1254 6.00497C64.455 5.31937 64.9133 4.78527 65.5004 4.4027C66.0913 4.01634 66.7807 3.82315 67.5686 3.82315C68.0231 3.82315 68.472 3.89891 68.9152 4.05043C69.3584 4.20194 69.7618 4.44815 70.1254 4.78906C70.4891 5.12618 70.7788 5.57315 70.9947 6.12997C71.2106 6.68679 71.3186 7.3724 71.3186 8.18679V8.75497H64.5913V7.59588H69.955C69.955 7.10346 69.8565 6.66406 69.6595 6.2777C69.4663 5.89134 69.1898 5.58641 68.83 5.36293C68.4739 5.13944 68.0534 5.0277 67.5686 5.0277C67.0345 5.0277 66.5724 5.16027 66.1822 5.42543C65.7959 5.68679 65.4985 6.0277 65.2902 6.44815C65.0818 6.86861 64.9777 7.31937 64.9777 7.80043V8.57315C64.9777 9.23224 65.0913 9.79096 65.3186 10.2493C65.5497 10.7038 65.8697 11.0504 66.2788 11.2891C66.6879 11.5239 67.1633 11.6413 67.705 11.6413C68.0572 11.6413 68.3754 11.5921 68.6595 11.4936C68.9474 11.3913 69.1955 11.2398 69.4038 11.0391C69.6122 10.8345 69.7731 10.5807 69.8868 10.2777L71.1822 10.6413C71.0459 11.0807 70.8167 11.4671 70.4947 11.8004C70.1728 12.13 69.775 12.3875 69.3016 12.5732C68.8281 12.755 68.2959 12.8459 67.705 12.8459Z" fill="black"/>
<path d="M76.8811 16.1186C76.2334 16.1186 75.6766 16.0353 75.2106 15.8686C74.7447 15.7057 74.3565 15.4898 74.0459 15.2209C73.7391 14.9557 73.4947 14.6716 73.3129 14.3686L74.3811 13.6186C74.5023 13.7777 74.6557 13.9595 74.8413 14.1641C75.0269 14.3724 75.2807 14.5523 75.6027 14.7038C75.9284 14.8591 76.3546 14.9368 76.8811 14.9368C77.5856 14.9368 78.1671 14.7663 78.6254 14.4254C79.0837 14.0845 79.3129 13.5504 79.3129 12.8232V11.0504H79.1993C79.1008 11.2095 78.9606 11.4065 78.7788 11.6413C78.6008 11.8724 78.3432 12.0788 78.0061 12.2607C77.6728 12.4387 77.222 12.5277 76.6538 12.5277C75.9493 12.5277 75.3167 12.361 74.7561 12.0277C74.1993 11.6944 73.758 11.2095 73.4322 10.5732C73.1103 9.93679 72.9493 9.16406 72.9493 8.25497C72.9493 7.36103 73.1065 6.58262 73.4209 5.91974C73.7353 5.25308 74.1728 4.73793 74.7334 4.37429C75.294 4.00687 75.9417 3.82315 76.6766 3.82315C77.2447 3.82315 77.6955 3.91785 78.0288 4.10724C78.3659 4.29285 78.6235 4.50497 78.8016 4.74361C78.9834 4.97846 79.1235 5.17164 79.222 5.32315H79.3584V3.93679H80.6538V12.9141C80.6538 13.6641 80.4834 14.2739 80.1425 14.7436C79.8053 15.2171 79.3508 15.5637 78.7788 15.7834C78.2106 16.0069 77.5781 16.1186 76.8811 16.1186ZM76.8356 11.3232C77.3735 11.3232 77.8281 11.2 78.1993 10.9538C78.5705 10.7076 78.8527 10.3535 79.0459 9.89134C79.2391 9.42921 79.3356 8.87618 79.3356 8.23224C79.3356 7.60346 79.2409 7.04853 79.0516 6.56747C78.8622 6.08641 78.5819 5.70952 78.2106 5.43679C77.8394 5.16406 77.3811 5.0277 76.8356 5.0277C76.2675 5.0277 75.794 5.17164 75.4152 5.45952C75.0402 5.7474 74.758 6.13376 74.5686 6.61861C74.383 7.10346 74.2902 7.64134 74.2902 8.23224C74.2902 8.83831 74.3849 9.37429 74.5743 9.8402C74.7675 10.3023 75.0516 10.666 75.4266 10.9311C75.8053 11.1925 76.275 11.3232 76.8356 11.3232Z" fill="black"/>
<path d="M86.6311 16.1186C85.9834 16.1186 85.4266 16.0353 84.9606 15.8686C84.4947 15.7057 84.1065 15.4898 83.7959 15.2209C83.4891 14.9557 83.2447 14.6716 83.0629 14.3686L84.1311 13.6186C84.2523 13.7777 84.4057 13.9595 84.5913 14.1641C84.7769 14.3724 85.0307 14.5523 85.3527 14.7038C85.6784 14.8591 86.1046 14.9368 86.6311 14.9368C87.3356 14.9368 87.9171 14.7663 88.3754 14.4254C88.8337 14.0845 89.0629 13.5504 89.0629 12.8232V11.0504H88.9493C88.8508 11.2095 88.7106 11.4065 88.5288 11.6413C88.3508 11.8724 88.0932 12.0788 87.7561 12.2607C87.4228 12.4387 86.972 12.5277 86.4038 12.5277C85.6993 12.5277 85.0667 12.361 84.5061 12.0277C83.9493 11.6944 83.508 11.2095 83.1822 10.5732C82.8603 9.93679 82.6993 9.16406 82.6993 8.25497C82.6993 7.36103 82.8565 6.58262 83.1709 5.91974C83.4853 5.25308 83.9228 4.73793 84.4834 4.37429C85.044 4.00687 85.6917 3.82315 86.4266 3.82315C86.9947 3.82315 87.4455 3.91785 87.7788 4.10724C88.1159 4.29285 88.3735 4.50497 88.5516 4.74361C88.7334 4.97846 88.8735 5.17164 88.972 5.32315H89.1084V3.93679H90.4038V12.9141C90.4038 13.6641 90.2334 14.2739 89.8925 14.7436C89.5553 15.2171 89.1008 15.5637 88.5288 15.7834C87.9606 16.0069 87.3281 16.1186 86.6311 16.1186ZM86.5856 11.3232C87.1235 11.3232 87.5781 11.2 87.9493 10.9538C88.3205 10.7076 88.6027 10.3535 88.7959 9.89134C88.9891 9.42921 89.0856 8.87618 89.0856 8.23224C89.0856 7.60346 88.9909 7.04853 88.8016 6.56747C88.6122 6.08641 88.3319 5.70952 87.9606 5.43679C87.5894 5.16406 87.1311 5.0277 86.5856 5.0277C86.0175 5.0277 85.544 5.17164 85.1652 5.45952C84.7902 5.7474 84.508 6.13376 84.3186 6.61861C84.133 7.10346 84.0402 7.64134 84.0402 8.23224C84.0402 8.83831 84.1349 9.37429 84.3243 9.8402C84.5175 10.3023 84.8016 10.666 85.1766 10.9311C85.5553 11.1925 86.025 11.3232 86.5856 11.3232Z" fill="black"/>
<path d="M33.4024 31.9197C32.4251 31.916 31.5842 31.6754 30.8797 31.1982C30.1789 30.7209 29.6391 30.0296 29.2604 29.1243C28.8854 28.219 28.6998 27.13 28.7035 25.8572C28.7035 24.5883 28.891 23.5069 29.266 22.6129C29.6448 21.719 30.1846 21.0391 30.8854 20.5732C31.5899 20.1035 32.4289 19.8686 33.4024 19.8686C34.3759 19.8686 35.213 20.1035 35.9138 20.5732C36.6183 21.0429 37.16 21.7247 37.5388 22.6186C37.9176 23.5088 38.1051 24.5883 38.1013 25.8572C38.1013 27.1338 37.9119 28.2247 37.5331 29.13C37.1581 30.0353 36.6202 30.7266 35.9195 31.2038C35.2187 31.6811 34.3797 31.9197 33.4024 31.9197ZM33.4024 29.88C34.0691 29.88 34.6013 29.5447 34.999 28.8743C35.3967 28.2038 35.5937 27.1982 35.5899 25.8572C35.5899 24.9747 35.499 24.2398 35.3172 23.6527C35.1391 23.0656 34.8854 22.6243 34.5558 22.3288C34.2301 22.0334 33.8456 21.8857 33.4024 21.8857C32.7395 21.8857 32.2092 22.2171 31.8115 22.88C31.4138 23.5428 31.213 24.5353 31.2092 25.8572C31.2092 26.7512 31.2982 27.4974 31.4763 28.0959C31.6581 28.6906 31.9138 29.1375 32.2433 29.4368C32.5729 29.7322 32.9592 29.88 33.4024 29.88Z" fill="black"/>
<path d="M40.8243 31.8118C40.4493 31.8118 40.1273 31.6792 39.8584 31.4141C39.5932 31.1451 39.4606 30.8232 39.4606 30.4482C39.4606 30.0769 39.5932 29.7588 39.8584 29.4936C40.1273 29.2285 40.4493 29.0959 40.8243 29.0959C41.1879 29.0959 41.5061 29.2285 41.7788 29.4936C42.0516 29.7588 42.1879 30.0769 42.1879 30.4482C42.1879 30.6982 42.1235 30.9273 41.9947 31.1357C41.8697 31.3402 41.705 31.505 41.5004 31.63C41.2959 31.7512 41.0705 31.8118 40.8243 31.8118Z" fill="black"/>
<path d="M48.3087 31.8232C47.5056 31.8232 46.7897 31.6754 46.1609 31.38C45.5359 31.0845 45.0397 30.6773 44.6723 30.1584C44.3049 29.6394 44.1136 29.0447 44.0984 28.3743H46.4848C46.5113 28.825 46.7007 29.1906 47.053 29.4709C47.4052 29.7512 47.8238 29.8913 48.3087 29.8913C48.695 29.8913 49.0359 29.8061 49.3314 29.6357C49.6306 29.4614 49.8636 29.2209 50.0302 28.9141C50.2007 28.6035 50.2859 28.2474 50.2859 27.8459C50.2859 27.4368 50.1988 27.0769 50.0246 26.7663C49.8541 26.4557 49.6174 26.2133 49.3143 26.0391C49.0113 25.8648 48.6647 25.7758 48.2746 25.772C47.9337 25.772 47.6022 25.8421 47.2802 25.9822C46.9621 26.1224 46.714 26.3137 46.5359 26.5561L44.3484 26.1641L44.8996 20.0277H52.0132V22.0391H46.928L46.6268 24.9538H46.695C46.8996 24.666 47.2083 24.4273 47.6212 24.2379C48.034 24.0485 48.4962 23.9538 49.0075 23.9538C49.7083 23.9538 50.3333 24.1186 50.8825 24.4482C51.4318 24.7777 51.8655 25.2304 52.1837 25.8061C52.5018 26.3781 52.659 27.0372 52.6552 27.7834C52.659 28.5675 52.4772 29.2644 52.1098 29.8743C51.7462 30.4804 51.2367 30.9576 50.5814 31.3061C49.9299 31.6508 49.1723 31.8232 48.3087 31.8232Z" fill="black"/>
<path d="M58.2802 33.1186V18.5732H59.2121V33.1186H58.2802ZM60.7518 23.3743C60.7064 22.916 60.5113 22.5599 60.1666 22.3061C59.8219 22.0523 59.3541 21.9254 58.7632 21.9254C58.3617 21.9254 58.0227 21.9822 57.7462 22.0959C57.4696 22.2057 57.2575 22.3591 57.1098 22.5561C56.9659 22.7531 56.8939 22.9766 56.8939 23.2266C56.8863 23.4349 56.9299 23.6167 57.0246 23.772C57.1231 23.9273 57.2575 24.0618 57.428 24.1754C57.5984 24.2853 57.7954 24.3819 58.0189 24.4652C58.2424 24.5447 58.481 24.6129 58.7348 24.6697L59.7802 24.9197C60.2878 25.0334 60.7537 25.1849 61.178 25.3743C61.6022 25.5637 61.9696 25.7966 62.2802 26.0732C62.5909 26.3497 62.8314 26.6754 63.0018 27.0504C63.1761 27.4254 63.2651 27.8554 63.2689 28.3402C63.2651 29.0523 63.0833 29.6697 62.7234 30.1925C62.3674 30.7114 61.8522 31.1148 61.178 31.4027C60.5075 31.6868 59.6988 31.8288 58.7518 31.8288C57.8124 31.8288 56.9943 31.6849 56.2973 31.397C55.6041 31.1091 55.0624 30.683 54.6723 30.1186C54.2859 29.5504 54.0833 28.8478 54.0643 28.0107H56.445C56.4715 28.4008 56.5833 28.7266 56.7802 28.9879C56.981 29.2455 57.2481 29.4406 57.5814 29.5732C57.9185 29.7019 58.2992 29.7663 58.7234 29.7663C59.1401 29.7663 59.5018 29.7057 59.8087 29.5845C60.1193 29.4633 60.3598 29.2947 60.5302 29.0788C60.7007 28.8629 60.7859 28.6148 60.7859 28.3345C60.7859 28.0732 60.7083 27.8535 60.553 27.6754C60.4015 27.4974 60.178 27.3459 59.8825 27.2209C59.5909 27.0959 59.2329 26.9822 58.8087 26.88L57.5416 26.5618C56.5606 26.3232 55.7859 25.95 55.2177 25.4425C54.6496 24.9349 54.3674 24.2512 54.3712 23.3913C54.3674 22.6868 54.5549 22.0713 54.9337 21.5447C55.3162 21.0182 55.8409 20.6072 56.5075 20.3118C57.1742 20.0163 57.9318 19.8686 58.7802 19.8686C59.6439 19.8686 60.3977 20.0163 61.0416 20.3118C61.6893 20.6072 62.1931 21.0182 62.553 21.5447C62.9128 22.0713 63.0984 22.6811 63.1098 23.3743H60.7518Z" fill="black"/>
</svg>
