<svg width="65" height="43" viewBox="0 0 65 43" fill="none" xmlns="http://www.w3.org/2000/svg">
<path d="M45.8391 28.875H27.6578V28.0625C27.6578 27.6156 27.2682 27.25 26.792 27.25H25.0605C24.5843 27.25 24.1947 27.6156 24.1947 28.0625V28.875H19.8658C19.3896 28.875 19 29.2406 19 29.6875V31.3125C19 31.7594 19.3896 32.125 19.8658 32.125H24.1947V32.9375C24.1947 33.3844 24.5843 33.75 25.0605 33.75H26.792C27.2682 33.75 27.6578 33.3844 27.6578 32.9375V32.125H45.8391C46.3153 32.125 46.7049 31.7594 46.7049 31.3125V29.6875C46.7049 29.2406 46.3153 28.875 45.8391 28.875ZM45.8391 20.75H41.5102V19.9375C41.5102 19.4906 41.1206 19.125 40.6445 19.125H38.9129C38.4367 19.125 38.0471 19.4906 38.0471 19.9375V20.75H19.8658C19.3896 20.75 19 21.1156 19 21.5625V23.1875C19 23.6344 19.3896 24 19.8658 24H38.0471V24.8125C38.0471 25.2594 38.4367 25.625 38.9129 25.625H40.6445C41.1206 25.625 41.5102 25.2594 41.5102 24.8125V24H45.8391C46.3153 24 46.7049 23.6344 46.7049 23.1875V21.5625C46.7049 21.1156 46.3153 20.75 45.8391 20.75ZM45.8391 12.625H34.584V11.8125C34.584 11.3656 34.1944 11 33.7182 11H31.9867C31.5105 11 31.1209 11.3656 31.1209 11.8125V12.625H19.8658C19.3896 12.625 19 12.9906 19 13.4375V15.0625C19 15.5094 19.3896 15.875 19.8658 15.875H31.1209V16.6875C31.1209 17.1344 31.5105 17.5 31.9867 17.5H33.7182C34.1944 17.5 34.584 17.1344 34.584 16.6875V15.875H45.8391C46.3153 15.875 46.7049 15.5094 46.7049 15.0625V13.4375C46.7049 12.9906 46.3153 12.625 45.8391 12.625Z" fill="black" fill-opacity="0.75"/>
<rect x="0.25" y="0.25" width="64.5" height="42.5" rx="19.75" stroke="black" stroke-width="0.5"/>
</svg>
