<svg width="90" height="37" viewBox="0 0 90 37" fill="none" xmlns="http://www.w3.org/2000/svg">
<rect x="1.04175" y="0.5" width="88" height="36" rx="18" fill="white"/>
<path d="M21.6277 23C21.5496 23 21.4845 22.9531 21.4324 22.8594C21.3855 22.7656 21.3621 22.6797 21.3621 22.6016C21.3621 22.513 21.3803 22.4453 21.4167 22.3984C21.4532 22.3516 21.5209 22.3229 21.6199 22.3125C22.0001 22.2865 22.323 22.237 22.5886 22.1641C22.8542 22.0859 22.9871 21.9688 22.9871 21.8125L22.9949 13.3594C22.9949 13.151 22.922 12.9948 22.7761 12.8906C22.6303 12.7865 22.4636 12.7188 22.2761 12.6875C22.0886 12.651 21.8542 12.6224 21.573 12.6016C21.4584 12.5911 21.3829 12.5703 21.3464 12.5391C21.31 12.5026 21.2917 12.4271 21.2917 12.3125C21.2917 12.2344 21.3152 12.1484 21.3621 12.0547C21.4141 11.9609 21.4792 11.9141 21.5574 11.9141L29.5574 11.9219L29.8464 14.6406C29.8464 14.724 29.81 14.7891 29.7371 14.8359C29.6694 14.8828 29.599 14.9062 29.5261 14.9062C29.323 14.9062 29.211 14.8203 29.1902 14.6484C29.1746 14.5182 29.0834 14.2891 28.9167 13.9609C28.7501 13.6328 28.547 13.3385 28.3074 13.0781C28.0678 12.8177 27.8204 12.6875 27.5652 12.6875H24.6042V17.2109H26.6667C26.7917 17.1953 26.9063 17.1016 27.0105 16.9297C27.1199 16.7578 27.2084 16.5677 27.2761 16.3594C27.349 16.1458 27.3933 15.974 27.4089 15.8438C27.4194 15.75 27.4636 15.6849 27.5417 15.6484C27.6251 15.6068 27.7162 15.5859 27.8152 15.5859C27.8881 15.5859 27.9584 15.6094 28.0261 15.6562C28.099 15.7031 28.1355 15.7682 28.1355 15.8516V19.3125C28.1355 19.3958 28.099 19.4609 28.0261 19.5078C27.9584 19.5547 27.8881 19.5781 27.8152 19.5781C27.7162 19.5781 27.6251 19.5599 27.5417 19.5234C27.4636 19.4818 27.4194 19.4141 27.4089 19.3203C27.3933 19.1797 27.3464 18.9948 27.2683 18.7656C27.1954 18.5365 27.1016 18.3333 26.9871 18.1562C26.8777 17.974 26.7553 17.8828 26.6199 17.8828H24.6042V21.4609C24.6042 21.763 24.7865 21.9818 25.1511 22.1172C25.5157 22.2474 25.9115 22.3125 26.3386 22.3125C26.4324 22.3125 26.5027 22.3333 26.5496 22.375C26.5964 22.4167 26.6199 22.4922 26.6199 22.6016C26.6199 22.6797 26.5938 22.7656 26.5417 22.8594C26.4949 22.9531 26.4324 23 26.3542 23H21.6277Z" fill="#DB5A42"/>
<path d="M30.7371 19.1562C30.7371 18.401 30.8881 17.7135 31.1902 17.0938C31.4923 16.474 31.9272 15.9844 32.4949 15.625C33.0626 15.2604 33.7266 15.0781 34.4871 15.0781C35.2475 15.0781 35.9037 15.2604 36.4558 15.625C37.0079 15.9844 37.4298 16.474 37.7214 17.0938C38.0131 17.7083 38.1589 18.3958 38.1589 19.1562C38.1589 19.9115 38.0079 20.599 37.7058 21.2188C37.4089 21.8385 36.9792 22.3281 36.4167 22.6875C35.8542 23.0469 35.1928 23.2266 34.4324 23.2266C33.672 23.2266 33.0131 23.0469 32.4558 22.6875C31.8985 22.3281 31.4714 21.8411 31.1746 21.2266C30.8829 20.6068 30.7371 19.9167 30.7371 19.1562ZM32.4167 19.1562C32.4167 19.8906 32.4792 20.5 32.6042 20.9844C32.7292 21.4688 32.9402 21.8411 33.2371 22.1016C33.5391 22.3568 33.9454 22.4844 34.4558 22.4844C34.9662 22.4844 35.3673 22.3568 35.6589 22.1016C35.9558 21.8411 36.1641 21.4688 36.2839 20.9844C36.4037 20.5 36.4636 19.8906 36.4636 19.1562C36.4636 18.0469 36.31 17.2161 36.0027 16.6641C35.7006 16.1068 35.1746 15.8281 34.4246 15.8281C33.9141 15.8281 33.5105 15.9583 33.2136 16.2188C32.922 16.474 32.7162 16.8438 32.5964 17.3281C32.4766 17.8125 32.4167 18.4219 32.4167 19.1562Z" fill="#DB5A42"/>
<path d="M39.3308 23C39.2475 23 39.1772 22.9688 39.1199 22.9062C39.0678 22.8438 39.0417 22.7682 39.0417 22.6797C39.0417 22.5911 39.06 22.5234 39.0964 22.4766C39.1329 22.4297 39.2006 22.401 39.2996 22.3906C39.5496 22.3646 39.7631 22.3125 39.9402 22.2344C40.1225 22.1562 40.2136 22.0417 40.2136 21.8906L40.2214 12.5391C40.2214 12.2943 40.172 12.1094 40.073 11.9844C39.9792 11.8542 39.8647 11.7682 39.7292 11.7266C39.599 11.6797 39.4324 11.6406 39.2292 11.6094C39.2032 11.6042 39.1615 11.599 39.1042 11.5938C39.047 11.5833 39.0001 11.5729 38.9636 11.5625C38.9011 11.5365 38.8542 11.5 38.823 11.4531C38.7917 11.4062 38.7761 11.3385 38.7761 11.25C38.7761 11.1771 38.7917 11.1042 38.823 11.0312C38.8595 10.9531 38.9063 10.9115 38.9636 10.9062C39.6042 10.8698 40.3569 10.8438 41.2214 10.8281H41.4246C41.4766 10.8281 41.5261 10.8516 41.573 10.8984C41.6199 10.9453 41.6485 11.026 41.6589 11.1406V21.6328C41.6589 21.8411 41.7058 21.9974 41.7996 22.1016C41.8985 22.2057 42.0105 22.276 42.1355 22.3125C42.2657 22.3438 42.4246 22.3698 42.6121 22.3906C42.7214 22.401 42.7944 22.4271 42.8308 22.4688C42.8725 22.5052 42.8933 22.5677 42.8933 22.6562C42.8933 22.7552 42.8647 22.8385 42.8074 22.9062C42.7553 22.9688 42.6824 23 42.5886 23H39.3308Z" fill="#DB5A42"/>
<path d="M43.9089 23C43.8256 23 43.7553 22.9688 43.698 22.9062C43.6459 22.8438 43.6199 22.7682 43.6199 22.6797C43.6199 22.5911 43.6381 22.5234 43.6746 22.4766C43.711 22.4297 43.7787 22.401 43.8777 22.3906C44.1277 22.3646 44.3412 22.3125 44.5183 22.2344C44.7006 22.1562 44.7917 22.0417 44.7917 21.8906L44.7996 12.5391C44.7996 12.2943 44.7501 12.1094 44.6511 11.9844C44.5574 11.8542 44.4428 11.7682 44.3074 11.7266C44.1772 11.6797 44.0105 11.6406 43.8074 11.6094C43.7813 11.6042 43.7397 11.599 43.6824 11.5938C43.6251 11.5833 43.5782 11.5729 43.5417 11.5625C43.4792 11.5365 43.4324 11.5 43.4011 11.4531C43.3699 11.4062 43.3542 11.3385 43.3542 11.25C43.3542 11.1771 43.3699 11.1042 43.4011 11.0312C43.4376 10.9531 43.4845 10.9115 43.5417 10.9062C44.1824 10.8698 44.935 10.8438 45.7996 10.8281H46.0027C46.0548 10.8281 46.1042 10.8516 46.1511 10.8984C46.198 10.9453 46.2266 11.026 46.2371 11.1406V21.6328C46.2371 21.8411 46.2839 21.9974 46.3777 22.1016C46.4766 22.2057 46.5886 22.276 46.7136 22.3125C46.8438 22.3438 47.0027 22.3698 47.1902 22.3906C47.2996 22.401 47.3725 22.4271 47.4089 22.4688C47.4506 22.5052 47.4714 22.5677 47.4714 22.6562C47.4714 22.7552 47.4428 22.8385 47.3855 22.9062C47.3334 22.9688 47.2605 23 47.1667 23H43.9089Z" fill="#DB5A42"/>
<path d="M48.5183 19.1562C48.5183 18.401 48.6694 17.7135 48.9714 17.0938C49.2735 16.474 49.7084 15.9844 50.2761 15.625C50.8438 15.2604 51.5079 15.0781 52.2683 15.0781C53.0287 15.0781 53.685 15.2604 54.2371 15.625C54.7891 15.9844 55.211 16.474 55.5027 17.0938C55.7944 17.7083 55.9402 18.3958 55.9402 19.1562C55.9402 19.9115 55.7891 20.599 55.4871 21.2188C55.1902 21.8385 54.7605 22.3281 54.198 22.6875C53.6355 23.0469 52.974 23.2266 52.2136 23.2266C51.4532 23.2266 50.7944 23.0469 50.2371 22.6875C49.6798 22.3281 49.2527 21.8411 48.9558 21.2266C48.6641 20.6068 48.5183 19.9167 48.5183 19.1562ZM50.198 19.1562C50.198 19.8906 50.2605 20.5 50.3855 20.9844C50.5105 21.4688 50.7214 21.8411 51.0183 22.1016C51.3204 22.3568 51.7266 22.4844 52.2371 22.4844C52.7475 22.4844 53.1485 22.3568 53.4402 22.1016C53.7371 21.8411 53.9454 21.4688 54.0652 20.9844C54.185 20.5 54.2449 19.8906 54.2449 19.1562C54.2449 18.0469 54.0912 17.2161 53.7839 16.6641C53.4819 16.1068 52.9558 15.8281 52.2058 15.8281C51.6954 15.8281 51.2917 15.9583 50.9949 16.2188C50.7032 16.474 50.4975 16.8438 50.3777 17.3281C50.2579 17.8125 50.198 18.4219 50.198 19.1562Z" fill="#DB5A42"/>
<path d="M57.3855 16.5234C57.2397 16.2786 57.0938 16.1094 56.948 16.0156C56.8074 15.9219 56.6355 15.8646 56.4324 15.8438C56.3178 15.8333 56.2423 15.8125 56.2058 15.7812C56.1694 15.7448 56.1511 15.6693 56.1511 15.5547C56.1511 15.487 56.1772 15.4167 56.2292 15.3438C56.2761 15.2708 56.3386 15.2344 56.4167 15.2344H59.5808C59.6641 15.2344 59.7292 15.2708 59.7761 15.3438C59.823 15.4115 59.8464 15.4818 59.8464 15.5547C59.8464 15.6432 59.8282 15.7109 59.7917 15.7578C59.7553 15.8047 59.6876 15.8333 59.5886 15.8438C59.3907 15.8698 59.2423 15.8932 59.1433 15.9141C59.0444 15.9297 58.9558 15.9661 58.8777 16.0234C58.7996 16.0807 58.7605 16.1615 58.7605 16.2656L60.4402 20.8516L62.2371 15.375H62.9871L64.9792 20.8281L66.5496 16.2656C66.5496 16.1615 66.4975 16.0807 66.3933 16.0234C66.2944 15.9661 66.1954 15.9297 66.0964 15.9141C65.9975 15.8984 65.8204 15.875 65.5652 15.8438C65.4662 15.8333 65.3985 15.8047 65.3621 15.7578C65.3256 15.7109 65.3074 15.6432 65.3074 15.5547C65.3074 15.4818 65.3308 15.4115 65.3777 15.3438C65.4246 15.2708 65.4897 15.2344 65.573 15.2344H68.1121C68.1902 15.2344 68.2527 15.2708 68.2996 15.3438C68.3516 15.4167 68.3777 15.487 68.3777 15.5547C68.3777 15.6693 68.3595 15.7448 68.323 15.7812C68.2865 15.8125 68.211 15.8333 68.0964 15.8438C67.9037 15.8646 67.7475 15.9193 67.6277 16.0078C67.5131 16.0964 67.3777 16.2682 67.2214 16.5234L64.9011 23.0703H64.323L62.2527 17.4453L60.3542 23.0703H59.7761L57.3855 16.5234Z" fill="#DB5A42"/>
<rect x="1.04175" y="0.5" width="88" height="36" rx="18" stroke="#DB5A42"/>
</svg>
