<svg width="90" height="37" viewBox="0 0 90 37" fill="none" xmlns="http://www.w3.org/2000/svg">
<rect x="1.04175" y="0.5" width="88" height="36" rx="18" fill="white"/>
<path d="M31.4324 23.2344C30.974 23.2344 30.5964 23.1875 30.2996 23.0938C30.0079 23 29.724 22.8776 29.448 22.7266C29.4167 22.7057 29.3699 22.6797 29.3074 22.6484L29.0808 22.5234C28.9766 22.4609 28.8959 22.4193 28.8386 22.3984C28.7865 22.3724 28.7319 22.3594 28.6746 22.3594C28.586 22.3594 28.5053 22.4036 28.4324 22.4922C28.3438 22.6016 28.2501 22.6823 28.1511 22.7344C28.0522 22.7865 27.961 22.8125 27.8777 22.8125C27.7787 22.8125 27.698 22.7786 27.6355 22.7109C27.573 22.638 27.547 22.5469 27.5574 22.4375C27.5678 22.2969 27.573 22.0807 27.573 21.7891C27.573 21.5234 27.56 21.2422 27.5339 20.9453C27.5131 20.6484 27.4897 20.3776 27.4636 20.1328C27.422 19.7057 27.4011 19.4401 27.4011 19.3359C27.4011 19.2057 27.4376 19.1068 27.5105 19.0391C27.5886 18.9714 27.6798 18.9375 27.7839 18.9375C27.8829 18.9375 27.9688 18.9661 28.0417 19.0234C28.1199 19.0807 28.172 19.1615 28.198 19.2656C28.2449 19.4688 28.3074 19.6875 28.3855 19.9219C28.4688 20.1562 28.6016 20.4688 28.7839 20.8594C28.961 21.2344 29.1902 21.5495 29.4714 21.8047C29.7579 22.0547 30.06 22.2396 30.3777 22.3594C30.7006 22.4792 31.0079 22.5391 31.2996 22.5391C31.8621 22.5391 32.3282 22.401 32.698 22.125C33.0678 21.849 33.2527 21.362 33.2527 20.6641C33.2527 20.1432 33.0313 19.6849 32.5886 19.2891C32.1459 18.888 31.5444 18.4948 30.7839 18.1094C30.1641 17.7917 29.6459 17.487 29.2292 17.1953C28.8178 16.9036 28.4714 16.5417 28.1902 16.1094C27.9141 15.6719 27.7761 15.1536 27.7761 14.5547C27.7761 13.9036 27.9376 13.362 28.2605 12.9297C28.5886 12.4974 29.0001 12.1823 29.4949 11.9844C29.9897 11.7812 30.4949 11.6797 31.0105 11.6797C31.3959 11.6797 31.7214 11.7109 31.9871 11.7734C32.2579 11.8307 32.5235 11.9062 32.7839 12C32.9402 12.0521 33.0391 12.0781 33.0808 12.0781C33.1641 12.0781 33.2266 12.0677 33.2683 12.0469C33.3152 12.026 33.3595 11.9974 33.4011 11.9609C33.448 11.9245 33.4897 11.8932 33.5261 11.8672C33.5834 11.8307 33.6537 11.8125 33.7371 11.8125C33.8412 11.8125 33.9376 11.8438 34.0261 11.9062C34.1199 11.9635 34.1667 12.0312 34.1667 12.1094C34.1667 12.3438 34.1772 12.5729 34.198 12.7969C34.2188 13.0156 34.2475 13.2839 34.2839 13.6016C34.3412 14.0286 34.3699 14.3385 34.3699 14.5312C34.3699 14.6823 34.3308 14.7943 34.2527 14.8672C34.1746 14.9349 34.0782 14.9688 33.9636 14.9688C33.8855 14.9688 33.81 14.9505 33.7371 14.9141C33.6641 14.8776 33.6251 14.8359 33.6199 14.7891C33.5261 14.2474 33.3569 13.7891 33.1121 13.4141C32.8725 13.0391 32.5808 12.7604 32.2371 12.5781C31.8985 12.3906 31.5339 12.2969 31.1433 12.2969C29.9037 12.2969 29.2839 12.9245 29.2839 14.1797C29.2839 14.4922 29.3959 14.7891 29.6199 15.0703C29.849 15.3464 30.1277 15.599 30.4558 15.8281C30.7839 16.0521 31.2136 16.3203 31.7449 16.6328C31.7865 16.6589 31.8256 16.6849 31.8621 16.7109C31.9037 16.7318 31.9402 16.75 31.9714 16.7656C32.5704 17.1146 33.0626 17.4297 33.448 17.7109C33.8334 17.987 34.1641 18.3255 34.4402 18.7266C34.7214 19.1276 34.8621 19.5859 34.8621 20.1016C34.8621 20.763 34.711 21.3307 34.4089 21.8047C34.1069 22.2734 33.6954 22.6302 33.1746 22.875C32.6589 23.1146 32.0782 23.2344 31.4324 23.2344Z" fill="#DB5A42"/>
<path d="M36.2839 21.1016C36.2839 20.4557 36.5027 19.9427 36.9402 19.5625C37.3777 19.1771 37.922 18.8958 38.573 18.7188C39.2292 18.5417 39.9845 18.4089 40.8386 18.3203V17.1172C40.8386 16.8984 40.7865 16.6901 40.6824 16.4922C40.5834 16.2891 40.4115 16.1198 40.1667 15.9844C39.9272 15.849 39.6147 15.7812 39.2292 15.7812C39.0313 15.7812 38.8751 15.7943 38.7605 15.8203C38.6511 15.8411 38.5522 15.8724 38.4636 15.9141L37.5261 17.8047C37.2136 17.8047 36.9688 17.7344 36.7917 17.5938C36.6199 17.4531 36.5339 17.2214 36.5339 16.8984C36.5339 16.5859 36.6641 16.2917 36.9246 16.0156C37.185 15.7344 37.547 15.5078 38.0105 15.3359C38.474 15.1641 38.9949 15.0781 39.573 15.0781C40.3074 15.0781 40.8751 15.1979 41.2761 15.4375C41.6824 15.6719 41.9558 15.974 42.0964 16.3438C42.2423 16.7135 42.3152 17.138 42.3152 17.6172V21.4297C42.3152 21.6432 42.3438 21.8359 42.4011 22.0078C42.4584 22.1797 42.5287 22.2656 42.6121 22.2656C42.6902 22.2656 42.7553 22.263 42.8074 22.2578C42.8647 22.2474 42.9376 22.2292 43.0261 22.2031C43.1095 22.1771 43.1824 22.2057 43.2449 22.2891C43.3074 22.3672 43.3386 22.4505 43.3386 22.5391C43.3386 22.5964 43.323 22.638 43.2917 22.6641C43.1303 22.7839 42.922 22.8958 42.6667 23C42.4115 23.099 42.172 23.1484 41.948 23.1484C41.7292 23.1484 41.56 23.138 41.4402 23.1172C41.3256 23.0964 41.2188 23.0182 41.1199 22.8828C41.0261 22.7474 40.9792 22.5286 40.9792 22.2266V22.1484C40.6355 22.5078 40.2683 22.7682 39.8777 22.9297C39.4871 23.0859 39.0183 23.1641 38.4714 23.1641C38.1277 23.1641 37.7865 23.0938 37.448 22.9531C37.1147 22.8073 36.836 22.5807 36.6121 22.2734C36.3933 21.9609 36.2839 21.5703 36.2839 21.1016ZM37.9167 21.0625C37.9167 21.2812 37.961 21.487 38.0496 21.6797C38.1433 21.8672 38.2735 22.0182 38.4402 22.1328C38.6121 22.2422 38.81 22.2969 39.0339 22.2969C39.4246 22.2969 39.7761 22.2318 40.0886 22.1016C40.4011 21.9661 40.6485 21.8073 40.8308 21.625V18.875C40.1485 18.974 39.6069 19.0911 39.2058 19.2266C38.81 19.3568 38.4949 19.5677 38.2605 19.8594C38.0313 20.1458 37.9167 20.5469 37.9167 21.0625Z" fill="#DB5A42"/>
<path d="M44.5574 16.5234C44.4115 16.2786 44.2657 16.1094 44.1199 16.0156C43.9792 15.9219 43.8074 15.8646 43.6042 15.8438C43.4897 15.8333 43.4141 15.8125 43.3777 15.7812C43.3412 15.7448 43.323 15.6693 43.323 15.5547C43.323 15.487 43.349 15.4167 43.4011 15.3438C43.448 15.2708 43.5105 15.2344 43.5886 15.2344H46.7527C46.836 15.2344 46.9011 15.2708 46.948 15.3438C46.9949 15.4115 47.0183 15.4818 47.0183 15.5547C47.0183 15.6432 47.0001 15.7109 46.9636 15.7578C46.9272 15.8047 46.8595 15.8333 46.7605 15.8438C46.5626 15.8698 46.4141 15.8932 46.3152 15.9141C46.2162 15.9297 46.1277 15.9661 46.0496 16.0234C45.9714 16.0807 45.9324 16.1615 45.9324 16.2656L48.0027 21.0469L49.9011 16.2656C49.9011 16.1615 49.849 16.0807 49.7449 16.0234C49.6459 15.9661 49.547 15.9297 49.448 15.9141C49.349 15.8984 49.172 15.875 48.9167 15.8438C48.8178 15.8333 48.7501 15.8047 48.7136 15.7578C48.6772 15.7109 48.6589 15.6432 48.6589 15.5547C48.6589 15.4818 48.6824 15.4115 48.7292 15.3438C48.7761 15.2708 48.8412 15.2344 48.9246 15.2344H51.5417C51.6199 15.2344 51.6824 15.2708 51.7292 15.3438C51.7813 15.4167 51.8074 15.487 51.8074 15.5547C51.8074 15.6693 51.7891 15.7448 51.7527 15.7812C51.7162 15.8125 51.6407 15.8333 51.5261 15.8438C51.323 15.8646 51.1485 15.9219 51.0027 16.0156C50.8621 16.1094 50.7188 16.2786 50.573 16.5234L47.8621 23.0703H47.2839L44.5574 16.5234Z" fill="#DB5A42"/>
<path d="M55.698 23.2266C54.5157 23.2266 53.6173 22.8672 53.0027 22.1484C52.3881 21.4297 52.0808 20.4115 52.0808 19.0938C52.0808 18.2552 52.2397 17.5339 52.5574 16.9297C52.8803 16.3203 53.31 15.8594 53.8464 15.5469C54.3829 15.2344 54.9688 15.0781 55.6042 15.0781C56.5365 15.0781 57.2397 15.3125 57.7136 15.7812C58.1876 16.2448 58.5001 16.9089 58.6511 17.7734C58.7136 18.1276 58.7449 18.5599 58.7449 19.0703H53.7605C53.7657 19.8516 53.8699 20.4922 54.073 20.9922C54.2761 21.4922 54.5391 21.8542 54.8621 22.0781C55.185 22.3021 55.5313 22.4141 55.9011 22.4141C56.3022 22.4141 56.6641 22.3229 56.9871 22.1406C57.3152 21.9583 57.5626 21.7031 57.7292 21.375C57.7345 21.3646 57.7423 21.3464 57.7527 21.3203C57.7683 21.2891 57.7839 21.2682 57.7996 21.2578C57.8204 21.2474 57.8464 21.2448 57.8777 21.25L58.2683 21.4297C58.3256 21.4505 58.3542 21.4818 58.3542 21.5234C58.3542 21.5443 58.3386 21.5859 58.3074 21.6484C58.0626 22.138 57.724 22.5234 57.2917 22.8047C56.8647 23.0859 56.3334 23.2266 55.698 23.2266ZM57.0105 18.3516C57.0105 17.4922 56.8803 16.8568 56.6199 16.4453C56.3647 16.0339 56.0235 15.8281 55.5964 15.8281C55.185 15.8281 54.8569 15.8932 54.6121 16.0234C54.3673 16.1484 54.172 16.3958 54.0261 16.7656C53.8855 17.1354 53.8022 17.6797 53.7761 18.3984L57.0105 18.3516Z" fill="#DB5A42"/>
<rect x="1.04175" y="0.5" width="88" height="36" rx="18" stroke="#DB5A42"/>
</svg>
