<svg width="27" height="28" viewBox="0 0 27 28" fill="none" xmlns="http://www.w3.org/2000/svg">
<path fill-rule="evenodd" clip-rule="evenodd" d="M9.75 0.5C15.1348 0.5 19.5 4.86522 19.5 10.25C19.5 12.665 18.615 14.885 17.16 16.595L17.565 17H18.75L26.25 24.5L24 26.75L16.5 19.25V18.065L16.095 17.66C14.385 19.115 12.165 20 9.75 20C4.36522 20 0 15.6348 0 10.25C0 4.86522 4.36522 0.5 9.75 0.5V0.5ZM9.75 3.5C6 3.5 3 6.5 3 10.25C3 14 6 17 9.75 17C13.5 17 16.5 14 16.5 10.25C16.5 6.5 13.5 3.5 9.75 3.5Z" fill="#DB5A42"/>
<mask id="mask0_60_2968" style="mask-type:alpha" maskUnits="userSpaceOnUse" x="0" y="0" width="27" height="27">
<path fill-rule="evenodd" clip-rule="evenodd" d="M9.75 0.5C15.1348 0.5 19.5 4.86522 19.5 10.25C19.5 12.665 18.615 14.885 17.16 16.595L17.565 17H18.75L26.25 24.5L24 26.75L16.5 19.25V18.065L16.095 17.66C14.385 19.115 12.165 20 9.75 20C4.36522 20 0 15.6348 0 10.25C0 4.86522 4.36522 0.5 9.75 0.5V0.5ZM9.75 3.5C6 3.5 3 6.5 3 10.25C3 14 6 17 9.75 17C13.5 17 16.5 14 16.5 10.25C16.5 6.5 13.5 3.5 9.75 3.5Z" fill="white"/>
</mask>
<g mask="url(#mask0_60_2968)">
</g>
</svg>
