<svg width="28" height="28" viewBox="0 0 28 28" fill="none" xmlns="http://www.w3.org/2000/svg">
<path fill-rule="evenodd" clip-rule="evenodd" d="M10.476 0.5C15.8607 0.5 20.226 4.86522 20.226 10.25C20.226 12.665 19.341 14.885 17.886 16.595L18.291 17H19.476L26.976 24.5L24.726 26.75L17.226 19.25V18.065L16.821 17.66C15.111 19.115 12.891 20 10.476 20C5.09118 20 0.725952 15.6348 0.725952 10.25C0.725952 4.86522 5.09118 0.5 10.476 0.5V0.5ZM10.476 3.5C6.72595 3.5 3.72595 6.5 3.72595 10.25C3.72595 14 6.72595 17 10.476 17C14.226 17 17.226 14 17.226 10.25C17.226 6.5 14.226 3.5 10.476 3.5Z" fill="#DB5A42"/>
<mask id="mask0_65_2623" style="mask-type:alpha" maskUnits="userSpaceOnUse" x="0" y="0" width="27" height="27">
<path fill-rule="evenodd" clip-rule="evenodd" d="M10.476 0.5C15.8607 0.5 20.226 4.86522 20.226 10.25C20.226 12.665 19.341 14.885 17.886 16.595L18.291 17H19.476L26.976 24.5L24.726 26.75L17.226 19.25V18.065L16.821 17.66C15.111 19.115 12.891 20 10.476 20C5.09118 20 0.725952 15.6348 0.725952 10.25C0.725952 4.86522 5.09118 0.5 10.476 0.5V0.5ZM10.476 3.5C6.72595 3.5 3.72595 6.5 3.72595 10.25C3.72595 14 6.72595 17 10.476 17C14.226 17 17.226 14 17.226 10.25C17.226 6.5 14.226 3.5 10.476 3.5Z" fill="white"/>
</mask>
<g mask="url(#mask0_65_2623)">
</g>
</svg>
