<svg width="25" height="23" viewBox="0 0 25 23" fill="none" xmlns="http://www.w3.org/2000/svg">
<path fill-rule="evenodd" clip-rule="evenodd" d="M9.02778 0C14.0137 0 18.0556 3.71852 18.0556 8.30556C18.0556 10.3628 17.2361 12.2539 15.8889 13.7106L16.2639 14.0556H17.3611L24.3056 20.4444L22.2222 22.3611L15.2778 15.9722V14.9628L14.9028 14.6178C13.3194 15.8572 11.2639 16.6111 9.02778 16.6111C4.04187 16.6111 0 12.8926 0 8.30556C0 3.71852 4.04187 0 9.02778 0V0ZM9.02778 2.55556C5.55556 2.55556 2.77778 5.11111 2.77778 8.30556C2.77778 11.5 5.55556 14.0556 9.02778 14.0556C12.5 14.0556 15.2778 11.5 15.2778 8.30556C15.2778 5.11111 12.5 2.55556 9.02778 2.55556Z" fill="#1E1F20"/>
<mask id="mask0_265_1537" style="mask-type:alpha" maskUnits="userSpaceOnUse" x="0" y="0" width="25" height="23">
<path opacity="0.5" fill-rule="evenodd" clip-rule="evenodd" d="M9.02778 0C14.0137 0 18.0556 3.71852 18.0556 8.30556C18.0556 10.3628 17.2361 12.2539 15.8889 13.7106L16.2639 14.0556H17.3611L24.3056 20.4444L22.2222 22.3611L15.2778 15.9722V14.9628L14.9028 14.6178C13.3194 15.8572 11.2639 16.6111 9.02778 16.6111C4.04187 16.6111 0 12.8926 0 8.30556C0 3.71852 4.04187 0 9.02778 0V0ZM9.02778 2.55556C5.55556 2.55556 2.77778 5.11111 2.77778 8.30556C2.77778 11.5 5.55556 14.0556 9.02778 14.0556C12.5 14.0556 15.2778 11.5 15.2778 8.30556C15.2778 5.11111 12.5 2.55556 9.02778 2.55556Z" fill="white"/>
</mask>
<g mask="url(#mask0_265_1537)">
</g>
</svg>
