<svg width="23" height="27" viewBox="0 0 23 27" fill="none" xmlns="http://www.w3.org/2000/svg">
<path d="M15.4375 11.8861C15.4375 12.9191 15.0227 13.9098 14.2842 14.6403C13.5458 15.3707 12.5443 15.7811 11.5 15.7811C10.4557 15.7811 9.45419 15.3707 8.71577 14.6403C7.97734 13.9098 7.5625 12.9191 7.5625 11.8861C7.5625 10.8531 7.97734 9.86245 8.71577 9.13201C9.45419 8.40157 10.4557 7.99121 11.5 7.99121C12.5443 7.99121 13.5458 8.40157 14.2842 9.13201C15.0227 9.86245 15.4375 10.8531 15.4375 11.8861V11.8861Z" stroke="black" stroke-width="2" stroke-linecap="round" stroke-linejoin="round"/>
<path d="M18.9248 19.2306L13.3559 24.7393C13.1123 24.9805 12.8231 25.1718 12.5048 25.3023C12.1865 25.4328 11.8453 25.5 11.5007 25.5C11.1561 25.5 10.8148 25.4328 10.4965 25.3023C10.1782 25.1718 9.88898 24.9805 9.64544 24.7393L4.07519 19.2306C2.60679 17.778 1.60682 15.9273 1.20172 13.9126C0.796619 11.8978 1.00459 9.80945 1.79932 7.91161C2.59406 6.01376 3.93987 4.39165 5.66657 3.2504C7.39328 2.10914 9.42332 1.5 11.5 1.5C13.5767 1.5 15.6067 2.10914 17.3334 3.2504C19.0601 4.39165 20.4059 6.01376 21.2007 7.91161C21.9954 9.80945 22.2034 11.8978 21.7983 13.9126C21.3932 15.9273 20.3932 17.778 18.9248 19.2306V19.2306Z" stroke="black" stroke-width="2" stroke-linecap="round" stroke-linejoin="round"/>
</svg>
