<svg width="22" height="23" viewBox="0 0 22 23" fill="none" xmlns="http://www.w3.org/2000/svg">
<path d="M15.4444 11.4994V13.166C15.4444 13.9027 15.7371 14.6092 16.258 15.1301C16.779 15.651 17.4855 15.9436 18.2222 15.9436C18.9589 15.9436 19.6655 15.651 20.1864 15.1301C20.7073 14.6092 21 13.9027 21 13.166V11.4994C21 9.52174 20.4135 7.58845 19.3147 5.94405C18.2159 4.29965 16.6541 3.018 14.8268 2.26117C12.9996 1.50433 10.9889 1.30631 9.0491 1.69214C7.10929 2.07797 5.32746 3.03033 3.92894 4.42877C2.53041 5.82722 1.578 7.60895 1.19215 9.54865C0.8063 11.4884 1.00433 13.4989 1.76121 15.3261C2.51809 17.1532 3.79981 18.7149 5.4443 19.8137C7.08879 20.9124 9.02219 21.4989 11 21.4989M16 20.159C14.4808 21.0391 12.7558 21.5017 11 21.5M15.4444 11.4994C15.4444 10.3208 14.9762 9.19037 14.1427 8.35692C13.3092 7.52348 12.1787 7.05525 11 7.05525C9.82126 7.05525 8.6908 7.52348 7.85731 8.35692C7.02381 9.19037 6.55556 10.3208 6.55556 11.4994C6.55556 12.6781 7.02381 13.8085 7.85731 14.642C8.6908 15.4754 9.82126 15.9436 11 15.9436C12.1787 15.9436 13.3092 15.4754 14.1427 14.642C14.9762 13.8085 15.4444 12.6781 15.4444 11.4994Z" stroke="black" stroke-width="2" stroke-linecap="round" stroke-linejoin="round"/>
</svg>
