<svg width="59" height="57" viewBox="0 0 59 57" fill="none" xmlns="http://www.w3.org/2000/svg">
<path d="M20.6667 27L26.5556 33L38.3333 21M56 27C56 30.5457 55.3146 34.0567 53.9828 37.3325C52.6511 40.6082 50.6991 43.5847 48.2383 46.0919C45.7776 48.5991 42.8562 50.5879 39.6411 51.9447C36.426 53.3016 32.98 54 29.5 54C26.02 54 22.574 53.3016 19.3589 51.9447C16.1438 50.5879 13.2224 48.5991 10.7617 46.0919C8.30092 43.5847 6.34894 40.6082 5.01719 37.3325C3.68544 34.0567 3 30.5457 3 27C3 19.8392 5.79196 12.9716 10.7617 7.90812C15.7314 2.84464 22.4718 0 29.5 0C36.5282 0 43.2686 2.84464 48.2383 7.90812C53.208 12.9716 56 19.8392 56 27Z" stroke="#FFD275" stroke-width="5" stroke-linecap="round" stroke-linejoin="round"/>
</svg>
