<svg width="25" height="23" viewBox="0 0 25 23" fill="none" xmlns="http://www.w3.org/2000/svg">
<path d="M24 12.75V4C24 3.33696 23.6839 2.70107 23.1213 2.23223C22.5587 1.76339 21.7956 1.5 21 1.5H3C2.20435 1.5 1.44129 1.76339 0.87868 2.23223C0.31607 2.70107 0 3.33696 0 4V12.75M24 12.75V19C24 19.663 23.6839 20.2989 23.1213 20.7678C22.5587 21.2366 21.7956 21.5 21 21.5H3C2.20435 21.5 1.44129 21.2366 0.87868 20.7678C0.31607 20.2989 0 19.663 0 19V12.75M24 12.75H20.121C19.7232 12.7501 19.3417 12.8818 19.0605 13.1163L15.4395 16.1337C15.1583 16.3682 14.7768 16.4999 14.379 16.5H9.621C9.22321 16.4999 8.84174 16.3682 8.5605 16.1337L4.9395 13.1163C4.65826 12.8818 4.27679 12.7501 3.879 12.75H0" stroke="black" stroke-width="2" stroke-linecap="round" stroke-linejoin="round"/>
</svg>
