<svg width="128" height="17" viewBox="0 0 128 17" fill="none" xmlns="http://www.w3.org/2000/svg">
<path d="M0.462542 16.5107C0.354974 16.5107 0.265334 16.4463 0.193622 16.3174C0.129081 16.1885 0.0968111 16.0703 0.0968111 15.9629C0.0968111 15.8411 0.12191 15.748 0.172109 15.6836C0.222307 15.6191 0.315533 15.5798 0.451785 15.5654C0.882057 15.5296 1.24779 15.4616 1.54898 15.3613C1.85734 15.2539 2.01152 15.0928 2.01152 14.8779L2.02228 3.25488C2.02228 2.96842 1.93622 2.75358 1.76411 2.61035C1.59918 2.46712 1.40914 2.37402 1.194 2.33105C0.978868 2.28092 0.709948 2.24154 0.387244 2.21289C0.229478 2.19857 0.125496 2.16992 0.0752975 2.12695C0.0250992 2.07682 0 1.97298 0 1.81543C0 1.70801 0.0322704 1.58984 0.0968111 1.46094C0.168523 1.33203 0.258163 1.26758 0.365731 1.26758H7.19629C7.30386 1.26758 7.38992 1.33203 7.45446 1.46094C7.52617 1.58984 7.56202 1.70801 7.56202 1.81543C7.56202 1.93717 7.53693 2.03027 7.48673 2.09473C7.43653 2.15918 7.3433 2.19857 7.20705 2.21289C6.16723 2.29167 5.64732 2.52083 5.64732 2.90039L5.63656 14.5234C5.63656 14.8099 5.71903 15.0247 5.88396 15.168C6.05607 15.3112 6.2497 15.4079 6.46483 15.458C6.67997 15.501 6.94889 15.5368 7.27159 15.5654C7.42936 15.5798 7.53334 15.612 7.58354 15.6621C7.63374 15.7051 7.65884 15.8053 7.65884 15.9629C7.65884 16.0703 7.62298 16.1885 7.55127 16.3174C7.48673 16.4463 7.40067 16.5107 7.2931 16.5107H0.462542Z" fill="#0F0E0E"/>
<path d="M9.87473 16.5107C9.76 16.5107 9.67036 16.4642 9.60581 16.3711C9.54127 16.2708 9.509 16.1706 9.509 16.0703C9.509 15.9486 9.5341 15.8555 9.5843 15.791C9.6345 15.7266 9.72773 15.6872 9.86398 15.6729C10.6241 15.5798 11.0042 15.3506 11.0042 14.9854V8.15332C11.0042 7.82389 10.9432 7.57324 10.8213 7.40137C10.6994 7.22949 10.556 7.11491 10.3911 7.05762C10.2333 7.00033 10.0253 6.95378 9.76717 6.91797C9.5592 6.88932 9.43729 6.86784 9.40144 6.85352C9.31538 6.81771 9.25084 6.76758 9.20781 6.70312C9.16479 6.63867 9.14327 6.54557 9.14327 6.42383C9.14327 6.32357 9.16479 6.22331 9.20781 6.12305C9.25801 6.01562 9.32255 5.95833 9.40144 5.95117C11.0795 5.85091 12.5962 5.80078 13.9516 5.80078C14.0233 5.80078 14.0914 5.83301 14.1559 5.89746C14.2205 5.96191 14.2599 6.07292 14.2743 6.23047V7.43359C14.4392 7.24023 14.7476 7.00033 15.1993 6.71387C15.6511 6.42025 16.1746 6.16602 16.7698 5.95117C17.3722 5.72917 17.9638 5.61816 18.5447 5.61816C19.606 5.61816 20.4487 5.84733 21.0726 6.30566C21.6964 6.75684 22.0084 7.59473 22.0084 8.81934V14.6309C22.0084 15.0319 22.1088 15.2933 22.3096 15.415C22.5104 15.5368 22.7183 15.6084 22.9335 15.6299C23.1558 15.6514 23.3028 15.6657 23.3745 15.6729C23.5036 15.6872 23.5932 15.723 23.6434 15.7803C23.7008 15.8304 23.7295 15.9271 23.7295 16.0703C23.7295 16.1706 23.6972 16.2708 23.6327 16.3711C23.5681 16.4642 23.4785 16.5107 23.3638 16.5107H17.5874C17.4726 16.5107 17.383 16.4642 17.3184 16.3711C17.2539 16.2708 17.2216 16.1706 17.2216 16.0703C17.2216 15.9414 17.2431 15.8483 17.2862 15.791C17.3292 15.7266 17.4188 15.6872 17.5551 15.6729C17.8204 15.6442 18.0571 15.569 18.265 15.4473C18.4802 15.3255 18.5877 15.1715 18.5877 14.9854V8.87305C18.5877 8.59375 18.5662 8.3431 18.5232 8.12109C18.4802 7.89909 18.3618 7.69857 18.1682 7.51953C17.9818 7.34049 17.6949 7.25098 17.3077 7.25098C16.9419 7.25098 16.5655 7.32259 16.1782 7.46582C15.7981 7.60189 15.4468 7.77376 15.124 7.98145C14.8085 8.18913 14.5611 8.39323 14.3818 8.59375V14.6309C14.3818 14.9173 14.432 15.1357 14.5324 15.2861C14.64 15.4294 14.7691 15.526 14.9197 15.5762C15.0703 15.6191 15.2639 15.6514 15.5005 15.6729C15.6583 15.6872 15.7623 15.7194 15.8125 15.7695C15.8627 15.8125 15.8878 15.9128 15.8878 16.0703C15.8878 16.1634 15.8519 16.2601 15.7802 16.3604C15.7157 16.4606 15.6296 16.5107 15.522 16.5107H9.87473Z" fill="#0F0E0E"/>
<path d="M29.2477 16.833C28.2151 16.833 27.3904 16.6325 26.7737 16.2314C26.1641 15.8304 25.8593 15.125 25.8593 14.1152V7.00391H24.7083C24.6366 6.99674 24.5757 6.94303 24.5255 6.84277C24.4753 6.73535 24.4502 6.63151 24.4502 6.53125C24.4502 6.40234 24.4717 6.29492 24.5147 6.20898C24.5649 6.12305 24.6331 6.06576 24.7191 6.03711L26.0637 5.63965C26.2286 5.60384 26.4151 5.46061 26.6231 5.20996C26.8382 4.95215 27.039 4.62272 27.2254 4.22168C27.4119 3.81348 27.5589 3.36947 27.6665 2.88965C27.731 2.61035 28.0071 2.4707 28.4947 2.4707C29.0398 2.4707 29.3123 2.59245 29.3123 2.83594V5.83301H31.6895C31.7684 5.84017 31.8293 5.87956 31.8724 5.95117C31.9226 6.02279 31.9477 6.10514 31.9477 6.19824C31.9477 6.42025 31.9118 6.60645 31.8401 6.75684C31.7756 6.90723 31.7038 6.98242 31.625 6.98242H29.3123V13.1592C29.3123 13.7679 29.3409 14.2334 29.3983 14.5557C29.4629 14.8708 29.5632 15.0892 29.6995 15.2109C29.8429 15.3255 30.0473 15.3828 30.3126 15.3828C30.5493 15.3828 30.829 15.3363 31.1517 15.2432C31.4744 15.1501 31.772 15.0355 32.0445 14.8994C32.0875 14.8779 32.1485 14.9209 32.2273 15.0283C32.3062 15.1357 32.3672 15.2539 32.4102 15.3828C32.4532 15.5046 32.4532 15.5798 32.4102 15.6084C32.2309 15.8018 31.9513 15.9951 31.5712 16.1885C31.1983 16.3747 30.7967 16.5286 30.3664 16.6504C29.9433 16.7721 29.5704 16.833 29.2477 16.833Z" fill="#0F0E0E"/>
<path d="M33.8086 16.5107C33.6939 16.5107 33.6042 16.4642 33.5397 16.3711C33.4751 16.2708 33.4429 16.1706 33.4429 16.0703C33.4429 15.9486 33.468 15.8555 33.5182 15.791C33.5684 15.7266 33.6616 15.6872 33.7978 15.6729C34.1492 15.6442 34.4432 15.5869 34.6799 15.501C34.9237 15.4079 35.0456 15.2718 35.0456 15.0928V8.15332C35.0456 7.81673 34.9847 7.55892 34.8628 7.37988C34.7408 7.20085 34.5974 7.08268 34.4325 7.02539C34.2675 6.9681 34.0524 6.91797 33.7871 6.875C33.7512 6.86784 33.6974 6.86068 33.6257 6.85352C33.554 6.83919 33.4931 6.82487 33.4429 6.81055C33.3568 6.77474 33.2923 6.72461 33.2492 6.66016C33.2062 6.5957 33.1847 6.5026 33.1847 6.38086C33.1847 6.2806 33.2098 6.18034 33.26 6.08008C33.3102 5.97266 33.3712 5.91536 33.4429 5.9082C34.7408 5.85807 36.1536 5.82227 37.681 5.80078H37.993C38.0647 5.80078 38.1328 5.83301 38.1974 5.89746C38.2619 5.96191 38.3013 6.07292 38.3157 6.23047V8.41113C38.5237 7.94564 38.8213 7.50163 39.2085 7.0791C39.6029 6.64941 40.0583 6.2985 40.5746 6.02637C41.0909 5.75423 41.6252 5.61816 42.1774 5.61816C42.7941 5.61816 43.2495 5.80794 43.5435 6.1875C43.8375 6.5599 43.9845 7.02181 43.9845 7.57324C43.9845 7.92415 43.9021 8.25716 43.7371 8.57227C43.5722 8.88737 43.3642 9.1416 43.1132 9.33496C42.8694 9.52116 42.6328 9.61426 42.4033 9.61426L40.8328 7.5625C40.3595 7.5625 39.9077 7.79883 39.4774 8.27148C39.0472 8.73698 38.7029 9.29199 38.4448 9.93652V14.7383C38.4448 14.9746 38.5237 15.1536 38.6814 15.2754C38.8464 15.3971 39.0436 15.4831 39.273 15.5332C39.5025 15.5762 39.8001 15.6156 40.1659 15.6514L40.3918 15.6729C40.5495 15.6872 40.6535 15.7194 40.7037 15.7695C40.7539 15.8125 40.779 15.9128 40.779 16.0703C40.779 16.1706 40.7467 16.2708 40.6822 16.3711C40.6176 16.4642 40.528 16.5107 40.4133 16.5107H33.8086Z" fill="#0F0E0E"/>
<path d="M49.8577 16.8008C49.0976 16.8008 48.4558 16.7148 47.9323 16.543C47.4159 16.3711 47.0036 16.0524 46.6952 15.5869C46.394 15.1143 46.2434 14.4554 46.2434 13.6104V7.71289C46.2434 7.42643 46.1861 7.21159 46.0713 7.06836C45.9566 6.91797 45.8203 6.82129 45.6626 6.77832C45.5048 6.72819 45.304 6.69238 45.0602 6.6709C44.9024 6.65658 44.7984 6.62793 44.7483 6.58496C44.6981 6.53483 44.673 6.43099 44.673 6.27344C44.673 6.18034 44.7052 6.08366 44.7698 5.9834C44.8415 5.88314 44.9311 5.83301 45.0387 5.83301H49.2446C49.5099 5.83301 49.6426 5.96191 49.6426 6.21973V12.6328C49.6426 14.3086 50.0406 15.1465 50.8366 15.1465C51.4318 15.1465 51.9445 15.0462 52.3748 14.8457C52.8123 14.6452 53.2138 14.348 53.5796 13.9541V7.71289C53.5796 7.42643 53.5043 7.21159 53.3537 7.06836C53.2103 6.91797 53.0346 6.82129 52.8266 6.77832C52.6258 6.72819 52.3676 6.69238 52.0521 6.6709C51.8943 6.65658 51.7904 6.62793 51.7402 6.58496C51.69 6.53483 51.6649 6.43099 51.6649 6.27344C51.6649 6.17318 51.6971 6.0765 51.7617 5.9834C51.8262 5.88314 51.9159 5.83301 52.0306 5.83301H56.5807C56.8461 5.83301 56.9787 5.96191 56.9787 6.21973V14.126C56.9787 14.5771 57.0182 14.8779 57.097 15.0283C57.1831 15.1715 57.3014 15.2432 57.452 15.2432C57.7102 15.2432 57.8966 15.2145 58.0114 15.1572C58.1189 15.0999 58.2158 15.168 58.3018 15.3613C58.3879 15.5547 58.4309 15.7445 58.4309 15.9307C58.4309 16.0309 58.413 16.0918 58.3771 16.1133C58.1333 16.2708 57.7532 16.4212 57.2369 16.5645C56.7277 16.7077 56.0787 16.7793 55.2899 16.7793C54.666 16.7793 54.2537 16.5895 54.0529 16.21C53.8521 15.8232 53.7553 15.3971 53.7624 14.9316C53.533 15.2611 53.2067 15.569 52.7836 15.8555C52.3676 16.1419 51.9015 16.3711 51.3852 16.543C50.876 16.7148 50.3669 16.8008 49.8577 16.8008Z" fill="#0F0E0E"/>
<path d="M66.0037 16.8223C63.924 16.8223 62.375 16.3317 61.3567 15.3506C60.3456 14.3695 59.84 13.0016 59.84 11.2471C59.84 10.0941 60.0982 9.09505 60.6145 8.25C61.1308 7.39779 61.8515 6.74609 62.7766 6.29492C63.7089 5.84375 64.7846 5.61816 66.0037 5.61816C67.108 5.61816 68.0009 5.79004 68.6821 6.13379C69.3634 6.47754 69.8546 7.00033 70.1558 7.70215C70.2203 7.84538 70.2598 7.96712 70.2741 8.06738C70.2956 8.16048 70.3064 8.27148 70.3064 8.40039C70.3064 8.7513 70.2203 9.0485 70.0482 9.29199C69.8761 9.52832 69.6682 9.70378 69.4243 9.81836C69.1877 9.93294 68.969 9.99023 68.7682 9.99023C68.5243 9.99023 68.2949 9.9222 68.0797 9.78613C67.8646 9.6429 67.7248 9.49609 67.6602 9.3457L66.5523 6.71387C66.416 6.59212 66.2152 6.53125 65.9499 6.53125C65.4909 6.53125 65.0786 6.69238 64.7129 7.01465C64.3543 7.33691 64.071 7.85254 63.8631 8.56152C63.6551 9.26335 63.5511 10.1585 63.5511 11.2471C63.5511 12.1566 63.6802 12.9229 63.9384 13.5459C64.1965 14.1618 64.53 14.6237 64.9387 14.9316C65.3547 15.2324 65.8029 15.3828 66.2833 15.3828C66.8642 15.3828 67.4056 15.2897 67.9076 15.1035C68.4096 14.9102 68.8148 14.6344 69.1231 14.2764C69.1303 14.2692 69.1482 14.2477 69.1769 14.2119C69.2128 14.1689 69.2486 14.1403 69.2845 14.126C69.3203 14.1117 69.3598 14.1081 69.4028 14.1152L69.8761 14.3408C69.9478 14.3695 69.9837 14.4124 69.9837 14.4697C69.9837 14.5127 69.9622 14.5736 69.9191 14.6523C69.5534 15.2897 69.012 15.8125 68.2949 16.2207C67.5777 16.6217 66.814 16.8223 66.0037 16.8223Z" fill="#0F0E0E"/>
<path d="M76.0828 16.833C75.0501 16.833 74.2254 16.6325 73.6087 16.2314C72.9992 15.8304 72.6944 15.125 72.6944 14.1152V7.00391H71.5434C71.4717 6.99674 71.4108 6.94303 71.3606 6.84277C71.3104 6.73535 71.2853 6.63151 71.2853 6.53125C71.2853 6.40234 71.3068 6.29492 71.3498 6.20898C71.4 6.12305 71.4681 6.06576 71.5542 6.03711L72.8988 5.63965C73.0637 5.60384 73.2502 5.46061 73.4581 5.20996C73.6733 4.95215 73.8741 4.62272 74.0605 4.22168C74.247 3.81348 74.394 3.36947 74.5015 2.88965C74.5661 2.61035 74.8422 2.4707 75.3298 2.4707C75.8748 2.4707 76.1473 2.59245 76.1473 2.83594V5.83301H78.5246C78.6035 5.84017 78.6644 5.87956 78.7074 5.95117C78.7576 6.02279 78.7827 6.10514 78.7827 6.19824C78.7827 6.42025 78.7469 6.60645 78.6752 6.75684C78.6106 6.90723 78.5389 6.98242 78.46 6.98242H76.1473V13.1592C76.1473 13.7679 76.176 14.2334 76.2334 14.5557C76.2979 14.8708 76.3983 15.0892 76.5346 15.2109C76.678 15.3255 76.8824 15.3828 77.1477 15.3828C77.3844 15.3828 77.664 15.3363 77.9867 15.2432C78.3094 15.1501 78.607 15.0355 78.8795 14.8994C78.9226 14.8779 78.9835 14.9209 79.0624 15.0283C79.1413 15.1357 79.2023 15.2539 79.2453 15.3828C79.2883 15.5046 79.2883 15.5798 79.2453 15.6084C79.066 15.8018 78.7863 15.9951 78.4063 16.1885C78.0333 16.3747 77.6318 16.5286 77.2015 16.6504C76.7784 16.7721 76.4055 16.833 76.0828 16.833Z" fill="#0F0E0E"/>
<path d="M80.6867 16.5107C80.5719 16.5107 80.4823 16.4642 80.4178 16.3711C80.3532 16.2708 80.321 16.1706 80.321 16.0703C80.321 15.9486 80.3461 15.8555 80.3963 15.791C80.4536 15.7194 80.5469 15.68 80.6759 15.6729C81.013 15.6442 81.3034 15.5869 81.5472 15.501C81.7911 15.4079 81.913 15.2718 81.913 15.0928L81.9237 8.15332C81.9237 7.82389 81.8628 7.57324 81.7409 7.40137C81.6261 7.22949 81.4863 7.11491 81.3213 7.05762C81.1636 7.00033 80.9556 6.95378 80.6974 6.91797C80.4751 6.88216 80.3496 6.86068 80.321 6.85352C80.2349 6.81771 80.1704 6.76758 80.1273 6.70312C80.0843 6.63867 80.0628 6.54557 80.0628 6.42383C80.0628 6.32357 80.0843 6.22331 80.1273 6.12305C80.1775 6.01562 80.2421 5.95833 80.321 5.95117C81.913 5.85091 83.4727 5.80078 85.0002 5.80078C85.079 5.80078 85.1508 5.83659 85.2153 5.9082C85.287 5.97266 85.3229 6.08008 85.3229 6.23047V14.7383C85.3229 14.9889 85.3874 15.1823 85.5165 15.3184C85.6527 15.4473 85.8069 15.5332 85.979 15.5762C86.1511 15.612 86.3699 15.6442 86.6352 15.6729C86.793 15.6872 86.8969 15.7194 86.9471 15.7695C86.9973 15.8125 87.0224 15.9128 87.0224 16.0703C87.0224 16.1634 86.9866 16.2601 86.9149 16.3604C86.8503 16.4606 86.7643 16.5107 86.6567 16.5107H80.6867ZM83.548 3.94238C83.1751 3.94238 82.8345 3.86003 82.5261 3.69531C82.2177 3.52344 81.9739 3.29069 81.7946 2.99707C81.6154 2.69629 81.5257 2.35612 81.5257 1.97656C81.5257 1.59701 81.6154 1.25684 81.7946 0.956055C81.9739 0.655273 82.2177 0.422526 82.5261 0.257812C82.8345 0.0859375 83.1751 0 83.548 0C83.9137 0 84.2508 0.0859375 84.5591 0.257812C84.8675 0.422526 85.1113 0.655273 85.2906 0.956055C85.477 1.25684 85.5703 1.59701 85.5703 1.97656C85.5703 2.35612 85.477 2.69629 85.2906 2.99707C85.1113 3.29069 84.8675 3.52344 84.5591 3.69531C84.2508 3.86003 83.9137 3.94238 83.548 3.94238Z" fill="#0F0E0E"/>
<path d="M88.1519 11.2256C88.1519 10.0081 88.4101 8.98047 88.9264 8.14258C89.4427 7.30469 90.167 6.67448 91.0993 6.25195C92.0387 5.82943 93.1395 5.61816 94.4016 5.61816C95.6637 5.61816 96.7538 5.82943 97.6717 6.25195C98.5896 6.67448 99.2924 7.30469 99.78 8.14258C100.275 8.98047 100.522 10.0081 100.522 11.2256C100.522 12.443 100.268 13.4707 99.7585 14.3086C99.2565 15.1465 98.543 15.7767 97.6179 16.1992C96.6928 16.6146 95.5956 16.8223 94.3263 16.8223C93.0642 16.8223 91.9706 16.6146 91.0455 16.1992C90.1204 15.7767 89.4069 15.1465 88.9049 14.3086C88.4029 13.4707 88.1519 12.443 88.1519 11.2256ZM91.9275 11.2256C91.9275 12.2425 91.9993 13.084 92.1427 13.75C92.2861 14.4089 92.5335 14.9173 92.8849 15.2754C93.2434 15.6263 93.7347 15.8018 94.3586 15.8018C94.9753 15.8018 95.4558 15.6263 95.8 15.2754C96.1514 14.9173 96.3952 14.4089 96.5314 13.75C96.6677 13.0911 96.7358 12.2497 96.7358 11.2256C96.7358 10.2087 96.6641 9.37077 96.5207 8.71191C96.3773 8.0459 96.1263 7.53744 95.7677 7.18652C95.4163 6.82845 94.9323 6.64941 94.3155 6.64941C93.6988 6.64941 93.2148 6.82845 92.8634 7.18652C92.512 7.53744 92.2682 8.0459 92.1319 8.71191C91.9957 9.37077 91.9275 10.2087 91.9275 11.2256Z" fill="#0F0E0E"/>
<path d="M102.469 16.5107C102.354 16.5107 102.265 16.4642 102.2 16.3711C102.136 16.2708 102.103 16.1706 102.103 16.0703C102.103 15.9486 102.129 15.8555 102.179 15.791C102.229 15.7266 102.322 15.6872 102.458 15.6729C103.219 15.5798 103.599 15.3506 103.599 14.9854V8.15332C103.599 7.82389 103.538 7.57324 103.416 7.40137C103.294 7.22949 103.15 7.11491 102.986 7.05762C102.828 7.00033 102.62 6.95378 102.362 6.91797C102.154 6.88932 102.032 6.86784 101.996 6.85352C101.91 6.81771 101.845 6.76758 101.802 6.70312C101.759 6.63867 101.738 6.54557 101.738 6.42383C101.738 6.32357 101.759 6.22331 101.802 6.12305C101.852 6.01562 101.917 5.95833 101.996 5.95117C103.674 5.85091 105.191 5.80078 106.546 5.80078C106.618 5.80078 106.686 5.83301 106.75 5.89746C106.815 5.96191 106.854 6.07292 106.869 6.23047V7.43359C107.034 7.24023 107.342 7.00033 107.794 6.71387C108.246 6.42025 108.769 6.16602 109.364 5.95117C109.967 5.72917 110.558 5.61816 111.139 5.61816C112.201 5.61816 113.043 5.84733 113.667 6.30566C114.291 6.75684 114.603 7.59473 114.603 8.81934V14.6309C114.603 15.0319 114.703 15.2933 114.904 15.415C115.105 15.5368 115.313 15.6084 115.528 15.6299C115.75 15.6514 115.897 15.6657 115.969 15.6729C116.098 15.6872 116.188 15.723 116.238 15.7803C116.295 15.8304 116.324 15.9271 116.324 16.0703C116.324 16.1706 116.292 16.2708 116.227 16.3711C116.163 16.4642 116.073 16.5107 115.958 16.5107H110.182C110.067 16.5107 109.977 16.4642 109.913 16.3711C109.848 16.2708 109.816 16.1706 109.816 16.0703C109.816 15.9414 109.838 15.8483 109.881 15.791C109.924 15.7266 110.013 15.6872 110.15 15.6729C110.415 15.6442 110.652 15.569 110.859 15.4473C111.075 15.3255 111.182 15.1715 111.182 14.9854V8.87305C111.182 8.59375 111.161 8.3431 111.118 8.12109C111.075 7.89909 110.956 7.69857 110.763 7.51953C110.576 7.34049 110.289 7.25098 109.902 7.25098C109.536 7.25098 109.16 7.32259 108.773 7.46582C108.393 7.60189 108.041 7.77376 107.719 7.98145C107.403 8.18913 107.156 8.39323 106.976 8.59375V14.6309C106.976 14.9173 107.026 15.1357 107.127 15.2861C107.234 15.4294 107.364 15.526 107.514 15.5762C107.665 15.6191 107.858 15.6514 108.095 15.6729C108.253 15.6872 108.357 15.7194 108.407 15.7695C108.457 15.8125 108.482 15.9128 108.482 16.0703C108.482 16.1634 108.446 16.2601 108.375 16.3604C108.31 16.4606 108.224 16.5107 108.117 16.5107H102.469Z" fill="#0F0E0E"/>
<path d="M122.122 16.833C121.598 16.833 121.111 16.765 120.659 16.6289C120.207 16.4928 119.823 16.346 119.508 16.1885C119.393 16.1312 119.282 16.1025 119.174 16.1025C119.045 16.1025 118.949 16.1204 118.884 16.1562C118.82 16.1921 118.755 16.2493 118.69 16.3281C118.619 16.4141 118.547 16.4749 118.475 16.5107C118.404 16.5537 118.296 16.5752 118.153 16.5752C118.009 16.5752 117.88 16.5465 117.765 16.4893C117.658 16.4248 117.604 16.346 117.604 16.2529L117.561 15.0283C117.525 13.7393 117.507 13.0661 117.507 13.0088C117.507 12.8512 117.561 12.7367 117.669 12.665C117.783 12.5863 117.916 12.5469 118.067 12.5469C118.188 12.5469 118.296 12.5684 118.389 12.6113C118.482 12.6543 118.54 12.7116 118.561 12.7832C118.683 13.2129 118.866 13.682 119.11 14.1904C119.232 14.4411 119.415 14.6989 119.659 14.9639C119.902 15.2217 120.221 15.4473 120.616 15.6406C121.017 15.8268 121.476 15.9199 121.993 15.9199C122.595 15.9199 123.065 15.8161 123.402 15.6084C123.746 15.4007 123.918 15.0964 123.918 14.6953C123.918 14.3659 123.821 14.0794 123.628 13.8359C123.441 13.5853 123.119 13.3418 122.66 13.1055C122.208 12.8691 121.57 12.6042 120.745 12.3105C119.906 12.0169 119.192 11.598 118.604 11.0537C118.024 10.5094 117.733 9.8112 117.733 8.95898C117.733 8.3431 117.93 7.78092 118.325 7.27246C118.726 6.75684 119.275 6.35221 119.97 6.05859C120.673 5.76497 121.451 5.61816 122.305 5.61816C122.706 5.61816 123.068 5.66113 123.391 5.74707C123.714 5.82585 124.047 5.92969 124.392 6.05859C124.442 6.07292 124.521 6.10156 124.628 6.14453C124.743 6.18034 124.825 6.19824 124.876 6.19824C124.983 6.19824 125.055 6.18034 125.091 6.14453C125.134 6.10156 125.166 6.05143 125.188 5.99414C125.209 5.92969 125.231 5.87956 125.252 5.84375C125.295 5.77214 125.363 5.71842 125.456 5.68262C125.557 5.63965 125.664 5.61816 125.779 5.61816C125.944 5.61816 126.088 5.65397 126.209 5.72559C126.331 5.79004 126.392 5.87956 126.392 5.99414C126.392 6.08008 126.389 6.16244 126.382 6.24121C126.367 6.61361 126.36 7.01823 126.36 7.45508C126.36 7.68424 126.371 7.90267 126.392 8.11035C126.407 8.36816 126.414 8.54362 126.414 8.63672C126.414 8.83724 126.36 8.98763 126.252 9.08789C126.145 9.18099 126.009 9.22754 125.844 9.22754C125.729 9.22754 125.625 9.20964 125.532 9.17383C125.446 9.13086 125.392 9.07715 125.37 9.0127C125.227 8.58301 125.055 8.19629 124.854 7.85254C124.66 7.50163 124.363 7.19727 123.961 6.93945C123.567 6.67448 123.058 6.54199 122.434 6.54199C122.011 6.54199 121.638 6.63509 121.315 6.82129C121 7.00749 120.842 7.30827 120.842 7.72363C120.842 8.0459 120.928 8.3252 121.1 8.56152C121.272 8.79785 121.53 9.00911 121.874 9.19531C122.226 9.38151 122.692 9.57129 123.273 9.76465C124.485 10.1657 125.446 10.6527 126.156 11.2256C126.873 11.7913 127.231 12.554 127.231 13.5137C127.231 14.5951 126.794 15.4186 125.919 15.9844C125.044 16.5501 123.778 16.833 122.122 16.833Z" fill="#0F0E0E"/>
</svg>
