<svg width="430" height="24" viewBox="0 0 430 24" fill="none" xmlns="http://www.w3.org/2000/svg">
<path d="M1.04565 18.2578C0.928467 18.2578 0.830811 18.1875 0.752686 18.0469C0.682373 17.9062 0.647217 17.7773 0.647217 17.6602C0.647217 17.5273 0.674561 17.4258 0.729248 17.3555C0.783936 17.2852 0.885498 17.2422 1.03394 17.2266C1.50269 17.1875 1.90112 17.1133 2.22925 17.0039C2.56519 16.8867 2.73315 16.7109 2.73315 16.4766L2.74487 3.79688C2.74487 3.49219 2.65503 3.26172 2.47534 3.10547C2.29565 2.94922 2.09644 2.84766 1.87769 2.80078C1.66675 2.75391 1.36206 2.70703 0.963623 2.66016C0.791748 2.64453 0.678467 2.61328 0.623779 2.56641C0.569092 2.51172 0.541748 2.39844 0.541748 2.22656C0.541748 2.10938 0.576904 1.98047 0.647217 1.83984C0.725342 1.69922 0.822998 1.62891 0.940186 1.62891H3.55347C4.05347 1.62891 4.72534 1.60547 5.56909 1.55859C6.42847 1.51172 7.13159 1.48828 7.67847 1.48828C8.66284 1.48828 9.573 1.65625 10.4089 1.99219C11.2527 2.32031 11.9363 2.85547 12.4597 3.59766C12.9832 4.33203 13.2449 5.27344 13.2449 6.42188C13.2449 7.45312 12.9871 8.375 12.4714 9.1875C11.9558 9.99219 11.2371 10.6211 10.3152 11.0742C9.39331 11.5273 8.35425 11.7539 7.198 11.7539H5.15894V16.0898C5.15894 16.3945 5.28003 16.6289 5.52222 16.793C5.77222 16.9492 6.05347 17.0547 6.36597 17.1094C6.67847 17.1562 7.06519 17.1953 7.52612 17.2266C7.698 17.2422 7.81128 17.2773 7.86597 17.332C7.92065 17.3789 7.948 17.4883 7.948 17.6602C7.948 17.7773 7.90894 17.9062 7.83081 18.0469C7.7605 18.1875 7.66675 18.2578 7.54956 18.2578H1.04565ZM7.16284 10.7461C7.53784 10.7461 7.99487 10.6133 8.53394 10.3477C9.073 10.0742 9.54565 9.63281 9.9519 9.02344C10.366 8.40625 10.573 7.62109 10.573 6.66797C10.573 5.18359 10.2097 4.125 9.48315 3.49219C8.7644 2.85156 7.86206 2.53125 6.77612 2.53125H5.17065L5.15894 10.7461H7.16284Z" fill="#C5BEBE"/>
<path d="M15.4597 18.2578C15.3347 18.2578 15.2371 18.207 15.1667 18.1055C15.0964 17.9961 15.0613 17.8867 15.0613 17.7773C15.0613 17.6445 15.0886 17.543 15.1433 17.4727C15.198 17.4023 15.2996 17.3594 15.448 17.3438C16.3542 17.2578 16.8074 17.0078 16.8074 16.5938V9.14062C16.8074 8.77344 16.741 8.49219 16.6082 8.29688C16.4753 8.10156 16.3191 7.97266 16.1394 7.91016C15.9597 7.84766 15.7253 7.79297 15.4363 7.74609C15.3972 7.73828 15.3386 7.73047 15.2605 7.72266C15.1824 7.70703 15.116 7.69141 15.0613 7.67578C14.9675 7.63672 14.8972 7.58203 14.8503 7.51172C14.8035 7.44141 14.78 7.33984 14.78 7.20703C14.78 7.09766 14.8074 6.98828 14.8621 6.87891C14.9167 6.76172 14.9832 6.69922 15.0613 6.69141C15.9441 6.63672 17.0964 6.59766 18.5183 6.57422C18.5964 6.57422 18.6707 6.60938 18.741 6.67969C18.8113 6.75 18.8542 6.87109 18.8699 7.04297V8.67188C19.3308 7.95312 19.7878 7.39062 20.241 6.98438C20.6941 6.57812 21.2371 6.375 21.8699 6.375C22.5496 6.375 23.0105 6.52734 23.2527 6.83203C23.5027 7.13672 23.6277 7.53516 23.6277 8.02734C23.6277 8.30078 23.5417 8.53516 23.3699 8.73047C23.198 8.92578 22.991 9.07422 22.7488 9.17578C22.5144 9.27734 22.3074 9.32812 22.1277 9.32812L21.0144 7.92188C20.7878 7.92188 20.5417 8.01172 20.2761 8.19141C20.0105 8.37109 19.7605 8.60938 19.5261 8.90625C19.2996 9.20312 19.1199 9.52344 18.9871 9.86719V16.207C18.9871 16.5195 19.0886 16.7539 19.2917 16.9102C19.5027 17.0664 19.741 17.1719 20.0066 17.2266C20.2722 17.2734 20.6042 17.3125 21.0027 17.3438C21.1746 17.3594 21.2878 17.3945 21.3425 17.4492C21.3972 17.4961 21.4246 17.6055 21.4246 17.7773C21.4246 17.8867 21.3894 17.9961 21.3191 18.1055C21.2488 18.207 21.1511 18.2578 21.0261 18.2578H15.4597Z" fill="#C5BEBE"/>
<path d="M30.1433 18.5977C28.3699 18.5977 27.0222 18.0586 26.1003 16.9805C25.1785 15.9023 24.7175 14.375 24.7175 12.3984C24.7175 11.1406 24.9558 10.0586 25.4324 9.15234C25.9167 8.23828 26.5613 7.54688 27.366 7.07812C28.1707 6.60938 29.0496 6.375 30.0027 6.375C31.4011 6.375 32.4558 6.72656 33.1667 7.42969C33.8777 8.125 34.3464 9.12109 34.573 10.418C34.6667 10.9492 34.7136 11.5977 34.7136 12.3633H27.2371C27.2449 13.5352 27.4011 14.4961 27.7058 15.2461C28.0105 15.9961 28.405 16.5391 28.8894 16.875C29.3738 17.2109 29.8933 17.3789 30.448 17.3789C31.0496 17.3789 31.5925 17.2422 32.0769 16.9688C32.5691 16.6953 32.9402 16.3125 33.1902 15.8203C33.198 15.8047 33.2097 15.7773 33.2253 15.7383C33.2488 15.6914 33.2722 15.6602 33.2957 15.6445C33.3269 15.6289 33.366 15.625 33.4128 15.6328L33.9988 15.9023C34.0847 15.9336 34.1277 15.9805 34.1277 16.043C34.1277 16.0742 34.1042 16.1367 34.0574 16.2305C33.6902 16.9648 33.1824 17.543 32.5339 17.9648C31.8933 18.3867 31.0964 18.5977 30.1433 18.5977ZM32.1121 11.2852C32.1121 9.99609 31.9167 9.04297 31.5261 8.42578C31.1433 7.80859 30.6316 7.5 29.991 7.5C29.3738 7.5 28.8816 7.59766 28.5144 7.79297C28.1472 7.98047 27.8542 8.35156 27.6355 8.90625C27.4246 9.46094 27.2996 10.2773 27.2605 11.3555L32.1121 11.2852Z" fill="#C5BEBE"/>
<path d="M36.2136 23.25C36.0964 23.25 35.9988 23.1953 35.9207 23.0859C35.8503 22.9766 35.8152 22.8711 35.8152 22.7695C35.8152 22.5977 35.8425 22.4844 35.8972 22.4297C35.9519 22.3828 36.0652 22.3516 36.2371 22.3359C36.5183 22.3047 36.7527 22.2617 36.9402 22.207C37.1355 22.1602 37.3035 22.0586 37.4441 21.9023C37.5925 21.7461 37.6667 21.5117 37.6667 21.1992V9.14062C37.6667 8.77344 37.6003 8.49609 37.4675 8.30859C37.3347 8.11328 37.1746 7.98438 36.9871 7.92188C36.8074 7.85156 36.5769 7.79297 36.2957 7.74609C36.0769 7.70703 35.9519 7.68359 35.9207 7.67578C35.8269 7.63672 35.7566 7.58203 35.7097 7.51172C35.6628 7.44141 35.6394 7.33984 35.6394 7.20703C35.6394 7.09766 35.6628 6.98828 35.7097 6.87891C35.7644 6.76172 35.8347 6.69922 35.9207 6.69141C37.1785 6.61328 38.3699 6.57422 39.4949 6.57422C39.573 6.57422 39.6472 6.60938 39.7175 6.67969C39.7878 6.75 39.8308 6.87109 39.8464 7.04297V7.78125C40.2605 7.35938 40.7644 7.01953 41.3582 6.76172C41.9597 6.50391 42.5378 6.375 43.0925 6.375C44.2644 6.375 45.2253 6.65625 45.9753 7.21875C46.7332 7.77344 47.2839 8.51172 47.6277 9.43359C47.9714 10.3555 48.1433 11.375 48.1433 12.4922C48.1433 13.5938 47.9519 14.6094 47.5691 15.5391C47.1863 16.4609 46.5964 17.2031 45.7996 17.7656C45.0027 18.3281 44.0144 18.6094 42.8347 18.6094C41.405 18.6094 40.3699 18.3242 39.7292 17.7539L39.8464 18.5977V21.5859C39.8464 21.8203 40.0457 21.9922 40.4441 22.1016C40.8425 22.2188 41.3308 22.2969 41.9089 22.3359C42.0574 22.3516 42.1589 22.3945 42.2136 22.4648C42.2683 22.5352 42.2957 22.6367 42.2957 22.7695C42.2957 22.8789 42.2605 22.9844 42.1902 23.0859C42.1199 23.1953 42.0222 23.25 41.8972 23.25H36.2136ZM42.4011 17.4961C43.6121 17.4961 44.4519 17.0586 44.9207 16.1836C45.3972 15.3008 45.6355 14.0703 45.6355 12.4922C45.6355 10.9219 45.3933 9.69922 44.9089 8.82422C44.4246 7.94141 43.573 7.5 42.3542 7.5C41.9324 7.5 41.4792 7.61719 40.9949 7.85156C40.5105 8.07812 40.1277 8.35547 39.8464 8.68359V16.4062C40.3074 17.1328 41.1589 17.4961 42.4011 17.4961Z" fill="#C5BEBE"/>
<path d="M50.3582 15.4102C50.3582 14.4414 50.6863 13.6719 51.3425 13.1016C51.9988 12.5234 52.8152 12.1016 53.7917 11.8359C54.7761 11.5703 55.9089 11.3711 57.1902 11.2383V9.43359C57.1902 9.10547 57.1121 8.79297 56.9558 8.49609C56.8074 8.19141 56.5496 7.9375 56.1824 7.73438C55.823 7.53125 55.3542 7.42969 54.7761 7.42969C54.4792 7.42969 54.2449 7.44922 54.073 7.48828C53.9089 7.51953 53.7605 7.56641 53.6277 7.62891L52.2214 10.4648C51.7527 10.4648 51.3855 10.3594 51.1199 10.1484C50.8621 9.9375 50.7332 9.58984 50.7332 9.10547C50.7332 8.63672 50.9285 8.19531 51.3191 7.78125C51.7097 7.35938 52.2527 7.01953 52.948 6.76172C53.6433 6.50391 54.4246 6.375 55.2917 6.375C56.3933 6.375 57.2449 6.55469 57.8464 6.91406C58.4558 7.26562 58.866 7.71875 59.0769 8.27344C59.2957 8.82812 59.405 9.46484 59.405 10.1836V15.9023C59.405 16.2227 59.448 16.5117 59.5339 16.7695C59.6199 17.0273 59.7253 17.1562 59.8503 17.1562C59.9675 17.1562 60.0652 17.1523 60.1433 17.1445C60.2292 17.1289 60.3386 17.1016 60.4714 17.0625C60.5964 17.0234 60.7058 17.0664 60.7996 17.1914C60.8933 17.3086 60.9402 17.4336 60.9402 17.5664C60.9402 17.6523 60.9167 17.7148 60.8699 17.7539C60.6277 17.9336 60.3152 18.1016 59.9324 18.2578C59.5496 18.4062 59.1902 18.4805 58.8542 18.4805C58.5261 18.4805 58.2722 18.4648 58.0925 18.4336C57.9207 18.4023 57.7605 18.2852 57.6121 18.082C57.4714 17.8789 57.4011 17.5508 57.4011 17.0977V16.9805C56.8855 17.5195 56.3347 17.9102 55.7488 18.1523C55.1628 18.3867 54.4597 18.5039 53.6394 18.5039C53.1238 18.5039 52.6121 18.3984 52.1042 18.1875C51.6042 17.9688 51.1863 17.6289 50.8503 17.168C50.5222 16.6992 50.3582 16.1133 50.3582 15.4102ZM52.8074 15.3516C52.8074 15.6797 52.8738 15.9883 53.0066 16.2773C53.1472 16.5586 53.3425 16.7852 53.5925 16.957C53.8503 17.1211 54.1472 17.2031 54.4832 17.2031C55.0691 17.2031 55.5964 17.1055 56.0652 16.9102C56.5339 16.707 56.905 16.4688 57.1785 16.1953V12.0703C56.155 12.2188 55.3425 12.3945 54.741 12.5977C54.1472 12.793 53.6746 13.1094 53.323 13.5469C52.9792 13.9766 52.8074 14.5781 52.8074 15.3516Z" fill="#C5BEBE"/>
<path d="M62.7097 18.2578C62.5847 18.2578 62.4871 18.207 62.4167 18.1055C62.3464 17.9961 62.3113 17.8867 62.3113 17.7773C62.3113 17.6445 62.3386 17.543 62.3933 17.4727C62.448 17.4023 62.5496 17.3594 62.698 17.3438C63.6042 17.2578 64.0574 17.0078 64.0574 16.5938V9.14062C64.0574 8.77344 63.991 8.49219 63.8582 8.29688C63.7253 8.10156 63.5691 7.97266 63.3894 7.91016C63.2097 7.84766 62.9753 7.79297 62.6863 7.74609C62.6472 7.73828 62.5886 7.73047 62.5105 7.72266C62.4324 7.70703 62.366 7.69141 62.3113 7.67578C62.2175 7.63672 62.1472 7.58203 62.1003 7.51172C62.0535 7.44141 62.03 7.33984 62.03 7.20703C62.03 7.09766 62.0574 6.98828 62.1121 6.87891C62.1667 6.76172 62.2332 6.69922 62.3113 6.69141C63.1941 6.63672 64.3464 6.59766 65.7683 6.57422C65.8464 6.57422 65.9207 6.60938 65.991 6.67969C66.0613 6.75 66.1042 6.87109 66.1199 7.04297V8.67188C66.5808 7.95312 67.0378 7.39062 67.491 6.98438C67.9441 6.57812 68.4871 6.375 69.1199 6.375C69.7996 6.375 70.2605 6.52734 70.5027 6.83203C70.7527 7.13672 70.8777 7.53516 70.8777 8.02734C70.8777 8.30078 70.7917 8.53516 70.6199 8.73047C70.448 8.92578 70.241 9.07422 69.9988 9.17578C69.7644 9.27734 69.5574 9.32812 69.3777 9.32812L68.2644 7.92188C68.0378 7.92188 67.7917 8.01172 67.5261 8.19141C67.2605 8.37109 67.0105 8.60938 66.7761 8.90625C66.5496 9.20312 66.3699 9.52344 66.2371 9.86719V16.207C66.2371 16.5195 66.3386 16.7539 66.5417 16.9102C66.7527 17.0664 66.991 17.1719 67.2566 17.2266C67.5222 17.2734 67.8542 17.3125 68.2527 17.3438C68.4246 17.3594 68.5378 17.3945 68.5925 17.4492C68.6472 17.4961 68.6746 17.6055 68.6746 17.7773C68.6746 17.8867 68.6394 17.9961 68.5691 18.1055C68.4988 18.207 68.4011 18.2578 68.2761 18.2578H62.7097Z" fill="#C5BEBE"/>
<path d="M72.2957 15.4102C72.2957 14.4414 72.6238 13.6719 73.28 13.1016C73.9363 12.5234 74.7527 12.1016 75.7292 11.8359C76.7136 11.5703 77.8464 11.3711 79.1277 11.2383V9.43359C79.1277 9.10547 79.0496 8.79297 78.8933 8.49609C78.7449 8.19141 78.4871 7.9375 78.1199 7.73438C77.7605 7.53125 77.2917 7.42969 76.7136 7.42969C76.4167 7.42969 76.1824 7.44922 76.0105 7.48828C75.8464 7.51953 75.698 7.56641 75.5652 7.62891L74.1589 10.4648C73.6902 10.4648 73.323 10.3594 73.0574 10.1484C72.7996 9.9375 72.6707 9.58984 72.6707 9.10547C72.6707 8.63672 72.866 8.19531 73.2566 7.78125C73.6472 7.35938 74.1902 7.01953 74.8855 6.76172C75.5808 6.50391 76.3621 6.375 77.2292 6.375C78.3308 6.375 79.1824 6.55469 79.7839 6.91406C80.3933 7.26562 80.8035 7.71875 81.0144 8.27344C81.2332 8.82812 81.3425 9.46484 81.3425 10.1836V15.9023C81.3425 16.2227 81.3855 16.5117 81.4714 16.7695C81.5574 17.0273 81.6628 17.1562 81.7878 17.1562C81.905 17.1562 82.0027 17.1523 82.0808 17.1445C82.1667 17.1289 82.2761 17.1016 82.4089 17.0625C82.5339 17.0234 82.6433 17.0664 82.7371 17.1914C82.8308 17.3086 82.8777 17.4336 82.8777 17.5664C82.8777 17.6523 82.8542 17.7148 82.8074 17.7539C82.5652 17.9336 82.2527 18.1016 81.8699 18.2578C81.4871 18.4062 81.1277 18.4805 80.7917 18.4805C80.4636 18.4805 80.2097 18.4648 80.03 18.4336C79.8582 18.4023 79.698 18.2852 79.5496 18.082C79.4089 17.8789 79.3386 17.5508 79.3386 17.0977V16.9805C78.823 17.5195 78.2722 17.9102 77.6863 18.1523C77.1003 18.3867 76.3972 18.5039 75.5769 18.5039C75.0613 18.5039 74.5496 18.3984 74.0417 18.1875C73.5417 17.9688 73.1238 17.6289 72.7878 17.168C72.4597 16.6992 72.2957 16.1133 72.2957 15.4102ZM74.7449 15.3516C74.7449 15.6797 74.8113 15.9883 74.9441 16.2773C75.0847 16.5586 75.28 16.7852 75.53 16.957C75.7878 17.1211 76.0847 17.2031 76.4207 17.2031C77.0066 17.2031 77.5339 17.1055 78.0027 16.9102C78.4714 16.707 78.8425 16.4688 79.116 16.1953V12.0703C78.0925 12.2188 77.28 12.3945 76.6785 12.5977C76.0847 12.793 75.6121 13.1094 75.2605 13.5469C74.9167 13.9766 74.7449 14.5781 74.7449 15.3516Z" fill="#C5BEBE"/>
<path d="M88.2214 18.6094C87.1746 18.6094 86.4128 18.375 85.9363 17.9062C85.4675 17.4297 85.2332 16.6758 85.2332 15.6445V7.62891H83.8855C83.7996 7.62109 83.7292 7.57812 83.6746 7.5C83.6277 7.42188 83.6042 7.33203 83.6042 7.23047C83.6042 7.08203 83.6316 6.96094 83.6863 6.86719C83.7488 6.77344 83.8308 6.72656 83.9324 6.72656L84.0378 6.71484C84.4988 6.66016 84.8816 6.52734 85.1863 6.31641C85.491 6.09766 85.7527 5.75781 85.9714 5.29688C86.1902 4.83594 86.3894 4.20312 86.5691 3.39844C86.5925 3.28906 86.6433 3.21875 86.7214 3.1875C86.7996 3.14844 86.9167 3.12891 87.073 3.12891C87.2214 3.12891 87.3152 3.14844 87.3542 3.1875C87.3933 3.21875 87.4128 3.29297 87.4128 3.41016V6.60938H90.8699C90.9558 6.61719 91.0222 6.66016 91.0691 6.73828C91.1238 6.81641 91.1511 6.90625 91.1511 7.00781C91.1511 7.17188 91.116 7.31641 91.0457 7.44141C90.9832 7.56641 90.9089 7.62891 90.823 7.62891H87.4128V14.7891C87.4128 15.6875 87.5378 16.3164 87.7878 16.6758C88.0378 17.0352 88.3464 17.2148 88.7136 17.2148C89.0496 17.2148 89.3425 17.1914 89.5925 17.1445C89.8425 17.0898 90.0496 17.0312 90.2136 16.9688C90.3777 16.8984 90.616 16.7891 90.9285 16.6406C91.1238 16.8359 91.2566 17.0703 91.3269 17.3438C91.1785 17.5 90.9246 17.6797 90.5652 17.8828C90.2136 18.0781 89.823 18.2461 89.3933 18.3867C88.9714 18.5352 88.5808 18.6094 88.2214 18.6094Z" fill="#C5BEBE"/>
<path d="M92.7683 18.2578C92.6433 18.2578 92.5457 18.207 92.4753 18.1055C92.405 17.9961 92.3699 17.8867 92.3699 17.7773C92.3699 17.6445 92.3972 17.543 92.4519 17.4727C92.5066 17.4023 92.6082 17.3594 92.7566 17.3438C93.655 17.2344 94.1042 16.9844 94.1042 16.5938L94.116 9.14062C94.116 8.77344 94.0496 8.49219 93.9167 8.29688C93.7839 8.10156 93.6277 7.97266 93.448 7.91016C93.2683 7.84766 93.0339 7.79297 92.7449 7.74609C92.7058 7.73828 92.6472 7.73047 92.5691 7.72266C92.491 7.70703 92.4246 7.69141 92.3699 7.67578C92.2761 7.63672 92.2058 7.58203 92.1589 7.51172C92.1121 7.44141 92.0886 7.33984 92.0886 7.20703C92.0886 7.09766 92.1121 6.98828 92.1589 6.87891C92.2136 6.76172 92.2839 6.69922 92.3699 6.69141C93.6667 6.61328 94.8582 6.57422 95.9441 6.57422C96.0222 6.57422 96.0964 6.60938 96.1667 6.67969C96.2371 6.75 96.28 6.87109 96.2957 7.04297V16.207C96.2957 16.5195 96.366 16.7539 96.5066 16.9102C96.655 17.0664 96.823 17.1719 97.0105 17.2266C97.2058 17.2734 97.4441 17.3125 97.7253 17.3438C97.8972 17.3594 98.0105 17.3945 98.0652 17.4492C98.1199 17.4961 98.1472 17.6055 98.1472 17.7773C98.1472 17.8789 98.1082 17.9844 98.03 18.0938C97.9597 18.2031 97.866 18.2578 97.7488 18.2578H92.7683ZM95.1707 4.51172C94.7488 4.51172 94.405 4.35938 94.1394 4.05469C93.8816 3.74219 93.7527 3.35156 93.7527 2.88281C93.7527 2.41406 93.8816 2.02734 94.1394 1.72266C94.405 1.41016 94.7488 1.25391 95.1707 1.25391C95.5925 1.25391 95.9324 1.41016 96.1902 1.72266C96.4558 2.02734 96.5886 2.41406 96.5886 2.88281C96.5886 3.35156 96.4558 3.74219 96.1902 4.05469C95.9324 4.35938 95.5925 4.51172 95.1707 4.51172Z" fill="#C5BEBE"/>
<path d="M99.4832 12.4922C99.4832 11.3594 99.7097 10.3281 100.163 9.39844C100.616 8.46875 101.268 7.73438 102.12 7.19531C102.971 6.64844 103.968 6.375 105.108 6.375C106.249 6.375 107.233 6.64844 108.061 7.19531C108.889 7.73438 109.522 8.46875 109.96 9.39844C110.397 10.3203 110.616 11.3516 110.616 12.4922C110.616 13.625 110.389 14.6562 109.936 15.5859C109.491 16.5156 108.846 17.25 108.003 17.7891C107.159 18.3281 106.167 18.5977 105.026 18.5977C103.885 18.5977 102.897 18.3281 102.061 17.7891C101.225 17.25 100.585 16.5195 100.139 15.5977C99.7019 14.668 99.4832 13.6328 99.4832 12.4922ZM102.003 12.4922C102.003 13.5938 102.096 14.5078 102.284 15.2344C102.471 15.9609 102.788 16.5195 103.233 16.9102C103.686 17.293 104.296 17.4844 105.061 17.4844C105.827 17.4844 106.428 17.293 106.866 16.9102C107.311 16.5195 107.624 15.9609 107.803 15.2344C107.983 14.5078 108.073 13.5938 108.073 12.4922C108.073 10.8281 107.843 9.58203 107.382 8.75391C106.928 7.91797 106.139 7.5 105.014 7.5C104.249 7.5 103.643 7.69531 103.198 8.08594C102.76 8.46875 102.452 9.02344 102.272 9.75C102.093 10.4766 102.003 11.3906 102.003 12.4922Z" fill="#C5BEBE"/>
<path d="M112.725 18.2578C112.6 18.2578 112.503 18.207 112.432 18.1055C112.362 17.9961 112.327 17.8867 112.327 17.7773C112.327 17.6445 112.354 17.543 112.409 17.4727C112.464 17.4023 112.565 17.3594 112.714 17.3438C113.62 17.2344 114.073 16.9844 114.073 16.5938V9.14062C114.073 8.77344 114.007 8.49609 113.874 8.30859C113.741 8.11328 113.581 7.98438 113.393 7.92188C113.214 7.85156 112.983 7.79297 112.702 7.74609C112.483 7.70703 112.358 7.68359 112.327 7.67578C112.233 7.63672 112.163 7.58203 112.116 7.51172C112.069 7.44141 112.046 7.33984 112.046 7.20703C112.046 7.09766 112.069 6.98828 112.116 6.87891C112.171 6.76172 112.241 6.69922 112.327 6.69141C113.585 6.61328 114.737 6.57422 115.784 6.57422C115.862 6.57422 115.936 6.60938 116.007 6.67969C116.077 6.75 116.12 6.87109 116.135 7.04297V8.35547C116.346 8.14453 116.667 7.88672 117.096 7.58203C117.526 7.27734 118.03 7 118.608 6.75C119.194 6.5 119.776 6.375 120.354 6.375C120.987 6.375 121.526 6.45312 121.971 6.60938C122.425 6.76562 122.784 7.05859 123.05 7.48828C123.323 7.91016 123.46 8.50781 123.46 9.28125V16.207C123.46 16.5039 123.526 16.7305 123.659 16.8867C123.792 17.043 123.948 17.1484 124.128 17.2031C124.315 17.2578 124.546 17.2969 124.819 17.3203C124.874 17.3203 124.956 17.3281 125.065 17.3438C125.206 17.3594 125.303 17.3984 125.358 17.4609C125.421 17.5156 125.452 17.6211 125.452 17.7773C125.452 17.8867 125.417 17.9961 125.346 18.1055C125.276 18.207 125.178 18.2578 125.053 18.2578H120.05C119.925 18.2578 119.827 18.207 119.757 18.1055C119.686 17.9961 119.651 17.8867 119.651 17.7773C119.651 17.6445 119.675 17.543 119.721 17.4727C119.776 17.3945 119.874 17.3516 120.014 17.3438C120.303 17.3203 120.581 17.2422 120.846 17.1094C121.12 16.9688 121.257 16.7969 121.257 16.5938V8.94141C121.257 8.63672 121.155 8.36328 120.952 8.12109C120.749 7.87891 120.346 7.75781 119.745 7.75781C119.081 7.75781 118.432 7.91016 117.8 8.21484C117.167 8.51953 116.651 8.85547 116.253 9.22266V16.207C116.253 16.5195 116.315 16.7578 116.44 16.9219C116.573 17.0781 116.725 17.1797 116.897 17.2266C117.077 17.2734 117.3 17.3125 117.565 17.3438C117.737 17.3594 117.85 17.3945 117.905 17.4492C117.96 17.4961 117.987 17.6055 117.987 17.7773C117.987 17.8789 117.948 17.9844 117.87 18.0938C117.8 18.2031 117.706 18.2578 117.589 18.2578H112.725Z" fill="#C5BEBE"/>
<path d="M133.913 16.8281C133.913 16.5391 133.983 16.2734 134.124 16.0312C134.272 15.7891 134.471 15.5977 134.721 15.457C134.971 15.3164 135.249 15.2461 135.553 15.2461C135.858 15.2461 136.135 15.3164 136.385 15.457C136.635 15.5977 136.835 15.7891 136.983 16.0312C137.132 16.2734 137.206 16.5391 137.206 16.8281C137.206 17.1172 137.132 17.3906 136.983 17.6484C136.835 17.9062 136.635 18.1094 136.385 18.2578C136.135 18.4141 135.858 18.4922 135.553 18.4922C135.249 18.4922 134.971 18.4141 134.721 18.2578C134.471 18.1094 134.272 17.9062 134.124 17.6484C133.983 17.3906 133.913 17.1172 133.913 16.8281ZM133.913 8.17969C133.913 7.89062 133.983 7.625 134.124 7.38281C134.272 7.14062 134.471 6.94922 134.721 6.80859C134.971 6.66797 135.249 6.59766 135.553 6.59766C135.858 6.59766 136.135 6.66797 136.385 6.80859C136.635 6.94922 136.835 7.14062 136.983 7.38281C137.132 7.625 137.206 7.89062 137.206 8.17969C137.206 8.46875 137.132 8.74219 136.983 9C136.835 9.25781 136.635 9.46484 136.385 9.62109C136.135 9.76953 135.858 9.84375 135.553 9.84375C135.249 9.84375 134.971 9.76953 134.721 9.62109C134.471 9.46484 134.272 9.25781 134.124 9C133.983 8.74219 133.913 8.46875 133.913 8.17969Z" fill="#C5BEBE"/>
<path d="M152.714 18.2578C152.589 18.2578 152.491 18.207 152.421 18.1055C152.35 17.9961 152.315 17.8867 152.315 17.7773C152.315 17.6445 152.343 17.543 152.397 17.4727C152.452 17.4023 152.553 17.3594 152.702 17.3438C153.233 17.3047 153.706 17.2266 154.12 17.1094C154.542 16.9922 154.753 16.8203 154.753 16.5938L154.764 6.32812C153.96 6.78125 153.276 7.00781 152.714 7.00781C152.534 7.00781 152.397 6.91797 152.303 6.73828C152.218 6.55859 152.175 6.39453 152.175 6.24609C152.175 6.06641 152.206 5.93359 152.268 5.84766C152.331 5.75391 152.44 5.70312 152.596 5.69531C153.018 5.66406 153.561 5.52734 154.225 5.28516C154.889 5.03516 155.468 4.71484 155.96 4.32422H157.073L157.061 16.5C157.061 16.7734 157.264 16.9727 157.671 17.0977C158.077 17.2148 158.585 17.2969 159.194 17.3438C159.366 17.3594 159.479 17.3945 159.534 17.4492C159.589 17.4961 159.616 17.6055 159.616 17.7773C159.616 17.8867 159.581 17.9961 159.51 18.1055C159.44 18.207 159.343 18.2578 159.218 18.2578H152.714Z" fill="black"/>
<path d="M168.077 18.5977C166.897 18.5977 165.882 18.3086 165.03 17.7305C164.178 17.1523 163.53 16.3281 163.085 15.2578C162.639 14.1797 162.417 12.9062 162.417 11.4375C162.417 9.94531 162.647 8.65234 163.108 7.55859C163.569 6.45703 164.229 5.61328 165.089 5.02734C165.948 4.43359 166.971 4.13672 168.159 4.13672C169.339 4.13672 170.35 4.43359 171.194 5.02734C172.038 5.61328 172.678 6.45703 173.116 7.55859C173.561 8.65234 173.784 9.94531 173.784 11.4375C173.784 12.8984 173.557 14.168 173.104 15.2461C172.651 16.3242 171.995 17.1523 171.135 17.7305C170.276 18.3086 169.257 18.5977 168.077 18.5977ZM168.112 17.4844C168.917 17.4844 169.546 17.2695 169.999 16.8398C170.452 16.4023 170.772 15.75 170.96 14.8828C171.147 14.0078 171.241 12.8594 171.241 11.4375C171.241 10 171.143 8.83594 170.948 7.94531C170.753 7.04688 170.425 6.375 169.964 5.92969C169.503 5.47656 168.87 5.25 168.065 5.25C167.26 5.25 166.628 5.47266 166.167 5.91797C165.714 6.36328 165.393 7.03516 165.206 7.93359C165.026 8.82422 164.936 9.99219 164.936 11.4375C164.936 12.8516 165.03 13.9961 165.218 14.8711C165.413 15.7461 165.741 16.4023 166.202 16.8398C166.663 17.2695 167.3 17.4844 168.112 17.4844Z" fill="black"/>
<path d="M182.491 18.2578C182.366 18.2578 182.268 18.207 182.198 18.1055C182.128 17.9961 182.093 17.8867 182.093 17.7773C182.093 17.6445 182.12 17.543 182.175 17.4727C182.229 17.4023 182.331 17.3594 182.479 17.3438C183.385 17.2344 183.839 16.9844 183.839 16.5938V9.14062C183.839 8.77344 183.772 8.49609 183.639 8.30859C183.507 8.11328 183.346 7.98438 183.159 7.92188C182.979 7.85156 182.749 7.79297 182.468 7.74609C182.249 7.70703 182.124 7.68359 182.093 7.67578C181.999 7.63672 181.928 7.58203 181.882 7.51172C181.835 7.44141 181.811 7.33984 181.811 7.20703C181.811 7.09766 181.835 6.98828 181.882 6.87891C181.936 6.76172 182.007 6.69922 182.093 6.69141C183.35 6.61328 184.503 6.57422 185.55 6.57422C185.628 6.57422 185.702 6.60938 185.772 6.67969C185.843 6.75 185.885 6.87109 185.901 7.04297V8.35547C186.346 7.91016 186.913 7.46875 187.6 7.03125C188.296 6.59375 189.05 6.375 189.862 6.375C190.69 6.375 191.378 6.51562 191.925 6.79688C192.471 7.07031 192.827 7.57031 192.991 8.29688C193.21 8.0625 193.514 7.80078 193.905 7.51172C194.296 7.21484 194.757 6.95312 195.288 6.72656C195.827 6.49219 196.378 6.375 196.94 6.375C197.932 6.375 198.718 6.58203 199.296 6.99609C199.882 7.40234 200.175 8.16406 200.175 9.28125V16.207C200.175 16.5039 200.241 16.7305 200.374 16.8867C200.507 17.043 200.663 17.1484 200.843 17.2031C201.03 17.2578 201.26 17.2969 201.534 17.3203C201.589 17.3203 201.671 17.3281 201.78 17.3438C201.921 17.3594 202.018 17.3984 202.073 17.4609C202.135 17.5156 202.167 17.6211 202.167 17.7773C202.167 17.8867 202.132 17.9961 202.061 18.1055C201.991 18.207 201.893 18.2578 201.768 18.2578H196.764C196.639 18.2578 196.542 18.207 196.471 18.1055C196.401 17.9961 196.366 17.8867 196.366 17.7773C196.366 17.6445 196.389 17.543 196.436 17.4727C196.491 17.3945 196.589 17.3516 196.729 17.3438C197.018 17.3203 197.296 17.2422 197.561 17.1094C197.835 16.9688 197.971 16.7969 197.971 16.5938V8.94141C197.971 8.63672 197.87 8.36328 197.667 8.12109C197.464 7.87891 197.061 7.75781 196.46 7.75781C195.327 7.75781 194.206 8.24609 193.096 9.22266V9.57422V16.207C193.096 16.6445 193.206 16.9297 193.425 17.0625C193.643 17.1953 193.87 17.2734 194.104 17.2969C194.346 17.3203 194.507 17.3359 194.585 17.3438C194.725 17.3594 194.823 17.3984 194.878 17.4609C194.94 17.5156 194.971 17.6211 194.971 17.7773C194.971 17.8867 194.936 17.9961 194.866 18.1055C194.796 18.207 194.698 18.2578 194.573 18.2578H189.686C189.561 18.2578 189.464 18.207 189.393 18.1055C189.323 17.9961 189.288 17.8867 189.288 17.7773C189.288 17.6445 189.311 17.543 189.358 17.4727C189.413 17.3945 189.51 17.3516 189.651 17.3438C189.94 17.3203 190.218 17.2422 190.483 17.1094C190.757 16.9688 190.893 16.7969 190.893 16.5938V8.94141C190.893 8.63672 190.792 8.36328 190.589 8.12109C190.385 7.87891 189.983 7.75781 189.382 7.75781C188.725 7.75781 188.104 7.90625 187.518 8.20312C186.932 8.5 186.432 8.83984 186.018 9.22266V16.207C186.018 16.5195 186.081 16.7578 186.206 16.9219C186.339 17.0781 186.491 17.1797 186.663 17.2266C186.843 17.2734 187.065 17.3125 187.331 17.3438C187.503 17.3594 187.616 17.3945 187.671 17.4492C187.725 17.4961 187.753 17.6055 187.753 17.7773C187.753 17.8789 187.714 17.9844 187.635 18.0938C187.565 18.2031 187.471 18.2578 187.354 18.2578H182.491Z" fill="black"/>
<path d="M203.62 18.2578C203.495 18.2578 203.397 18.207 203.327 18.1055C203.257 17.9961 203.221 17.8867 203.221 17.7773C203.221 17.6445 203.249 17.543 203.303 17.4727C203.358 17.4023 203.46 17.3594 203.608 17.3438C204.507 17.2344 204.956 16.9844 204.956 16.5938L204.968 9.14062C204.968 8.77344 204.901 8.49219 204.768 8.29688C204.635 8.10156 204.479 7.97266 204.3 7.91016C204.12 7.84766 203.885 7.79297 203.596 7.74609C203.557 7.73828 203.499 7.73047 203.421 7.72266C203.343 7.70703 203.276 7.69141 203.221 7.67578C203.128 7.63672 203.057 7.58203 203.01 7.51172C202.964 7.44141 202.94 7.33984 202.94 7.20703C202.94 7.09766 202.964 6.98828 203.01 6.87891C203.065 6.76172 203.135 6.69922 203.221 6.69141C204.518 6.61328 205.71 6.57422 206.796 6.57422C206.874 6.57422 206.948 6.60938 207.018 6.67969C207.089 6.75 207.132 6.87109 207.147 7.04297V16.207C207.147 16.5195 207.218 16.7539 207.358 16.9102C207.507 17.0664 207.675 17.1719 207.862 17.2266C208.057 17.2734 208.296 17.3125 208.577 17.3438C208.749 17.3594 208.862 17.3945 208.917 17.4492C208.971 17.4961 208.999 17.6055 208.999 17.7773C208.999 17.8789 208.96 17.9844 208.882 18.0938C208.811 18.2031 208.718 18.2578 208.6 18.2578H203.62ZM206.022 4.51172C205.6 4.51172 205.257 4.35938 204.991 4.05469C204.733 3.74219 204.604 3.35156 204.604 2.88281C204.604 2.41406 204.733 2.02734 204.991 1.72266C205.257 1.41016 205.6 1.25391 206.022 1.25391C206.444 1.25391 206.784 1.41016 207.042 1.72266C207.307 2.02734 207.44 2.41406 207.44 2.88281C207.44 3.35156 207.307 3.74219 207.042 4.05469C206.784 4.35938 206.444 4.51172 206.022 4.51172Z" fill="black"/>
<path d="M210.639 18.2578C210.514 18.2578 210.417 18.207 210.346 18.1055C210.276 17.9961 210.241 17.8867 210.241 17.7773C210.241 17.6445 210.268 17.543 210.323 17.4727C210.378 17.4023 210.479 17.3594 210.628 17.3438C211.534 17.2344 211.987 16.9844 211.987 16.5938V9.14062C211.987 8.77344 211.921 8.49609 211.788 8.30859C211.655 8.11328 211.495 7.98438 211.307 7.92188C211.128 7.85156 210.897 7.79297 210.616 7.74609C210.397 7.70703 210.272 7.68359 210.241 7.67578C210.147 7.63672 210.077 7.58203 210.03 7.51172C209.983 7.44141 209.96 7.33984 209.96 7.20703C209.96 7.09766 209.983 6.98828 210.03 6.87891C210.085 6.76172 210.155 6.69922 210.241 6.69141C211.499 6.61328 212.651 6.57422 213.698 6.57422C213.776 6.57422 213.85 6.60938 213.921 6.67969C213.991 6.75 214.034 6.87109 214.05 7.04297V8.35547C214.26 8.14453 214.581 7.88672 215.01 7.58203C215.44 7.27734 215.944 7 216.522 6.75C217.108 6.5 217.69 6.375 218.268 6.375C218.901 6.375 219.44 6.45312 219.885 6.60938C220.339 6.76562 220.698 7.05859 220.964 7.48828C221.237 7.91016 221.374 8.50781 221.374 9.28125V16.207C221.374 16.5039 221.44 16.7305 221.573 16.8867C221.706 17.043 221.862 17.1484 222.042 17.2031C222.229 17.2578 222.46 17.2969 222.733 17.3203C222.788 17.3203 222.87 17.3281 222.979 17.3438C223.12 17.3594 223.218 17.3984 223.272 17.4609C223.335 17.5156 223.366 17.6211 223.366 17.7773C223.366 17.8867 223.331 17.9961 223.26 18.1055C223.19 18.207 223.093 18.2578 222.968 18.2578H217.964C217.839 18.2578 217.741 18.207 217.671 18.1055C217.6 17.9961 217.565 17.8867 217.565 17.7773C217.565 17.6445 217.589 17.543 217.635 17.4727C217.69 17.3945 217.788 17.3516 217.928 17.3438C218.218 17.3203 218.495 17.2422 218.76 17.1094C219.034 16.9688 219.171 16.7969 219.171 16.5938V8.94141C219.171 8.63672 219.069 8.36328 218.866 8.12109C218.663 7.87891 218.26 7.75781 217.659 7.75781C216.995 7.75781 216.346 7.91016 215.714 8.21484C215.081 8.51953 214.565 8.85547 214.167 9.22266V16.207C214.167 16.5195 214.229 16.7578 214.354 16.9219C214.487 17.0781 214.639 17.1797 214.811 17.2266C214.991 17.2734 215.214 17.3125 215.479 17.3438C215.651 17.3594 215.764 17.3945 215.819 17.4492C215.874 17.4961 215.901 17.6055 215.901 17.7773C215.901 17.8789 215.862 17.9844 215.784 18.0938C215.714 18.2031 215.62 18.2578 215.503 18.2578H210.639Z" fill="black"/>
<path d="M355.024 17.8594C355.047 17.6406 355.125 17.4414 355.258 17.2617C357.313 15.8789 359.02 14.3984 360.379 12.8203C361.746 11.2344 362.43 9.72656 362.43 8.29688C362.43 7.83594 362.344 7.375 362.172 6.91406C362.008 6.45312 361.715 6.0625 361.293 5.74219C360.879 5.42188 360.328 5.26172 359.641 5.26172C359.172 5.26172 358.801 5.3125 358.528 5.41406C358.254 5.50781 358.055 5.625 357.93 5.76562C357.805 5.90625 357.68 6.08594 357.555 6.30469C357.508 6.39844 357.469 6.46875 357.438 6.51562C357.352 6.92969 357.274 7.37109 357.203 7.83984L357.121 8.30859C357.074 8.57422 356.985 8.78906 356.852 8.95312C356.727 9.10938 356.555 9.1875 356.336 9.1875C356.156 9.1875 355.953 9.14844 355.727 9.07031C355.508 8.98438 355.317 8.83984 355.153 8.63672C354.989 8.42578 354.906 8.15234 354.906 7.81641C354.906 7.58203 354.957 7.3125 355.059 7.00781C355.215 6.53125 355.528 6.07422 355.996 5.63672C356.473 5.19141 357.055 4.83203 357.742 4.55859C358.43 4.27734 359.16 4.13672 359.934 4.13672C361.504 4.13672 362.719 4.49609 363.578 5.21484C364.446 5.93359 364.879 6.95703 364.879 8.28516C364.879 9.60547 364.219 10.9727 362.899 12.3867C361.586 13.793 360.039 15.1055 358.258 16.3242H365.688L365.571 18.2578H355.024V17.8594Z" fill="#100F0F"/>
<path d="M374.336 18.5977C373.156 18.5977 372.141 18.3086 371.289 17.7305C370.438 17.1523 369.789 16.3281 369.344 15.2578C368.899 14.1797 368.676 12.9062 368.676 11.4375C368.676 9.94531 368.906 8.65234 369.367 7.55859C369.828 6.45703 370.489 5.61328 371.348 5.02734C372.207 4.43359 373.231 4.13672 374.418 4.13672C375.598 4.13672 376.61 4.43359 377.453 5.02734C378.297 5.61328 378.938 6.45703 379.375 7.55859C379.821 8.65234 380.043 9.94531 380.043 11.4375C380.043 12.8984 379.817 14.168 379.364 15.2461C378.91 16.3242 378.254 17.1523 377.395 17.7305C376.535 18.3086 375.516 18.5977 374.336 18.5977ZM374.371 17.4844C375.176 17.4844 375.805 17.2695 376.258 16.8398C376.711 16.4023 377.031 15.75 377.219 14.8828C377.406 14.0078 377.5 12.8594 377.5 11.4375C377.5 10 377.403 8.83594 377.207 7.94531C377.012 7.04688 376.684 6.375 376.223 5.92969C375.762 5.47656 375.129 5.25 374.324 5.25C373.52 5.25 372.887 5.47266 372.426 5.91797C371.973 6.36328 371.653 7.03516 371.465 7.93359C371.285 8.82422 371.196 9.99219 371.196 11.4375C371.196 12.8516 371.289 13.9961 371.477 14.8711C371.672 15.7461 372 16.4023 372.461 16.8398C372.922 17.2695 373.559 17.4844 374.371 17.4844Z" fill="#100F0F"/>
<path d="M388.75 18.2578C388.625 18.2578 388.528 18.207 388.457 18.1055C388.387 17.9961 388.352 17.8867 388.352 17.7773C388.352 17.6445 388.379 17.543 388.434 17.4727C388.489 17.4023 388.59 17.3594 388.739 17.3438C389.645 17.2344 390.098 16.9844 390.098 16.5938V9.14062C390.098 8.77344 390.031 8.49609 389.899 8.30859C389.766 8.11328 389.606 7.98438 389.418 7.92188C389.239 7.85156 389.008 7.79297 388.727 7.74609C388.508 7.70703 388.383 7.68359 388.352 7.67578C388.258 7.63672 388.188 7.58203 388.141 7.51172C388.094 7.44141 388.071 7.33984 388.071 7.20703C388.071 7.09766 388.094 6.98828 388.141 6.87891C388.196 6.76172 388.266 6.69922 388.352 6.69141C389.61 6.61328 390.762 6.57422 391.809 6.57422C391.887 6.57422 391.961 6.60938 392.031 6.67969C392.102 6.75 392.145 6.87109 392.16 7.04297V8.35547C392.606 7.91016 393.172 7.46875 393.86 7.03125C394.555 6.59375 395.309 6.375 396.121 6.375C396.949 6.375 397.637 6.51562 398.184 6.79688C398.731 7.07031 399.086 7.57031 399.25 8.29688C399.469 8.0625 399.774 7.80078 400.164 7.51172C400.555 7.21484 401.016 6.95312 401.547 6.72656C402.086 6.49219 402.637 6.375 403.199 6.375C404.192 6.375 404.977 6.58203 405.555 6.99609C406.141 7.40234 406.434 8.16406 406.434 9.28125V16.207C406.434 16.5039 406.5 16.7305 406.633 16.8867C406.766 17.043 406.922 17.1484 407.102 17.2031C407.289 17.2578 407.52 17.2969 407.793 17.3203C407.848 17.3203 407.93 17.3281 408.039 17.3438C408.18 17.3594 408.278 17.3984 408.332 17.4609C408.395 17.5156 408.426 17.6211 408.426 17.7773C408.426 17.8867 408.391 17.9961 408.321 18.1055C408.25 18.207 408.153 18.2578 408.028 18.2578H403.024C402.899 18.2578 402.801 18.207 402.731 18.1055C402.66 17.9961 402.625 17.8867 402.625 17.7773C402.625 17.6445 402.649 17.543 402.696 17.4727C402.75 17.3945 402.848 17.3516 402.989 17.3438C403.278 17.3203 403.555 17.2422 403.821 17.1094C404.094 16.9688 404.231 16.7969 404.231 16.5938V8.94141C404.231 8.63672 404.129 8.36328 403.926 8.12109C403.723 7.87891 403.321 7.75781 402.719 7.75781C401.586 7.75781 400.465 8.24609 399.356 9.22266V9.57422V16.207C399.356 16.6445 399.465 16.9297 399.684 17.0625C399.903 17.1953 400.129 17.2734 400.364 17.2969C400.606 17.3203 400.766 17.3359 400.844 17.3438C400.985 17.3594 401.082 17.3984 401.137 17.4609C401.199 17.5156 401.231 17.6211 401.231 17.7773C401.231 17.8867 401.196 17.9961 401.125 18.1055C401.055 18.207 400.957 18.2578 400.832 18.2578H395.946C395.821 18.2578 395.723 18.207 395.653 18.1055C395.582 17.9961 395.547 17.8867 395.547 17.7773C395.547 17.6445 395.571 17.543 395.617 17.4727C395.672 17.3945 395.77 17.3516 395.91 17.3438C396.199 17.3203 396.477 17.2422 396.742 17.1094C397.016 16.9688 397.153 16.7969 397.153 16.5938V8.94141C397.153 8.63672 397.051 8.36328 396.848 8.12109C396.645 7.87891 396.242 7.75781 395.641 7.75781C394.985 7.75781 394.364 7.90625 393.778 8.20312C393.192 8.5 392.692 8.83984 392.278 9.22266V16.207C392.278 16.5195 392.34 16.7578 392.465 16.9219C392.598 17.0781 392.75 17.1797 392.922 17.2266C393.102 17.2734 393.324 17.3125 393.59 17.3438C393.762 17.3594 393.875 17.3945 393.93 17.4492C393.985 17.4961 394.012 17.6055 394.012 17.7773C394.012 17.8789 393.973 17.9844 393.895 18.0938C393.824 18.2031 393.731 18.2578 393.614 18.2578H388.75Z" fill="#100F0F"/>
<path d="M409.879 18.2578C409.754 18.2578 409.656 18.207 409.586 18.1055C409.516 17.9961 409.481 17.8867 409.481 17.7773C409.481 17.6445 409.508 17.543 409.563 17.4727C409.617 17.4023 409.719 17.3594 409.867 17.3438C410.766 17.2344 411.215 16.9844 411.215 16.5938L411.227 9.14062C411.227 8.77344 411.16 8.49219 411.028 8.29688C410.895 8.10156 410.739 7.97266 410.559 7.91016C410.379 7.84766 410.145 7.79297 409.856 7.74609C409.817 7.73828 409.758 7.73047 409.68 7.72266C409.602 7.70703 409.535 7.69141 409.481 7.67578C409.387 7.63672 409.317 7.58203 409.27 7.51172C409.223 7.44141 409.199 7.33984 409.199 7.20703C409.199 7.09766 409.223 6.98828 409.27 6.87891C409.324 6.76172 409.395 6.69922 409.481 6.69141C410.778 6.61328 411.969 6.57422 413.055 6.57422C413.133 6.57422 413.207 6.60938 413.278 6.67969C413.348 6.75 413.391 6.87109 413.406 7.04297V16.207C413.406 16.5195 413.477 16.7539 413.617 16.9102C413.766 17.0664 413.934 17.1719 414.121 17.2266C414.317 17.2734 414.555 17.3125 414.836 17.3438C415.008 17.3594 415.121 17.3945 415.176 17.4492C415.231 17.4961 415.258 17.6055 415.258 17.7773C415.258 17.8789 415.219 17.9844 415.141 18.0938C415.071 18.2031 414.977 18.2578 414.86 18.2578H409.879ZM412.281 4.51172C411.86 4.51172 411.516 4.35938 411.25 4.05469C410.992 3.74219 410.864 3.35156 410.864 2.88281C410.864 2.41406 410.992 2.02734 411.25 1.72266C411.516 1.41016 411.86 1.25391 412.281 1.25391C412.703 1.25391 413.043 1.41016 413.301 1.72266C413.567 2.02734 413.699 2.41406 413.699 2.88281C413.699 3.35156 413.567 3.74219 413.301 4.05469C413.043 4.35938 412.703 4.51172 412.281 4.51172Z" fill="#100F0F"/>
<path d="M416.899 18.2578C416.774 18.2578 416.676 18.207 416.606 18.1055C416.535 17.9961 416.5 17.8867 416.5 17.7773C416.5 17.6445 416.528 17.543 416.582 17.4727C416.637 17.4023 416.739 17.3594 416.887 17.3438C417.793 17.2344 418.246 16.9844 418.246 16.5938V9.14062C418.246 8.77344 418.18 8.49609 418.047 8.30859C417.914 8.11328 417.754 7.98438 417.567 7.92188C417.387 7.85156 417.156 7.79297 416.875 7.74609C416.656 7.70703 416.531 7.68359 416.5 7.67578C416.406 7.63672 416.336 7.58203 416.289 7.51172C416.242 7.44141 416.219 7.33984 416.219 7.20703C416.219 7.09766 416.242 6.98828 416.289 6.87891C416.344 6.76172 416.414 6.69922 416.5 6.69141C417.758 6.61328 418.91 6.57422 419.957 6.57422C420.035 6.57422 420.11 6.60938 420.18 6.67969C420.25 6.75 420.293 6.87109 420.309 7.04297V8.35547C420.52 8.14453 420.84 7.88672 421.27 7.58203C421.699 7.27734 422.203 7 422.781 6.75C423.367 6.5 423.949 6.375 424.528 6.375C425.16 6.375 425.699 6.45312 426.145 6.60938C426.598 6.76562 426.957 7.05859 427.223 7.48828C427.496 7.91016 427.633 8.50781 427.633 9.28125V16.207C427.633 16.5039 427.699 16.7305 427.832 16.8867C427.965 17.043 428.121 17.1484 428.301 17.2031C428.489 17.2578 428.719 17.2969 428.992 17.3203C429.047 17.3203 429.129 17.3281 429.239 17.3438C429.379 17.3594 429.477 17.3984 429.531 17.4609C429.594 17.5156 429.625 17.6211 429.625 17.7773C429.625 17.8867 429.59 17.9961 429.52 18.1055C429.449 18.207 429.352 18.2578 429.227 18.2578H424.223C424.098 18.2578 424 18.207 423.93 18.1055C423.86 17.9961 423.824 17.8867 423.824 17.7773C423.824 17.6445 423.848 17.543 423.895 17.4727C423.949 17.3945 424.047 17.3516 424.188 17.3438C424.477 17.3203 424.754 17.2422 425.02 17.1094C425.293 16.9688 425.43 16.7969 425.43 16.5938V8.94141C425.43 8.63672 425.328 8.36328 425.125 8.12109C424.922 7.87891 424.52 7.75781 423.918 7.75781C423.254 7.75781 422.606 7.91016 421.973 8.21484C421.34 8.51953 420.824 8.85547 420.426 9.22266V16.207C420.426 16.5195 420.489 16.7578 420.614 16.9219C420.746 17.0781 420.899 17.1797 421.071 17.2266C421.25 17.2734 421.473 17.3125 421.739 17.3438C421.91 17.3594 422.024 17.3945 422.078 17.4492C422.133 17.4961 422.16 17.6055 422.16 17.7773C422.16 17.8789 422.121 17.9844 422.043 18.0938C421.973 18.2031 421.879 18.2578 421.762 18.2578H416.899Z" fill="#100F0F"/>
<path d="M254.229 18.6094C252.846 18.6094 251.55 18.332 250.339 17.7773C249.128 17.2227 248.132 16.3008 247.35 15.0117C246.569 13.7227 246.178 12.0469 246.178 9.98438C246.178 8.04688 246.573 6.42188 247.362 5.10938C248.159 3.79688 249.155 2.83203 250.35 2.21484C251.553 1.58984 252.764 1.27734 253.983 1.27734C254.928 1.27734 255.749 1.33203 256.444 1.44141C257.139 1.55078 257.686 1.67578 258.085 1.81641C258.483 1.94922 258.905 2.11328 259.35 2.30859L259.608 5.97656C259.624 6.10156 259.565 6.21094 259.432 6.30469C259.3 6.39844 259.178 6.44531 259.069 6.44531L258.94 6.45703C258.698 6.45703 258.561 6.34375 258.53 6.11719C258.218 5.01562 257.69 4.12109 256.948 3.43359C256.214 2.74609 255.218 2.40234 253.96 2.40234C253.124 2.40234 252.358 2.58203 251.663 2.94141C250.975 3.29297 250.389 4.02734 249.905 5.14453C249.428 6.26172 249.19 7.875 249.19 9.98438C249.19 11.9766 249.46 13.5312 249.999 14.6484C250.538 15.7578 251.178 16.5117 251.921 16.9102C252.671 17.3008 253.436 17.4961 254.218 17.4961C255.46 17.4961 256.421 17.1562 257.1 16.4766C257.788 15.7891 258.237 14.8867 258.448 13.7695C258.479 13.6211 258.526 13.5195 258.589 13.4648C258.651 13.4102 258.749 13.3828 258.882 13.3828C259.014 13.3828 259.167 13.4219 259.339 13.5C259.51 13.5703 259.596 13.6641 259.596 13.7812L259.221 16.9922C259.206 17.125 258.968 17.3242 258.507 17.5898C258.046 17.8555 257.436 18.0898 256.678 18.293C255.928 18.5039 255.112 18.6094 254.229 18.6094Z" fill="#C5BEBE"/>
<path d="M261.741 12.4922C261.741 11.3594 261.968 10.3281 262.421 9.39844C262.874 8.46875 263.526 7.73438 264.378 7.19531C265.229 6.64844 266.225 6.375 267.366 6.375C268.507 6.375 269.491 6.64844 270.319 7.19531C271.147 7.73438 271.78 8.46875 272.218 9.39844C272.655 10.3203 272.874 11.3516 272.874 12.4922C272.874 13.625 272.647 14.6562 272.194 15.5859C271.749 16.5156 271.104 17.25 270.26 17.7891C269.417 18.3281 268.425 18.5977 267.284 18.5977C266.143 18.5977 265.155 18.3281 264.319 17.7891C263.483 17.25 262.843 16.5195 262.397 15.5977C261.96 14.668 261.741 13.6328 261.741 12.4922ZM264.26 12.4922C264.26 13.5938 264.354 14.5078 264.542 15.2344C264.729 15.9609 265.046 16.5195 265.491 16.9102C265.944 17.293 266.553 17.4844 267.319 17.4844C268.085 17.4844 268.686 17.293 269.124 16.9102C269.569 16.5195 269.882 15.9609 270.061 15.2344C270.241 14.5078 270.331 13.5938 270.331 12.4922C270.331 10.8281 270.1 9.58203 269.639 8.75391C269.186 7.91797 268.397 7.5 267.272 7.5C266.507 7.5 265.901 7.69531 265.456 8.08594C265.018 8.46875 264.71 9.02344 264.53 9.75C264.35 10.4766 264.26 11.3906 264.26 12.4922Z" fill="#C5BEBE"/>
<path d="M274.678 12.4922C274.678 11.3594 274.905 10.3281 275.358 9.39844C275.811 8.46875 276.464 7.73438 277.315 7.19531C278.167 6.64844 279.163 6.375 280.303 6.375C281.444 6.375 282.428 6.64844 283.257 7.19531C284.085 7.73438 284.718 8.46875 285.155 9.39844C285.593 10.3203 285.811 11.3516 285.811 12.4922C285.811 13.625 285.585 14.6562 285.132 15.5859C284.686 16.5156 284.042 17.25 283.198 17.7891C282.354 18.3281 281.362 18.5977 280.221 18.5977C279.081 18.5977 278.093 18.3281 277.257 17.7891C276.421 17.25 275.78 16.5195 275.335 15.5977C274.897 14.668 274.678 13.6328 274.678 12.4922ZM277.198 12.4922C277.198 13.5938 277.292 14.5078 277.479 15.2344C277.667 15.9609 277.983 16.5195 278.428 16.9102C278.882 17.293 279.491 17.4844 280.257 17.4844C281.022 17.4844 281.624 17.293 282.061 16.9102C282.507 16.5195 282.819 15.9609 282.999 15.2344C283.178 14.5078 283.268 13.5938 283.268 12.4922C283.268 10.8281 283.038 9.58203 282.577 8.75391C282.124 7.91797 281.335 7.5 280.21 7.5C279.444 7.5 278.839 7.69531 278.393 8.08594C277.956 8.46875 277.647 9.02344 277.468 9.75C277.288 10.4766 277.198 11.3906 277.198 12.4922Z" fill="#C5BEBE"/>
<path d="M287.464 18.2578C287.339 18.2578 287.241 18.207 287.171 18.1055C287.1 17.9961 287.065 17.8867 287.065 17.7773C287.065 17.6445 287.093 17.543 287.147 17.4727C287.202 17.4023 287.303 17.3594 287.452 17.3438C287.819 17.3047 288.135 17.2305 288.401 17.1211C288.675 17.0039 288.811 16.8281 288.811 16.5938V2.56641C288.811 2.19922 288.745 1.91797 288.612 1.72266C288.479 1.52734 288.323 1.39844 288.143 1.33594C287.964 1.27344 287.729 1.21875 287.44 1.17188C287.401 1.16406 287.343 1.15625 287.264 1.14844C287.186 1.13281 287.12 1.11719 287.065 1.10156C286.971 1.0625 286.901 1.00781 286.854 0.9375C286.807 0.867188 286.784 0.765625 286.784 0.632812C286.784 0.523438 286.807 0.414062 286.854 0.304688C286.909 0.1875 286.979 0.125 287.065 0.117188C288.042 0.0625 289.143 0.0234375 290.37 0H290.639C290.718 0 290.792 0.0351562 290.862 0.105469C290.932 0.175781 290.975 0.296875 290.991 0.46875V12.7617L295.21 8.39062C295.327 8.30469 295.385 8.22266 295.385 8.14453C295.385 7.99609 295.225 7.88281 294.905 7.80469C294.585 7.71875 294.233 7.66406 293.85 7.64062C293.71 7.625 293.612 7.57422 293.557 7.48828C293.51 7.39453 293.487 7.27734 293.487 7.13672C293.487 7.02734 293.522 6.91406 293.593 6.79688C293.671 6.67188 293.768 6.60938 293.885 6.60938H298.655C298.78 6.60938 298.878 6.67188 298.948 6.79688C299.018 6.91406 299.053 7.02734 299.053 7.13672C299.053 7.28516 299.018 7.40625 298.948 7.5C298.885 7.59375 298.792 7.64062 298.667 7.64062C298.081 7.64062 297.35 7.98047 296.475 8.66016L294.378 10.9219L294.565 11.25C295.175 12.3359 295.757 13.3398 296.311 14.2617C296.874 15.1836 297.428 15.9805 297.975 16.6523C298.35 17.1133 298.714 17.3438 299.065 17.3438C299.198 17.3438 299.296 17.375 299.358 17.4375C299.421 17.5 299.452 17.6133 299.452 17.7773C299.452 17.8867 299.417 17.9961 299.346 18.1055C299.276 18.207 299.178 18.2578 299.053 18.2578H295.96C295.46 17.4062 294.889 16.4141 294.249 15.2812C293.616 14.1484 293.108 13.2188 292.725 12.4922L290.991 14.25V16.207C290.991 16.5195 291.053 16.7578 291.178 16.9219C291.311 17.0781 291.464 17.1797 291.635 17.2266C291.815 17.2734 292.038 17.3125 292.303 17.3438C292.475 17.3594 292.589 17.3945 292.643 17.4492C292.698 17.4961 292.725 17.6055 292.725 17.7773C292.725 17.8789 292.686 17.9844 292.608 18.0938C292.538 18.2031 292.444 18.2578 292.327 18.2578H287.464Z" fill="#C5BEBE"/>
<path d="M300.8 18.2578C300.675 18.2578 300.577 18.207 300.507 18.1055C300.436 17.9961 300.401 17.8867 300.401 17.7773C300.401 17.6445 300.428 17.543 300.483 17.4727C300.538 17.4023 300.639 17.3594 300.788 17.3438C301.686 17.2344 302.135 16.9844 302.135 16.5938L302.147 9.14062C302.147 8.77344 302.081 8.49219 301.948 8.29688C301.815 8.10156 301.659 7.97266 301.479 7.91016C301.3 7.84766 301.065 7.79297 300.776 7.74609C300.737 7.73828 300.678 7.73047 300.6 7.72266C300.522 7.70703 300.456 7.69141 300.401 7.67578C300.307 7.63672 300.237 7.58203 300.19 7.51172C300.143 7.44141 300.12 7.33984 300.12 7.20703C300.12 7.09766 300.143 6.98828 300.19 6.87891C300.245 6.76172 300.315 6.69922 300.401 6.69141C301.698 6.61328 302.889 6.57422 303.975 6.57422C304.053 6.57422 304.128 6.60938 304.198 6.67969C304.268 6.75 304.311 6.87109 304.327 7.04297V16.207C304.327 16.5195 304.397 16.7539 304.538 16.9102C304.686 17.0664 304.854 17.1719 305.042 17.2266C305.237 17.2734 305.475 17.3125 305.757 17.3438C305.928 17.3594 306.042 17.3945 306.096 17.4492C306.151 17.4961 306.178 17.6055 306.178 17.7773C306.178 17.8789 306.139 17.9844 306.061 18.0938C305.991 18.2031 305.897 18.2578 305.78 18.2578H300.8ZM303.202 4.51172C302.78 4.51172 302.436 4.35938 302.171 4.05469C301.913 3.74219 301.784 3.35156 301.784 2.88281C301.784 2.41406 301.913 2.02734 302.171 1.72266C302.436 1.41016 302.78 1.25391 303.202 1.25391C303.624 1.25391 303.964 1.41016 304.221 1.72266C304.487 2.02734 304.62 2.41406 304.62 2.88281C304.62 3.35156 304.487 3.74219 304.221 4.05469C303.964 4.35938 303.624 4.51172 303.202 4.51172Z" fill="#C5BEBE"/>
<path d="M307.819 18.2578C307.694 18.2578 307.596 18.207 307.526 18.1055C307.456 17.9961 307.421 17.8867 307.421 17.7773C307.421 17.6445 307.448 17.543 307.503 17.4727C307.557 17.4023 307.659 17.3594 307.807 17.3438C308.714 17.2344 309.167 16.9844 309.167 16.5938V9.14062C309.167 8.77344 309.1 8.49609 308.968 8.30859C308.835 8.11328 308.675 7.98438 308.487 7.92188C308.307 7.85156 308.077 7.79297 307.796 7.74609C307.577 7.70703 307.452 7.68359 307.421 7.67578C307.327 7.63672 307.257 7.58203 307.21 7.51172C307.163 7.44141 307.139 7.33984 307.139 7.20703C307.139 7.09766 307.163 6.98828 307.21 6.87891C307.264 6.76172 307.335 6.69922 307.421 6.69141C308.678 6.61328 309.831 6.57422 310.878 6.57422C310.956 6.57422 311.03 6.60938 311.1 6.67969C311.171 6.75 311.214 6.87109 311.229 7.04297V8.35547C311.44 8.14453 311.76 7.88672 312.19 7.58203C312.62 7.27734 313.124 7 313.702 6.75C314.288 6.5 314.87 6.375 315.448 6.375C316.081 6.375 316.62 6.45312 317.065 6.60938C317.518 6.76562 317.878 7.05859 318.143 7.48828C318.417 7.91016 318.553 8.50781 318.553 9.28125V16.207C318.553 16.5039 318.62 16.7305 318.753 16.8867C318.885 17.043 319.042 17.1484 319.221 17.2031C319.409 17.2578 319.639 17.2969 319.913 17.3203C319.968 17.3203 320.05 17.3281 320.159 17.3438C320.3 17.3594 320.397 17.3984 320.452 17.4609C320.514 17.5156 320.546 17.6211 320.546 17.7773C320.546 17.8867 320.51 17.9961 320.44 18.1055C320.37 18.207 320.272 18.2578 320.147 18.2578H315.143C315.018 18.2578 314.921 18.207 314.85 18.1055C314.78 17.9961 314.745 17.8867 314.745 17.7773C314.745 17.6445 314.768 17.543 314.815 17.4727C314.87 17.3945 314.968 17.3516 315.108 17.3438C315.397 17.3203 315.675 17.2422 315.94 17.1094C316.214 16.9688 316.35 16.7969 316.35 16.5938V8.94141C316.35 8.63672 316.249 8.36328 316.046 8.12109C315.843 7.87891 315.44 7.75781 314.839 7.75781C314.175 7.75781 313.526 7.91016 312.893 8.21484C312.26 8.51953 311.745 8.85547 311.346 9.22266V16.207C311.346 16.5195 311.409 16.7578 311.534 16.9219C311.667 17.0781 311.819 17.1797 311.991 17.2266C312.171 17.2734 312.393 17.3125 312.659 17.3438C312.831 17.3594 312.944 17.3945 312.999 17.4492C313.053 17.4961 313.081 17.6055 313.081 17.7773C313.081 17.8789 313.042 17.9844 312.964 18.0938C312.893 18.2031 312.8 18.2578 312.682 18.2578H307.819Z" fill="#C5BEBE"/>
<path d="M326.686 23.8828C325.671 23.8828 324.764 23.7227 323.968 23.4023C323.178 23.082 322.561 22.6406 322.116 22.0781C321.678 21.5234 321.46 20.9062 321.46 20.2266C321.46 19.5781 321.643 19.0625 322.01 18.6797C322.385 18.3047 322.843 18.0391 323.382 17.8828C322.561 17.5234 322.151 16.8516 322.151 15.8672C322.151 15.5469 322.229 15.2227 322.385 14.8945C322.55 14.5586 322.76 14.2695 323.018 14.0273C323.284 13.7773 323.561 13.6094 323.85 13.5234C323.335 13.1797 322.944 12.7148 322.678 12.1289C322.421 11.5352 322.292 10.9219 322.292 10.2891C322.292 9.55469 322.464 8.89062 322.807 8.29688C323.151 7.70312 323.643 7.23438 324.284 6.89062C324.932 6.54688 325.686 6.375 326.546 6.375C327.178 6.375 327.749 6.47266 328.257 6.66797C328.772 6.85547 329.214 7.125 329.581 7.47656C329.792 7.10938 330.061 6.82031 330.389 6.60938C330.725 6.39062 331.093 6.28125 331.491 6.28125C331.991 6.28125 332.382 6.44922 332.663 6.78516C332.944 7.12109 333.085 7.55469 333.085 8.08594C333.085 8.44531 332.995 8.73438 332.815 8.95312C332.635 9.17188 332.428 9.28125 332.194 9.28125L330.964 7.34766C330.792 7.38672 330.647 7.45312 330.53 7.54688C330.413 7.64062 330.257 7.80469 330.061 8.03906C330.499 8.67969 330.718 9.42969 330.718 10.2891C330.718 11.0078 330.546 11.668 330.202 12.2695C329.858 12.8711 329.366 13.3516 328.725 13.7109C328.085 14.0625 327.335 14.2383 326.475 14.2383C325.585 14.2383 324.964 14.1523 324.612 13.9805C324.339 14.0742 324.135 14.2188 324.003 14.4141C323.87 14.6094 323.803 14.832 323.803 15.082C323.803 15.4883 323.952 15.8086 324.249 16.043C324.546 16.2695 324.936 16.3828 325.421 16.3828H328.069C328.952 16.3828 329.671 16.4805 330.225 16.6758C330.78 16.8633 331.202 17.207 331.491 17.707C331.78 18.1992 331.925 18.8945 331.925 19.793C331.917 20.4883 331.714 21.1484 331.315 21.7734C330.917 22.3984 330.323 22.9062 329.534 23.2969C328.745 23.6875 327.796 23.8828 326.686 23.8828ZM326.522 13.1133C327.264 13.1133 327.78 12.8594 328.069 12.3516C328.366 11.8359 328.514 11.1406 328.514 10.2656C328.514 9.39062 328.358 8.70703 328.046 8.21484C327.741 7.71484 327.218 7.46484 326.475 7.46484C325.725 7.46484 325.202 7.71094 324.905 8.20312C324.616 8.69531 324.471 9.38281 324.471 10.2656C324.471 11.1406 324.624 11.8359 324.928 12.3516C325.233 12.8594 325.764 13.1133 326.522 13.1133ZM326.921 22.7461C327.421 22.7461 327.932 22.668 328.456 22.5117C328.987 22.3555 329.44 22.082 329.815 21.6914C330.198 21.3086 330.389 20.7969 330.389 20.1562C330.389 19.5625 330.167 19.1328 329.721 18.8672C329.276 18.6094 328.69 18.4805 327.964 18.4805H325.35C324.968 18.4805 324.577 18.4141 324.178 18.2812C324.007 18.4922 323.866 18.7305 323.757 18.9961C323.647 19.2695 323.593 19.6055 323.593 20.0039C323.593 20.6211 323.745 21.1328 324.05 21.5391C324.362 21.9531 324.768 22.2578 325.268 22.4531C325.776 22.6484 326.327 22.7461 326.921 22.7461Z" fill="#C5BEBE"/>
<path d="M341.241 16.8281C341.241 16.5391 341.311 16.2734 341.452 16.0312C341.6 15.7891 341.8 15.5977 342.05 15.457C342.3 15.3164 342.577 15.2461 342.882 15.2461C343.186 15.2461 343.464 15.3164 343.714 15.457C343.964 15.5977 344.163 15.7891 344.311 16.0312C344.46 16.2734 344.534 16.5391 344.534 16.8281C344.534 17.1172 344.46 17.3906 344.311 17.6484C344.163 17.9062 343.964 18.1094 343.714 18.2578C343.464 18.4141 343.186 18.4922 342.882 18.4922C342.577 18.4922 342.3 18.4141 342.05 18.2578C341.8 18.1094 341.6 17.9062 341.452 17.6484C341.311 17.3906 341.241 17.1172 341.241 16.8281ZM341.241 8.17969C341.241 7.89062 341.311 7.625 341.452 7.38281C341.6 7.14062 341.8 6.94922 342.05 6.80859C342.3 6.66797 342.577 6.59766 342.882 6.59766C343.186 6.59766 343.464 6.66797 343.714 6.80859C343.964 6.94922 344.163 7.14062 344.311 7.38281C344.46 7.625 344.534 7.89062 344.534 8.17969C344.534 8.46875 344.46 8.74219 344.311 9C344.163 9.25781 343.964 9.46484 343.714 9.62109C343.464 9.76953 343.186 9.84375 342.882 9.84375C342.577 9.84375 342.3 9.76953 342.05 9.62109C341.8 9.46484 341.6 9.25781 341.452 9C341.311 8.74219 341.241 8.46875 341.241 8.17969Z" fill="#C5BEBE"/>
</svg>
