<svg width="279" height="43" viewBox="0 0 279 43" fill="none" xmlns="http://www.w3.org/2000/svg">
<g filter="url(#filter0_d_61_3135)">
<path d="M1 21.5C1 9.90202 7.79828 0.5 16.1844 0.5H262.816C271.202 0.5 278 9.90202 278 21.5C278 33.098 271.202 42.5 262.816 42.5H16.1844C7.79828 42.5 1 33.098 1 21.5Z" fill="white"/>
<path d="M1 21.5C1 9.90202 7.79828 0.5 16.1844 0.5H262.816C271.202 0.5 278 9.90202 278 21.5C278 33.098 271.202 42.5 262.816 42.5H16.1844C7.79828 42.5 1 33.098 1 21.5Z" stroke="#233748" stroke-width="0.5"/>
</g>
<defs>
<filter id="filter0_d_61_3135" x="0.75" y="0.25" width="277.5" height="42.5" filterUnits="userSpaceOnUse" color-interpolation-filters="sRGB">
<feFlood flood-opacity="0" result="BackgroundImageFix"/>
<feColorMatrix in="SourceAlpha" type="matrix" values="0 0 0 0 0 0 0 0 0 0 0 0 0 0 0 0 0 0 127 0" result="hardAlpha"/>
<feOffset/>
<feComposite in2="hardAlpha" operator="out"/>
<feColorMatrix type="matrix" values="0 0 0 0 1 0 0 0 0 1 0 0 0 0 1 0 0 0 0.01 0"/>
<feBlend mode="normal" in2="BackgroundImageFix" result="effect1_dropShadow_61_3135"/>
<feBlend mode="normal" in="SourceGraphic" in2="effect1_dropShadow_61_3135" result="shape"/>
</filter>
</defs>
</svg>
