<svg width="16" height="4" viewBox="0 0 16 4" fill="none" xmlns="http://www.w3.org/2000/svg">
<path fill-rule="evenodd" clip-rule="evenodd" d="M12 2C12 0.89543 12.8954 -4.76837e-07 14 -4.76837e-07C15.1046 -4.76837e-07 16 0.89543 16 2C16 3.10457 15.1046 4 14 4C12.8954 4 12 3.10457 12 2ZM6 2C6 0.89543 6.89543 -4.76837e-07 8 -4.76837e-07C9.10457 -4.76837e-07 10 0.89543 10 2C10 3.10457 9.10457 4 8 4C6.89543 4 6 3.10457 6 2ZM0 2C0 0.89543 0.895431 -4.76837e-07 2 -4.76837e-07C3.10457 -4.76837e-07 4 0.89543 4 2C4 3.10457 3.10457 4 2 4C0.895431 4 0 3.10457 0 2Z" fill="#1E1F20"/>
</svg>
