<svg width="122" height="22" viewBox="0 0 122 22" fill="none" xmlns="http://www.w3.org/2000/svg">
<path d="M9.69531 5.51563C9.63281 4.88542 9.36458 4.39583 8.89062 4.04688C8.41667 3.69792 7.77344 3.52344 6.96094 3.52344C6.40885 3.52344 5.94271 3.60156 5.5625 3.75781C5.18229 3.90886 4.89062 4.11979 4.6875 4.39062C4.48958 4.66146 4.39062 4.96875 4.39062 5.3125C4.38021 5.59896 4.4401 5.84896 4.57031 6.0625C4.70573 6.27604 4.89062 6.46094 5.125 6.61719C5.35938 6.76823 5.63021 6.90104 5.9375 7.01563C6.24479 7.125 6.57292 7.21875 6.92188 7.29688L8.35938 7.64063C9.05729 7.79688 9.69792 8.00521 10.2812 8.26563C10.8646 8.52604 11.3698 8.84635 11.7969 9.22656C12.224 9.60677 12.5547 10.0547 12.7891 10.5703C13.0286 11.0859 13.151 11.6771 13.1562 12.3438C13.151 13.3229 12.901 14.1719 12.4063 14.8906C11.9167 15.6042 11.2083 16.1589 10.2812 16.5547C9.35938 16.9453 8.2474 17.1406 6.94531 17.1406C5.65365 17.1406 4.52865 16.9427 3.57031 16.5469C2.61719 16.151 1.8724 15.5651 1.33594 14.7891C0.804688 14.0078 0.526042 13.0417 0.5 11.8906H3.77344C3.8099 12.4271 3.96354 12.875 4.23438 13.2344C4.51042 13.5885 4.8776 13.8568 5.33594 14.0391C5.79948 14.2161 6.32292 14.3047 6.90625 14.3047C7.47917 14.3047 7.97656 14.2214 8.39844 14.0547C8.82552 13.888 9.15625 13.6563 9.39062 13.3594C9.625 13.0625 9.74219 12.7214 9.74219 12.3359C9.74219 11.9766 9.63542 11.6745 9.42188 11.4297C9.21354 11.1849 8.90625 10.9766 8.5 10.8047C8.09896 10.6328 7.60677 10.4766 7.02344 10.3359L5.28125 9.89844C3.93229 9.57031 2.86719 9.05729 2.08594 8.35938C1.30469 7.66146 0.916667 6.72135 0.921875 5.53906C0.916667 4.57031 1.17448 3.72396 1.69531 3C2.22135 2.27604 2.94271 1.71094 3.85938 1.30469C4.77604 0.898438 5.81771 0.695313 6.98438 0.695313C8.17188 0.695313 9.20833 0.898438 10.0938 1.30469C10.9844 1.71094 11.6771 2.27604 12.1719 3C12.6667 3.72396 12.9219 4.5625 12.9375 5.51563H9.69531Z" fill="black"/>
<path d="M23.0645 11.8047V4.91406H26.3926V16.9141H23.1973V14.7344H23.0723C22.8014 15.4375 22.3509 16.0026 21.7207 16.4297C21.0957 16.8568 20.3327 17.0703 19.4316 17.0703C18.6296 17.0703 17.9238 16.888 17.3145 16.5234C16.7051 16.1589 16.2285 15.6406 15.8848 14.9688C15.5462 14.2969 15.3743 13.4922 15.3691 12.5547V4.91406H18.6973V11.9609C18.7025 12.6693 18.8926 13.2292 19.2676 13.6406C19.6426 14.0521 20.1452 14.2578 20.7754 14.2578C21.1764 14.2578 21.5514 14.1667 21.9004 13.9844C22.2493 13.7969 22.5306 13.5208 22.7441 13.1563C22.9629 12.7917 23.0697 12.3411 23.0645 11.8047Z" fill="black"/>
<path d="M34.4609 21.6641C33.3828 21.6641 32.4583 21.5156 31.6875 21.2188C30.9219 20.9271 30.3125 20.5286 29.8594 20.0234C29.4062 19.5182 29.112 18.9505 28.9766 18.3203L32.0547 17.9062C32.1484 18.1458 32.2969 18.3698 32.5 18.5781C32.7031 18.7865 32.9714 18.9531 33.3047 19.0781C33.6432 19.2083 34.0547 19.2734 34.5391 19.2734C35.263 19.2734 35.8594 19.0964 36.3281 18.7422C36.8021 18.3932 37.0391 17.8073 37.0391 16.9844V14.7891H36.8984C36.7526 15.1224 36.5339 15.4375 36.2422 15.7344C35.9505 16.0312 35.5755 16.2734 35.1172 16.4609C34.6589 16.6484 34.112 16.7422 33.4766 16.7422C32.5755 16.7422 31.7552 16.5339 31.0156 16.1172C30.2812 15.6953 29.6953 15.0521 29.2578 14.1875C28.8255 13.3177 28.6094 12.2188 28.6094 10.8906C28.6094 9.53125 28.8307 8.39583 29.2734 7.48438C29.7161 6.57292 30.3047 5.89063 31.0391 5.4375C31.7786 4.98438 32.5885 4.75781 33.4688 4.75781C34.1406 4.75781 34.7031 4.8724 35.1562 5.10156C35.6094 5.32552 35.974 5.60677 36.25 5.94531C36.5312 6.27865 36.7474 6.60677 36.8984 6.92969H37.0234V4.91406H40.3281V17.0312C40.3281 18.0521 40.0781 18.9062 39.5781 19.5938C39.0781 20.2812 38.3854 20.7969 37.5 21.1406C36.6198 21.4896 35.6068 21.6641 34.4609 21.6641ZM34.5312 14.2422C35.0677 14.2422 35.5208 14.1094 35.8906 13.8438C36.2656 13.5729 36.5521 13.1875 36.75 12.6875C36.9531 12.1823 37.0547 11.5781 37.0547 10.875C37.0547 10.1719 36.9557 9.5625 36.7578 9.04688C36.5599 8.52604 36.2734 8.1224 35.8984 7.83594C35.5234 7.54948 35.0677 7.40625 34.5312 7.40625C33.9844 7.40625 33.5234 7.55469 33.1484 7.85156C32.7734 8.14323 32.4896 8.54948 32.2969 9.07031C32.1042 9.59115 32.0078 10.1927 32.0078 10.875C32.0078 11.5677 32.1042 12.1667 32.2969 12.6719C32.4948 13.1719 32.7786 13.5599 33.1484 13.8359C33.5234 14.1068 33.9844 14.2422 34.5312 14.2422Z" fill="black"/>
<path d="M48.3828 21.6641C47.3047 21.6641 46.3802 21.5156 45.6094 21.2188C44.8438 20.9271 44.2344 20.5286 43.7812 20.0234C43.3281 19.5182 43.0339 18.9505 42.8984 18.3203L45.9766 17.9062C46.0703 18.1458 46.2188 18.3698 46.4219 18.5781C46.625 18.7865 46.8932 18.9531 47.2266 19.0781C47.5651 19.2083 47.9766 19.2734 48.4609 19.2734C49.1849 19.2734 49.7812 19.0964 50.25 18.7422C50.724 18.3932 50.9609 17.8073 50.9609 16.9844V14.7891H50.8203C50.6745 15.1224 50.4557 15.4375 50.1641 15.7344C49.8724 16.0312 49.4974 16.2734 49.0391 16.4609C48.5807 16.6484 48.0339 16.7422 47.3984 16.7422C46.4974 16.7422 45.6771 16.5339 44.9375 16.1172C44.2031 15.6953 43.6172 15.0521 43.1797 14.1875C42.7474 13.3177 42.5312 12.2188 42.5312 10.8906C42.5312 9.53125 42.7526 8.39583 43.1953 7.48438C43.638 6.57292 44.2266 5.89063 44.9609 5.4375C45.7005 4.98438 46.5104 4.75781 47.3906 4.75781C48.0625 4.75781 48.625 4.8724 49.0781 5.10156C49.5312 5.32552 49.8958 5.60677 50.1719 5.94531C50.4531 6.27865 50.6693 6.60677 50.8203 6.92969H50.9453V4.91406H54.25V17.0312C54.25 18.0521 54 18.9062 53.5 19.5938C53 20.2812 52.3073 20.7969 51.4219 21.1406C50.5417 21.4896 49.5286 21.6641 48.3828 21.6641ZM48.4531 14.2422C48.9896 14.2422 49.4427 14.1094 49.8125 13.8438C50.1875 13.5729 50.474 13.1875 50.6719 12.6875C50.875 12.1823 50.9766 11.5781 50.9766 10.875C50.9766 10.1719 50.8776 9.5625 50.6797 9.04688C50.4818 8.52604 50.1953 8.1224 49.8203 7.83594C49.4453 7.54948 48.9896 7.40625 48.4531 7.40625C47.9062 7.40625 47.4453 7.55469 47.0703 7.85156C46.6953 8.14323 46.4115 8.54948 46.2188 9.07031C46.026 9.59115 45.9297 10.1927 45.9297 10.875C45.9297 11.5677 46.026 12.1667 46.2188 12.6719C46.4167 13.1719 46.7005 13.5599 47.0703 13.8359C47.4453 14.1068 47.9062 14.2422 48.4531 14.2422Z" fill="black"/>
<path d="M62.3672 17.1484C61.1328 17.1484 60.0703 16.8984 59.1797 16.3984C58.2943 15.8932 57.612 15.1797 57.1328 14.2578C56.6536 13.3307 56.4141 12.2344 56.4141 10.9688C56.4141 9.73438 56.6536 8.65104 57.1328 7.71875C57.612 6.78646 58.2865 6.0599 59.1562 5.53906C60.0312 5.01823 61.0573 4.75781 62.2344 4.75781C63.026 4.75781 63.763 4.88542 64.4453 5.14063C65.1328 5.39063 65.7318 5.76823 66.2422 6.27344C66.7578 6.77865 67.1589 7.41406 67.4453 8.17969C67.7318 8.94011 67.875 9.83073 67.875 10.8516V11.7656H57.7422V9.70313H64.7422C64.7422 9.22396 64.638 8.79948 64.4297 8.42969C64.2214 8.0599 63.9323 7.77083 63.5625 7.5625C63.1979 7.34896 62.7734 7.24219 62.2891 7.24219C61.7839 7.24219 61.3359 7.35938 60.9453 7.59375C60.5599 7.82292 60.2578 8.13281 60.0391 8.52344C59.8203 8.90886 59.7083 9.33854 59.7031 9.8125V11.7734C59.7031 12.3672 59.8125 12.8802 60.0312 13.3125C60.2552 13.7448 60.5703 14.0781 60.9766 14.3125C61.3828 14.5469 61.8646 14.6641 62.4219 14.6641C62.7917 14.6641 63.1302 14.612 63.4375 14.5078C63.7448 14.4036 64.0078 14.2474 64.2266 14.0391C64.4453 13.8307 64.612 13.5755 64.7266 13.2734L67.8047 13.4766C67.6484 14.2161 67.3281 14.862 66.8438 15.4141C66.3646 15.9609 65.7448 16.388 64.9844 16.6953C64.2292 16.9974 63.3568 17.1484 62.3672 17.1484Z" fill="black"/>
<path d="M80.0312 8.33594L76.9844 8.52344C76.9323 8.26302 76.8203 8.02865 76.6484 7.82031C76.4766 7.60677 76.25 7.4375 75.9688 7.3125C75.6927 7.18229 75.362 7.11719 74.9766 7.11719C74.4609 7.11719 74.026 7.22656 73.6719 7.44531C73.3177 7.65885 73.1406 7.94531 73.1406 8.30469C73.1406 8.59115 73.2552 8.83333 73.4844 9.03125C73.7135 9.22917 74.1068 9.38802 74.6641 9.50781L76.8359 9.94531C78.0026 10.1849 78.8724 10.5703 79.4453 11.1016C80.0182 11.6328 80.3047 12.3307 80.3047 13.1953C80.3047 13.9818 80.0729 14.6719 79.6094 15.2656C79.151 15.8594 78.5208 16.3229 77.7188 16.6562C76.9219 16.9844 76.0026 17.1484 74.9609 17.1484C73.3724 17.1484 72.1068 16.8177 71.1641 16.1562C70.2266 15.4896 69.6771 14.5833 69.5156 13.4375L72.7891 13.2656C72.888 13.75 73.1276 14.1198 73.5078 14.375C73.888 14.625 74.375 14.75 74.9688 14.75C75.5521 14.75 76.0208 14.638 76.375 14.4141C76.7344 14.1849 76.9167 13.8906 76.9219 13.5313C76.9167 13.2292 76.7891 12.9818 76.5391 12.7891C76.2891 12.5911 75.9036 12.4401 75.3828 12.3359L73.3047 11.9219C72.1328 11.6875 71.2604 11.2813 70.6875 10.7031C70.1198 10.125 69.8359 9.38802 69.8359 8.49219C69.8359 7.72135 70.0443 7.05729 70.4609 6.5C70.8828 5.94271 71.474 5.51302 72.2344 5.21094C73 4.90886 73.8958 4.75781 74.9219 4.75781C76.4375 4.75781 77.6302 5.07813 78.5 5.71875C79.375 6.35938 79.8854 7.23177 80.0312 8.33594Z" fill="black"/>
<path d="M88.7832 4.91406V7.41406H81.5566V4.91406H88.7832ZM83.1973 2.03906H86.5254V13.2266C86.5254 13.5339 86.5723 13.7734 86.666 13.9453C86.7598 14.112 86.89 14.2292 87.0566 14.2969C87.2285 14.3646 87.4264 14.3984 87.6504 14.3984C87.8066 14.3984 87.9629 14.3854 88.1191 14.3594C88.2754 14.3281 88.3952 14.3047 88.4785 14.2891L89.002 16.7656C88.8353 16.8177 88.6009 16.8776 88.2988 16.9453C87.9967 17.0182 87.6296 17.0625 87.1973 17.0781C86.3952 17.1094 85.6921 17.0026 85.0879 16.7578C84.4889 16.513 84.0228 16.1328 83.6895 15.6172C83.3561 15.1016 83.1921 14.4505 83.1973 13.6641V2.03906Z" fill="black"/>
<path d="M90.9512 16.9141V4.91406H94.2793V16.9141H90.9512ZM92.623 3.36719C92.1283 3.36719 91.7038 3.20313 91.3496 2.875C91.0006 2.54167 90.8262 2.14323 90.8262 1.67969C90.8262 1.22135 91.0006 0.828125 91.3496 0.500001C91.7038 0.166667 92.1283 0 92.623 0C93.1178 0 93.5397 0.166667 93.8887 0.500001C94.2428 0.828125 94.4199 1.22135 94.4199 1.67969C94.4199 2.14323 94.2428 2.54167 93.8887 2.875C93.5397 3.20313 93.1178 3.36719 92.623 3.36719Z" fill="black"/>
<path d="M102.367 17.1484C101.154 17.1484 100.104 16.8906 99.2188 16.375C98.3385 15.8542 97.6589 15.1302 97.1797 14.2031C96.7005 13.2708 96.4609 12.1901 96.4609 10.9609C96.4609 9.72135 96.7005 8.63802 97.1797 7.71094C97.6589 6.77865 98.3385 6.05469 99.2188 5.53906C100.104 5.01823 101.154 4.75781 102.367 4.75781C103.581 4.75781 104.628 5.01823 105.508 5.53906C106.393 6.05469 107.076 6.77865 107.555 7.71094C108.034 8.63802 108.273 9.72135 108.273 10.9609C108.273 12.1901 108.034 13.2708 107.555 14.2031C107.076 15.1302 106.393 15.8542 105.508 16.375C104.628 16.8906 103.581 17.1484 102.367 17.1484ZM102.383 14.5703C102.935 14.5703 103.396 14.4141 103.766 14.1016C104.135 13.7839 104.414 13.3516 104.602 12.8047C104.794 12.2578 104.891 11.6354 104.891 10.9375C104.891 10.2396 104.794 9.61719 104.602 9.07031C104.414 8.52344 104.135 8.09115 103.766 7.77344C103.396 7.45573 102.935 7.29688 102.383 7.29688C101.826 7.29688 101.357 7.45573 100.977 7.77344C100.602 8.09115 100.318 8.52344 100.125 9.07031C99.9375 9.61719 99.8438 10.2396 99.8438 10.9375C99.8438 11.6354 99.9375 12.2578 100.125 12.8047C100.318 13.3516 100.602 13.7839 100.977 14.1016C101.357 14.4141 101.826 14.5703 102.383 14.5703Z" fill="black"/>
<path d="M113.766 9.97656V16.9141H110.438V4.91406H113.609V7.03125H113.75C114.016 6.33333 114.461 5.78125 115.086 5.375C115.711 4.96354 116.469 4.75781 117.359 4.75781C118.193 4.75781 118.919 4.94011 119.539 5.30469C120.159 5.66927 120.641 6.1901 120.984 6.86719C121.328 7.53906 121.5 8.34115 121.5 9.27344V16.9141H118.172V9.86719C118.177 9.13281 117.99 8.5599 117.609 8.14844C117.229 7.73177 116.706 7.52344 116.039 7.52344C115.591 7.52344 115.195 7.61979 114.852 7.8125C114.513 8.00521 114.247 8.28646 114.055 8.65625C113.867 9.02083 113.771 9.46094 113.766 9.97656Z" fill="black"/>
</svg>
