<svg width="35" height="29" viewBox="0 0 35 29" fill="none" xmlns="http://www.w3.org/2000/svg">
<path d="M20.1188 27.0576L18.3847 28.5318C17.6504 29.1561 16.463 29.1561 15.7365 28.5318L0.55072 15.6289C-0.183573 15.0047 -0.183573 13.9953 0.55072 13.3777L15.7365 0.46817C16.4708 -0.156057 17.6582 -0.156057 18.3847 0.46817L20.1188 1.94241C20.861 2.57328 20.8453 3.60259 20.0876 4.22017L10.6746 11.8437H33.1252C34.1642 11.8437 35 12.5543 35 13.4375V15.5625C35 16.4457 34.1642 17.1563 33.1252 17.1563H10.6746L20.0876 24.7798C20.8531 25.3974 20.8688 26.4267 20.1188 27.0576Z" fill="black"/>
</svg>
