<svg width="29" height="20" viewBox="0 0 29 20" fill="none" xmlns="http://www.w3.org/2000/svg">
<path d="M14.6069 0C5.59375 0 0.25 10 0.25 10C0.25 10 5.59375 20 14.6069 20C23.4062 20 28.75 10 28.75 10C28.75 10 23.4062 0 14.6069 0ZM14.5 3.33333C18.4544 3.33333 21.625 6.33333 21.625 10C21.625 13.7 18.4544 16.6667 14.5 16.6667C10.5813 16.6667 7.375 13.7 7.375 10C7.375 6.33333 10.5813 3.33333 14.5 3.33333ZM14.5 6.66667C12.5406 6.66667 10.9375 8.16667 10.9375 10C10.9375 11.8333 12.5406 13.3333 14.5 13.3333C16.4594 13.3333 18.0625 11.8333 18.0625 10C18.0625 9.66667 17.92 9.36667 17.8488 9.06667C17.5637 9.6 16.9937 10 16.2812 10C15.2837 10 14.5 9.26667 14.5 8.33333C14.5 7.66667 14.9275 7.13333 15.4975 6.86667C15.1769 6.76667 14.8562 6.66667 14.5 6.66667Z" fill="black" fill-opacity="0.75"/>
</svg>
