<svg width="29" height="21" viewBox="0 0 29 21" fill="none" xmlns="http://www.w3.org/2000/svg">
<path d="M14.6069 0.5C5.59375 0.5 0.25 10.5 0.25 10.5C0.25 10.5 5.59375 20.5 14.6069 20.5C23.4063 20.5 28.75 10.5 28.75 10.5C28.75 10.5 23.4063 0.5 14.6069 0.5V0.5ZM14.5 3.83333C18.4544 3.83333 21.625 6.83333 21.625 10.5C21.625 14.2 18.4544 17.1667 14.5 17.1667C10.5812 17.1667 7.375 14.2 7.375 10.5C7.375 6.83333 10.5812 3.83333 14.5 3.83333ZM14.5 7.16667C12.5406 7.16667 10.9375 8.66667 10.9375 10.5C10.9375 12.3333 12.5406 13.8333 14.5 13.8333C16.4594 13.8333 18.0625 12.3333 18.0625 10.5C18.0625 10.1667 17.92 9.86667 17.8488 9.56667C17.5638 10.1 16.9938 10.5 16.2812 10.5C15.2837 10.5 14.5 9.76667 14.5 8.83333C14.5 8.16667 14.9275 7.63333 15.4975 7.36667C15.1769 7.26667 14.8563 7.16667 14.5 7.16667Z" fill="black" fill-opacity="0.75"/>
</svg>
