<svg width="30" height="21" viewBox="0 0 30 21" fill="none" xmlns="http://www.w3.org/2000/svg">
<path d="M15.1069 0.5C6.09375 0.5 0.75 10.5 0.75 10.5C0.75 10.5 6.09375 20.5 15.1069 20.5C23.9062 20.5 29.25 10.5 29.25 10.5C29.25 10.5 23.9062 0.5 15.1069 0.5ZM15 3.83333C18.9544 3.83333 22.125 6.83333 22.125 10.5C22.125 14.2 18.9544 17.1667 15 17.1667C11.0813 17.1667 7.875 14.2 7.875 10.5C7.875 6.83333 11.0813 3.83333 15 3.83333ZM15 7.16667C13.0406 7.16667 11.4375 8.66667 11.4375 10.5C11.4375 12.3333 13.0406 13.8333 15 13.8333C16.9594 13.8333 18.5625 12.3333 18.5625 10.5C18.5625 10.1667 18.42 9.86667 18.3488 9.56667C18.0637 10.1 17.4937 10.5 16.7812 10.5C15.7837 10.5 15 9.76667 15 8.83333C15 8.16667 15.4275 7.63333 15.9975 7.36667C15.6769 7.26667 15.3562 7.16667 15 7.16667Z" fill="black" fill-opacity="0.75"/>
</svg>
