<svg width="21" height="29" viewBox="0 0 21 29" fill="none" xmlns="http://www.w3.org/2000/svg">
<path d="M10.5 28.8904C12.1556 28.8904 13.4986 27.2799 13.4986 25.2928H7.50142C7.50142 27.2799 8.84438 28.8904 10.5 28.8904V28.8904ZM20.5964 20.4748C19.6908 19.3079 17.9962 17.5523 17.9962 11.8018C17.9962 7.43406 15.4425 3.93764 11.9991 3.07983V1.90836C11.9991 0.915085 11.3278 0.109558 10.5 0.109558C9.67219 0.109558 9.00094 0.915085 9.00094 1.90836V3.07983C5.55752 3.93764 3.00377 7.43406 3.00377 11.8018C3.00377 17.5523 1.30925 19.3079 0.403625 20.4748C0.122376 20.8374 -0.00231133 21.2708 3.24087e-05 21.6952C0.00518864 22.6171 0.608468 23.494 1.50472 23.494H19.4953C20.3915 23.494 20.9953 22.6171 21 21.6952C21.0023 21.2708 20.8776 20.8368 20.5964 20.4748Z" fill="#DB5A42"/>
</svg>
