<svg width="29" height="32" viewBox="0 0 29 32" fill="none" xmlns="http://www.w3.org/2000/svg">
<path d="M12.7006 0C10.4594 0 8.62575 1.8 8.62575 4H4.55091C2.30975 4 0.476074 5.8 0.476074 8H28.9999C28.9999 5.8 27.1663 4 24.9251 4H20.8503C20.8503 1.8 19.0166 0 16.7754 0H12.7006ZM4.55091 12V31.24C4.55091 31.68 4.8769 32 5.32513 32H24.1916C24.6399 32 24.9658 31.68 24.9658 31.24V12H20.891V26C20.891 27.12 19.9945 28 18.8536 28C17.7126 28 16.8162 27.12 16.8162 26V12H12.7413V26C12.7413 27.12 11.8449 28 10.7039 28C9.56296 28 8.6665 27.12 8.6665 26V12H4.59166H4.55091Z" fill="black"/>
</svg>
