<svg width="28" height="29" viewBox="0 0 28 29" fill="none" xmlns="http://www.w3.org/2000/svg">
<g clip-path="url(#clip0_326_612)">
<rect y="0.389648" width="28" height="28" rx="12" fill="#0659FD"/>
<path fill-rule="evenodd" clip-rule="evenodd" d="M16.4545 7.38965C14.6471 7.38965 13.1818 8.8549 13.1818 10.6624C13.1818 12.4699 14.6471 13.9351 16.4545 13.9351C18.262 13.9351 19.7273 12.4699 19.7273 10.6624C19.7273 8.8549 18.262 7.38965 16.4545 7.38965V7.38965ZM16.4545 8.94419C17.4036 8.94419 18.1727 9.71328 18.1727 10.6624C18.1727 11.6115 17.4036 12.3806 16.4545 12.3806C15.5056 12.3806 14.7364 11.6113 14.7364 10.6624C14.7364 9.71345 15.5056 8.94419 16.4545 8.94419V8.94419ZM7.45455 9.84419V12.2987H5V13.9351H7.45455V16.3896H9.09091V13.9351H11.5455V12.2987H9.09091V9.84419H7.45455V9.84419ZM16.4545 14.7533C14.27 14.7533 9.90909 15.8415 9.90909 18.026V20.4806H23V18.026C23 15.8415 18.6391 14.7533 16.4545 14.7533V14.7533ZM16.4545 16.3078C18.8845 16.3078 21.4455 17.5024 21.4455 18.026V18.926H11.4636V18.026C11.4636 17.5024 14 16.3078 16.4545 16.3078Z" fill="#1E1F20"/>
<mask id="mask0_326_612" style="mask-type:alpha" maskUnits="userSpaceOnUse" x="5" y="7" width="18" height="14">
<path fill-rule="evenodd" clip-rule="evenodd" d="M16.4545 7.38965C14.6471 7.38965 13.1818 8.8549 13.1818 10.6624C13.1818 12.4699 14.6471 13.9351 16.4545 13.9351C18.262 13.9351 19.7273 12.4699 19.7273 10.6624C19.7273 8.8549 18.262 7.38965 16.4545 7.38965V7.38965ZM16.4545 8.94419C17.4036 8.94419 18.1727 9.71328 18.1727 10.6624C18.1727 11.6115 17.4036 12.3806 16.4545 12.3806C15.5056 12.3806 14.7364 11.6113 14.7364 10.6624C14.7364 9.71345 15.5056 8.94419 16.4545 8.94419V8.94419ZM7.45455 9.84419V12.2987H5V13.9351H7.45455V16.3896H9.09091V13.9351H11.5455V12.2987H9.09091V9.84419H7.45455V9.84419ZM16.4545 14.7533C14.27 14.7533 9.90909 15.8415 9.90909 18.026V20.4806H23V18.026C23 15.8415 18.6391 14.7533 16.4545 14.7533V14.7533ZM16.4545 16.3078C18.8845 16.3078 21.4455 17.5024 21.4455 18.026V18.926H11.4636V18.026C11.4636 17.5024 14 16.3078 16.4545 16.3078Z" fill="white"/>
</mask>
<g mask="url(#mask0_326_612)">
</g>
</g>
<defs>
<clipPath id="clip0_326_612">
<rect width="28" height="28" fill="white" transform="translate(0 0.389648)"/>
</clipPath>
</defs>
</svg>
