<svg width="28" height="29" viewBox="0 0 28 29" fill="none" xmlns="http://www.w3.org/2000/svg">
<g clip-path="url(#clip0_326_619)">
<rect y="0.438477" width="28" height="28" rx="12" fill="#0659FD"/>
<path fill-rule="evenodd" clip-rule="evenodd" d="M16.4545 7.43848C14.6471 7.43848 13.1818 8.90373 13.1818 10.7112C13.1818 12.5187 14.6471 13.9839 16.4545 13.9839C18.262 13.9839 19.7273 12.5187 19.7273 10.7112C19.7273 8.90373 18.262 7.43848 16.4545 7.43848V7.43848ZM16.4545 8.99302C17.4036 8.99302 18.1727 9.76211 18.1727 10.7112C18.1727 11.6603 17.4036 12.4294 16.4545 12.4294C15.5056 12.4294 14.7364 11.6601 14.7364 10.7112C14.7364 9.76228 15.5056 8.99302 16.4545 8.99302V8.99302ZM7.45455 9.89302V12.3476H5V13.9839H7.45455V16.4385H9.09091V13.9839H11.5455V12.3476H9.09091V9.89302H7.45455V9.89302ZM16.4545 14.8021C14.27 14.8021 9.90909 15.8903 9.90909 18.0748V20.5294H23V18.0748C23 15.8903 18.6391 14.8021 16.4545 14.8021V14.8021ZM16.4545 16.3567C18.8845 16.3567 21.4455 17.5512 21.4455 18.0748V18.9748H11.4636V18.0748C11.4636 17.5512 14 16.3567 16.4545 16.3567Z" fill="#1E1F20"/>
<mask id="mask0_326_619" style="mask-type:alpha" maskUnits="userSpaceOnUse" x="5" y="7" width="18" height="14">
<path fill-rule="evenodd" clip-rule="evenodd" d="M16.4545 7.43848C14.6471 7.43848 13.1818 8.90373 13.1818 10.7112C13.1818 12.5187 14.6471 13.9839 16.4545 13.9839C18.262 13.9839 19.7273 12.5187 19.7273 10.7112C19.7273 8.90373 18.262 7.43848 16.4545 7.43848V7.43848ZM16.4545 8.99302C17.4036 8.99302 18.1727 9.76211 18.1727 10.7112C18.1727 11.6603 17.4036 12.4294 16.4545 12.4294C15.5056 12.4294 14.7364 11.6601 14.7364 10.7112C14.7364 9.76228 15.5056 8.99302 16.4545 8.99302V8.99302ZM7.45455 9.89302V12.3476H5V13.9839H7.45455V16.4385H9.09091V13.9839H11.5455V12.3476H9.09091V9.89302H7.45455V9.89302ZM16.4545 14.8021C14.27 14.8021 9.90909 15.8903 9.90909 18.0748V20.5294H23V18.0748C23 15.8903 18.6391 14.8021 16.4545 14.8021V14.8021ZM16.4545 16.3567C18.8845 16.3567 21.4455 17.5512 21.4455 18.0748V18.9748H11.4636V18.0748C11.4636 17.5512 14 16.3567 16.4545 16.3567Z" fill="white"/>
</mask>
<g mask="url(#mask0_326_619)">
</g>
</g>
<defs>
<clipPath id="clip0_326_619">
<rect width="28" height="28" fill="white" transform="translate(0 0.438477)"/>
</clipPath>
</defs>
</svg>
