<svg width="91" height="33" viewBox="0 0 91 33" fill="none" xmlns="http://www.w3.org/2000/svg">
<path d="M4.85066 12.1818C4.03248 12.1818 3.32794 11.9886 2.73703 11.6023C2.14612 11.2159 1.69157 10.6837 1.37339 10.0057C1.05521 9.32765 0.896118 8.55303 0.896118 7.68182C0.896118 6.79545 1.059 6.01326 1.38475 5.33523C1.7143 4.65341 2.17263 4.12121 2.75975 3.73864C3.35066 3.35227 4.04006 3.15909 4.82794 3.15909C5.44157 3.15909 5.9946 3.27273 6.48703 3.5C6.97945 3.72727 7.38286 4.04545 7.69725 4.45455C8.01165 4.86364 8.20672 5.34091 8.28248 5.88636H6.94157C6.8393 5.48864 6.61203 5.13636 6.25975 4.82955C5.91127 4.51894 5.44157 4.36364 4.85066 4.36364C4.32794 4.36364 3.8696 4.5 3.47566 4.77273C3.08551 5.04167 2.78059 5.42235 2.56089 5.91477C2.34498 6.40341 2.23703 6.97727 2.23703 7.63636C2.23703 8.31061 2.34309 8.89773 2.55521 9.39773C2.77112 9.89773 3.07415 10.286 3.4643 10.5625C3.85824 10.839 4.32036 10.9773 4.85066 10.9773C5.19915 10.9773 5.51544 10.9167 5.79953 10.7955C6.08362 10.6742 6.32415 10.5 6.52112 10.2727C6.71809 10.0455 6.85824 9.77273 6.94157 9.45455H8.28248C8.20672 9.9697 8.01922 10.4337 7.71998 10.8466C7.42453 11.2557 7.03248 11.5814 6.54385 11.8239C6.059 12.0625 5.4946 12.1818 4.85066 12.1818Z" fill="black"/>
<path d="M11.5836 6.75V12H10.2427V0.363636H11.5836V4.63636H11.6973C11.9018 4.18561 12.2086 3.82765 12.6177 3.5625C13.0306 3.29356 13.5798 3.15909 14.2654 3.15909C14.8601 3.15909 15.381 3.27841 15.8279 3.51705C16.2749 3.75189 16.6215 4.11364 16.8677 4.60227C17.1177 5.08712 17.2427 5.70455 17.2427 6.45455V12H15.9018V6.54545C15.9018 5.85227 15.7219 5.31629 15.362 4.9375C15.006 4.55492 14.5116 4.36364 13.8791 4.36364C13.4397 4.36364 13.0457 4.45644 12.6973 4.64205C12.3526 4.82765 12.0798 5.09848 11.8791 5.45455C11.6821 5.81061 11.5836 6.24242 11.5836 6.75Z" fill="black"/>
<path d="M19.6958 12V3.27273H21.0367V12H19.6958ZM20.3777 1.81818C20.1163 1.81818 19.8909 1.72917 19.7015 1.55114C19.5159 1.37311 19.4231 1.15909 19.4231 0.909091C19.4231 0.659091 19.5159 0.445076 19.7015 0.267045C19.8909 0.089015 20.1163 0 20.3777 0C20.639 0 20.8625 0.089015 21.0481 0.267045C21.2375 0.445076 21.3322 0.659091 21.3322 0.909091C21.3322 1.15909 21.2375 1.37311 21.0481 1.55114C20.8625 1.72917 20.639 1.81818 20.3777 1.81818Z" fill="black"/>
<path d="M27.0382 12.1818C26.22 12.1818 25.5154 11.9886 24.9245 11.6023C24.3336 11.2159 23.8791 10.6837 23.5609 10.0057C23.2427 9.32765 23.0836 8.55303 23.0836 7.68182C23.0836 6.79545 23.2465 6.01326 23.5723 5.33523C23.9018 4.65341 24.3601 4.12121 24.9473 3.73864C25.5382 3.35227 26.2276 3.15909 27.0154 3.15909C27.6291 3.15909 28.1821 3.27273 28.6745 3.5C29.167 3.72727 29.5704 4.04545 29.8848 4.45455C30.1991 4.86364 30.3942 5.34091 30.47 5.88636H29.1291C29.0268 5.48864 28.7995 5.13636 28.4473 4.82955C28.0988 4.51894 27.6291 4.36364 27.0382 4.36364C26.5154 4.36364 26.0571 4.5 25.6632 4.77273C25.273 5.04167 24.9681 5.42235 24.7484 5.91477C24.5325 6.40341 24.4245 6.97727 24.4245 7.63636C24.4245 8.31061 24.5306 8.89773 24.7427 9.39773C24.9586 9.89773 25.2616 10.286 25.6518 10.5625C26.0457 10.839 26.5079 10.9773 27.0382 10.9773C27.3866 10.9773 27.7029 10.9167 27.987 10.7955C28.2711 10.6742 28.5116 10.5 28.7086 10.2727C28.9056 10.0455 29.0457 9.77273 29.1291 9.45455H30.47C30.3942 9.9697 30.2067 10.4337 29.9075 10.8466C29.612 11.2557 29.22 11.5814 28.7313 11.8239C28.2465 12.0625 27.6821 12.1818 27.0382 12.1818Z" fill="black"/>
<path d="M33.6802 8.81818L33.6575 7.15909H33.9302L37.7484 3.27273H39.4075L35.3393 7.38636H35.2257L33.6802 8.81818ZM32.4302 12V0.363636H33.7711V12H32.4302ZM37.9757 12L34.5666 7.68182L35.5211 6.75L39.6802 12H37.9757Z" fill="black"/>
<path d="M44.4331 12.1818C43.5921 12.1818 42.8668 11.9962 42.2569 11.625C41.6509 11.25 41.1831 10.7273 40.8535 10.0568C40.5278 9.38258 40.3649 8.59848 40.3649 7.70455C40.3649 6.81061 40.5278 6.02273 40.8535 5.34091C41.1831 4.6553 41.6414 4.12121 42.2285 3.73864C42.8194 3.35227 43.5088 3.15909 44.2967 3.15909C44.7512 3.15909 45.2001 3.23485 45.6433 3.38636C46.0865 3.53788 46.4899 3.78409 46.8535 4.125C47.2171 4.46212 47.5069 4.90909 47.7228 5.46591C47.9387 6.02273 48.0467 6.70833 48.0467 7.52273V8.09091H41.3194V6.93182H46.6831C46.6831 6.43939 46.5846 6 46.3876 5.61364C46.1944 5.22727 45.9179 4.92235 45.5581 4.69886C45.202 4.47538 44.7815 4.36364 44.2967 4.36364C43.7626 4.36364 43.3005 4.49621 42.9103 4.76136C42.524 5.02273 42.2266 5.36364 42.0183 5.78409C41.8099 6.20454 41.7058 6.6553 41.7058 7.13636V7.90909C41.7058 8.56818 41.8194 9.12689 42.0467 9.58523C42.2777 10.0398 42.5978 10.3864 43.0069 10.625C43.416 10.8598 43.8914 10.9773 44.4331 10.9773C44.7853 10.9773 45.1035 10.928 45.3876 10.8295C45.6755 10.7273 45.9236 10.5758 46.1319 10.375C46.3402 10.1705 46.5012 9.91667 46.6149 9.61364L47.9103 9.97727C47.774 10.4167 47.5448 10.803 47.2228 11.1364C46.9009 11.4659 46.5031 11.7235 46.0296 11.9091C45.5562 12.0909 45.024 12.1818 44.4331 12.1818Z" fill="black"/>
<path d="M51.4274 6.75V12H50.0865V3.27273H51.3819V4.63636H51.4956C51.7001 4.19318 52.0107 3.83712 52.4274 3.56818C52.844 3.29545 53.3819 3.15909 54.041 3.15909C54.6319 3.15909 55.149 3.2803 55.5921 3.52273C56.0353 3.76136 56.38 4.125 56.6262 4.61364C56.8724 5.09848 56.9956 5.71212 56.9956 6.45455V12H55.6546V6.54545C55.6546 5.85985 55.4766 5.32576 55.1206 4.94318C54.7645 4.55682 54.2759 4.36364 53.6546 4.36364C53.2266 4.36364 52.844 4.45644 52.5069 4.64205C52.1736 4.82765 51.9103 5.09848 51.7171 5.45455C51.524 5.81061 51.4274 6.24242 51.4274 6.75Z" fill="black"/>
<path d="M67.6049 12.1818C66.764 12.1818 66.0386 11.9962 65.4288 11.625C64.8227 11.25 64.3549 10.7273 64.0254 10.0568C63.6996 9.38258 63.5367 8.59848 63.5367 7.70455C63.5367 6.81061 63.6996 6.02273 64.0254 5.34091C64.3549 4.6553 64.8133 4.12121 65.4004 3.73864C65.9913 3.35227 66.6807 3.15909 67.4686 3.15909C67.9231 3.15909 68.372 3.23485 68.8151 3.38636C69.2583 3.53788 69.6617 3.78409 70.0254 4.125C70.389 4.46212 70.6788 4.90909 70.8947 5.46591C71.1106 6.02273 71.2186 6.70833 71.2186 7.52273V8.09091H64.4913V6.93182H69.8549C69.8549 6.43939 69.7564 6 69.5595 5.61364C69.3663 5.22727 69.0898 4.92235 68.7299 4.69886C68.3739 4.47538 67.9534 4.36364 67.4686 4.36364C66.9345 4.36364 66.4724 4.49621 66.0822 4.76136C65.6958 5.02273 65.3985 5.36364 65.1901 5.78409C64.9818 6.20454 64.8777 6.6553 64.8777 7.13636V7.90909C64.8777 8.56818 64.9913 9.12689 65.2186 9.58523C65.4496 10.0398 65.7697 10.3864 66.1788 10.625C66.5879 10.8598 67.0633 10.9773 67.6049 10.9773C67.9572 10.9773 68.2754 10.928 68.5595 10.8295C68.8474 10.7273 69.0955 10.5758 69.3038 10.375C69.5121 10.1705 69.6731 9.91667 69.7867 9.61364L71.0822 9.97727C70.9458 10.4167 70.7167 10.803 70.3947 11.1364C70.0727 11.4659 69.675 11.7235 69.2015 11.9091C68.728 12.0909 68.1958 12.1818 67.6049 12.1818Z" fill="black"/>
<path d="M76.7811 15.4545C76.1333 15.4545 75.5765 15.3712 75.1106 15.2045C74.6447 15.0417 74.2564 14.8258 73.9458 14.5568C73.639 14.2917 73.3947 14.0076 73.2129 13.7045L74.2811 12.9545C74.4023 13.1136 74.5557 13.2955 74.7413 13.5C74.9269 13.7083 75.1807 13.8883 75.5026 14.0398C75.8284 14.1951 76.2545 14.2727 76.7811 14.2727C77.4856 14.2727 78.067 14.1023 78.5254 13.7614C78.9837 13.4205 79.2129 12.8864 79.2129 12.1591V10.3864H79.0992C79.0008 10.5455 78.8606 10.7424 78.6788 10.9773C78.5008 11.2083 78.2432 11.4148 77.9061 11.5966C77.5727 11.7746 77.122 11.8636 76.5538 11.8636C75.8492 11.8636 75.2167 11.697 74.6561 11.3636C74.0992 11.0303 73.658 10.5455 73.3322 9.90909C73.0102 9.27273 72.8492 8.5 72.8492 7.59091C72.8492 6.69697 73.0064 5.91856 73.3208 5.25568C73.6352 4.58902 74.0727 4.07386 74.6333 3.71023C75.1939 3.3428 75.8417 3.15909 76.5765 3.15909C77.1447 3.15909 77.5955 3.25379 77.9288 3.44318C78.2659 3.62879 78.5235 3.84091 78.7015 4.07955C78.8833 4.31439 79.0235 4.50758 79.122 4.65909H79.2583V3.27273H80.5538V12.25C80.5538 13 80.3833 13.6098 80.0424 14.0795C79.7053 14.553 79.2508 14.8996 78.6788 15.1193C78.1106 15.3428 77.478 15.4545 76.7811 15.4545ZM76.7356 10.6591C77.2735 10.6591 77.728 10.536 78.0992 10.2898C78.4705 10.0436 78.7526 9.68939 78.9458 9.22727C79.139 8.76515 79.2356 8.21212 79.2356 7.56818C79.2356 6.93939 79.1409 6.38447 78.9515 5.90341C78.7621 5.42235 78.4818 5.04545 78.1106 4.77273C77.7394 4.5 77.2811 4.36364 76.7356 4.36364C76.1674 4.36364 75.6939 4.50758 75.3151 4.79545C74.9401 5.08333 74.658 5.4697 74.4686 5.95455C74.283 6.43939 74.1901 6.97727 74.1901 7.56818C74.1901 8.17424 74.2849 8.71023 74.4742 9.17614C74.6674 9.63826 74.9515 10.0019 75.3265 10.267C75.7053 10.5284 76.175 10.6591 76.7356 10.6591Z" fill="black"/>
<path d="M86.5311 15.4545C85.8833 15.4545 85.3265 15.3712 84.8606 15.2045C84.3947 15.0417 84.0064 14.8258 83.6958 14.5568C83.389 14.2917 83.1447 14.0076 82.9629 13.7045L84.0311 12.9545C84.1523 13.1136 84.3057 13.2955 84.4913 13.5C84.6769 13.7083 84.9307 13.8883 85.2526 14.0398C85.5784 14.1951 86.0045 14.2727 86.5311 14.2727C87.2356 14.2727 87.817 14.1023 88.2754 13.7614C88.7337 13.4205 88.9629 12.8864 88.9629 12.1591V10.3864H88.8492C88.7508 10.5455 88.6106 10.7424 88.4288 10.9773C88.2508 11.2083 87.9932 11.4148 87.6561 11.5966C87.3227 11.7746 86.872 11.8636 86.3038 11.8636C85.5992 11.8636 84.9667 11.697 84.4061 11.3636C83.8492 11.0303 83.408 10.5455 83.0822 9.90909C82.7602 9.27273 82.5992 8.5 82.5992 7.59091C82.5992 6.69697 82.7564 5.91856 83.0708 5.25568C83.3852 4.58902 83.8227 4.07386 84.3833 3.71023C84.9439 3.3428 85.5917 3.15909 86.3265 3.15909C86.8947 3.15909 87.3455 3.25379 87.6788 3.44318C88.0159 3.62879 88.2735 3.84091 88.4515 4.07955C88.6333 4.31439 88.7735 4.50758 88.872 4.65909H89.0083V3.27273H90.3038V12.25C90.3038 13 90.1333 13.6098 89.7924 14.0795C89.4553 14.553 89.0008 14.8996 88.4288 15.1193C87.8606 15.3428 87.228 15.4545 86.5311 15.4545ZM86.4856 10.6591C87.0235 10.6591 87.478 10.536 87.8492 10.2898C88.2205 10.0436 88.5026 9.68939 88.6958 9.22727C88.889 8.76515 88.9856 8.21212 88.9856 7.56818C88.9856 6.93939 88.8909 6.38447 88.7015 5.90341C88.5121 5.42235 88.2318 5.04545 87.8606 4.77273C87.4894 4.5 87.0311 4.36364 86.4856 4.36364C85.9174 4.36364 85.4439 4.50758 85.0651 4.79545C84.6901 5.08333 84.408 5.4697 84.2186 5.95455C84.033 6.43939 83.9401 6.97727 83.9401 7.56818C83.9401 8.17424 84.0349 8.71023 84.2242 9.17614C84.4174 9.63826 84.7015 10.0019 85.0765 10.267C85.4553 10.5284 85.925 10.6591 86.4856 10.6591Z" fill="black"/>
<path d="M33.3024 31.2557C32.3251 31.2519 31.4842 31.0114 30.7796 30.5341C30.0789 30.0568 29.5391 29.3655 29.1603 28.4602C28.7853 27.5549 28.5997 26.4659 28.6035 25.1932C28.6035 23.9242 28.791 22.8428 29.166 21.9489C29.5448 21.0549 30.0846 20.375 30.7853 19.9091C31.4899 19.4394 32.3289 19.2045 33.3024 19.2045C34.2759 19.2045 35.113 19.4394 35.8137 19.9091C36.5183 20.3788 37.0599 21.0606 37.4387 21.9545C37.8175 22.8447 38.005 23.9242 38.0012 25.1932C38.0012 26.4697 37.8118 27.5606 37.4331 28.4659C37.0581 29.3712 36.5202 30.0625 35.8194 30.5398C35.1187 31.017 34.2796 31.2557 33.3024 31.2557ZM33.3024 29.2159C33.969 29.2159 34.5012 28.8807 34.899 28.2102C35.2967 27.5398 35.4937 26.5341 35.4899 25.1932C35.4899 24.3106 35.399 23.5758 35.2171 22.9886C35.0391 22.4015 34.7853 21.9602 34.4558 21.6648C34.13 21.3693 33.7456 21.2216 33.3024 21.2216C32.6395 21.2216 32.1092 21.553 31.7115 22.2159C31.3137 22.8788 31.113 23.8712 31.1092 25.1932C31.1092 26.0871 31.1982 26.8333 31.3762 27.4318C31.5581 28.0265 31.8137 28.4735 32.1433 28.7727C32.4728 29.0682 32.8592 29.2159 33.3024 29.2159Z" fill="black"/>
<path d="M40.7242 31.1477C40.3492 31.1477 40.0273 31.0152 39.7583 30.75C39.4932 30.4811 39.3606 30.1591 39.3606 29.7841C39.3606 29.4129 39.4932 29.0947 39.7583 28.8295C40.0273 28.5644 40.3492 28.4318 40.7242 28.4318C41.0879 28.4318 41.4061 28.5644 41.6788 28.8295C41.9515 29.0947 42.0879 29.4129 42.0879 29.7841C42.0879 30.0341 42.0235 30.2633 41.8947 30.4716C41.7697 30.6761 41.6049 30.8409 41.4004 30.9659C41.1958 31.0871 40.9705 31.1477 40.7242 31.1477Z" fill="black"/>
<path d="M48.2086 31.1591C47.4056 31.1591 46.6897 31.0114 46.0609 30.7159C45.4359 30.4205 44.9397 30.0133 44.5723 29.4943C44.2048 28.9754 44.0135 28.3807 43.9984 27.7102H46.3848C46.4113 28.161 46.6007 28.5265 46.9529 28.8068C47.3052 29.0871 47.7238 29.2273 48.2086 29.2273C48.595 29.2273 48.9359 29.142 49.2313 28.9716C49.5306 28.7973 49.7635 28.5568 49.9302 28.25C50.1007 27.9394 50.1859 27.5833 50.1859 27.1818C50.1859 26.7727 50.0988 26.4129 49.9245 26.1023C49.7541 25.7917 49.5173 25.5492 49.2143 25.375C48.9113 25.2008 48.5647 25.1117 48.1745 25.108C47.8336 25.108 47.5022 25.178 47.1802 25.3182C46.862 25.4583 46.6139 25.6496 46.4359 25.892L44.2484 25.5L44.7995 19.3636H51.9132V21.375H46.8279L46.5268 24.2898H46.595C46.7995 24.0019 47.1082 23.7633 47.5211 23.5739C47.934 23.3845 48.3961 23.2898 48.9075 23.2898C49.6082 23.2898 50.2332 23.4545 50.7825 23.7841C51.3317 24.1136 51.7654 24.5663 52.0836 25.142C52.4018 25.714 52.559 26.3731 52.5552 27.1193C52.559 27.9034 52.3772 28.6004 52.0098 29.2102C51.6461 29.8163 51.1367 30.2936 50.4813 30.642C49.8298 30.9867 49.0723 31.1591 48.2086 31.1591Z" fill="black"/>
<path d="M58.1802 32.4545V17.9091H59.112V32.4545H58.1802ZM60.6518 22.7102C60.6063 22.2519 60.4113 21.8958 60.0666 21.642C59.7219 21.3883 59.2541 21.2614 58.6632 21.2614C58.2617 21.2614 57.9226 21.3182 57.6461 21.4318C57.3696 21.5417 57.1575 21.6951 57.0098 21.892C56.8658 22.089 56.7938 22.3125 56.7938 22.5625C56.7863 22.7708 56.8298 22.9527 56.9245 23.108C57.023 23.2633 57.1575 23.3977 57.3279 23.5114C57.4984 23.6212 57.6954 23.7178 57.9188 23.8011C58.1423 23.8807 58.381 23.9489 58.6348 24.0057L59.6802 24.2557C60.1878 24.3693 60.6537 24.5208 61.0779 24.7102C61.5022 24.8996 61.8696 25.1326 62.1802 25.4091C62.4908 25.6856 62.7313 26.0114 62.9018 26.3864C63.076 26.7614 63.1651 27.1913 63.1688 27.6761C63.1651 28.3883 62.9832 29.0057 62.6234 29.5284C62.2673 30.0473 61.7522 30.4508 61.0779 30.7386C60.4075 31.0227 59.5988 31.1648 58.6518 31.1648C57.7124 31.1648 56.8942 31.0208 56.1973 30.733C55.5041 30.4451 54.9624 30.0189 54.5723 29.4545C54.1859 28.8864 53.9832 28.1837 53.9643 27.3466H56.345C56.3715 27.7367 56.4832 28.0625 56.6802 28.3239C56.881 28.5814 57.148 28.7765 57.4813 28.9091C57.8185 29.0379 58.1992 29.1023 58.6234 29.1023C59.0401 29.1023 59.4018 29.0417 59.7086 28.9205C60.0192 28.7992 60.2598 28.6307 60.4302 28.4148C60.6007 28.1989 60.6859 27.9508 60.6859 27.6705C60.6859 27.4091 60.6082 27.1894 60.4529 27.0114C60.3014 26.8333 60.0779 26.6818 59.7825 26.5568C59.4908 26.4318 59.1329 26.3182 58.7086 26.2159L57.4416 25.8977C56.4605 25.6591 55.6859 25.286 55.1177 24.7784C54.5495 24.2708 54.2673 23.5871 54.2711 22.7273C54.2673 22.0227 54.4548 21.4072 54.8336 20.8807C55.2162 20.3542 55.7408 19.9432 56.4075 19.6477C57.0742 19.3523 57.8317 19.2045 58.6802 19.2045C59.5438 19.2045 60.2976 19.3523 60.9416 19.6477C61.5893 19.9432 62.0931 20.3542 62.4529 20.8807C62.8128 21.4072 62.9984 22.017 63.0098 22.7102H60.6518Z" fill="black"/>
</svg>
