<svg width="91" height="33" viewBox="0 0 91 33" fill="none" xmlns="http://www.w3.org/2000/svg">
<path d="M4.65071 12.1818C3.83253 12.1818 3.12799 11.9886 2.53708 11.6023C1.94617 11.2159 1.49162 10.6837 1.17344 10.0057C0.855258 9.32765 0.696167 8.55303 0.696167 7.68182C0.696167 6.79545 0.859046 6.01326 1.1848 5.33523C1.51435 4.65341 1.97268 4.12121 2.5598 3.73864C3.15071 3.35227 3.84011 3.15909 4.62799 3.15909C5.24162 3.15909 5.79465 3.27273 6.28708 3.5C6.7795 3.72727 7.18291 4.04545 7.4973 4.45455C7.8117 4.86364 8.00677 5.34091 8.08253 5.88636H6.74162C6.63935 5.48864 6.41208 5.13636 6.0598 4.82955C5.71132 4.51894 5.24162 4.36364 4.65071 4.36364C4.12799 4.36364 3.66965 4.5 3.27571 4.77273C2.88556 5.04167 2.58064 5.42235 2.36094 5.91477C2.14503 6.40341 2.03708 6.97727 2.03708 7.63636C2.03708 8.31061 2.14314 8.89773 2.35526 9.39773C2.57117 9.89773 2.8742 10.286 3.26435 10.5625C3.65829 10.839 4.12041 10.9773 4.65071 10.9773C4.9992 10.9773 5.31549 10.9167 5.59958 10.7955C5.88367 10.6742 6.1242 10.5 6.32117 10.2727C6.51814 10.0455 6.65829 9.77273 6.74162 9.45455H8.08253C8.00677 9.9697 7.81927 10.4337 7.52003 10.8466C7.22458 11.2557 6.83253 11.5814 6.34389 11.8239C5.85905 12.0625 5.29465 12.1818 4.65071 12.1818Z" fill="black"/>
<path d="M11.3837 6.75V12H10.0428V0.363636H11.3837V4.63636H11.4973C11.7018 4.18561 12.0087 3.82765 12.4178 3.5625C12.8306 3.29356 13.3799 3.15909 14.0655 3.15909C14.6602 3.15909 15.181 3.27841 15.628 3.51705C16.075 3.75189 16.4215 4.11364 16.6678 4.60227C16.9178 5.08712 17.0428 5.70455 17.0428 6.45455V12H15.7018V6.54545C15.7018 5.85227 15.5219 5.31629 15.1621 4.9375C14.806 4.55492 14.3117 4.36364 13.6791 4.36364C13.2397 4.36364 12.8458 4.45644 12.4973 4.64205C12.1526 4.82765 11.8799 5.09848 11.6791 5.45455C11.4822 5.81061 11.3837 6.24242 11.3837 6.75Z" fill="black"/>
<path d="M19.4959 12V3.27273H20.8368V12H19.4959ZM20.1777 1.81818C19.9163 1.81818 19.691 1.72917 19.5016 1.55114C19.316 1.37311 19.2232 1.15909 19.2232 0.909091C19.2232 0.659091 19.316 0.445076 19.5016 0.267045C19.691 0.089015 19.9163 0 20.1777 0C20.4391 0 20.6625 0.089015 20.8482 0.267045C21.0375 0.445076 21.1322 0.659091 21.1322 0.909091C21.1322 1.15909 21.0375 1.37311 20.8482 1.55114C20.6625 1.72917 20.4391 1.81818 20.1777 1.81818Z" fill="black"/>
<path d="M26.8382 12.1818C26.02 12.1818 25.3155 11.9886 24.7246 11.6023C24.1337 11.2159 23.6791 10.6837 23.3609 10.0057C23.0428 9.32765 22.8837 8.55303 22.8837 7.68182C22.8837 6.79545 23.0465 6.01326 23.3723 5.33523C23.7018 4.65341 24.1602 4.12121 24.7473 3.73864C25.3382 3.35227 26.0276 3.15909 26.8155 3.15909C27.4291 3.15909 27.9822 3.27273 28.4746 3.5C28.967 3.72727 29.3704 4.04545 29.6848 4.45455C29.9992 4.86364 30.1943 5.34091 30.27 5.88636H28.9291C28.8268 5.48864 28.5996 5.13636 28.2473 4.82955C27.8988 4.51894 27.4291 4.36364 26.8382 4.36364C26.3155 4.36364 25.8572 4.5 25.4632 4.77273C25.0731 5.04167 24.7681 5.42235 24.5484 5.91477C24.3325 6.40341 24.2246 6.97727 24.2246 7.63636C24.2246 8.31061 24.3306 8.89773 24.5428 9.39773C24.7587 9.89773 25.0617 10.286 25.4518 10.5625C25.8458 10.839 26.3079 10.9773 26.8382 10.9773C27.1867 10.9773 27.503 10.9167 27.7871 10.7955C28.0712 10.6742 28.3117 10.5 28.5087 10.2727C28.7056 10.0455 28.8458 9.77273 28.9291 9.45455H30.27C30.1943 9.9697 30.0068 10.4337 29.7075 10.8466C29.4121 11.2557 29.02 11.5814 28.5314 11.8239C28.0465 12.0625 27.4822 12.1818 26.8382 12.1818Z" fill="black"/>
<path d="M33.4803 8.81818L33.4575 7.15909H33.7303L37.5484 3.27273H39.2075L35.1394 7.38636H35.0257L33.4803 8.81818ZM32.2303 12V0.363636H33.5712V12H32.2303ZM37.7757 12L34.3666 7.68182L35.3212 6.75L39.4803 12H37.7757Z" fill="black"/>
<path d="M44.2331 12.1818C43.3922 12.1818 42.6668 11.9962 42.057 11.625C41.4509 11.25 40.9831 10.7273 40.6536 10.0568C40.3278 9.38258 40.1649 8.59848 40.1649 7.70455C40.1649 6.81061 40.3278 6.02273 40.6536 5.34091C40.9831 4.6553 41.4414 4.12121 42.0286 3.73864C42.6195 3.35227 43.3089 3.15909 44.0967 3.15909C44.5513 3.15909 45.0001 3.23485 45.4433 3.38636C45.8865 3.53788 46.2899 3.78409 46.6536 4.125C47.0172 4.46212 47.307 4.90909 47.5229 5.46591C47.7388 6.02273 47.8467 6.70833 47.8467 7.52273V8.09091H41.1195V6.93182H46.4831C46.4831 6.43939 46.3846 6 46.1876 5.61364C45.9945 5.22727 45.7179 4.92235 45.3581 4.69886C45.002 4.47538 44.5816 4.36364 44.0967 4.36364C43.5626 4.36364 43.1005 4.49621 42.7104 4.76136C42.324 5.02273 42.0267 5.36364 41.8183 5.78409C41.61 6.20454 41.5058 6.6553 41.5058 7.13636V7.90909C41.5058 8.56818 41.6195 9.12689 41.8467 9.58523C42.0778 10.0398 42.3979 10.3864 42.807 10.625C43.2161 10.8598 43.6914 10.9773 44.2331 10.9773C44.5854 10.9773 44.9036 10.928 45.1876 10.8295C45.4755 10.7273 45.7236 10.5758 45.932 10.375C46.1403 10.1705 46.3013 9.91667 46.4149 9.61364L47.7104 9.97727C47.574 10.4167 47.3448 10.803 47.0229 11.1364C46.7009 11.4659 46.3032 11.7235 45.8297 11.9091C45.3562 12.0909 44.824 12.1818 44.2331 12.1818Z" fill="black"/>
<path d="M51.2274 6.75V12H49.8865V3.27273H51.182V4.63636H51.2956C51.5001 4.19318 51.8108 3.83712 52.2274 3.56818C52.6441 3.29545 53.182 3.15909 53.8411 3.15909C54.432 3.15909 54.949 3.2803 55.3922 3.52273C55.8354 3.76136 56.1801 4.125 56.4263 4.61364C56.6725 5.09848 56.7956 5.71212 56.7956 6.45455V12H55.4547V6.54545C55.4547 5.85985 55.2767 5.32576 54.9206 4.94318C54.5645 4.55682 54.0759 4.36364 53.4547 4.36364C53.0267 4.36364 52.6441 4.45644 52.307 4.64205C51.9736 4.82765 51.7104 5.09848 51.5172 5.45455C51.324 5.81061 51.2274 6.24242 51.2274 6.75Z" fill="black"/>
<path d="M67.405 12.1818C66.5641 12.1818 65.8387 11.9962 65.2288 11.625C64.6228 11.25 64.155 10.7273 63.8254 10.0568C63.4997 9.38258 63.3368 8.59848 63.3368 7.70455C63.3368 6.81061 63.4997 6.02273 63.8254 5.34091C64.155 4.6553 64.6133 4.12121 65.2004 3.73864C65.7913 3.35227 66.4807 3.15909 67.2686 3.15909C67.7232 3.15909 68.172 3.23485 68.6152 3.38636C69.0584 3.53788 69.4618 3.78409 69.8254 4.125C70.1891 4.46212 70.4788 4.90909 70.6947 5.46591C70.9107 6.02273 71.0186 6.70833 71.0186 7.52273V8.09091H64.2913V6.93182H69.655C69.655 6.43939 69.5565 6 69.3595 5.61364C69.1663 5.22727 68.8898 4.92235 68.53 4.69886C68.1739 4.47538 67.7535 4.36364 67.2686 4.36364C66.7345 4.36364 66.2724 4.49621 65.8822 4.76136C65.4959 5.02273 65.1985 5.36364 64.9902 5.78409C64.7819 6.20454 64.6777 6.6553 64.6777 7.13636V7.90909C64.6777 8.56818 64.7913 9.12689 65.0186 9.58523C65.2497 10.0398 65.5697 10.3864 65.9788 10.625C66.3879 10.8598 66.8633 10.9773 67.405 10.9773C67.7572 10.9773 68.0754 10.928 68.3595 10.8295C68.6474 10.7273 68.8955 10.5758 69.1038 10.375C69.3122 10.1705 69.4732 9.91667 69.5868 9.61364L70.8822 9.97727C70.7459 10.4167 70.5167 10.803 70.1947 11.1364C69.8728 11.4659 69.4751 11.7235 69.0016 11.9091C68.5281 12.0909 67.9959 12.1818 67.405 12.1818Z" fill="black"/>
<path d="M76.5811 15.4545C75.9334 15.4545 75.3766 15.3712 74.9107 15.2045C74.4447 15.0417 74.0565 14.8258 73.7459 14.5568C73.4391 14.2917 73.1947 14.0076 73.0129 13.7045L74.0811 12.9545C74.2023 13.1136 74.3557 13.2955 74.5413 13.5C74.7269 13.7083 74.9807 13.8883 75.3027 14.0398C75.6285 14.1951 76.0546 14.2727 76.5811 14.2727C77.2857 14.2727 77.8671 14.1023 78.3254 13.7614C78.7838 13.4205 79.0129 12.8864 79.0129 12.1591V10.3864H78.8993C78.8008 10.5455 78.6607 10.7424 78.4788 10.9773C78.3008 11.2083 78.0432 11.4148 77.7061 11.5966C77.3728 11.7746 76.922 11.8636 76.3538 11.8636C75.6493 11.8636 75.0167 11.697 74.4561 11.3636C73.8993 11.0303 73.458 10.5455 73.1322 9.90909C72.8103 9.27273 72.6493 8.5 72.6493 7.59091C72.6493 6.69697 72.8065 5.91856 73.1209 5.25568C73.4353 4.58902 73.8728 4.07386 74.4334 3.71023C74.994 3.3428 75.6417 3.15909 76.3766 3.15909C76.9447 3.15909 77.3955 3.25379 77.7288 3.44318C78.066 3.62879 78.3235 3.84091 78.5016 4.07955C78.6834 4.31439 78.8235 4.50758 78.922 4.65909H79.0584V3.27273H80.3538V12.25C80.3538 13 80.1834 13.6098 79.8425 14.0795C79.5054 14.553 79.0508 14.8996 78.4788 15.1193C77.9107 15.3428 77.2781 15.4545 76.5811 15.4545ZM76.5357 10.6591C77.0735 10.6591 77.5281 10.536 77.8993 10.2898C78.2705 10.0436 78.5527 9.68939 78.7459 9.22727C78.9391 8.76515 79.0357 8.21212 79.0357 7.56818C79.0357 6.93939 78.941 6.38447 78.7516 5.90341C78.5622 5.42235 78.2819 5.04545 77.9107 4.77273C77.5394 4.5 77.0811 4.36364 76.5357 4.36364C75.9675 4.36364 75.494 4.50758 75.1152 4.79545C74.7402 5.08333 74.458 5.4697 74.2686 5.95455C74.083 6.43939 73.9902 6.97727 73.9902 7.56818C73.9902 8.17424 74.0849 8.71023 74.2743 9.17614C74.4675 9.63826 74.7516 10.0019 75.1266 10.267C75.5053 10.5284 75.975 10.6591 76.5357 10.6591Z" fill="black"/>
<path d="M86.3311 15.4545C85.6834 15.4545 85.1266 15.3712 84.6607 15.2045C84.1947 15.0417 83.8065 14.8258 83.4959 14.5568C83.1891 14.2917 82.9447 14.0076 82.7629 13.7045L83.8311 12.9545C83.9523 13.1136 84.1057 13.2955 84.2913 13.5C84.4769 13.7083 84.7307 13.8883 85.0527 14.0398C85.3785 14.1951 85.8046 14.2727 86.3311 14.2727C87.0357 14.2727 87.6171 14.1023 88.0754 13.7614C88.5338 13.4205 88.7629 12.8864 88.7629 12.1591V10.3864H88.6493C88.5508 10.5455 88.4107 10.7424 88.2288 10.9773C88.0508 11.2083 87.7932 11.4148 87.4561 11.5966C87.1228 11.7746 86.672 11.8636 86.1038 11.8636C85.3993 11.8636 84.7667 11.697 84.2061 11.3636C83.6493 11.0303 83.208 10.5455 82.8822 9.90909C82.5603 9.27273 82.3993 8.5 82.3993 7.59091C82.3993 6.69697 82.5565 5.91856 82.8709 5.25568C83.1853 4.58902 83.6228 4.07386 84.1834 3.71023C84.744 3.3428 85.3917 3.15909 86.1266 3.15909C86.6947 3.15909 87.1455 3.25379 87.4788 3.44318C87.816 3.62879 88.0735 3.84091 88.2516 4.07955C88.4334 4.31439 88.5735 4.50758 88.672 4.65909H88.8084V3.27273H90.1038V12.25C90.1038 13 89.9334 13.6098 89.5925 14.0795C89.2554 14.553 88.8008 14.8996 88.2288 15.1193C87.6607 15.3428 87.0281 15.4545 86.3311 15.4545ZM86.2857 10.6591C86.8235 10.6591 87.2781 10.536 87.6493 10.2898C88.0205 10.0436 88.3027 9.68939 88.4959 9.22727C88.6891 8.76515 88.7857 8.21212 88.7857 7.56818C88.7857 6.93939 88.691 6.38447 88.5016 5.90341C88.3122 5.42235 88.0319 5.04545 87.6607 4.77273C87.2894 4.5 86.8311 4.36364 86.2857 4.36364C85.7175 4.36364 85.244 4.50758 84.8652 4.79545C84.4902 5.08333 84.208 5.4697 84.0186 5.95455C83.833 6.43939 83.7402 6.97727 83.7402 7.56818C83.7402 8.17424 83.8349 8.71023 84.0243 9.17614C84.2175 9.63826 84.5016 10.0019 84.8766 10.267C85.2553 10.5284 85.725 10.6591 86.2857 10.6591Z" fill="black"/>
<path d="M33.1024 31.2557C32.1251 31.2519 31.2842 31.0114 30.5797 30.5341C29.8789 30.0568 29.3392 29.3655 28.9604 28.4602C28.5854 27.5549 28.3998 26.4659 28.4036 25.1932C28.4036 23.9242 28.5911 22.8428 28.9661 21.9489C29.3448 21.0549 29.8846 20.375 30.5854 19.9091C31.2899 19.4394 32.1289 19.2045 33.1024 19.2045C34.0759 19.2045 34.913 19.4394 35.6138 19.9091C36.3183 20.3788 36.86 21.0606 37.2388 21.9545C37.6176 22.8447 37.8051 23.9242 37.8013 25.1932C37.8013 26.4697 37.6119 27.5606 37.2331 28.4659C36.8581 29.3712 36.3202 30.0625 35.6195 30.5398C34.9187 31.017 34.0797 31.2557 33.1024 31.2557ZM33.1024 29.2159C33.7691 29.2159 34.3013 28.8807 34.699 28.2102C35.0967 27.5398 35.2937 26.5341 35.2899 25.1932C35.2899 24.3106 35.199 23.5758 35.0172 22.9886C34.8392 22.4015 34.5854 21.9602 34.2558 21.6648C33.9301 21.3693 33.5456 21.2216 33.1024 21.2216C32.4395 21.2216 31.9092 21.553 31.5115 22.2159C31.1138 22.8788 30.913 23.8712 30.9092 25.1932C30.9092 26.0871 30.9983 26.8333 31.1763 27.4318C31.3581 28.0265 31.6138 28.4735 31.9433 28.7727C32.2729 29.0682 32.6592 29.2159 33.1024 29.2159Z" fill="black"/>
<path d="M40.5243 31.1477C40.1493 31.1477 39.8273 31.0152 39.5584 30.75C39.2932 30.4811 39.1607 30.1591 39.1607 29.7841C39.1607 29.4129 39.2932 29.0947 39.5584 28.8295C39.8273 28.5644 40.1493 28.4318 40.5243 28.4318C40.8879 28.4318 41.2061 28.5644 41.4788 28.8295C41.7516 29.0947 41.8879 29.4129 41.8879 29.7841C41.8879 30.0341 41.8235 30.2633 41.6947 30.4716C41.5697 30.6761 41.405 30.8409 41.2004 30.9659C40.9959 31.0871 40.7705 31.1477 40.5243 31.1477Z" fill="black"/>
<path d="M48.0087 31.1591C47.2056 31.1591 46.4897 31.0114 45.8609 30.7159C45.2359 30.4205 44.7397 30.0133 44.3723 29.4943C44.0049 28.9754 43.8136 28.3807 43.7984 27.7102H46.1848C46.2113 28.161 46.4007 28.5265 46.753 28.8068C47.1053 29.0871 47.5238 29.2273 48.0087 29.2273C48.395 29.2273 48.7359 29.142 49.0314 28.9716C49.3306 28.7973 49.5636 28.5568 49.7303 28.25C49.9007 27.9394 49.9859 27.5833 49.9859 27.1818C49.9859 26.7727 49.8988 26.4129 49.7246 26.1023C49.5541 25.7917 49.3174 25.5492 49.0144 25.375C48.7113 25.2008 48.3647 25.1117 47.9746 25.108C47.6337 25.108 47.3022 25.178 46.9803 25.3182C46.6621 25.4583 46.414 25.6496 46.2359 25.892L44.0484 25.5L44.5996 19.3636H51.7132V21.375H46.628L46.3269 24.2898H46.395C46.5996 24.0019 46.9083 23.7633 47.3212 23.5739C47.7341 23.3845 48.1962 23.2898 48.7075 23.2898C49.4083 23.2898 50.0333 23.4545 50.5825 23.7841C51.1318 24.1136 51.5655 24.5663 51.8837 25.142C52.2019 25.714 52.359 26.3731 52.3553 27.1193C52.359 27.9034 52.1772 28.6004 51.8098 29.2102C51.4462 29.8163 50.9367 30.2936 50.2814 30.642C49.6299 30.9867 48.8723 31.1591 48.0087 31.1591Z" fill="black"/>
<path d="M57.9803 32.4545V17.9091H58.9121V32.4545H57.9803ZM60.4519 22.7102C60.4064 22.2519 60.2113 21.8958 59.8666 21.642C59.5219 21.3883 59.0541 21.2614 58.4632 21.2614C58.0617 21.2614 57.7227 21.3182 57.4462 21.4318C57.1697 21.5417 56.9575 21.6951 56.8098 21.892C56.6659 22.089 56.5939 22.3125 56.5939 22.5625C56.5863 22.7708 56.6299 22.9527 56.7246 23.108C56.8231 23.2633 56.9575 23.3977 57.128 23.5114C57.2984 23.6212 57.4954 23.7178 57.7189 23.8011C57.9424 23.8807 58.181 23.9489 58.4348 24.0057L59.4803 24.2557C59.9878 24.3693 60.4537 24.5208 60.878 24.7102C61.3022 24.8996 61.6697 25.1326 61.9803 25.4091C62.2909 25.6856 62.5314 26.0114 62.7019 26.3864C62.8761 26.7614 62.9651 27.1913 62.9689 27.6761C62.9651 28.3883 62.7833 29.0057 62.4234 29.5284C62.0674 30.0473 61.5522 30.4508 60.878 30.7386C60.2075 31.0227 59.3988 31.1648 58.4519 31.1648C57.5125 31.1648 56.6943 31.0208 55.9973 30.733C55.3041 30.4451 54.7625 30.0189 54.3723 29.4545C53.9859 28.8864 53.7833 28.1837 53.7644 27.3466H56.145C56.1715 27.7367 56.2833 28.0625 56.4803 28.3239C56.681 28.5814 56.9481 28.7765 57.2814 28.9091C57.6185 29.0379 57.9992 29.1023 58.4234 29.1023C58.8401 29.1023 59.2019 29.0417 59.5087 28.9205C59.8193 28.7992 60.0598 28.6307 60.2303 28.4148C60.4007 28.1989 60.4859 27.9508 60.4859 27.6705C60.4859 27.4091 60.4083 27.1894 60.253 27.0114C60.1015 26.8333 59.878 26.6818 59.5825 26.5568C59.2909 26.4318 58.9329 26.3182 58.5087 26.2159L57.2416 25.8977C56.2606 25.6591 55.4859 25.286 54.9178 24.7784C54.3496 24.2708 54.0674 23.5871 54.0712 22.7273C54.0674 22.0227 54.2549 21.4072 54.6337 20.8807C55.0162 20.3542 55.5409 19.9432 56.2075 19.6477C56.8742 19.3523 57.6318 19.2045 58.4803 19.2045C59.3439 19.2045 60.0977 19.3523 60.7416 19.6477C61.3894 19.9432 61.8931 20.3542 62.253 20.8807C62.6128 21.4072 62.7984 22.017 62.8098 22.7102H60.4519Z" fill="black"/>
</svg>
