<svg width="90" height="33" viewBox="0 0 90 33" fill="none" xmlns="http://www.w3.org/2000/svg">
<path d="M4.4507 12.1818C3.63252 12.1818 2.92797 11.9886 2.33706 11.6023C1.74615 11.2159 1.29161 10.6837 0.973428 10.0057C0.655246 9.32765 0.496155 8.55303 0.496155 7.68182C0.496155 6.79545 0.659034 6.01326 0.984791 5.33523C1.31434 4.65341 1.77267 4.12121 2.35979 3.73864C2.9507 3.35227 3.64009 3.15909 4.42797 3.15909C5.04161 3.15909 5.59464 3.27273 6.08706 3.5C6.57949 3.72727 6.9829 4.04545 7.29729 4.45455C7.61168 4.86364 7.80676 5.34091 7.88252 5.88636H6.54161C6.43934 5.48864 6.21206 5.13636 5.85979 4.82955C5.51131 4.51894 5.04161 4.36364 4.4507 4.36364C3.92797 4.36364 3.46964 4.5 3.0757 4.77273C2.68555 5.04167 2.38062 5.42235 2.16093 5.91477C1.94502 6.40341 1.83706 6.97727 1.83706 7.63636C1.83706 8.31061 1.94312 8.89773 2.15525 9.39773C2.37115 9.89773 2.67419 10.286 3.06434 10.5625C3.45828 10.839 3.9204 10.9773 4.4507 10.9773C4.79918 10.9773 5.11547 10.9167 5.39956 10.7955C5.68365 10.6742 5.92419 10.5 6.12115 10.2727C6.31812 10.0455 6.45828 9.77273 6.54161 9.45455H7.88252C7.80676 9.9697 7.61926 10.4337 7.32002 10.8466C7.02456 11.2557 6.63252 11.5814 6.14388 11.8239C5.65903 12.0625 5.09464 12.1818 4.4507 12.1818Z" fill="black"/>
<path d="M11.1837 6.75V12H9.84275V0.363636H11.1837V4.63636H11.2973C11.5018 4.18561 11.8087 3.82765 12.2177 3.5625C12.6306 3.29356 13.1799 3.15909 13.8655 3.15909C14.4602 3.15909 14.981 3.27841 15.428 3.51705C15.8749 3.75189 16.2215 4.11364 16.4677 4.60227C16.7177 5.08712 16.8427 5.70455 16.8427 6.45455V12H15.5018V6.54545C15.5018 5.85227 15.3219 5.31629 14.9621 4.9375C14.606 4.55492 14.1117 4.36364 13.4791 4.36364C13.0397 4.36364 12.6458 4.45644 12.2973 4.64205C11.9526 4.82765 11.6799 5.09848 11.4791 5.45455C11.2821 5.81061 11.1837 6.24242 11.1837 6.75Z" fill="black"/>
<path d="M19.2959 12V3.27273H20.6368V12H19.2959ZM19.9777 1.81818C19.7163 1.81818 19.4909 1.72917 19.3016 1.55114C19.1159 1.37311 19.0231 1.15909 19.0231 0.909091C19.0231 0.659091 19.1159 0.445076 19.3016 0.267045C19.4909 0.089015 19.7163 0 19.9777 0C20.2391 0 20.4625 0.089015 20.6481 0.267045C20.8375 0.445076 20.9322 0.659091 20.9322 0.909091C20.9322 1.15909 20.8375 1.37311 20.6481 1.55114C20.4625 1.72917 20.2391 1.81818 19.9777 1.81818Z" fill="black"/>
<path d="M26.6382 12.1818C25.82 12.1818 25.1155 11.9886 24.5246 11.6023C23.9337 11.2159 23.4791 10.6837 23.1609 10.0057C22.8427 9.32765 22.6837 8.55303 22.6837 7.68182C22.6837 6.79545 22.8465 6.01326 23.1723 5.33523C23.5018 4.65341 23.9602 4.12121 24.5473 3.73864C25.1382 3.35227 25.8276 3.15909 26.6155 3.15909C27.2291 3.15909 27.7821 3.27273 28.2746 3.5C28.767 3.72727 29.1704 4.04545 29.4848 4.45455C29.7992 4.86364 29.9943 5.34091 30.07 5.88636H28.7291C28.6268 5.48864 28.3996 5.13636 28.0473 4.82955C27.6988 4.51894 27.2291 4.36364 26.6382 4.36364C26.1155 4.36364 25.6571 4.5 25.2632 4.77273C24.873 5.04167 24.5681 5.42235 24.3484 5.91477C24.1325 6.40341 24.0246 6.97727 24.0246 7.63636C24.0246 8.31061 24.1306 8.89773 24.3427 9.39773C24.5587 9.89773 24.8617 10.286 25.2518 10.5625C25.6458 10.839 26.1079 10.9773 26.6382 10.9773C26.9867 10.9773 27.303 10.9167 27.5871 10.7955C27.8712 10.6742 28.1117 10.5 28.3087 10.2727C28.5056 10.0455 28.6458 9.77273 28.7291 9.45455H30.07C29.9943 9.9697 29.8068 10.4337 29.5075 10.8466C29.2121 11.2557 28.82 11.5814 28.3314 11.8239C27.8465 12.0625 27.2821 12.1818 26.6382 12.1818Z" fill="black"/>
<path d="M33.2802 8.81818L33.2575 7.15909H33.5302L37.3484 3.27273H39.0075L34.9393 7.38636H34.8257L33.2802 8.81818ZM32.0302 12V0.363636H33.3712V12H32.0302ZM37.5757 12L34.1666 7.68182L35.1212 6.75L39.2802 12H37.5757Z" fill="black"/>
<path d="M44.0331 12.1818C43.1922 12.1818 42.4668 11.9962 41.857 11.625C41.2509 11.25 40.7831 10.7273 40.4535 10.0568C40.1278 9.38258 39.9649 8.59848 39.9649 7.70455C39.9649 6.81061 40.1278 6.02273 40.4535 5.34091C40.7831 4.6553 41.2414 4.12121 41.8285 3.73864C42.4195 3.35227 43.1088 3.15909 43.8967 3.15909C44.3513 3.15909 44.8001 3.23485 45.2433 3.38636C45.6865 3.53788 46.0899 3.78409 46.4535 4.125C46.8172 4.46212 47.107 4.90909 47.3229 5.46591C47.5388 6.02273 47.6467 6.70833 47.6467 7.52273V8.09091H40.9195V6.93182H46.2831C46.2831 6.43939 46.1846 6 45.9876 5.61364C45.7944 5.22727 45.5179 4.92235 45.1581 4.69886C44.802 4.47538 44.3816 4.36364 43.8967 4.36364C43.3626 4.36364 42.9005 4.49621 42.5104 4.76136C42.124 5.02273 41.8266 5.36364 41.6183 5.78409C41.41 6.20454 41.3058 6.6553 41.3058 7.13636V7.90909C41.3058 8.56818 41.4195 9.12689 41.6467 9.58523C41.8778 10.0398 42.1979 10.3864 42.607 10.625C43.016 10.8598 43.4914 10.9773 44.0331 10.9773C44.3854 10.9773 44.7035 10.928 44.9876 10.8295C45.2755 10.7273 45.5236 10.5758 45.732 10.375C45.9403 10.1705 46.1013 9.91667 46.2149 9.61364L47.5104 9.97727C47.374 10.4167 47.1448 10.803 46.8229 11.1364C46.5009 11.4659 46.1032 11.7235 45.6297 11.9091C45.1562 12.0909 44.624 12.1818 44.0331 12.1818Z" fill="black"/>
<path d="M51.0274 6.75V12H49.6865V3.27273H50.982V4.63636H51.0956C51.3001 4.19318 51.6107 3.83712 52.0274 3.56818C52.4441 3.29545 52.982 3.15909 53.641 3.15909C54.232 3.15909 54.749 3.2803 55.1922 3.52273C55.6354 3.76136 55.9801 4.125 56.2263 4.61364C56.4725 5.09848 56.5956 5.71212 56.5956 6.45455V12H55.2547V6.54545C55.2547 5.85985 55.0766 5.32576 54.7206 4.94318C54.3645 4.55682 53.8759 4.36364 53.2547 4.36364C52.8266 4.36364 52.4441 4.45644 52.107 4.64205C51.7736 4.82765 51.5104 5.09848 51.3172 5.45455C51.124 5.81061 51.0274 6.24242 51.0274 6.75Z" fill="black"/>
<path d="M67.205 12.1818C66.3641 12.1818 65.6387 11.9962 65.0288 11.625C64.4228 11.25 63.955 10.7273 63.6254 10.0568C63.2997 9.38258 63.1368 8.59848 63.1368 7.70455C63.1368 6.81061 63.2997 6.02273 63.6254 5.34091C63.955 4.6553 64.4133 4.12121 65.0004 3.73864C65.5913 3.35227 66.2807 3.15909 67.0686 3.15909C67.5231 3.15909 67.972 3.23485 68.4152 3.38636C68.8584 3.53788 69.2618 3.78409 69.6254 4.125C69.9891 4.46212 70.2788 4.90909 70.4947 5.46591C70.7106 6.02273 70.8186 6.70833 70.8186 7.52273V8.09091H64.0913V6.93182H69.455C69.455 6.43939 69.3565 6 69.1595 5.61364C68.9663 5.22727 68.6898 4.92235 68.33 4.69886C67.9739 4.47538 67.5534 4.36364 67.0686 4.36364C66.5345 4.36364 66.0724 4.49621 65.6822 4.76136C65.2959 5.02273 64.9985 5.36364 64.7902 5.78409C64.5818 6.20454 64.4777 6.6553 64.4777 7.13636V7.90909C64.4777 8.56818 64.5913 9.12689 64.8186 9.58523C65.0497 10.0398 65.3697 10.3864 65.7788 10.625C66.1879 10.8598 66.6633 10.9773 67.205 10.9773C67.5572 10.9773 67.8754 10.928 68.1595 10.8295C68.4474 10.7273 68.6955 10.5758 68.9038 10.375C69.1122 10.1705 69.2731 9.91667 69.3868 9.61364L70.6822 9.97727C70.5459 10.4167 70.3167 10.803 69.9947 11.1364C69.6728 11.4659 69.275 11.7235 68.8016 11.9091C68.3281 12.0909 67.7959 12.1818 67.205 12.1818Z" fill="black"/>
<path d="M76.3811 15.4545C75.7334 15.4545 75.1766 15.3712 74.7106 15.2045C74.2447 15.0417 73.8565 14.8258 73.5459 14.5568C73.2391 14.2917 72.9947 14.0076 72.8129 13.7045L73.8811 12.9545C74.0023 13.1136 74.1557 13.2955 74.3413 13.5C74.5269 13.7083 74.7807 13.8883 75.1027 14.0398C75.4284 14.1951 75.8546 14.2727 76.3811 14.2727C77.0856 14.2727 77.6671 14.1023 78.1254 13.7614C78.5837 13.4205 78.8129 12.8864 78.8129 12.1591V10.3864H78.6993C78.6008 10.5455 78.4606 10.7424 78.2788 10.9773C78.1008 11.2083 77.8432 11.4148 77.5061 11.5966C77.1728 11.7746 76.722 11.8636 76.1538 11.8636C75.4493 11.8636 74.8167 11.697 74.2561 11.3636C73.6993 11.0303 73.258 10.5455 72.9322 9.90909C72.6103 9.27273 72.4493 8.5 72.4493 7.59091C72.4493 6.69697 72.6065 5.91856 72.9209 5.25568C73.2353 4.58902 73.6728 4.07386 74.2334 3.71023C74.794 3.3428 75.4417 3.15909 76.1766 3.15909C76.7447 3.15909 77.1955 3.25379 77.5288 3.44318C77.8659 3.62879 78.1235 3.84091 78.3016 4.07955C78.4834 4.31439 78.6235 4.50758 78.722 4.65909H78.8584V3.27273H80.1538V12.25C80.1538 13 79.9834 13.6098 79.6425 14.0795C79.3053 14.553 78.8508 14.8996 78.2788 15.1193C77.7106 15.3428 77.0781 15.4545 76.3811 15.4545ZM76.3356 10.6591C76.8735 10.6591 77.3281 10.536 77.6993 10.2898C78.0705 10.0436 78.3527 9.68939 78.5459 9.22727C78.7391 8.76515 78.8356 8.21212 78.8356 7.56818C78.8356 6.93939 78.7409 6.38447 78.5516 5.90341C78.3622 5.42235 78.0819 5.04545 77.7106 4.77273C77.3394 4.5 76.8811 4.36364 76.3356 4.36364C75.7675 4.36364 75.294 4.50758 74.9152 4.79545C74.5402 5.08333 74.258 5.4697 74.0686 5.95455C73.883 6.43939 73.7902 6.97727 73.7902 7.56818C73.7902 8.17424 73.8849 8.71023 74.0743 9.17614C74.2675 9.63826 74.5516 10.0019 74.9266 10.267C75.3053 10.5284 75.775 10.6591 76.3356 10.6591Z" fill="black"/>
<path d="M86.1311 15.4545C85.4834 15.4545 84.9266 15.3712 84.4606 15.2045C83.9947 15.0417 83.6065 14.8258 83.2959 14.5568C82.9891 14.2917 82.7447 14.0076 82.5629 13.7045L83.6311 12.9545C83.7523 13.1136 83.9057 13.2955 84.0913 13.5C84.2769 13.7083 84.5307 13.8883 84.8527 14.0398C85.1784 14.1951 85.6046 14.2727 86.1311 14.2727C86.8356 14.2727 87.4171 14.1023 87.8754 13.7614C88.3337 13.4205 88.5629 12.8864 88.5629 12.1591V10.3864H88.4493C88.3508 10.5455 88.2106 10.7424 88.0288 10.9773C87.8508 11.2083 87.5932 11.4148 87.2561 11.5966C86.9228 11.7746 86.472 11.8636 85.9038 11.8636C85.1993 11.8636 84.5667 11.697 84.0061 11.3636C83.4493 11.0303 83.008 10.5455 82.6822 9.90909C82.3603 9.27273 82.1993 8.5 82.1993 7.59091C82.1993 6.69697 82.3565 5.91856 82.6709 5.25568C82.9853 4.58902 83.4228 4.07386 83.9834 3.71023C84.544 3.3428 85.1917 3.15909 85.9266 3.15909C86.4947 3.15909 86.9455 3.25379 87.2788 3.44318C87.6159 3.62879 87.8735 3.84091 88.0516 4.07955C88.2334 4.31439 88.3735 4.50758 88.472 4.65909H88.6084V3.27273H89.9038V12.25C89.9038 13 89.7334 13.6098 89.3925 14.0795C89.0553 14.553 88.6008 14.8996 88.0288 15.1193C87.4606 15.3428 86.8281 15.4545 86.1311 15.4545ZM86.0856 10.6591C86.6235 10.6591 87.0781 10.536 87.4493 10.2898C87.8205 10.0436 88.1027 9.68939 88.2959 9.22727C88.4891 8.76515 88.5856 8.21212 88.5856 7.56818C88.5856 6.93939 88.4909 6.38447 88.3016 5.90341C88.1122 5.42235 87.8319 5.04545 87.4606 4.77273C87.0894 4.5 86.6311 4.36364 86.0856 4.36364C85.5175 4.36364 85.044 4.50758 84.6652 4.79545C84.2902 5.08333 84.008 5.4697 83.8186 5.95455C83.633 6.43939 83.5402 6.97727 83.5402 7.56818C83.5402 8.17424 83.6349 8.71023 83.8243 9.17614C84.0175 9.63826 84.3016 10.0019 84.6766 10.267C85.0553 10.5284 85.525 10.6591 86.0856 10.6591Z" fill="black"/>
<path d="M32.9024 31.2557C31.9251 31.2519 31.0842 31.0114 30.3797 30.5341C29.6789 30.0568 29.1391 29.3655 28.7604 28.4602C28.3854 27.5549 28.1998 26.4659 28.2035 25.1932C28.2035 23.9242 28.391 22.8428 28.766 21.9489C29.1448 21.0549 29.6846 20.375 30.3854 19.9091C31.0899 19.4394 31.9289 19.2045 32.9024 19.2045C33.8759 19.2045 34.713 19.4394 35.4138 19.9091C36.1183 20.3788 36.66 21.0606 37.0388 21.9545C37.4176 22.8447 37.6051 23.9242 37.6013 25.1932C37.6013 26.4697 37.4119 27.5606 37.0331 28.4659C36.6581 29.3712 36.1202 30.0625 35.4195 30.5398C34.7187 31.017 33.8797 31.2557 32.9024 31.2557ZM32.9024 29.2159C33.5691 29.2159 34.1013 28.8807 34.499 28.2102C34.8967 27.5398 35.0937 26.5341 35.0899 25.1932C35.0899 24.3106 34.999 23.5758 34.8172 22.9886C34.6391 22.4015 34.3854 21.9602 34.0558 21.6648C33.7301 21.3693 33.3456 21.2216 32.9024 21.2216C32.2395 21.2216 31.7092 21.553 31.3115 22.2159C30.9138 22.8788 30.713 23.8712 30.7092 25.1932C30.7092 26.0871 30.7982 26.8333 30.9763 27.4318C31.1581 28.0265 31.4138 28.4735 31.7433 28.7727C32.0729 29.0682 32.4592 29.2159 32.9024 29.2159Z" fill="black"/>
<path d="M40.3243 31.1477C39.9493 31.1477 39.6273 31.0152 39.3584 30.75C39.0932 30.4811 38.9606 30.1591 38.9606 29.7841C38.9606 29.4129 39.0932 29.0947 39.3584 28.8295C39.6273 28.5644 39.9493 28.4318 40.3243 28.4318C40.6879 28.4318 41.0061 28.5644 41.2788 28.8295C41.5516 29.0947 41.6879 29.4129 41.6879 29.7841C41.6879 30.0341 41.6235 30.2633 41.4947 30.4716C41.3697 30.6761 41.205 30.8409 41.0004 30.9659C40.7959 31.0871 40.5705 31.1477 40.3243 31.1477Z" fill="black"/>
<path d="M47.8087 31.1591C47.0056 31.1591 46.2897 31.0114 45.6609 30.7159C45.0359 30.4205 44.5397 30.0133 44.1723 29.4943C43.8049 28.9754 43.6136 28.3807 43.5984 27.7102H45.9848C46.0113 28.161 46.2007 28.5265 46.553 28.8068C46.9052 29.0871 47.3238 29.2273 47.8087 29.2273C48.195 29.2273 48.5359 29.142 48.8314 28.9716C49.1306 28.7973 49.3636 28.5568 49.5302 28.25C49.7007 27.9394 49.7859 27.5833 49.7859 27.1818C49.7859 26.7727 49.6988 26.4129 49.5246 26.1023C49.3541 25.7917 49.1174 25.5492 48.8143 25.375C48.5113 25.2008 48.1647 25.1117 47.7746 25.108C47.4337 25.108 47.1022 25.178 46.7802 25.3182C46.4621 25.4583 46.214 25.6496 46.0359 25.892L43.8484 25.5L44.3996 19.3636H51.5132V21.375H46.428L46.1268 24.2898H46.195C46.3996 24.0019 46.7083 23.7633 47.1212 23.5739C47.534 23.3845 47.9962 23.2898 48.5075 23.2898C49.2083 23.2898 49.8333 23.4545 50.3825 23.7841C50.9318 24.1136 51.3655 24.5663 51.6837 25.142C52.0018 25.714 52.159 26.3731 52.1552 27.1193C52.159 27.9034 51.9772 28.6004 51.6098 29.2102C51.2462 29.8163 50.7367 30.2936 50.0814 30.642C49.4299 30.9867 48.6723 31.1591 47.8087 31.1591Z" fill="black"/>
<path d="M57.7802 32.4545V17.9091H58.7121V32.4545H57.7802ZM60.2518 22.7102C60.2064 22.2519 60.0113 21.8958 59.6666 21.642C59.3219 21.3883 58.8541 21.2614 58.2632 21.2614C57.8617 21.2614 57.5227 21.3182 57.2462 21.4318C56.9696 21.5417 56.7575 21.6951 56.6098 21.892C56.4659 22.089 56.3939 22.3125 56.3939 22.5625C56.3863 22.7708 56.4299 22.9527 56.5246 23.108C56.6231 23.2633 56.7575 23.3977 56.928 23.5114C57.0984 23.6212 57.2954 23.7178 57.5189 23.8011C57.7424 23.8807 57.981 23.9489 58.2348 24.0057L59.2802 24.2557C59.7878 24.3693 60.2537 24.5208 60.678 24.7102C61.1022 24.8996 61.4696 25.1326 61.7802 25.4091C62.0909 25.6856 62.3314 26.0114 62.5018 26.3864C62.6761 26.7614 62.7651 27.1913 62.7689 27.6761C62.7651 28.3883 62.5833 29.0057 62.2234 29.5284C61.8674 30.0473 61.3522 30.4508 60.678 30.7386C60.0075 31.0227 59.1988 31.1648 58.2518 31.1648C57.3124 31.1648 56.4943 31.0208 55.7973 30.733C55.1041 30.4451 54.5624 30.0189 54.1723 29.4545C53.7859 28.8864 53.5833 28.1837 53.5643 27.3466H55.945C55.9715 27.7367 56.0833 28.0625 56.2802 28.3239C56.481 28.5814 56.7481 28.7765 57.0814 28.9091C57.4185 29.0379 57.7992 29.1023 58.2234 29.1023C58.6401 29.1023 59.0018 29.0417 59.3087 28.9205C59.6193 28.7992 59.8598 28.6307 60.0302 28.4148C60.2007 28.1989 60.2859 27.9508 60.2859 27.6705C60.2859 27.4091 60.2083 27.1894 60.053 27.0114C59.9015 26.8333 59.678 26.6818 59.3825 26.5568C59.0909 26.4318 58.7329 26.3182 58.3087 26.2159L57.0416 25.8977C56.0606 25.6591 55.2859 25.286 54.7177 24.7784C54.1496 24.2708 53.8674 23.5871 53.8712 22.7273C53.8674 22.0227 54.0549 21.4072 54.4337 20.8807C54.8162 20.3542 55.3409 19.9432 56.0075 19.6477C56.6742 19.3523 57.4318 19.2045 58.2802 19.2045C59.1439 19.2045 59.8977 19.3523 60.5416 19.6477C61.1893 19.9432 61.6931 20.3542 62.053 20.8807C62.4128 21.4072 62.5984 22.017 62.6098 22.7102H60.2518Z" fill="black"/>
</svg>
