<svg width="90" height="33" viewBox="0 0 90 33" fill="none" xmlns="http://www.w3.org/2000/svg">
<path d="M4.25069 12.1818C3.43251 12.1818 2.72796 11.9886 2.13705 11.6023C1.54614 11.2159 1.0916 10.6837 0.773415 10.0057C0.455233 9.32765 0.296143 8.55303 0.296143 7.68182C0.296143 6.79545 0.459021 6.01326 0.784779 5.33523C1.11432 4.65341 1.57266 4.12121 2.15978 3.73864C2.75069 3.35227 3.44008 3.15909 4.22796 3.15909C4.8416 3.15909 5.39463 3.27273 5.88705 3.5C6.37948 3.72727 6.78289 4.04545 7.09728 4.45455C7.41167 4.86364 7.60675 5.34091 7.68251 5.88636H6.3416C6.23932 5.48864 6.01205 5.13636 5.65978 4.82955C5.31129 4.51894 4.8416 4.36364 4.25069 4.36364C3.72796 4.36364 3.26963 4.5 2.87569 4.77273C2.48554 5.04167 2.18061 5.42235 1.96092 5.91477C1.74501 6.40341 1.63705 6.97727 1.63705 7.63636C1.63705 8.31061 1.74311 8.89773 1.95523 9.39773C2.17114 9.89773 2.47417 10.286 2.86432 10.5625C3.25826 10.839 3.72038 10.9773 4.25069 10.9773C4.59917 10.9773 4.91546 10.9167 5.19955 10.7955C5.48364 10.6742 5.72417 10.5 5.92114 10.2727C6.11811 10.0455 6.25826 9.77273 6.3416 9.45455H7.68251C7.60675 9.9697 7.41925 10.4337 7.12001 10.8466C6.82455 11.2557 6.43251 11.5814 5.94387 11.8239C5.45902 12.0625 4.89463 12.1818 4.25069 12.1818Z" fill="black"/>
<path d="M10.9836 6.75V12H9.64273V0.363636H10.9836V4.63636H11.0973C11.3018 4.18561 11.6086 3.82765 12.0177 3.5625C12.4306 3.29356 12.9799 3.15909 13.6655 3.15909C14.2602 3.15909 14.781 3.27841 15.228 3.51705C15.6749 3.75189 16.0215 4.11364 16.2677 4.60227C16.5177 5.08712 16.6427 5.70455 16.6427 6.45455V12H15.3018V6.54545C15.3018 5.85227 15.1219 5.31629 14.7621 4.9375C14.406 4.55492 13.9117 4.36364 13.2791 4.36364C12.8397 4.36364 12.4458 4.45644 12.0973 4.64205C11.7526 4.82765 11.4799 5.09848 11.2791 5.45455C11.0821 5.81061 10.9836 6.24242 10.9836 6.75Z" fill="black"/>
<path d="M19.0959 12V3.27273H20.4368V12H19.0959ZM19.7777 1.81818C19.5163 1.81818 19.2909 1.72917 19.1015 1.55114C18.9159 1.37311 18.8231 1.15909 18.8231 0.909091C18.8231 0.659091 18.9159 0.445076 19.1015 0.267045C19.2909 0.089015 19.5163 0 19.7777 0C20.039 0 20.2625 0.089015 20.4481 0.267045C20.6375 0.445076 20.7322 0.659091 20.7322 0.909091C20.7322 1.15909 20.6375 1.37311 20.4481 1.55114C20.2625 1.72917 20.039 1.81818 19.7777 1.81818Z" fill="black"/>
<path d="M26.4382 12.1818C25.62 12.1818 24.9155 11.9886 24.3246 11.6023C23.7336 11.2159 23.2791 10.6837 22.9609 10.0057C22.6427 9.32765 22.4836 8.55303 22.4836 7.68182C22.4836 6.79545 22.6465 6.01326 22.9723 5.33523C23.3018 4.65341 23.7602 4.12121 24.3473 3.73864C24.9382 3.35227 25.6276 3.15909 26.4155 3.15909C27.0291 3.15909 27.5821 3.27273 28.0746 3.5C28.567 3.72727 28.9704 4.04545 29.2848 4.45455C29.5992 4.86364 29.7942 5.34091 29.87 5.88636H28.5291C28.4268 5.48864 28.1996 5.13636 27.8473 4.82955C27.4988 4.51894 27.0291 4.36364 26.4382 4.36364C25.9155 4.36364 25.4571 4.5 25.0632 4.77273C24.673 5.04167 24.3681 5.42235 24.1484 5.91477C23.9325 6.40341 23.8246 6.97727 23.8246 7.63636C23.8246 8.31061 23.9306 8.89773 24.1427 9.39773C24.3586 9.89773 24.6617 10.286 25.0518 10.5625C25.4458 10.839 25.9079 10.9773 26.4382 10.9773C26.7867 10.9773 27.103 10.9167 27.3871 10.7955C27.6711 10.6742 27.9117 10.5 28.1086 10.2727C28.3056 10.0455 28.4458 9.77273 28.5291 9.45455H29.87C29.7942 9.9697 29.6067 10.4337 29.3075 10.8466C29.0121 11.2557 28.62 11.5814 28.1314 11.8239C27.6465 12.0625 27.0821 12.1818 26.4382 12.1818Z" fill="black"/>
<path d="M33.0802 8.81818L33.0575 7.15909H33.3302L37.1484 3.27273H38.8075L34.7393 7.38636H34.6257L33.0802 8.81818ZM31.8302 12V0.363636H33.1711V12H31.8302ZM37.3757 12L33.9666 7.68182L34.9211 6.75L39.0802 12H37.3757Z" fill="black"/>
<path d="M43.8331 12.1818C42.9922 12.1818 42.2668 11.9962 41.6569 11.625C41.0509 11.25 40.5831 10.7273 40.2535 10.0568C39.9278 9.38258 39.7649 8.59848 39.7649 7.70455C39.7649 6.81061 39.9278 6.02273 40.2535 5.34091C40.5831 4.6553 41.0414 4.12121 41.6285 3.73864C42.2194 3.35227 42.9088 3.15909 43.6967 3.15909C44.1513 3.15909 44.6001 3.23485 45.0433 3.38636C45.4865 3.53788 45.8899 3.78409 46.2535 4.125C46.6172 4.46212 46.9069 4.90909 47.1228 5.46591C47.3388 6.02273 47.4467 6.70833 47.4467 7.52273V8.09091H40.7194V6.93182H46.0831C46.0831 6.43939 45.9846 6 45.7876 5.61364C45.5944 5.22727 45.3179 4.92235 44.9581 4.69886C44.602 4.47538 44.1816 4.36364 43.6967 4.36364C43.1626 4.36364 42.7005 4.49621 42.3103 4.76136C41.924 5.02273 41.6266 5.36364 41.4183 5.78409C41.21 6.20454 41.1058 6.6553 41.1058 7.13636V7.90909C41.1058 8.56818 41.2194 9.12689 41.4467 9.58523C41.6778 10.0398 41.9978 10.3864 42.4069 10.625C42.816 10.8598 43.2914 10.9773 43.8331 10.9773C44.1853 10.9773 44.5035 10.928 44.7876 10.8295C45.0755 10.7273 45.3236 10.5758 45.5319 10.375C45.7403 10.1705 45.9013 9.91667 46.0149 9.61364L47.3103 9.97727C47.174 10.4167 46.9448 10.803 46.6228 11.1364C46.3009 11.4659 45.9032 11.7235 45.4297 11.9091C44.9562 12.0909 44.424 12.1818 43.8331 12.1818Z" fill="black"/>
<path d="M50.8274 6.75V12H49.4865V3.27273H50.7819V4.63636H50.8956C51.1001 4.19318 51.4107 3.83712 51.8274 3.56818C52.2441 3.29545 52.7819 3.15909 53.441 3.15909C54.0319 3.15909 54.549 3.2803 54.9922 3.52273C55.4353 3.76136 55.78 4.125 56.0263 4.61364C56.2725 5.09848 56.3956 5.71212 56.3956 6.45455V12H55.0547V6.54545C55.0547 5.85985 54.8766 5.32576 54.5206 4.94318C54.1645 4.55682 53.6759 4.36364 53.0547 4.36364C52.6266 4.36364 52.2441 4.45644 51.9069 4.64205C51.5736 4.82765 51.3103 5.09848 51.1172 5.45455C50.924 5.81061 50.8274 6.24242 50.8274 6.75Z" fill="black"/>
<path d="M67.005 12.1818C66.164 12.1818 65.4387 11.9962 64.8288 11.625C64.2228 11.25 63.7549 10.7273 63.4254 10.0568C63.0996 9.38258 62.9368 8.59848 62.9368 7.70455C62.9368 6.81061 63.0996 6.02273 63.4254 5.34091C63.7549 4.6553 64.2133 4.12121 64.8004 3.73864C65.3913 3.35227 66.0807 3.15909 66.8686 3.15909C67.3231 3.15909 67.772 3.23485 68.2152 3.38636C68.6584 3.53788 69.0618 3.78409 69.4254 4.125C69.789 4.46212 70.0788 4.90909 70.2947 5.46591C70.5106 6.02273 70.6186 6.70833 70.6186 7.52273V8.09091H63.8913V6.93182H69.255C69.255 6.43939 69.1565 6 68.9595 5.61364C68.7663 5.22727 68.4898 4.92235 68.13 4.69886C67.7739 4.47538 67.3534 4.36364 66.8686 4.36364C66.3345 4.36364 65.8724 4.49621 65.4822 4.76136C65.0959 5.02273 64.7985 5.36364 64.5902 5.78409C64.3818 6.20454 64.2777 6.6553 64.2777 7.13636V7.90909C64.2777 8.56818 64.3913 9.12689 64.6186 9.58523C64.8496 10.0398 65.1697 10.3864 65.5788 10.625C65.9879 10.8598 66.4633 10.9773 67.005 10.9773C67.3572 10.9773 67.6754 10.928 67.9595 10.8295C68.2474 10.7273 68.4955 10.5758 68.7038 10.375C68.9121 10.1705 69.0731 9.91667 69.1868 9.61364L70.4822 9.97727C70.3459 10.4167 70.1167 10.803 69.7947 11.1364C69.4728 11.4659 69.075 11.7235 68.6015 11.9091C68.1281 12.0909 67.5959 12.1818 67.005 12.1818Z" fill="black"/>
<path d="M76.1811 15.4545C75.5334 15.4545 74.9765 15.3712 74.5106 15.2045C74.0447 15.0417 73.6565 14.8258 73.3459 14.5568C73.039 14.2917 72.7947 14.0076 72.6129 13.7045L73.6811 12.9545C73.8023 13.1136 73.9557 13.2955 74.1413 13.5C74.3269 13.7083 74.5807 13.8883 74.9027 14.0398C75.2284 14.1951 75.6546 14.2727 76.1811 14.2727C76.8856 14.2727 77.4671 14.1023 77.9254 13.7614C78.3837 13.4205 78.6129 12.8864 78.6129 12.1591V10.3864H78.4993C78.4008 10.5455 78.2606 10.7424 78.0788 10.9773C77.9008 11.2083 77.6432 11.4148 77.3061 11.5966C76.9727 11.7746 76.522 11.8636 75.9538 11.8636C75.2493 11.8636 74.6167 11.697 74.0561 11.3636C73.4993 11.0303 73.058 10.5455 72.7322 9.90909C72.4103 9.27273 72.2493 8.5 72.2493 7.59091C72.2493 6.69697 72.4065 5.91856 72.7209 5.25568C73.0352 4.58902 73.4727 4.07386 74.0334 3.71023C74.594 3.3428 75.2417 3.15909 75.9765 3.15909C76.5447 3.15909 76.9955 3.25379 77.3288 3.44318C77.6659 3.62879 77.9235 3.84091 78.1015 4.07955C78.2834 4.31439 78.4235 4.50758 78.522 4.65909H78.6584V3.27273H79.9538V12.25C79.9538 13 79.7834 13.6098 79.4425 14.0795C79.1053 14.553 78.6508 14.8996 78.0788 15.1193C77.5106 15.3428 76.8781 15.4545 76.1811 15.4545ZM76.1356 10.6591C76.6735 10.6591 77.1281 10.536 77.4993 10.2898C77.8705 10.0436 78.1527 9.68939 78.3459 9.22727C78.539 8.76515 78.6356 8.21212 78.6356 7.56818C78.6356 6.93939 78.5409 6.38447 78.3515 5.90341C78.1621 5.42235 77.8818 5.04545 77.5106 4.77273C77.1394 4.5 76.6811 4.36364 76.1356 4.36364C75.5674 4.36364 75.094 4.50758 74.7152 4.79545C74.3402 5.08333 74.058 5.4697 73.8686 5.95455C73.683 6.43939 73.5902 6.97727 73.5902 7.56818C73.5902 8.17424 73.6849 8.71023 73.8743 9.17614C74.0675 9.63826 74.3515 10.0019 74.7265 10.267C75.1053 10.5284 75.575 10.6591 76.1356 10.6591Z" fill="black"/>
<path d="M85.9311 15.4545C85.2834 15.4545 84.7265 15.3712 84.2606 15.2045C83.7947 15.0417 83.4065 14.8258 83.0959 14.5568C82.789 14.2917 82.5447 14.0076 82.3629 13.7045L83.4311 12.9545C83.5523 13.1136 83.7057 13.2955 83.8913 13.5C84.0769 13.7083 84.3307 13.8883 84.6527 14.0398C84.9784 14.1951 85.4046 14.2727 85.9311 14.2727C86.6356 14.2727 87.2171 14.1023 87.6754 13.7614C88.1337 13.4205 88.3629 12.8864 88.3629 12.1591V10.3864H88.2493C88.1508 10.5455 88.0106 10.7424 87.8288 10.9773C87.6508 11.2083 87.3932 11.4148 87.0561 11.5966C86.7227 11.7746 86.272 11.8636 85.7038 11.8636C84.9993 11.8636 84.3667 11.697 83.8061 11.3636C83.2493 11.0303 82.808 10.5455 82.4822 9.90909C82.1603 9.27273 81.9993 8.5 81.9993 7.59091C81.9993 6.69697 82.1565 5.91856 82.4709 5.25568C82.7852 4.58902 83.2227 4.07386 83.7834 3.71023C84.344 3.3428 84.9917 3.15909 85.7265 3.15909C86.2947 3.15909 86.7455 3.25379 87.0788 3.44318C87.4159 3.62879 87.6735 3.84091 87.8515 4.07955C88.0334 4.31439 88.1735 4.50758 88.272 4.65909H88.4084V3.27273H89.7038V12.25C89.7038 13 89.5334 13.6098 89.1925 14.0795C88.8553 14.553 88.4008 14.8996 87.8288 15.1193C87.2606 15.3428 86.6281 15.4545 85.9311 15.4545ZM85.8856 10.6591C86.4235 10.6591 86.8781 10.536 87.2493 10.2898C87.6205 10.0436 87.9027 9.68939 88.0959 9.22727C88.289 8.76515 88.3856 8.21212 88.3856 7.56818C88.3856 6.93939 88.2909 6.38447 88.1015 5.90341C87.9121 5.42235 87.6318 5.04545 87.2606 4.77273C86.8894 4.5 86.4311 4.36364 85.8856 4.36364C85.3174 4.36364 84.844 4.50758 84.4652 4.79545C84.0902 5.08333 83.808 5.4697 83.6186 5.95455C83.433 6.43939 83.3402 6.97727 83.3402 7.56818C83.3402 8.17424 83.4349 8.71023 83.6243 9.17614C83.8175 9.63826 84.1015 10.0019 84.4765 10.267C84.8553 10.5284 85.325 10.6591 85.8856 10.6591Z" fill="black"/>
<path d="M32.7024 31.2557C31.7251 31.2519 30.8842 31.0114 30.1797 30.5341C29.4789 30.0568 28.9391 29.3655 28.5603 28.4602C28.1853 27.5549 27.9997 26.4659 28.0035 25.1932C28.0035 23.9242 28.191 22.8428 28.566 21.9489C28.9448 21.0549 29.4846 20.375 30.1853 19.9091C30.8899 19.4394 31.7289 19.2045 32.7024 19.2045C33.6759 19.2045 34.513 19.4394 35.2138 19.9091C35.9183 20.3788 36.46 21.0606 36.8388 21.9545C37.2175 22.8447 37.405 23.9242 37.4013 25.1932C37.4013 26.4697 37.2119 27.5606 36.8331 28.4659C36.4581 29.3712 35.9202 30.0625 35.2194 30.5398C34.5187 31.017 33.6797 31.2557 32.7024 31.2557ZM32.7024 29.2159C33.3691 29.2159 33.9013 28.8807 34.299 28.2102C34.6967 27.5398 34.8937 26.5341 34.8899 25.1932C34.8899 24.3106 34.799 23.5758 34.6172 22.9886C34.4391 22.4015 34.1853 21.9602 33.8558 21.6648C33.53 21.3693 33.1456 21.2216 32.7024 21.2216C32.0395 21.2216 31.5092 21.553 31.1115 22.2159C30.7138 22.8788 30.513 23.8712 30.5092 25.1932C30.5092 26.0871 30.5982 26.8333 30.7763 27.4318C30.9581 28.0265 31.2138 28.4735 31.5433 28.7727C31.8728 29.0682 32.2592 29.2159 32.7024 29.2159Z" fill="black"/>
<path d="M40.1243 31.1477C39.7493 31.1477 39.4273 31.0152 39.1584 30.75C38.8932 30.4811 38.7606 30.1591 38.7606 29.7841C38.7606 29.4129 38.8932 29.0947 39.1584 28.8295C39.4273 28.5644 39.7493 28.4318 40.1243 28.4318C40.4879 28.4318 40.8061 28.5644 41.0788 28.8295C41.3515 29.0947 41.4879 29.4129 41.4879 29.7841C41.4879 30.0341 41.4235 30.2633 41.2947 30.4716C41.1697 30.6761 41.005 30.8409 40.8004 30.9659C40.5959 31.0871 40.3705 31.1477 40.1243 31.1477Z" fill="black"/>
<path d="M47.6086 31.1591C46.8056 31.1591 46.0897 31.0114 45.4609 30.7159C44.8359 30.4205 44.3397 30.0133 43.9723 29.4943C43.6049 28.9754 43.4136 28.3807 43.3984 27.7102H45.7848C45.8113 28.161 46.0007 28.5265 46.353 28.8068C46.7052 29.0871 47.1238 29.2273 47.6086 29.2273C47.995 29.2273 48.3359 29.142 48.6314 28.9716C48.9306 28.7973 49.1636 28.5568 49.3302 28.25C49.5007 27.9394 49.5859 27.5833 49.5859 27.1818C49.5859 26.7727 49.4988 26.4129 49.3246 26.1023C49.1541 25.7917 48.9174 25.5492 48.6143 25.375C48.3113 25.2008 47.9647 25.1117 47.5746 25.108C47.2336 25.108 46.9022 25.178 46.5802 25.3182C46.2621 25.4583 46.014 25.6496 45.8359 25.892L43.6484 25.5L44.1996 19.3636H51.3132V21.375H46.228L45.9268 24.2898H45.995C46.1996 24.0019 46.5083 23.7633 46.9211 23.5739C47.334 23.3845 47.7961 23.2898 48.3075 23.2898C49.0083 23.2898 49.6333 23.4545 50.1825 23.7841C50.7318 24.1136 51.1655 24.5663 51.4836 25.142C51.8018 25.714 51.959 26.3731 51.9552 27.1193C51.959 27.9034 51.7772 28.6004 51.4098 29.2102C51.0461 29.8163 50.5367 30.2936 49.8814 30.642C49.2299 30.9867 48.4723 31.1591 47.6086 31.1591Z" fill="black"/>
<path d="M57.5802 32.4545V17.9091H58.5121V32.4545H57.5802ZM60.0518 22.7102C60.0064 22.2519 59.8113 21.8958 59.4666 21.642C59.1219 21.3883 58.6541 21.2614 58.0632 21.2614C57.6617 21.2614 57.3227 21.3182 57.0461 21.4318C56.7696 21.5417 56.5575 21.6951 56.4098 21.892C56.2658 22.089 56.1939 22.3125 56.1939 22.5625C56.1863 22.7708 56.2299 22.9527 56.3246 23.108C56.423 23.2633 56.5575 23.3977 56.728 23.5114C56.8984 23.6212 57.0954 23.7178 57.3189 23.8011C57.5424 23.8807 57.781 23.9489 58.0348 24.0057L59.0802 24.2557C59.5878 24.3693 60.0537 24.5208 60.478 24.7102C60.9022 24.8996 61.2696 25.1326 61.5802 25.4091C61.8908 25.6856 62.1314 26.0114 62.3018 26.3864C62.4761 26.7614 62.5651 27.1913 62.5689 27.6761C62.5651 28.3883 62.3833 29.0057 62.0234 29.5284C61.6674 30.0473 61.1522 30.4508 60.478 30.7386C59.8075 31.0227 58.9988 31.1648 58.0518 31.1648C57.1124 31.1648 56.2943 31.0208 55.5973 30.733C54.9041 30.4451 54.3624 30.0189 53.9723 29.4545C53.5859 28.8864 53.3833 28.1837 53.3643 27.3466H55.745C55.7715 27.7367 55.8833 28.0625 56.0802 28.3239C56.281 28.5814 56.548 28.7765 56.8814 28.9091C57.2185 29.0379 57.5992 29.1023 58.0234 29.1023C58.4401 29.1023 58.8018 29.0417 59.1086 28.9205C59.4193 28.7992 59.6598 28.6307 59.8302 28.4148C60.0007 28.1989 60.0859 27.9508 60.0859 27.6705C60.0859 27.4091 60.0083 27.1894 59.853 27.0114C59.7014 26.8333 59.478 26.6818 59.1825 26.5568C58.8908 26.4318 58.5329 26.3182 58.1086 26.2159L56.8416 25.8977C55.8605 25.6591 55.0859 25.286 54.5177 24.7784C53.9496 24.2708 53.6674 23.5871 53.6711 22.7273C53.6674 22.0227 53.8549 21.4072 54.2336 20.8807C54.6162 20.3542 55.1408 19.9432 55.8075 19.6477C56.4742 19.3523 57.2318 19.2045 58.0802 19.2045C58.9439 19.2045 59.6977 19.3523 60.3416 19.6477C60.9893 19.9432 61.4931 20.3542 61.853 20.8807C62.2128 21.4072 62.3984 22.017 62.4098 22.7102H60.0518Z" fill="black"/>
</svg>
