<svg width="90" height="33" viewBox="0 0 90 33" fill="none" xmlns="http://www.w3.org/2000/svg">
<path d="M4.05068 12.1818C3.23249 12.1818 2.52795 11.9886 1.93704 11.6023C1.34613 11.2159 0.891585 10.6837 0.573403 10.0057C0.255221 9.32765 0.0961304 8.55303 0.0961304 7.68182C0.0961304 6.79545 0.259009 6.01326 0.584767 5.33523C0.914312 4.65341 1.37265 4.12121 1.95977 3.73864C2.55068 3.35227 3.24007 3.15909 4.02795 3.15909C4.64158 3.15909 5.19461 3.27273 5.68704 3.5C6.17946 3.72727 6.58287 4.04545 6.89727 4.45455C7.21166 4.86364 7.40674 5.34091 7.48249 5.88636H6.14158C6.03931 5.48864 5.81204 5.13636 5.45977 4.82955C5.11128 4.51894 4.64158 4.36364 4.05068 4.36364C3.52795 4.36364 3.06962 4.5 2.67568 4.77273C2.28552 5.04167 1.9806 5.42235 1.7609 5.91477C1.54499 6.40341 1.43704 6.97727 1.43704 7.63636C1.43704 8.31061 1.5431 8.89773 1.75522 9.39773C1.97113 9.89773 2.27416 10.286 2.66431 10.5625C3.05825 10.839 3.52037 10.9773 4.05068 10.9773C4.39916 10.9773 4.71545 10.9167 4.99954 10.7955C5.28363 10.6742 5.52416 10.5 5.72113 10.2727C5.9181 10.0455 6.05825 9.77273 6.14158 9.45455H7.48249C7.40674 9.9697 7.21924 10.4337 6.91999 10.8466C6.62454 11.2557 6.23249 11.5814 5.74386 11.8239C5.25901 12.0625 4.69462 12.1818 4.05068 12.1818Z" fill="black"/>
<path d="M10.7836 6.75V12H9.44272V0.363636H10.7836V4.63636H10.8973C11.1018 4.18561 11.4086 3.82765 11.8177 3.5625C12.2306 3.29356 12.7798 3.15909 13.4654 3.15909C14.0601 3.15909 14.581 3.27841 15.0279 3.51705C15.4749 3.75189 15.8215 4.11364 16.0677 4.60227C16.3177 5.08712 16.4427 5.70455 16.4427 6.45455V12H15.1018V6.54545C15.1018 5.85227 14.9219 5.31629 14.562 4.9375C14.206 4.55492 13.7117 4.36364 13.0791 4.36364C12.6397 4.36364 12.2458 4.45644 11.8973 4.64205C11.5526 4.82765 11.2798 5.09848 11.0791 5.45455C10.8821 5.81061 10.7836 6.24242 10.7836 6.75Z" fill="black"/>
<path d="M18.8958 12V3.27273H20.2368V12H18.8958ZM19.5777 1.81818C19.3163 1.81818 19.0909 1.72917 18.9015 1.55114C18.7159 1.37311 18.6231 1.15909 18.6231 0.909091C18.6231 0.659091 18.7159 0.445076 18.9015 0.267045C19.0909 0.089015 19.3163 0 19.5777 0C19.839 0 20.0625 0.089015 20.2481 0.267045C20.4375 0.445076 20.5322 0.659091 20.5322 0.909091C20.5322 1.15909 20.4375 1.37311 20.2481 1.55114C20.0625 1.72917 19.839 1.81818 19.5777 1.81818Z" fill="black"/>
<path d="M26.2382 12.1818C25.42 12.1818 24.7155 11.9886 24.1245 11.6023C23.5336 11.2159 23.0791 10.6837 22.7609 10.0057C22.4427 9.32765 22.2836 8.55303 22.2836 7.68182C22.2836 6.79545 22.4465 6.01326 22.7723 5.33523C23.1018 4.65341 23.5601 4.12121 24.1473 3.73864C24.7382 3.35227 25.4276 3.15909 26.2154 3.15909C26.8291 3.15909 27.3821 3.27273 27.8745 3.5C28.367 3.72727 28.7704 4.04545 29.0848 4.45455C29.3992 4.86364 29.5942 5.34091 29.67 5.88636H28.3291C28.2268 5.48864 27.9995 5.13636 27.6473 4.82955C27.2988 4.51894 26.8291 4.36364 26.2382 4.36364C25.7154 4.36364 25.2571 4.5 24.8632 4.77273C24.473 5.04167 24.1681 5.42235 23.9484 5.91477C23.7325 6.40341 23.6245 6.97727 23.6245 7.63636C23.6245 8.31061 23.7306 8.89773 23.9427 9.39773C24.1586 9.89773 24.4617 10.286 24.8518 10.5625C25.2458 10.839 25.7079 10.9773 26.2382 10.9773C26.5867 10.9773 26.903 10.9167 27.187 10.7955C27.4711 10.6742 27.7117 10.5 27.9086 10.2727C28.1056 10.0455 28.2458 9.77273 28.3291 9.45455H29.67C29.5942 9.9697 29.4067 10.4337 29.1075 10.8466C28.812 11.2557 28.42 11.5814 27.9314 11.8239C27.4465 12.0625 26.8821 12.1818 26.2382 12.1818Z" fill="black"/>
<path d="M32.8802 8.81818L32.8575 7.15909H33.1302L36.9484 3.27273H38.6075L34.5393 7.38636H34.4257L32.8802 8.81818ZM31.6302 12V0.363636H32.9711V12H31.6302ZM37.1757 12L33.7666 7.68182L34.7211 6.75L38.8802 12H37.1757Z" fill="black"/>
<path d="M43.6331 12.1818C42.7922 12.1818 42.0668 11.9962 41.4569 11.625C40.8509 11.25 40.3831 10.7273 40.0535 10.0568C39.7278 9.38258 39.5649 8.59848 39.5649 7.70455C39.5649 6.81061 39.7278 6.02273 40.0535 5.34091C40.3831 4.6553 40.8414 4.12121 41.4285 3.73864C42.0194 3.35227 42.7088 3.15909 43.4967 3.15909C43.9512 3.15909 44.4001 3.23485 44.8433 3.38636C45.2865 3.53788 45.6899 3.78409 46.0535 4.125C46.4172 4.46212 46.7069 4.90909 46.9228 5.46591C47.1387 6.02273 47.2467 6.70833 47.2467 7.52273V8.09091H40.5194V6.93182H45.8831C45.8831 6.43939 45.7846 6 45.5876 5.61364C45.3944 5.22727 45.1179 4.92235 44.7581 4.69886C44.402 4.47538 43.9815 4.36364 43.4967 4.36364C42.9626 4.36364 42.5005 4.49621 42.1103 4.76136C41.724 5.02273 41.4266 5.36364 41.2183 5.78409C41.01 6.20454 40.9058 6.6553 40.9058 7.13636V7.90909C40.9058 8.56818 41.0194 9.12689 41.2467 9.58523C41.4778 10.0398 41.7978 10.3864 42.2069 10.625C42.616 10.8598 43.0914 10.9773 43.6331 10.9773C43.9853 10.9773 44.3035 10.928 44.5876 10.8295C44.8755 10.7273 45.1236 10.5758 45.3319 10.375C45.5403 10.1705 45.7012 9.91667 45.8149 9.61364L47.1103 9.97727C46.974 10.4167 46.7448 10.803 46.4228 11.1364C46.1009 11.4659 45.7031 11.7235 45.2297 11.9091C44.7562 12.0909 44.224 12.1818 43.6331 12.1818Z" fill="black"/>
<path d="M50.6274 6.75V12H49.2865V3.27273H50.5819V4.63636H50.6956C50.9001 4.19318 51.2107 3.83712 51.6274 3.56818C52.0441 3.29545 52.5819 3.15909 53.241 3.15909C53.8319 3.15909 54.349 3.2803 54.7922 3.52273C55.2353 3.76136 55.58 4.125 55.8262 4.61364C56.0725 5.09848 56.1956 5.71212 56.1956 6.45455V12H54.8547V6.54545C54.8547 5.85985 54.6766 5.32576 54.3206 4.94318C53.9645 4.55682 53.4759 4.36364 52.8547 4.36364C52.4266 4.36364 52.044 4.45644 51.7069 4.64205C51.3736 4.82765 51.1103 5.09848 50.9172 5.45455C50.724 5.81061 50.6274 6.24242 50.6274 6.75Z" fill="black"/>
<path d="M66.8049 12.1818C65.964 12.1818 65.2386 11.9962 64.6288 11.625C64.0227 11.25 63.5549 10.7273 63.2254 10.0568C62.8996 9.38258 62.7368 8.59848 62.7368 7.70455C62.7368 6.81061 62.8996 6.02273 63.2254 5.34091C63.5549 4.6553 64.0133 4.12121 64.6004 3.73864C65.1913 3.35227 65.8807 3.15909 66.6686 3.15909C67.1231 3.15909 67.572 3.23485 68.0152 3.38636C68.4583 3.53788 68.8617 3.78409 69.2254 4.125C69.589 4.46212 69.8788 4.90909 70.0947 5.46591C70.3106 6.02273 70.4186 6.70833 70.4186 7.52273V8.09091H63.6913V6.93182H69.0549C69.0549 6.43939 68.9565 6 68.7595 5.61364C68.5663 5.22727 68.2898 4.92235 67.9299 4.69886C67.5739 4.47538 67.1534 4.36364 66.6686 4.36364C66.1345 4.36364 65.6724 4.49621 65.2822 4.76136C64.8959 5.02273 64.5985 5.36364 64.3902 5.78409C64.1818 6.20454 64.0777 6.6553 64.0777 7.13636V7.90909C64.0777 8.56818 64.1913 9.12689 64.4186 9.58523C64.6496 10.0398 64.9697 10.3864 65.3788 10.625C65.7879 10.8598 66.2633 10.9773 66.8049 10.9773C67.1572 10.9773 67.4754 10.928 67.7595 10.8295C68.0474 10.7273 68.2955 10.5758 68.5038 10.375C68.7121 10.1705 68.8731 9.91667 68.9868 9.61364L70.2822 9.97727C70.1458 10.4167 69.9167 10.803 69.5947 11.1364C69.2727 11.4659 68.875 11.7235 68.4015 11.9091C67.928 12.0909 67.3959 12.1818 66.8049 12.1818Z" fill="black"/>
<path d="M75.9811 15.4545C75.3333 15.4545 74.7765 15.3712 74.3106 15.2045C73.8447 15.0417 73.4565 14.8258 73.1458 14.5568C72.839 14.2917 72.5947 14.0076 72.4129 13.7045L73.4811 12.9545C73.6023 13.1136 73.7557 13.2955 73.9413 13.5C74.1269 13.7083 74.3807 13.8883 74.7027 14.0398C75.0284 14.1951 75.4546 14.2727 75.9811 14.2727C76.6856 14.2727 77.2671 14.1023 77.7254 13.7614C78.1837 13.4205 78.4129 12.8864 78.4129 12.1591V10.3864H78.2993C78.2008 10.5455 78.0606 10.7424 77.8788 10.9773C77.7008 11.2083 77.4432 11.4148 77.1061 11.5966C76.7727 11.7746 76.322 11.8636 75.7538 11.8636C75.0493 11.8636 74.4167 11.697 73.8561 11.3636C73.2993 11.0303 72.858 10.5455 72.5322 9.90909C72.2102 9.27273 72.0493 8.5 72.0493 7.59091C72.0493 6.69697 72.2065 5.91856 72.5208 5.25568C72.8352 4.58902 73.2727 4.07386 73.8333 3.71023C74.394 3.3428 75.0417 3.15909 75.7765 3.15909C76.3447 3.15909 76.7955 3.25379 77.1288 3.44318C77.4659 3.62879 77.7235 3.84091 77.9015 4.07955C78.0833 4.31439 78.2235 4.50758 78.322 4.65909H78.4583V3.27273H79.7538V12.25C79.7538 13 79.5834 13.6098 79.2424 14.0795C78.9053 14.553 78.4508 14.8996 77.8788 15.1193C77.3106 15.3428 76.678 15.4545 75.9811 15.4545ZM75.9356 10.6591C76.4735 10.6591 76.928 10.536 77.2993 10.2898C77.6705 10.0436 77.9527 9.68939 78.1458 9.22727C78.339 8.76515 78.4356 8.21212 78.4356 7.56818C78.4356 6.93939 78.3409 6.38447 78.1515 5.90341C77.9621 5.42235 77.6818 5.04545 77.3106 4.77273C76.9394 4.5 76.4811 4.36364 75.9356 4.36364C75.3674 4.36364 74.8939 4.50758 74.5152 4.79545C74.1402 5.08333 73.858 5.4697 73.6686 5.95455C73.483 6.43939 73.3902 6.97727 73.3902 7.56818C73.3902 8.17424 73.4849 8.71023 73.6743 9.17614C73.8674 9.63826 74.1515 10.0019 74.5265 10.267C74.9053 10.5284 75.375 10.6591 75.9356 10.6591Z" fill="black"/>
<path d="M85.7311 15.4545C85.0833 15.4545 84.5265 15.3712 84.0606 15.2045C83.5947 15.0417 83.2065 14.8258 82.8958 14.5568C82.589 14.2917 82.3447 14.0076 82.1629 13.7045L83.2311 12.9545C83.3523 13.1136 83.5057 13.2955 83.6913 13.5C83.8769 13.7083 84.1307 13.8883 84.4527 14.0398C84.7784 14.1951 85.2046 14.2727 85.7311 14.2727C86.4356 14.2727 87.0171 14.1023 87.4754 13.7614C87.9337 13.4205 88.1629 12.8864 88.1629 12.1591V10.3864H88.0493C87.9508 10.5455 87.8106 10.7424 87.6288 10.9773C87.4508 11.2083 87.1932 11.4148 86.8561 11.5966C86.5227 11.7746 86.072 11.8636 85.5038 11.8636C84.7993 11.8636 84.1667 11.697 83.6061 11.3636C83.0493 11.0303 82.608 10.5455 82.2822 9.90909C81.9602 9.27273 81.7993 8.5 81.7993 7.59091C81.7993 6.69697 81.9565 5.91856 82.2708 5.25568C82.5852 4.58902 83.0227 4.07386 83.5833 3.71023C84.144 3.3428 84.7917 3.15909 85.5265 3.15909C86.0947 3.15909 86.5455 3.25379 86.8788 3.44318C87.2159 3.62879 87.4735 3.84091 87.6515 4.07955C87.8333 4.31439 87.9735 4.50758 88.072 4.65909H88.2083V3.27273H89.5038V12.25C89.5038 13 89.3334 13.6098 88.9924 14.0795C88.6553 14.553 88.2008 14.8996 87.6288 15.1193C87.0606 15.3428 86.428 15.4545 85.7311 15.4545ZM85.6856 10.6591C86.2235 10.6591 86.678 10.536 87.0493 10.2898C87.4205 10.0436 87.7027 9.68939 87.8958 9.22727C88.089 8.76515 88.1856 8.21212 88.1856 7.56818C88.1856 6.93939 88.0909 6.38447 87.9015 5.90341C87.7121 5.42235 87.4318 5.04545 87.0606 4.77273C86.6894 4.5 86.2311 4.36364 85.6856 4.36364C85.1174 4.36364 84.6439 4.50758 84.2652 4.79545C83.8902 5.08333 83.608 5.4697 83.4186 5.95455C83.233 6.43939 83.1402 6.97727 83.1402 7.56818C83.1402 8.17424 83.2349 8.71023 83.4243 9.17614C83.6174 9.63826 83.9015 10.0019 84.2765 10.267C84.6553 10.5284 85.125 10.6591 85.6856 10.6591Z" fill="black"/>
<path d="M32.5024 31.2557C31.5251 31.2519 30.6842 31.0114 29.9797 30.5341C29.2789 30.0568 28.7391 29.3655 28.3603 28.4602C27.9853 27.5549 27.7997 26.4659 27.8035 25.1932C27.8035 23.9242 27.991 22.8428 28.366 21.9489C28.7448 21.0549 29.2846 20.375 29.9853 19.9091C30.6899 19.4394 31.5289 19.2045 32.5024 19.2045C33.4759 19.2045 34.313 19.4394 35.0137 19.9091C35.7183 20.3788 36.26 21.0606 36.6387 21.9545C37.0175 22.8447 37.205 23.9242 37.2012 25.1932C37.2012 26.4697 37.0119 27.5606 36.6331 28.4659C36.2581 29.3712 35.7202 30.0625 35.0194 30.5398C34.3187 31.017 33.4797 31.2557 32.5024 31.2557ZM32.5024 29.2159C33.1691 29.2159 33.7012 28.8807 34.099 28.2102C34.4967 27.5398 34.6937 26.5341 34.6899 25.1932C34.6899 24.3106 34.599 23.5758 34.4172 22.9886C34.2391 22.4015 33.9853 21.9602 33.6558 21.6648C33.33 21.3693 32.9456 21.2216 32.5024 21.2216C31.8395 21.2216 31.3092 21.553 30.9115 22.2159C30.5137 22.8788 30.313 23.8712 30.3092 25.1932C30.3092 26.0871 30.3982 26.8333 30.5762 27.4318C30.7581 28.0265 31.0137 28.4735 31.3433 28.7727C31.6728 29.0682 32.0592 29.2159 32.5024 29.2159Z" fill="black"/>
<path d="M39.9243 31.1477C39.5493 31.1477 39.2273 31.0152 38.9583 30.75C38.6932 30.4811 38.5606 30.1591 38.5606 29.7841C38.5606 29.4129 38.6932 29.0947 38.9583 28.8295C39.2273 28.5644 39.5493 28.4318 39.9243 28.4318C40.2879 28.4318 40.6061 28.5644 40.8788 28.8295C41.1515 29.0947 41.2879 29.4129 41.2879 29.7841C41.2879 30.0341 41.2235 30.2633 41.0947 30.4716C40.9697 30.6761 40.8049 30.8409 40.6004 30.9659C40.3959 31.0871 40.1705 31.1477 39.9243 31.1477Z" fill="black"/>
<path d="M47.4086 31.1591C46.6056 31.1591 45.8897 31.0114 45.2609 30.7159C44.6359 30.4205 44.1397 30.0133 43.7723 29.4943C43.4048 28.9754 43.2136 28.3807 43.1984 27.7102H45.5848C45.6113 28.161 45.8007 28.5265 46.153 28.8068C46.5052 29.0871 46.9238 29.2273 47.4086 29.2273C47.795 29.2273 48.1359 29.142 48.4314 28.9716C48.7306 28.7973 48.9636 28.5568 49.1302 28.25C49.3007 27.9394 49.3859 27.5833 49.3859 27.1818C49.3859 26.7727 49.2988 26.4129 49.1245 26.1023C48.9541 25.7917 48.7173 25.5492 48.4143 25.375C48.1113 25.2008 47.7647 25.1117 47.3745 25.108C47.0336 25.108 46.7022 25.178 46.3802 25.3182C46.062 25.4583 45.8139 25.6496 45.6359 25.892L43.4484 25.5L43.9995 19.3636H51.1132V21.375H46.028L45.7268 24.2898H45.795C45.9995 24.0019 46.3083 23.7633 46.7211 23.5739C47.134 23.3845 47.5961 23.2898 48.1075 23.2898C48.8083 23.2898 49.4333 23.4545 49.9825 23.7841C50.5317 24.1136 50.9655 24.5663 51.2836 25.142C51.6018 25.714 51.759 26.3731 51.7552 27.1193C51.759 27.9034 51.5772 28.6004 51.2098 29.2102C50.8461 29.8163 50.3367 30.2936 49.6814 30.642C49.0298 30.9867 48.2723 31.1591 47.4086 31.1591Z" fill="black"/>
<path d="M57.3802 32.4545V17.9091H58.312V32.4545H57.3802ZM59.8518 22.7102C59.8064 22.2519 59.6113 21.8958 59.2666 21.642C58.9219 21.3883 58.4541 21.2614 57.8632 21.2614C57.4617 21.2614 57.1227 21.3182 56.8461 21.4318C56.5696 21.5417 56.3575 21.6951 56.2098 21.892C56.0658 22.089 55.9939 22.3125 55.9939 22.5625C55.9863 22.7708 56.0298 22.9527 56.1245 23.108C56.223 23.2633 56.3575 23.3977 56.528 23.5114C56.6984 23.6212 56.8954 23.7178 57.1189 23.8011C57.3423 23.8807 57.581 23.9489 57.8348 24.0057L58.8802 24.2557C59.3878 24.3693 59.8537 24.5208 60.278 24.7102C60.7022 24.8996 61.0696 25.1326 61.3802 25.4091C61.6908 25.6856 61.9314 26.0114 62.1018 26.3864C62.2761 26.7614 62.3651 27.1913 62.3689 27.6761C62.3651 28.3883 62.1833 29.0057 61.8234 29.5284C61.4673 30.0473 60.9522 30.4508 60.278 30.7386C59.6075 31.0227 58.7988 31.1648 57.8518 31.1648C56.9124 31.1648 56.0942 31.0208 55.3973 30.733C54.7041 30.4451 54.1624 30.0189 53.7723 29.4545C53.3859 28.8864 53.1833 28.1837 53.1643 27.3466H55.545C55.5715 27.7367 55.6833 28.0625 55.8802 28.3239C56.081 28.5814 56.348 28.7765 56.6814 28.9091C57.0185 29.0379 57.3992 29.1023 57.8234 29.1023C58.2401 29.1023 58.6018 29.0417 58.9086 28.9205C59.2192 28.7992 59.4598 28.6307 59.6302 28.4148C59.8007 28.1989 59.8859 27.9508 59.8859 27.6705C59.8859 27.4091 59.8083 27.1894 59.653 27.0114C59.5014 26.8333 59.278 26.6818 58.9825 26.5568C58.6908 26.4318 58.3329 26.3182 57.9086 26.2159L56.6416 25.8977C55.6605 25.6591 54.8859 25.286 54.3177 24.7784C53.7495 24.2708 53.4673 23.5871 53.4711 22.7273C53.4673 22.0227 53.6548 21.4072 54.0336 20.8807C54.4162 20.3542 54.9408 19.9432 55.6075 19.6477C56.2742 19.3523 57.0317 19.2045 57.8802 19.2045C58.7439 19.2045 59.4976 19.3523 60.1416 19.6477C60.7893 19.9432 61.2931 20.3542 61.653 20.8807C62.0128 21.4072 62.1984 22.017 62.2098 22.7102H59.8518Z" fill="black"/>
</svg>
