<svg width="23" height="26" viewBox="0 0 23 26" fill="none" xmlns="http://www.w3.org/2000/svg">
<path d="M15.4375 11.3861C15.4375 12.4191 15.0226 13.4098 14.2842 14.1403C13.5458 14.8707 12.5443 15.2811 11.5 15.2811C10.4557 15.2811 9.45416 14.8707 8.71574 14.1403C7.97731 13.4098 7.56247 12.4191 7.56247 11.3861C7.56247 10.3531 7.97731 9.36245 8.71574 8.63201C9.45416 7.90157 10.4557 7.49121 11.5 7.49121C12.5443 7.49121 13.5458 7.90157 14.2842 8.63201C15.0226 9.36245 15.4375 10.3531 15.4375 11.3861V11.3861Z" stroke="black" stroke-width="2" stroke-linecap="round" stroke-linejoin="round"/>
<path d="M18.9248 18.7306L13.3559 24.2393C13.1123 24.4805 12.8231 24.6718 12.5048 24.8023C12.1865 24.9328 11.8453 25 11.5007 25C11.1561 25 10.8148 24.9328 10.4965 24.8023C10.1782 24.6718 9.88898 24.4805 9.64544 24.2393L4.07519 18.7306C2.60679 17.278 1.60682 15.4273 1.20172 13.4126C0.796619 11.3978 1.00459 9.30945 1.79932 7.41161C2.59406 5.51376 3.93987 3.89165 5.66657 2.7504C7.39328 1.60914 9.42332 1 11.5 1C13.5767 1 15.6067 1.60914 17.3334 2.7504C19.0601 3.89165 20.4059 5.51376 21.2007 7.41161C21.9954 9.30945 22.2034 11.3978 21.7983 13.4126C21.3932 15.4273 20.3932 17.278 18.9248 18.7306V18.7306Z" stroke="black" stroke-width="2" stroke-linecap="round" stroke-linejoin="round"/>
</svg>
