<svg width="28" height="28" viewBox="0 0 28 28" fill="none" xmlns="http://www.w3.org/2000/svg">
<path fill-rule="evenodd" clip-rule="evenodd" d="M10.4761 0.5C15.8609 0.5 20.2261 4.86522 20.2261 10.25C20.2261 12.665 19.3411 14.885 17.8861 16.595L18.2911 17H19.4761L26.9761 24.5L24.7261 26.75L17.2261 19.25V18.065L16.8211 17.66C15.1111 19.115 12.8911 20 10.4761 20C5.0913 20 0.726074 15.6348 0.726074 10.25C0.726074 4.86522 5.0913 0.5 10.4761 0.5V0.5ZM10.4761 3.5C6.72607 3.5 3.72607 6.5 3.72607 10.25C3.72607 14 6.72607 17 10.4761 17C14.2261 17 17.2261 14 17.2261 10.25C17.2261 6.5 14.2261 3.5 10.4761 3.5Z" fill="#DB5A42"/>
<mask id="mask0_65_2623" style="mask-type:alpha" maskUnits="userSpaceOnUse" x="0" y="0" width="27" height="27">
<path fill-rule="evenodd" clip-rule="evenodd" d="M10.4761 0.5C15.8609 0.5 20.2261 4.86522 20.2261 10.25C20.2261 12.665 19.3411 14.885 17.8861 16.595L18.2911 17H19.4761L26.9761 24.5L24.7261 26.75L17.2261 19.25V18.065L16.8211 17.66C15.1111 19.115 12.8911 20 10.4761 20C5.0913 20 0.726074 15.6348 0.726074 10.25C0.726074 4.86522 5.0913 0.5 10.4761 0.5V0.5ZM10.4761 3.5C6.72607 3.5 3.72607 6.5 3.72607 10.25C3.72607 14 6.72607 17 10.4761 17C14.2261 17 17.2261 14 17.2261 10.25C17.2261 6.5 14.2261 3.5 10.4761 3.5Z" fill="white"/>
</mask>
<g mask="url(#mask0_65_2623)">
</g>
</svg>
