<svg width="48" height="14" viewBox="0 0 48 14" fill="none" xmlns="http://www.w3.org/2000/svg">
<path d="M1.08594 13C1.00781 13 0.942708 12.9531 0.890625 12.8594C0.84375 12.7656 0.820312 12.6797 0.820312 12.6016C0.820312 12.513 0.838542 12.4453 0.875 12.3984C0.911458 12.3516 0.979167 12.3229 1.07812 12.3125C1.45833 12.2865 1.78125 12.237 2.04688 12.1641C2.3125 12.0859 2.44531 11.9688 2.44531 11.8125L2.45312 3.35938C2.45312 3.15104 2.38021 2.99479 2.23438 2.89062C2.08854 2.78646 1.92188 2.71875 1.73438 2.6875C1.54688 2.65104 1.3125 2.6224 1.03125 2.60156C0.916667 2.59115 0.841146 2.57031 0.804688 2.53906C0.768229 2.5026 0.75 2.42708 0.75 2.3125C0.75 2.23438 0.773438 2.14844 0.820312 2.05469C0.872396 1.96094 0.9375 1.91406 1.01562 1.91406L9.01562 1.92188L9.30469 4.64062C9.30469 4.72396 9.26823 4.78906 9.19531 4.83594C9.1276 4.88281 9.05729 4.90625 8.98438 4.90625C8.78125 4.90625 8.66927 4.82031 8.64844 4.64844C8.63281 4.51823 8.54167 4.28906 8.375 3.96094C8.20833 3.63281 8.00521 3.33854 7.76562 3.07812C7.52604 2.81771 7.27865 2.6875 7.02344 2.6875H4.0625V7.21094H6.125C6.25 7.19531 6.36458 7.10156 6.46875 6.92969C6.57812 6.75781 6.66667 6.56771 6.73438 6.35938C6.80729 6.14583 6.85156 5.97396 6.86719 5.84375C6.8776 5.75 6.92188 5.6849 7 5.64844C7.08333 5.60677 7.17448 5.58594 7.27344 5.58594C7.34635 5.58594 7.41667 5.60938 7.48438 5.65625C7.55729 5.70312 7.59375 5.76823 7.59375 5.85156V9.3125C7.59375 9.39583 7.55729 9.46094 7.48438 9.50781C7.41667 9.55469 7.34635 9.57812 7.27344 9.57812C7.17448 9.57812 7.08333 9.5599 7 9.52344C6.92188 9.48177 6.8776 9.41406 6.86719 9.32031C6.85156 9.17969 6.80469 8.99479 6.72656 8.76562C6.65365 8.53646 6.5599 8.33333 6.44531 8.15625C6.33594 7.97396 6.21354 7.88281 6.07812 7.88281H4.0625V11.4609C4.0625 11.763 4.24479 11.9818 4.60938 12.1172C4.97396 12.2474 5.36979 12.3125 5.79688 12.3125C5.89062 12.3125 5.96094 12.3333 6.00781 12.375C6.05469 12.4167 6.07812 12.4922 6.07812 12.6016C6.07812 12.6797 6.05208 12.7656 6 12.8594C5.95312 12.9531 5.89062 13 5.8125 13H1.08594Z" fill="#DB5A42"/>
<path d="M10.1953 9.15625C10.1953 8.40104 10.3464 7.71354 10.6484 7.09375C10.9505 6.47396 11.3854 5.98438 11.9531 5.625C12.5208 5.26042 13.1849 5.07812 13.9453 5.07812C14.7057 5.07812 15.362 5.26042 15.9141 5.625C16.4661 5.98438 16.888 6.47396 17.1797 7.09375C17.4714 7.70833 17.6172 8.39583 17.6172 9.15625C17.6172 9.91146 17.4661 10.599 17.1641 11.2188C16.8672 11.8385 16.4375 12.3281 15.875 12.6875C15.3125 13.0469 14.651 13.2266 13.8906 13.2266C13.1302 13.2266 12.4714 13.0469 11.9141 12.6875C11.3568 12.3281 10.9297 11.8411 10.6328 11.2266C10.3411 10.6068 10.1953 9.91667 10.1953 9.15625ZM11.875 9.15625C11.875 9.89062 11.9375 10.5 12.0625 10.9844C12.1875 11.4688 12.3984 11.8411 12.6953 12.1016C12.9974 12.3568 13.4036 12.4844 13.9141 12.4844C14.4245 12.4844 14.8255 12.3568 15.1172 12.1016C15.4141 11.8411 15.6224 11.4688 15.7422 10.9844C15.862 10.5 15.9219 9.89062 15.9219 9.15625C15.9219 8.04688 15.7682 7.21615 15.4609 6.66406C15.1589 6.10677 14.6328 5.82812 13.8828 5.82812C13.3724 5.82812 12.9688 5.95833 12.6719 6.21875C12.3802 6.47396 12.1745 6.84375 12.0547 7.32812C11.9349 7.8125 11.875 8.42188 11.875 9.15625Z" fill="#DB5A42"/>
<path d="M18.7891 13C18.7057 13 18.6354 12.9688 18.5781 12.9062C18.526 12.8438 18.5 12.7682 18.5 12.6797C18.5 12.5911 18.5182 12.5234 18.5547 12.4766C18.5911 12.4297 18.6589 12.401 18.7578 12.3906C19.0078 12.3646 19.2214 12.3125 19.3984 12.2344C19.5807 12.1562 19.6719 12.0417 19.6719 11.8906L19.6797 2.53906C19.6797 2.29427 19.6302 2.10938 19.5312 1.98438C19.4375 1.85417 19.3229 1.76823 19.1875 1.72656C19.0573 1.67969 18.8906 1.64062 18.6875 1.60938C18.6615 1.60417 18.6198 1.59896 18.5625 1.59375C18.5052 1.58333 18.4583 1.57292 18.4219 1.5625C18.3594 1.53646 18.3125 1.5 18.2812 1.45312C18.25 1.40625 18.2344 1.33854 18.2344 1.25C18.2344 1.17708 18.25 1.10417 18.2812 1.03125C18.3177 0.953125 18.3646 0.911458 18.4219 0.90625C19.0625 0.869792 19.8151 0.84375 20.6797 0.828125H20.8828C20.9349 0.828125 20.9844 0.851562 21.0312 0.898438C21.0781 0.945312 21.1068 1.02604 21.1172 1.14062V11.6328C21.1172 11.8411 21.1641 11.9974 21.2578 12.1016C21.3568 12.2057 21.4688 12.276 21.5938 12.3125C21.724 12.3438 21.8828 12.3698 22.0703 12.3906C22.1797 12.401 22.2526 12.4271 22.2891 12.4688C22.3307 12.5052 22.3516 12.5677 22.3516 12.6562C22.3516 12.7552 22.3229 12.8385 22.2656 12.9062C22.2135 12.9688 22.1406 13 22.0469 13H18.7891Z" fill="#DB5A42"/>
<path d="M23.3672 13C23.2839 13 23.2135 12.9688 23.1562 12.9062C23.1042 12.8438 23.0781 12.7682 23.0781 12.6797C23.0781 12.5911 23.0964 12.5234 23.1328 12.4766C23.1693 12.4297 23.237 12.401 23.3359 12.3906C23.5859 12.3646 23.7995 12.3125 23.9766 12.2344C24.1589 12.1562 24.25 12.0417 24.25 11.8906L24.2578 2.53906C24.2578 2.29427 24.2083 2.10938 24.1094 1.98438C24.0156 1.85417 23.901 1.76823 23.7656 1.72656C23.6354 1.67969 23.4688 1.64062 23.2656 1.60938C23.2396 1.60417 23.1979 1.59896 23.1406 1.59375C23.0833 1.58333 23.0365 1.57292 23 1.5625C22.9375 1.53646 22.8906 1.5 22.8594 1.45312C22.8281 1.40625 22.8125 1.33854 22.8125 1.25C22.8125 1.17708 22.8281 1.10417 22.8594 1.03125C22.8958 0.953125 22.9427 0.911458 23 0.90625C23.6406 0.869792 24.3932 0.84375 25.2578 0.828125H25.4609C25.513 0.828125 25.5625 0.851562 25.6094 0.898438C25.6562 0.945312 25.6849 1.02604 25.6953 1.14062V11.6328C25.6953 11.8411 25.7422 11.9974 25.8359 12.1016C25.9349 12.2057 26.0469 12.276 26.1719 12.3125C26.3021 12.3438 26.4609 12.3698 26.6484 12.3906C26.7578 12.401 26.8307 12.4271 26.8672 12.4688C26.9089 12.5052 26.9297 12.5677 26.9297 12.6562C26.9297 12.7552 26.901 12.8385 26.8438 12.9062C26.7917 12.9688 26.7188 13 26.625 13H23.3672Z" fill="#DB5A42"/>
<path d="M27.9766 9.15625C27.9766 8.40104 28.1276 7.71354 28.4297 7.09375C28.7318 6.47396 29.1667 5.98438 29.7344 5.625C30.3021 5.26042 30.9661 5.07812 31.7266 5.07812C32.487 5.07812 33.1432 5.26042 33.6953 5.625C34.2474 5.98438 34.6693 6.47396 34.9609 7.09375C35.2526 7.70833 35.3984 8.39583 35.3984 9.15625C35.3984 9.91146 35.2474 10.599 34.9453 11.2188C34.6484 11.8385 34.2188 12.3281 33.6562 12.6875C33.0938 13.0469 32.4323 13.2266 31.6719 13.2266C30.9115 13.2266 30.2526 13.0469 29.6953 12.6875C29.138 12.3281 28.7109 11.8411 28.4141 11.2266C28.1224 10.6068 27.9766 9.91667 27.9766 9.15625ZM29.6562 9.15625C29.6562 9.89062 29.7188 10.5 29.8438 10.9844C29.9688 11.4688 30.1797 11.8411 30.4766 12.1016C30.7786 12.3568 31.1849 12.4844 31.6953 12.4844C32.2057 12.4844 32.6068 12.3568 32.8984 12.1016C33.1953 11.8411 33.4036 11.4688 33.5234 10.9844C33.6432 10.5 33.7031 9.89062 33.7031 9.15625C33.7031 8.04688 33.5495 7.21615 33.2422 6.66406C32.9401 6.10677 32.4141 5.82812 31.6641 5.82812C31.1536 5.82812 30.75 5.95833 30.4531 6.21875C30.1615 6.47396 29.9557 6.84375 29.8359 7.32812C29.7161 7.8125 29.6562 8.42188 29.6562 9.15625Z" fill="#DB5A42"/>
<path d="M36.8438 6.52344C36.6979 6.27865 36.5521 6.10938 36.4062 6.01562C36.2656 5.92188 36.0938 5.86458 35.8906 5.84375C35.776 5.83333 35.7005 5.8125 35.6641 5.78125C35.6276 5.74479 35.6094 5.66927 35.6094 5.55469C35.6094 5.48698 35.6354 5.41667 35.6875 5.34375C35.7344 5.27083 35.7969 5.23438 35.875 5.23438H39.0391C39.1224 5.23438 39.1875 5.27083 39.2344 5.34375C39.2812 5.41146 39.3047 5.48177 39.3047 5.55469C39.3047 5.64323 39.2865 5.71094 39.25 5.75781C39.2135 5.80469 39.1458 5.83333 39.0469 5.84375C38.849 5.86979 38.7005 5.89323 38.6016 5.91406C38.5026 5.92969 38.4141 5.96615 38.3359 6.02344C38.2578 6.08073 38.2188 6.16146 38.2188 6.26562L39.8984 10.8516L41.6953 5.375H42.4453L44.4375 10.8281L46.0078 6.26562C46.0078 6.16146 45.9557 6.08073 45.8516 6.02344C45.7526 5.96615 45.6536 5.92969 45.5547 5.91406C45.4557 5.89844 45.2786 5.875 45.0234 5.84375C44.9245 5.83333 44.8568 5.80469 44.8203 5.75781C44.7839 5.71094 44.7656 5.64323 44.7656 5.55469C44.7656 5.48177 44.7891 5.41146 44.8359 5.34375C44.8828 5.27083 44.9479 5.23438 45.0312 5.23438H47.5703C47.6484 5.23438 47.7109 5.27083 47.7578 5.34375C47.8099 5.41667 47.8359 5.48698 47.8359 5.55469C47.8359 5.66927 47.8177 5.74479 47.7812 5.78125C47.7448 5.8125 47.6693 5.83333 47.5547 5.84375C47.362 5.86458 47.2057 5.91927 47.0859 6.00781C46.9714 6.09635 46.8359 6.26823 46.6797 6.52344L44.3594 13.0703H43.7812L41.7109 7.44531L39.8125 13.0703H39.2344L36.8438 6.52344Z" fill="#DB5A42"/>
</svg>
