<svg width="33" height="13" viewBox="0 0 33 13" fill="none" xmlns="http://www.w3.org/2000/svg">
<path d="M4.89062 12.2344C4.43229 12.2344 4.05469 12.1875 3.75781 12.0938C3.46615 12 3.18229 11.8776 2.90625 11.7266C2.875 11.7057 2.82812 11.6797 2.76562 11.6484L2.53906 11.5234C2.4349 11.4609 2.35417 11.4193 2.29688 11.3984C2.24479 11.3724 2.1901 11.3594 2.13281 11.3594C2.04427 11.3594 1.96354 11.4036 1.89062 11.4922C1.80208 11.6016 1.70833 11.6823 1.60938 11.7344C1.51042 11.7865 1.41927 11.8125 1.33594 11.8125C1.23698 11.8125 1.15625 11.7786 1.09375 11.7109C1.03125 11.638 1.00521 11.5469 1.01562 11.4375C1.02604 11.2969 1.03125 11.0807 1.03125 10.7891C1.03125 10.5234 1.01823 10.2422 0.992188 9.94531C0.971354 9.64844 0.947917 9.3776 0.921875 9.13281C0.880208 8.70573 0.859375 8.4401 0.859375 8.33594C0.859375 8.20573 0.895833 8.10677 0.96875 8.03906C1.04688 7.97135 1.13802 7.9375 1.24219 7.9375C1.34115 7.9375 1.42708 7.96615 1.5 8.02344C1.57812 8.08073 1.63021 8.16146 1.65625 8.26562C1.70312 8.46875 1.76562 8.6875 1.84375 8.92188C1.92708 9.15625 2.0599 9.46875 2.24219 9.85938C2.41927 10.2344 2.64844 10.5495 2.92969 10.8047C3.21615 11.0547 3.51823 11.2396 3.83594 11.3594C4.15885 11.4792 4.46615 11.5391 4.75781 11.5391C5.32031 11.5391 5.78646 11.401 6.15625 11.125C6.52604 10.849 6.71094 10.362 6.71094 9.66406C6.71094 9.14323 6.48958 8.6849 6.04688 8.28906C5.60417 7.88802 5.0026 7.49479 4.24219 7.10938C3.6224 6.79167 3.10417 6.48698 2.6875 6.19531C2.27604 5.90365 1.92969 5.54167 1.64844 5.10938C1.3724 4.67188 1.23438 4.15365 1.23438 3.55469C1.23438 2.90365 1.39583 2.36198 1.71875 1.92969C2.04688 1.4974 2.45833 1.18229 2.95312 0.984375C3.44792 0.78125 3.95312 0.679688 4.46875 0.679688C4.85417 0.679688 5.17969 0.710938 5.44531 0.773438C5.71615 0.830729 5.98177 0.90625 6.24219 1C6.39844 1.05208 6.4974 1.07812 6.53906 1.07812C6.6224 1.07812 6.6849 1.06771 6.72656 1.04688C6.77344 1.02604 6.81771 0.997396 6.85938 0.960938C6.90625 0.924479 6.94792 0.893229 6.98438 0.867188C7.04167 0.830729 7.11198 0.8125 7.19531 0.8125C7.29948 0.8125 7.39583 0.84375 7.48438 0.90625C7.57812 0.963542 7.625 1.03125 7.625 1.10938C7.625 1.34375 7.63542 1.57292 7.65625 1.79688C7.67708 2.01562 7.70573 2.28385 7.74219 2.60156C7.79948 3.02865 7.82812 3.33854 7.82812 3.53125C7.82812 3.68229 7.78906 3.79427 7.71094 3.86719C7.63281 3.9349 7.53646 3.96875 7.42188 3.96875C7.34375 3.96875 7.26823 3.95052 7.19531 3.91406C7.1224 3.8776 7.08333 3.83594 7.07812 3.78906C6.98438 3.2474 6.8151 2.78906 6.57031 2.41406C6.33073 2.03906 6.03906 1.76042 5.69531 1.57812C5.35677 1.39062 4.99219 1.29688 4.60156 1.29688C3.36198 1.29688 2.74219 1.92448 2.74219 3.17969C2.74219 3.49219 2.85417 3.78906 3.07812 4.07031C3.30729 4.34635 3.58594 4.59896 3.91406 4.82812C4.24219 5.05208 4.67188 5.32031 5.20312 5.63281C5.24479 5.65885 5.28385 5.6849 5.32031 5.71094C5.36198 5.73177 5.39844 5.75 5.42969 5.76562C6.02865 6.11458 6.52083 6.42969 6.90625 6.71094C7.29167 6.98698 7.6224 7.32552 7.89844 7.72656C8.17969 8.1276 8.32031 8.58594 8.32031 9.10156C8.32031 9.76302 8.16927 10.3307 7.86719 10.8047C7.5651 11.2734 7.15365 11.6302 6.63281 11.875C6.11719 12.1146 5.53646 12.2344 4.89062 12.2344Z" fill="#DB5A42"/>
<path d="M9.74219 10.1016C9.74219 9.45573 9.96094 8.94271 10.3984 8.5625C10.8359 8.17708 11.3802 7.89583 12.0312 7.71875C12.6875 7.54167 13.4427 7.40885 14.2969 7.32031V6.11719C14.2969 5.89844 14.2448 5.6901 14.1406 5.49219C14.0417 5.28906 13.8698 5.11979 13.625 4.98438C13.3854 4.84896 13.0729 4.78125 12.6875 4.78125C12.4896 4.78125 12.3333 4.79427 12.2188 4.82031C12.1094 4.84115 12.0104 4.8724 11.9219 4.91406L10.9844 6.80469C10.6719 6.80469 10.4271 6.73438 10.25 6.59375C10.0781 6.45312 9.99219 6.22135 9.99219 5.89844C9.99219 5.58594 10.1224 5.29167 10.3828 5.01562C10.6432 4.73438 11.0052 4.50781 11.4688 4.33594C11.9323 4.16406 12.4531 4.07812 13.0312 4.07812C13.7656 4.07812 14.3333 4.19792 14.7344 4.4375C15.1406 4.67188 15.4141 4.97396 15.5547 5.34375C15.7005 5.71354 15.7734 6.13802 15.7734 6.61719V10.4297C15.7734 10.6432 15.8021 10.8359 15.8594 11.0078C15.9167 11.1797 15.987 11.2656 16.0703 11.2656C16.1484 11.2656 16.2135 11.263 16.2656 11.2578C16.3229 11.2474 16.3958 11.2292 16.4844 11.2031C16.5677 11.1771 16.6406 11.2057 16.7031 11.2891C16.7656 11.3672 16.7969 11.4505 16.7969 11.5391C16.7969 11.5964 16.7812 11.638 16.75 11.6641C16.5885 11.7839 16.3802 11.8958 16.125 12C15.8698 12.099 15.6302 12.1484 15.4062 12.1484C15.1875 12.1484 15.0182 12.138 14.8984 12.1172C14.7839 12.0964 14.6771 12.0182 14.5781 11.8828C14.4844 11.7474 14.4375 11.5286 14.4375 11.2266V11.1484C14.0938 11.5078 13.7266 11.7682 13.3359 11.9297C12.9453 12.0859 12.4766 12.1641 11.9297 12.1641C11.5859 12.1641 11.2448 12.0938 10.9062 11.9531C10.5729 11.8073 10.2943 11.5807 10.0703 11.2734C9.85156 10.9609 9.74219 10.5703 9.74219 10.1016ZM11.375 10.0625C11.375 10.2812 11.4193 10.487 11.5078 10.6797C11.6016 10.8672 11.7318 11.0182 11.8984 11.1328C12.0703 11.2422 12.2682 11.2969 12.4922 11.2969C12.8828 11.2969 13.2344 11.2318 13.5469 11.1016C13.8594 10.9661 14.1068 10.8073 14.2891 10.625V7.875C13.6068 7.97396 13.0651 8.09115 12.6641 8.22656C12.2682 8.35677 11.9531 8.56771 11.7188 8.85938C11.4896 9.14583 11.375 9.54688 11.375 10.0625Z" fill="#DB5A42"/>
<path d="M18.0156 5.52344C17.8698 5.27865 17.724 5.10938 17.5781 5.01562C17.4375 4.92188 17.2656 4.86458 17.0625 4.84375C16.9479 4.83333 16.8724 4.8125 16.8359 4.78125C16.7995 4.74479 16.7812 4.66927 16.7812 4.55469C16.7812 4.48698 16.8073 4.41667 16.8594 4.34375C16.9062 4.27083 16.9688 4.23438 17.0469 4.23438H20.2109C20.2943 4.23438 20.3594 4.27083 20.4062 4.34375C20.4531 4.41146 20.4766 4.48177 20.4766 4.55469C20.4766 4.64323 20.4583 4.71094 20.4219 4.75781C20.3854 4.80469 20.3177 4.83333 20.2188 4.84375C20.0208 4.86979 19.8724 4.89323 19.7734 4.91406C19.6745 4.92969 19.5859 4.96615 19.5078 5.02344C19.4297 5.08073 19.3906 5.16146 19.3906 5.26562L21.4609 10.0469L23.3594 5.26562C23.3594 5.16146 23.3073 5.08073 23.2031 5.02344C23.1042 4.96615 23.0052 4.92969 22.9062 4.91406C22.8073 4.89844 22.6302 4.875 22.375 4.84375C22.276 4.83333 22.2083 4.80469 22.1719 4.75781C22.1354 4.71094 22.1172 4.64323 22.1172 4.55469C22.1172 4.48177 22.1406 4.41146 22.1875 4.34375C22.2344 4.27083 22.2995 4.23438 22.3828 4.23438H25C25.0781 4.23438 25.1406 4.27083 25.1875 4.34375C25.2396 4.41667 25.2656 4.48698 25.2656 4.55469C25.2656 4.66927 25.2474 4.74479 25.2109 4.78125C25.1745 4.8125 25.099 4.83333 24.9844 4.84375C24.7812 4.86458 24.6068 4.92188 24.4609 5.01562C24.3203 5.10938 24.1771 5.27865 24.0312 5.52344L21.3203 12.0703H20.7422L18.0156 5.52344Z" fill="#DB5A42"/>
<path d="M29.1562 12.2266C27.974 12.2266 27.0755 11.8672 26.4609 11.1484C25.8464 10.4297 25.5391 9.41146 25.5391 8.09375C25.5391 7.25521 25.6979 6.53385 26.0156 5.92969C26.3385 5.32031 26.7682 4.85938 27.3047 4.54688C27.8411 4.23438 28.4271 4.07812 29.0625 4.07812C29.9948 4.07812 30.6979 4.3125 31.1719 4.78125C31.6458 5.24479 31.9583 5.90885 32.1094 6.77344C32.1719 7.1276 32.2031 7.5599 32.2031 8.07031H27.2188C27.224 8.85156 27.3281 9.49219 27.5312 9.99219C27.7344 10.4922 27.9974 10.8542 28.3203 11.0781C28.6432 11.3021 28.9896 11.4141 29.3594 11.4141C29.7604 11.4141 30.1224 11.3229 30.4453 11.1406C30.7734 10.9583 31.0208 10.7031 31.1875 10.375C31.1927 10.3646 31.2005 10.3464 31.2109 10.3203C31.2266 10.2891 31.2422 10.2682 31.2578 10.2578C31.2786 10.2474 31.3047 10.2448 31.3359 10.25L31.7266 10.4297C31.7839 10.4505 31.8125 10.4818 31.8125 10.5234C31.8125 10.5443 31.7969 10.5859 31.7656 10.6484C31.5208 11.138 31.1823 11.5234 30.75 11.8047C30.3229 12.0859 29.7917 12.2266 29.1562 12.2266ZM30.4688 7.35156C30.4688 6.49219 30.3385 5.85677 30.0781 5.44531C29.8229 5.03385 29.4818 4.82812 29.0547 4.82812C28.6432 4.82812 28.3151 4.89323 28.0703 5.02344C27.8255 5.14844 27.6302 5.39583 27.4844 5.76562C27.3438 6.13542 27.2604 6.67969 27.2344 7.39844L30.4688 7.35156Z" fill="#DB5A42"/>
</svg>
