<svg width="430" height="24" viewBox="0 0 430 24" fill="none" xmlns="http://www.w3.org/2000/svg">
<path d="M0.503906 18.2578C0.386719 18.2578 0.289062 18.1875 0.210938 18.0469C0.140625 17.9062 0.105469 17.7773 0.105469 17.6602C0.105469 17.5273 0.132812 17.4258 0.1875 17.3555C0.242188 17.2852 0.34375 17.2422 0.492188 17.2266C0.960938 17.1875 1.35938 17.1133 1.6875 17.0039C2.02344 16.8867 2.19141 16.7109 2.19141 16.4766L2.20312 3.79688C2.20312 3.49219 2.11328 3.26172 1.93359 3.10547C1.75391 2.94922 1.55469 2.84766 1.33594 2.80078C1.125 2.75391 0.820312 2.70703 0.421875 2.66016C0.25 2.64453 0.136719 2.61328 0.0820312 2.56641C0.0273438 2.51172 0 2.39844 0 2.22656C0 2.10938 0.0351562 1.98047 0.105469 1.83984C0.183594 1.69922 0.28125 1.62891 0.398438 1.62891H3.01172C3.51172 1.62891 4.18359 1.60547 5.02734 1.55859C5.88672 1.51172 6.58984 1.48828 7.13672 1.48828C8.12109 1.48828 9.03125 1.65625 9.86719 1.99219C10.7109 2.32031 11.3945 2.85547 11.918 3.59766C12.4414 4.33203 12.7031 5.27344 12.7031 6.42188C12.7031 7.45312 12.4453 8.375 11.9297 9.1875C11.4141 9.99219 10.6953 10.6211 9.77344 11.0742C8.85156 11.5273 7.8125 11.7539 6.65625 11.7539H4.61719V16.0898C4.61719 16.3945 4.73828 16.6289 4.98047 16.793C5.23047 16.9492 5.51172 17.0547 5.82422 17.1094C6.13672 17.1562 6.52344 17.1953 6.98438 17.2266C7.15625 17.2422 7.26953 17.2773 7.32422 17.332C7.37891 17.3789 7.40625 17.4883 7.40625 17.6602C7.40625 17.7773 7.36719 17.9062 7.28906 18.0469C7.21875 18.1875 7.125 18.2578 7.00781 18.2578H0.503906ZM6.62109 10.7461C6.99609 10.7461 7.45312 10.6133 7.99219 10.3477C8.53125 10.0742 9.00391 9.63281 9.41016 9.02344C9.82422 8.40625 10.0312 7.62109 10.0312 6.66797C10.0312 5.18359 9.66797 4.125 8.94141 3.49219C8.22266 2.85156 7.32031 2.53125 6.23438 2.53125H4.62891L4.61719 10.7461H6.62109Z" fill="#C5BEBE"/>
<path d="M14.918 18.2578C14.793 18.2578 14.6953 18.207 14.625 18.1055C14.5547 17.9961 14.5195 17.8867 14.5195 17.7773C14.5195 17.6445 14.5469 17.543 14.6016 17.4727C14.6562 17.4023 14.7578 17.3594 14.9062 17.3438C15.8125 17.2578 16.2656 17.0078 16.2656 16.5938V9.14062C16.2656 8.77344 16.1992 8.49219 16.0664 8.29688C15.9336 8.10156 15.7773 7.97266 15.5977 7.91016C15.418 7.84766 15.1836 7.79297 14.8945 7.74609C14.8555 7.73828 14.7969 7.73047 14.7188 7.72266C14.6406 7.70703 14.5742 7.69141 14.5195 7.67578C14.4258 7.63672 14.3555 7.58203 14.3086 7.51172C14.2617 7.44141 14.2383 7.33984 14.2383 7.20703C14.2383 7.09766 14.2656 6.98828 14.3203 6.87891C14.375 6.76172 14.4414 6.69922 14.5195 6.69141C15.4023 6.63672 16.5547 6.59766 17.9766 6.57422C18.0547 6.57422 18.1289 6.60938 18.1992 6.67969C18.2695 6.75 18.3125 6.87109 18.3281 7.04297V8.67188C18.7891 7.95312 19.2461 7.39062 19.6992 6.98438C20.1523 6.57812 20.6953 6.375 21.3281 6.375C22.0078 6.375 22.4688 6.52734 22.7109 6.83203C22.9609 7.13672 23.0859 7.53516 23.0859 8.02734C23.0859 8.30078 23 8.53516 22.8281 8.73047C22.6562 8.92578 22.4492 9.07422 22.207 9.17578C21.9727 9.27734 21.7656 9.32812 21.5859 9.32812L20.4727 7.92188C20.2461 7.92188 20 8.01172 19.7344 8.19141C19.4688 8.37109 19.2188 8.60938 18.9844 8.90625C18.7578 9.20312 18.5781 9.52344 18.4453 9.86719V16.207C18.4453 16.5195 18.5469 16.7539 18.75 16.9102C18.9609 17.0664 19.1992 17.1719 19.4648 17.2266C19.7305 17.2734 20.0625 17.3125 20.4609 17.3438C20.6328 17.3594 20.7461 17.3945 20.8008 17.4492C20.8555 17.4961 20.8828 17.6055 20.8828 17.7773C20.8828 17.8867 20.8477 17.9961 20.7773 18.1055C20.707 18.207 20.6094 18.2578 20.4844 18.2578H14.918Z" fill="#C5BEBE"/>
<path d="M29.6016 18.5977C27.8281 18.5977 26.4805 18.0586 25.5586 16.9805C24.6367 15.9023 24.1758 14.375 24.1758 12.3984C24.1758 11.1406 24.4141 10.0586 24.8906 9.15234C25.375 8.23828 26.0195 7.54688 26.8242 7.07812C27.6289 6.60938 28.5078 6.375 29.4609 6.375C30.8594 6.375 31.9141 6.72656 32.625 7.42969C33.3359 8.125 33.8047 9.12109 34.0312 10.418C34.125 10.9492 34.1719 11.5977 34.1719 12.3633H26.6953C26.7031 13.5352 26.8594 14.4961 27.1641 15.2461C27.4688 15.9961 27.8633 16.5391 28.3477 16.875C28.832 17.2109 29.3516 17.3789 29.9062 17.3789C30.5078 17.3789 31.0508 17.2422 31.5352 16.9688C32.0273 16.6953 32.3984 16.3125 32.6484 15.8203C32.6562 15.8047 32.668 15.7773 32.6836 15.7383C32.707 15.6914 32.7305 15.6602 32.7539 15.6445C32.7852 15.6289 32.8242 15.625 32.8711 15.6328L33.457 15.9023C33.543 15.9336 33.5859 15.9805 33.5859 16.043C33.5859 16.0742 33.5625 16.1367 33.5156 16.2305C33.1484 16.9648 32.6406 17.543 31.9922 17.9648C31.3516 18.3867 30.5547 18.5977 29.6016 18.5977ZM31.5703 11.2852C31.5703 9.99609 31.375 9.04297 30.9844 8.42578C30.6016 7.80859 30.0898 7.5 29.4492 7.5C28.832 7.5 28.3398 7.59766 27.9727 7.79297C27.6055 7.98047 27.3125 8.35156 27.0938 8.90625C26.8828 9.46094 26.7578 10.2773 26.7188 11.3555L31.5703 11.2852Z" fill="#C5BEBE"/>
<path d="M35.6719 23.25C35.5547 23.25 35.457 23.1953 35.3789 23.0859C35.3086 22.9766 35.2734 22.8711 35.2734 22.7695C35.2734 22.5977 35.3008 22.4844 35.3555 22.4297C35.4102 22.3828 35.5234 22.3516 35.6953 22.3359C35.9766 22.3047 36.2109 22.2617 36.3984 22.207C36.5938 22.1602 36.7617 22.0586 36.9023 21.9023C37.0508 21.7461 37.125 21.5117 37.125 21.1992V9.14062C37.125 8.77344 37.0586 8.49609 36.9258 8.30859C36.793 8.11328 36.6328 7.98438 36.4453 7.92188C36.2656 7.85156 36.0352 7.79297 35.7539 7.74609C35.5352 7.70703 35.4102 7.68359 35.3789 7.67578C35.2852 7.63672 35.2148 7.58203 35.168 7.51172C35.1211 7.44141 35.0977 7.33984 35.0977 7.20703C35.0977 7.09766 35.1211 6.98828 35.168 6.87891C35.2227 6.76172 35.293 6.69922 35.3789 6.69141C36.6367 6.61328 37.8281 6.57422 38.9531 6.57422C39.0312 6.57422 39.1055 6.60938 39.1758 6.67969C39.2461 6.75 39.2891 6.87109 39.3047 7.04297V7.78125C39.7188 7.35938 40.2227 7.01953 40.8164 6.76172C41.418 6.50391 41.9961 6.375 42.5508 6.375C43.7227 6.375 44.6836 6.65625 45.4336 7.21875C46.1914 7.77344 46.7422 8.51172 47.0859 9.43359C47.4297 10.3555 47.6016 11.375 47.6016 12.4922C47.6016 13.5938 47.4102 14.6094 47.0273 15.5391C46.6445 16.4609 46.0547 17.2031 45.2578 17.7656C44.4609 18.3281 43.4727 18.6094 42.293 18.6094C40.8633 18.6094 39.8281 18.3242 39.1875 17.7539L39.3047 18.5977V21.5859C39.3047 21.8203 39.5039 21.9922 39.9023 22.1016C40.3008 22.2188 40.7891 22.2969 41.3672 22.3359C41.5156 22.3516 41.6172 22.3945 41.6719 22.4648C41.7266 22.5352 41.7539 22.6367 41.7539 22.7695C41.7539 22.8789 41.7188 22.9844 41.6484 23.0859C41.5781 23.1953 41.4805 23.25 41.3555 23.25H35.6719ZM41.8594 17.4961C43.0703 17.4961 43.9102 17.0586 44.3789 16.1836C44.8555 15.3008 45.0938 14.0703 45.0938 12.4922C45.0938 10.9219 44.8516 9.69922 44.3672 8.82422C43.8828 7.94141 43.0312 7.5 41.8125 7.5C41.3906 7.5 40.9375 7.61719 40.4531 7.85156C39.9688 8.07812 39.5859 8.35547 39.3047 8.68359V16.4062C39.7656 17.1328 40.6172 17.4961 41.8594 17.4961Z" fill="#C5BEBE"/>
<path d="M49.8164 15.4102C49.8164 14.4414 50.1445 13.6719 50.8008 13.1016C51.457 12.5234 52.2734 12.1016 53.25 11.8359C54.2344 11.5703 55.3672 11.3711 56.6484 11.2383V9.43359C56.6484 9.10547 56.5703 8.79297 56.4141 8.49609C56.2656 8.19141 56.0078 7.9375 55.6406 7.73438C55.2812 7.53125 54.8125 7.42969 54.2344 7.42969C53.9375 7.42969 53.7031 7.44922 53.5312 7.48828C53.3672 7.51953 53.2188 7.56641 53.0859 7.62891L51.6797 10.4648C51.2109 10.4648 50.8438 10.3594 50.5781 10.1484C50.3203 9.9375 50.1914 9.58984 50.1914 9.10547C50.1914 8.63672 50.3867 8.19531 50.7773 7.78125C51.168 7.35938 51.7109 7.01953 52.4062 6.76172C53.1016 6.50391 53.8828 6.375 54.75 6.375C55.8516 6.375 56.7031 6.55469 57.3047 6.91406C57.9141 7.26562 58.3242 7.71875 58.5352 8.27344C58.7539 8.82812 58.8633 9.46484 58.8633 10.1836V15.9023C58.8633 16.2227 58.9062 16.5117 58.9922 16.7695C59.0781 17.0273 59.1836 17.1562 59.3086 17.1562C59.4258 17.1562 59.5234 17.1523 59.6016 17.1445C59.6875 17.1289 59.7969 17.1016 59.9297 17.0625C60.0547 17.0234 60.1641 17.0664 60.2578 17.1914C60.3516 17.3086 60.3984 17.4336 60.3984 17.5664C60.3984 17.6523 60.375 17.7148 60.3281 17.7539C60.0859 17.9336 59.7734 18.1016 59.3906 18.2578C59.0078 18.4062 58.6484 18.4805 58.3125 18.4805C57.9844 18.4805 57.7305 18.4648 57.5508 18.4336C57.3789 18.4023 57.2188 18.2852 57.0703 18.082C56.9297 17.8789 56.8594 17.5508 56.8594 17.0977V16.9805C56.3438 17.5195 55.793 17.9102 55.207 18.1523C54.6211 18.3867 53.918 18.5039 53.0977 18.5039C52.582 18.5039 52.0703 18.3984 51.5625 18.1875C51.0625 17.9688 50.6445 17.6289 50.3086 17.168C49.9805 16.6992 49.8164 16.1133 49.8164 15.4102ZM52.2656 15.3516C52.2656 15.6797 52.332 15.9883 52.4648 16.2773C52.6055 16.5586 52.8008 16.7852 53.0508 16.957C53.3086 17.1211 53.6055 17.2031 53.9414 17.2031C54.5273 17.2031 55.0547 17.1055 55.5234 16.9102C55.9922 16.707 56.3633 16.4688 56.6367 16.1953V12.0703C55.6133 12.2188 54.8008 12.3945 54.1992 12.5977C53.6055 12.793 53.1328 13.1094 52.7812 13.5469C52.4375 13.9766 52.2656 14.5781 52.2656 15.3516Z" fill="#C5BEBE"/>
<path d="M62.168 18.2578C62.043 18.2578 61.9453 18.207 61.875 18.1055C61.8047 17.9961 61.7695 17.8867 61.7695 17.7773C61.7695 17.6445 61.7969 17.543 61.8516 17.4727C61.9062 17.4023 62.0078 17.3594 62.1562 17.3438C63.0625 17.2578 63.5156 17.0078 63.5156 16.5938V9.14062C63.5156 8.77344 63.4492 8.49219 63.3164 8.29688C63.1836 8.10156 63.0273 7.97266 62.8477 7.91016C62.668 7.84766 62.4336 7.79297 62.1445 7.74609C62.1055 7.73828 62.0469 7.73047 61.9688 7.72266C61.8906 7.70703 61.8242 7.69141 61.7695 7.67578C61.6758 7.63672 61.6055 7.58203 61.5586 7.51172C61.5117 7.44141 61.4883 7.33984 61.4883 7.20703C61.4883 7.09766 61.5156 6.98828 61.5703 6.87891C61.625 6.76172 61.6914 6.69922 61.7695 6.69141C62.6523 6.63672 63.8047 6.59766 65.2266 6.57422C65.3047 6.57422 65.3789 6.60938 65.4492 6.67969C65.5195 6.75 65.5625 6.87109 65.5781 7.04297V8.67188C66.0391 7.95312 66.4961 7.39062 66.9492 6.98438C67.4023 6.57812 67.9453 6.375 68.5781 6.375C69.2578 6.375 69.7188 6.52734 69.9609 6.83203C70.2109 7.13672 70.3359 7.53516 70.3359 8.02734C70.3359 8.30078 70.25 8.53516 70.0781 8.73047C69.9062 8.92578 69.6992 9.07422 69.457 9.17578C69.2227 9.27734 69.0156 9.32812 68.8359 9.32812L67.7227 7.92188C67.4961 7.92188 67.25 8.01172 66.9844 8.19141C66.7188 8.37109 66.4688 8.60938 66.2344 8.90625C66.0078 9.20312 65.8281 9.52344 65.6953 9.86719V16.207C65.6953 16.5195 65.7969 16.7539 66 16.9102C66.2109 17.0664 66.4492 17.1719 66.7148 17.2266C66.9805 17.2734 67.3125 17.3125 67.7109 17.3438C67.8828 17.3594 67.9961 17.3945 68.0508 17.4492C68.1055 17.4961 68.1328 17.6055 68.1328 17.7773C68.1328 17.8867 68.0977 17.9961 68.0273 18.1055C67.957 18.207 67.8594 18.2578 67.7344 18.2578H62.168Z" fill="#C5BEBE"/>
<path d="M71.7539 15.4102C71.7539 14.4414 72.082 13.6719 72.7383 13.1016C73.3945 12.5234 74.2109 12.1016 75.1875 11.8359C76.1719 11.5703 77.3047 11.3711 78.5859 11.2383V9.43359C78.5859 9.10547 78.5078 8.79297 78.3516 8.49609C78.2031 8.19141 77.9453 7.9375 77.5781 7.73438C77.2188 7.53125 76.75 7.42969 76.1719 7.42969C75.875 7.42969 75.6406 7.44922 75.4688 7.48828C75.3047 7.51953 75.1562 7.56641 75.0234 7.62891L73.6172 10.4648C73.1484 10.4648 72.7812 10.3594 72.5156 10.1484C72.2578 9.9375 72.1289 9.58984 72.1289 9.10547C72.1289 8.63672 72.3242 8.19531 72.7148 7.78125C73.1055 7.35938 73.6484 7.01953 74.3438 6.76172C75.0391 6.50391 75.8203 6.375 76.6875 6.375C77.7891 6.375 78.6406 6.55469 79.2422 6.91406C79.8516 7.26562 80.2617 7.71875 80.4727 8.27344C80.6914 8.82812 80.8008 9.46484 80.8008 10.1836V15.9023C80.8008 16.2227 80.8438 16.5117 80.9297 16.7695C81.0156 17.0273 81.1211 17.1562 81.2461 17.1562C81.3633 17.1562 81.4609 17.1523 81.5391 17.1445C81.625 17.1289 81.7344 17.1016 81.8672 17.0625C81.9922 17.0234 82.1016 17.0664 82.1953 17.1914C82.2891 17.3086 82.3359 17.4336 82.3359 17.5664C82.3359 17.6523 82.3125 17.7148 82.2656 17.7539C82.0234 17.9336 81.7109 18.1016 81.3281 18.2578C80.9453 18.4062 80.5859 18.4805 80.25 18.4805C79.9219 18.4805 79.668 18.4648 79.4883 18.4336C79.3164 18.4023 79.1562 18.2852 79.0078 18.082C78.8672 17.8789 78.7969 17.5508 78.7969 17.0977V16.9805C78.2812 17.5195 77.7305 17.9102 77.1445 18.1523C76.5586 18.3867 75.8555 18.5039 75.0352 18.5039C74.5195 18.5039 74.0078 18.3984 73.5 18.1875C73 17.9688 72.582 17.6289 72.2461 17.168C71.918 16.6992 71.7539 16.1133 71.7539 15.4102ZM74.2031 15.3516C74.2031 15.6797 74.2695 15.9883 74.4023 16.2773C74.543 16.5586 74.7383 16.7852 74.9883 16.957C75.2461 17.1211 75.543 17.2031 75.8789 17.2031C76.4648 17.2031 76.9922 17.1055 77.4609 16.9102C77.9297 16.707 78.3008 16.4688 78.5742 16.1953V12.0703C77.5508 12.2188 76.7383 12.3945 76.1367 12.5977C75.543 12.793 75.0703 13.1094 74.7188 13.5469C74.375 13.9766 74.2031 14.5781 74.2031 15.3516Z" fill="#C5BEBE"/>
<path d="M87.6797 18.6094C86.6328 18.6094 85.8711 18.375 85.3945 17.9062C84.9258 17.4297 84.6914 16.6758 84.6914 15.6445V7.62891H83.3438C83.2578 7.62109 83.1875 7.57812 83.1328 7.5C83.0859 7.42188 83.0625 7.33203 83.0625 7.23047C83.0625 7.08203 83.0898 6.96094 83.1445 6.86719C83.207 6.77344 83.2891 6.72656 83.3906 6.72656L83.4961 6.71484C83.957 6.66016 84.3398 6.52734 84.6445 6.31641C84.9492 6.09766 85.2109 5.75781 85.4297 5.29688C85.6484 4.83594 85.8477 4.20312 86.0273 3.39844C86.0508 3.28906 86.1016 3.21875 86.1797 3.1875C86.2578 3.14844 86.375 3.12891 86.5312 3.12891C86.6797 3.12891 86.7734 3.14844 86.8125 3.1875C86.8516 3.21875 86.8711 3.29297 86.8711 3.41016V6.60938H90.3281C90.4141 6.61719 90.4805 6.66016 90.5273 6.73828C90.582 6.81641 90.6094 6.90625 90.6094 7.00781C90.6094 7.17188 90.5742 7.31641 90.5039 7.44141C90.4414 7.56641 90.3672 7.62891 90.2812 7.62891H86.8711V14.7891C86.8711 15.6875 86.9961 16.3164 87.2461 16.6758C87.4961 17.0352 87.8047 17.2148 88.1719 17.2148C88.5078 17.2148 88.8008 17.1914 89.0508 17.1445C89.3008 17.0898 89.5078 17.0312 89.6719 16.9688C89.8359 16.8984 90.0742 16.7891 90.3867 16.6406C90.582 16.8359 90.7148 17.0703 90.7852 17.3438C90.6367 17.5 90.3828 17.6797 90.0234 17.8828C89.6719 18.0781 89.2812 18.2461 88.8516 18.3867C88.4297 18.5352 88.0391 18.6094 87.6797 18.6094Z" fill="#C5BEBE"/>
<path d="M92.2266 18.2578C92.1016 18.2578 92.0039 18.207 91.9336 18.1055C91.8633 17.9961 91.8281 17.8867 91.8281 17.7773C91.8281 17.6445 91.8555 17.543 91.9102 17.4727C91.9648 17.4023 92.0664 17.3594 92.2148 17.3438C93.1133 17.2344 93.5625 16.9844 93.5625 16.5938L93.5742 9.14062C93.5742 8.77344 93.5078 8.49219 93.375 8.29688C93.2422 8.10156 93.0859 7.97266 92.9062 7.91016C92.7266 7.84766 92.4922 7.79297 92.2031 7.74609C92.1641 7.73828 92.1055 7.73047 92.0273 7.72266C91.9492 7.70703 91.8828 7.69141 91.8281 7.67578C91.7344 7.63672 91.6641 7.58203 91.6172 7.51172C91.5703 7.44141 91.5469 7.33984 91.5469 7.20703C91.5469 7.09766 91.5703 6.98828 91.6172 6.87891C91.6719 6.76172 91.7422 6.69922 91.8281 6.69141C93.125 6.61328 94.3164 6.57422 95.4023 6.57422C95.4805 6.57422 95.5547 6.60938 95.625 6.67969C95.6953 6.75 95.7383 6.87109 95.7539 7.04297V16.207C95.7539 16.5195 95.8242 16.7539 95.9648 16.9102C96.1133 17.0664 96.2812 17.1719 96.4688 17.2266C96.6641 17.2734 96.9023 17.3125 97.1836 17.3438C97.3555 17.3594 97.4688 17.3945 97.5234 17.4492C97.5781 17.4961 97.6055 17.6055 97.6055 17.7773C97.6055 17.8789 97.5664 17.9844 97.4883 18.0938C97.418 18.2031 97.3242 18.2578 97.207 18.2578H92.2266ZM94.6289 4.51172C94.207 4.51172 93.8633 4.35938 93.5977 4.05469C93.3398 3.74219 93.2109 3.35156 93.2109 2.88281C93.2109 2.41406 93.3398 2.02734 93.5977 1.72266C93.8633 1.41016 94.207 1.25391 94.6289 1.25391C95.0508 1.25391 95.3906 1.41016 95.6484 1.72266C95.9141 2.02734 96.0469 2.41406 96.0469 2.88281C96.0469 3.35156 95.9141 3.74219 95.6484 4.05469C95.3906 4.35938 95.0508 4.51172 94.6289 4.51172Z" fill="#C5BEBE"/>
<path d="M98.9414 12.4922C98.9414 11.3594 99.168 10.3281 99.6211 9.39844C100.074 8.46875 100.727 7.73438 101.578 7.19531C102.43 6.64844 103.426 6.375 104.566 6.375C105.707 6.375 106.691 6.64844 107.52 7.19531C108.348 7.73438 108.98 8.46875 109.418 9.39844C109.855 10.3203 110.074 11.3516 110.074 12.4922C110.074 13.625 109.848 14.6562 109.395 15.5859C108.949 16.5156 108.305 17.25 107.461 17.7891C106.617 18.3281 105.625 18.5977 104.484 18.5977C103.344 18.5977 102.355 18.3281 101.52 17.7891C100.684 17.25 100.043 16.5195 99.5977 15.5977C99.1602 14.668 98.9414 13.6328 98.9414 12.4922ZM101.461 12.4922C101.461 13.5938 101.555 14.5078 101.742 15.2344C101.93 15.9609 102.246 16.5195 102.691 16.9102C103.145 17.293 103.754 17.4844 104.52 17.4844C105.285 17.4844 105.887 17.293 106.324 16.9102C106.77 16.5195 107.082 15.9609 107.262 15.2344C107.441 14.5078 107.531 13.5938 107.531 12.4922C107.531 10.8281 107.301 9.58203 106.84 8.75391C106.387 7.91797 105.598 7.5 104.473 7.5C103.707 7.5 103.102 7.69531 102.656 8.08594C102.219 8.46875 101.91 9.02344 101.73 9.75C101.551 10.4766 101.461 11.3906 101.461 12.4922Z" fill="#C5BEBE"/>
<path d="M112.184 18.2578C112.059 18.2578 111.961 18.207 111.891 18.1055C111.82 17.9961 111.785 17.8867 111.785 17.7773C111.785 17.6445 111.812 17.543 111.867 17.4727C111.922 17.4023 112.023 17.3594 112.172 17.3438C113.078 17.2344 113.531 16.9844 113.531 16.5938V9.14062C113.531 8.77344 113.465 8.49609 113.332 8.30859C113.199 8.11328 113.039 7.98438 112.852 7.92188C112.672 7.85156 112.441 7.79297 112.16 7.74609C111.941 7.70703 111.816 7.68359 111.785 7.67578C111.691 7.63672 111.621 7.58203 111.574 7.51172C111.527 7.44141 111.504 7.33984 111.504 7.20703C111.504 7.09766 111.527 6.98828 111.574 6.87891C111.629 6.76172 111.699 6.69922 111.785 6.69141C113.043 6.61328 114.195 6.57422 115.242 6.57422C115.32 6.57422 115.395 6.60938 115.465 6.67969C115.535 6.75 115.578 6.87109 115.594 7.04297V8.35547C115.805 8.14453 116.125 7.88672 116.555 7.58203C116.984 7.27734 117.488 7 118.066 6.75C118.652 6.5 119.234 6.375 119.812 6.375C120.445 6.375 120.984 6.45312 121.43 6.60938C121.883 6.76562 122.242 7.05859 122.508 7.48828C122.781 7.91016 122.918 8.50781 122.918 9.28125V16.207C122.918 16.5039 122.984 16.7305 123.117 16.8867C123.25 17.043 123.406 17.1484 123.586 17.2031C123.773 17.2578 124.004 17.2969 124.277 17.3203C124.332 17.3203 124.414 17.3281 124.523 17.3438C124.664 17.3594 124.762 17.3984 124.816 17.4609C124.879 17.5156 124.91 17.6211 124.91 17.7773C124.91 17.8867 124.875 17.9961 124.805 18.1055C124.734 18.207 124.637 18.2578 124.512 18.2578H119.508C119.383 18.2578 119.285 18.207 119.215 18.1055C119.145 17.9961 119.109 17.8867 119.109 17.7773C119.109 17.6445 119.133 17.543 119.18 17.4727C119.234 17.3945 119.332 17.3516 119.473 17.3438C119.762 17.3203 120.039 17.2422 120.305 17.1094C120.578 16.9688 120.715 16.7969 120.715 16.5938V8.94141C120.715 8.63672 120.613 8.36328 120.41 8.12109C120.207 7.87891 119.805 7.75781 119.203 7.75781C118.539 7.75781 117.891 7.91016 117.258 8.21484C116.625 8.51953 116.109 8.85547 115.711 9.22266V16.207C115.711 16.5195 115.773 16.7578 115.898 16.9219C116.031 17.0781 116.184 17.1797 116.355 17.2266C116.535 17.2734 116.758 17.3125 117.023 17.3438C117.195 17.3594 117.309 17.3945 117.363 17.4492C117.418 17.4961 117.445 17.6055 117.445 17.7773C117.445 17.8789 117.406 17.9844 117.328 18.0938C117.258 18.2031 117.164 18.2578 117.047 18.2578H112.184Z" fill="#C5BEBE"/>
<path d="M133.371 16.8281C133.371 16.5391 133.441 16.2734 133.582 16.0312C133.73 15.7891 133.93 15.5977 134.18 15.457C134.43 15.3164 134.707 15.2461 135.012 15.2461C135.316 15.2461 135.594 15.3164 135.844 15.457C136.094 15.5977 136.293 15.7891 136.441 16.0312C136.59 16.2734 136.664 16.5391 136.664 16.8281C136.664 17.1172 136.59 17.3906 136.441 17.6484C136.293 17.9062 136.094 18.1094 135.844 18.2578C135.594 18.4141 135.316 18.4922 135.012 18.4922C134.707 18.4922 134.43 18.4141 134.18 18.2578C133.93 18.1094 133.73 17.9062 133.582 17.6484C133.441 17.3906 133.371 17.1172 133.371 16.8281ZM133.371 8.17969C133.371 7.89062 133.441 7.625 133.582 7.38281C133.73 7.14062 133.93 6.94922 134.18 6.80859C134.43 6.66797 134.707 6.59766 135.012 6.59766C135.316 6.59766 135.594 6.66797 135.844 6.80859C136.094 6.94922 136.293 7.14062 136.441 7.38281C136.59 7.625 136.664 7.89062 136.664 8.17969C136.664 8.46875 136.59 8.74219 136.441 9C136.293 9.25781 136.094 9.46484 135.844 9.62109C135.594 9.76953 135.316 9.84375 135.012 9.84375C134.707 9.84375 134.43 9.76953 134.18 9.62109C133.93 9.46484 133.73 9.25781 133.582 9C133.441 8.74219 133.371 8.46875 133.371 8.17969Z" fill="#C5BEBE"/>
<path d="M152.172 18.2578C152.047 18.2578 151.949 18.207 151.879 18.1055C151.809 17.9961 151.773 17.8867 151.773 17.7773C151.773 17.6445 151.801 17.543 151.855 17.4727C151.91 17.4023 152.012 17.3594 152.16 17.3438C152.691 17.3047 153.164 17.2266 153.578 17.1094C154 16.9922 154.211 16.8203 154.211 16.5938L154.223 6.32812C153.418 6.78125 152.734 7.00781 152.172 7.00781C151.992 7.00781 151.855 6.91797 151.762 6.73828C151.676 6.55859 151.633 6.39453 151.633 6.24609C151.633 6.06641 151.664 5.93359 151.727 5.84766C151.789 5.75391 151.898 5.70312 152.055 5.69531C152.477 5.66406 153.02 5.52734 153.684 5.28516C154.348 5.03516 154.926 4.71484 155.418 4.32422H156.531L156.52 16.5C156.52 16.7734 156.723 16.9727 157.129 17.0977C157.535 17.2148 158.043 17.2969 158.652 17.3438C158.824 17.3594 158.938 17.3945 158.992 17.4492C159.047 17.4961 159.074 17.6055 159.074 17.7773C159.074 17.8867 159.039 17.9961 158.969 18.1055C158.898 18.207 158.801 18.2578 158.676 18.2578H152.172Z" fill="black"/>
<path d="M167.535 18.5977C166.355 18.5977 165.34 18.3086 164.488 17.7305C163.637 17.1523 162.988 16.3281 162.543 15.2578C162.098 14.1797 161.875 12.9062 161.875 11.4375C161.875 9.94531 162.105 8.65234 162.566 7.55859C163.027 6.45703 163.688 5.61328 164.547 5.02734C165.406 4.43359 166.43 4.13672 167.617 4.13672C168.797 4.13672 169.809 4.43359 170.652 5.02734C171.496 5.61328 172.137 6.45703 172.574 7.55859C173.02 8.65234 173.242 9.94531 173.242 11.4375C173.242 12.8984 173.016 14.168 172.562 15.2461C172.109 16.3242 171.453 17.1523 170.594 17.7305C169.734 18.3086 168.715 18.5977 167.535 18.5977ZM167.57 17.4844C168.375 17.4844 169.004 17.2695 169.457 16.8398C169.91 16.4023 170.23 15.75 170.418 14.8828C170.605 14.0078 170.699 12.8594 170.699 11.4375C170.699 10 170.602 8.83594 170.406 7.94531C170.211 7.04688 169.883 6.375 169.422 5.92969C168.961 5.47656 168.328 5.25 167.523 5.25C166.719 5.25 166.086 5.47266 165.625 5.91797C165.172 6.36328 164.852 7.03516 164.664 7.93359C164.484 8.82422 164.395 9.99219 164.395 11.4375C164.395 12.8516 164.488 13.9961 164.676 14.8711C164.871 15.7461 165.199 16.4023 165.66 16.8398C166.121 17.2695 166.758 17.4844 167.57 17.4844Z" fill="black"/>
<path d="M181.949 18.2578C181.824 18.2578 181.727 18.207 181.656 18.1055C181.586 17.9961 181.551 17.8867 181.551 17.7773C181.551 17.6445 181.578 17.543 181.633 17.4727C181.688 17.4023 181.789 17.3594 181.938 17.3438C182.844 17.2344 183.297 16.9844 183.297 16.5938V9.14062C183.297 8.77344 183.23 8.49609 183.098 8.30859C182.965 8.11328 182.805 7.98438 182.617 7.92188C182.438 7.85156 182.207 7.79297 181.926 7.74609C181.707 7.70703 181.582 7.68359 181.551 7.67578C181.457 7.63672 181.387 7.58203 181.34 7.51172C181.293 7.44141 181.27 7.33984 181.27 7.20703C181.27 7.09766 181.293 6.98828 181.34 6.87891C181.395 6.76172 181.465 6.69922 181.551 6.69141C182.809 6.61328 183.961 6.57422 185.008 6.57422C185.086 6.57422 185.16 6.60938 185.23 6.67969C185.301 6.75 185.344 6.87109 185.359 7.04297V8.35547C185.805 7.91016 186.371 7.46875 187.059 7.03125C187.754 6.59375 188.508 6.375 189.32 6.375C190.148 6.375 190.836 6.51562 191.383 6.79688C191.93 7.07031 192.285 7.57031 192.449 8.29688C192.668 8.0625 192.973 7.80078 193.363 7.51172C193.754 7.21484 194.215 6.95312 194.746 6.72656C195.285 6.49219 195.836 6.375 196.398 6.375C197.391 6.375 198.176 6.58203 198.754 6.99609C199.34 7.40234 199.633 8.16406 199.633 9.28125V16.207C199.633 16.5039 199.699 16.7305 199.832 16.8867C199.965 17.043 200.121 17.1484 200.301 17.2031C200.488 17.2578 200.719 17.2969 200.992 17.3203C201.047 17.3203 201.129 17.3281 201.238 17.3438C201.379 17.3594 201.477 17.3984 201.531 17.4609C201.594 17.5156 201.625 17.6211 201.625 17.7773C201.625 17.8867 201.59 17.9961 201.52 18.1055C201.449 18.207 201.352 18.2578 201.227 18.2578H196.223C196.098 18.2578 196 18.207 195.93 18.1055C195.859 17.9961 195.824 17.8867 195.824 17.7773C195.824 17.6445 195.848 17.543 195.895 17.4727C195.949 17.3945 196.047 17.3516 196.188 17.3438C196.477 17.3203 196.754 17.2422 197.02 17.1094C197.293 16.9688 197.43 16.7969 197.43 16.5938V8.94141C197.43 8.63672 197.328 8.36328 197.125 8.12109C196.922 7.87891 196.52 7.75781 195.918 7.75781C194.785 7.75781 193.664 8.24609 192.555 9.22266V9.57422V16.207C192.555 16.6445 192.664 16.9297 192.883 17.0625C193.102 17.1953 193.328 17.2734 193.562 17.2969C193.805 17.3203 193.965 17.3359 194.043 17.3438C194.184 17.3594 194.281 17.3984 194.336 17.4609C194.398 17.5156 194.43 17.6211 194.43 17.7773C194.43 17.8867 194.395 17.9961 194.324 18.1055C194.254 18.207 194.156 18.2578 194.031 18.2578H189.145C189.02 18.2578 188.922 18.207 188.852 18.1055C188.781 17.9961 188.746 17.8867 188.746 17.7773C188.746 17.6445 188.77 17.543 188.816 17.4727C188.871 17.3945 188.969 17.3516 189.109 17.3438C189.398 17.3203 189.676 17.2422 189.941 17.1094C190.215 16.9688 190.352 16.7969 190.352 16.5938V8.94141C190.352 8.63672 190.25 8.36328 190.047 8.12109C189.844 7.87891 189.441 7.75781 188.84 7.75781C188.184 7.75781 187.562 7.90625 186.977 8.20312C186.391 8.5 185.891 8.83984 185.477 9.22266V16.207C185.477 16.5195 185.539 16.7578 185.664 16.9219C185.797 17.0781 185.949 17.1797 186.121 17.2266C186.301 17.2734 186.523 17.3125 186.789 17.3438C186.961 17.3594 187.074 17.3945 187.129 17.4492C187.184 17.4961 187.211 17.6055 187.211 17.7773C187.211 17.8789 187.172 17.9844 187.094 18.0938C187.023 18.2031 186.93 18.2578 186.812 18.2578H181.949Z" fill="black"/>
<path d="M203.078 18.2578C202.953 18.2578 202.855 18.207 202.785 18.1055C202.715 17.9961 202.68 17.8867 202.68 17.7773C202.68 17.6445 202.707 17.543 202.762 17.4727C202.816 17.4023 202.918 17.3594 203.066 17.3438C203.965 17.2344 204.414 16.9844 204.414 16.5938L204.426 9.14062C204.426 8.77344 204.359 8.49219 204.227 8.29688C204.094 8.10156 203.938 7.97266 203.758 7.91016C203.578 7.84766 203.344 7.79297 203.055 7.74609C203.016 7.73828 202.957 7.73047 202.879 7.72266C202.801 7.70703 202.734 7.69141 202.68 7.67578C202.586 7.63672 202.516 7.58203 202.469 7.51172C202.422 7.44141 202.398 7.33984 202.398 7.20703C202.398 7.09766 202.422 6.98828 202.469 6.87891C202.523 6.76172 202.594 6.69922 202.68 6.69141C203.977 6.61328 205.168 6.57422 206.254 6.57422C206.332 6.57422 206.406 6.60938 206.477 6.67969C206.547 6.75 206.59 6.87109 206.605 7.04297V16.207C206.605 16.5195 206.676 16.7539 206.816 16.9102C206.965 17.0664 207.133 17.1719 207.32 17.2266C207.516 17.2734 207.754 17.3125 208.035 17.3438C208.207 17.3594 208.32 17.3945 208.375 17.4492C208.43 17.4961 208.457 17.6055 208.457 17.7773C208.457 17.8789 208.418 17.9844 208.34 18.0938C208.27 18.2031 208.176 18.2578 208.059 18.2578H203.078ZM205.48 4.51172C205.059 4.51172 204.715 4.35938 204.449 4.05469C204.191 3.74219 204.062 3.35156 204.062 2.88281C204.062 2.41406 204.191 2.02734 204.449 1.72266C204.715 1.41016 205.059 1.25391 205.48 1.25391C205.902 1.25391 206.242 1.41016 206.5 1.72266C206.766 2.02734 206.898 2.41406 206.898 2.88281C206.898 3.35156 206.766 3.74219 206.5 4.05469C206.242 4.35938 205.902 4.51172 205.48 4.51172Z" fill="black"/>
<path d="M210.098 18.2578C209.973 18.2578 209.875 18.207 209.805 18.1055C209.734 17.9961 209.699 17.8867 209.699 17.7773C209.699 17.6445 209.727 17.543 209.781 17.4727C209.836 17.4023 209.938 17.3594 210.086 17.3438C210.992 17.2344 211.445 16.9844 211.445 16.5938V9.14062C211.445 8.77344 211.379 8.49609 211.246 8.30859C211.113 8.11328 210.953 7.98438 210.766 7.92188C210.586 7.85156 210.355 7.79297 210.074 7.74609C209.855 7.70703 209.73 7.68359 209.699 7.67578C209.605 7.63672 209.535 7.58203 209.488 7.51172C209.441 7.44141 209.418 7.33984 209.418 7.20703C209.418 7.09766 209.441 6.98828 209.488 6.87891C209.543 6.76172 209.613 6.69922 209.699 6.69141C210.957 6.61328 212.109 6.57422 213.156 6.57422C213.234 6.57422 213.309 6.60938 213.379 6.67969C213.449 6.75 213.492 6.87109 213.508 7.04297V8.35547C213.719 8.14453 214.039 7.88672 214.469 7.58203C214.898 7.27734 215.402 7 215.98 6.75C216.566 6.5 217.148 6.375 217.727 6.375C218.359 6.375 218.898 6.45312 219.344 6.60938C219.797 6.76562 220.156 7.05859 220.422 7.48828C220.695 7.91016 220.832 8.50781 220.832 9.28125V16.207C220.832 16.5039 220.898 16.7305 221.031 16.8867C221.164 17.043 221.32 17.1484 221.5 17.2031C221.688 17.2578 221.918 17.2969 222.191 17.3203C222.246 17.3203 222.328 17.3281 222.438 17.3438C222.578 17.3594 222.676 17.3984 222.73 17.4609C222.793 17.5156 222.824 17.6211 222.824 17.7773C222.824 17.8867 222.789 17.9961 222.719 18.1055C222.648 18.207 222.551 18.2578 222.426 18.2578H217.422C217.297 18.2578 217.199 18.207 217.129 18.1055C217.059 17.9961 217.023 17.8867 217.023 17.7773C217.023 17.6445 217.047 17.543 217.094 17.4727C217.148 17.3945 217.246 17.3516 217.387 17.3438C217.676 17.3203 217.953 17.2422 218.219 17.1094C218.492 16.9688 218.629 16.7969 218.629 16.5938V8.94141C218.629 8.63672 218.527 8.36328 218.324 8.12109C218.121 7.87891 217.719 7.75781 217.117 7.75781C216.453 7.75781 215.805 7.91016 215.172 8.21484C214.539 8.51953 214.023 8.85547 213.625 9.22266V16.207C213.625 16.5195 213.688 16.7578 213.812 16.9219C213.945 17.0781 214.098 17.1797 214.27 17.2266C214.449 17.2734 214.672 17.3125 214.938 17.3438C215.109 17.3594 215.223 17.3945 215.277 17.4492C215.332 17.4961 215.359 17.6055 215.359 17.7773C215.359 17.8789 215.32 17.9844 215.242 18.0938C215.172 18.2031 215.078 18.2578 214.961 18.2578H210.098Z" fill="black"/>
<path d="M354.482 17.8594C354.505 17.6406 354.583 17.4414 354.716 17.2617C356.771 15.8789 358.478 14.3984 359.837 12.8203C361.205 11.2344 361.888 9.72656 361.888 8.29688C361.888 7.83594 361.802 7.375 361.63 6.91406C361.466 6.45312 361.173 6.0625 360.751 5.74219C360.337 5.42188 359.787 5.26172 359.099 5.26172C358.63 5.26172 358.259 5.3125 357.986 5.41406C357.712 5.50781 357.513 5.625 357.388 5.76562C357.263 5.90625 357.138 6.08594 357.013 6.30469C356.966 6.39844 356.927 6.46875 356.896 6.51562C356.81 6.92969 356.732 7.37109 356.662 7.83984L356.58 8.30859C356.533 8.57422 356.443 8.78906 356.31 8.95312C356.185 9.10938 356.013 9.1875 355.794 9.1875C355.615 9.1875 355.412 9.14844 355.185 9.07031C354.966 8.98438 354.775 8.83984 354.611 8.63672C354.447 8.42578 354.365 8.15234 354.365 7.81641C354.365 7.58203 354.416 7.3125 354.517 7.00781C354.673 6.53125 354.986 6.07422 355.455 5.63672C355.931 5.19141 356.513 4.83203 357.201 4.55859C357.888 4.27734 358.619 4.13672 359.392 4.13672C360.962 4.13672 362.177 4.49609 363.037 5.21484C363.904 5.93359 364.337 6.95703 364.337 8.28516C364.337 9.60547 363.677 10.9727 362.357 12.3867C361.044 13.793 359.498 15.1055 357.716 16.3242H365.146L365.029 18.2578H354.482V17.8594Z" fill="#100F0F"/>
<path d="M373.794 18.5977C372.615 18.5977 371.599 18.3086 370.748 17.7305C369.896 17.1523 369.248 16.3281 368.802 15.2578C368.357 14.1797 368.134 12.9062 368.134 11.4375C368.134 9.94531 368.365 8.65234 368.826 7.55859C369.287 6.45703 369.947 5.61328 370.806 5.02734C371.666 4.43359 372.689 4.13672 373.876 4.13672C375.056 4.13672 376.068 4.43359 376.912 5.02734C377.755 5.61328 378.396 6.45703 378.833 7.55859C379.279 8.65234 379.501 9.94531 379.501 11.4375C379.501 12.8984 379.275 14.168 378.822 15.2461C378.369 16.3242 377.712 17.1523 376.853 17.7305C375.994 18.3086 374.974 18.5977 373.794 18.5977ZM373.83 17.4844C374.634 17.4844 375.263 17.2695 375.716 16.8398C376.169 16.4023 376.49 15.75 376.677 14.8828C376.865 14.0078 376.958 12.8594 376.958 11.4375C376.958 10 376.861 8.83594 376.666 7.94531C376.47 7.04688 376.142 6.375 375.681 5.92969C375.22 5.47656 374.587 5.25 373.783 5.25C372.978 5.25 372.345 5.47266 371.884 5.91797C371.431 6.36328 371.111 7.03516 370.923 7.93359C370.744 8.82422 370.654 9.99219 370.654 11.4375C370.654 12.8516 370.748 13.9961 370.935 14.8711C371.13 15.7461 371.458 16.4023 371.919 16.8398C372.38 17.2695 373.017 17.4844 373.83 17.4844Z" fill="#100F0F"/>
<path d="M388.208 18.2578C388.083 18.2578 387.986 18.207 387.916 18.1055C387.845 17.9961 387.81 17.8867 387.81 17.7773C387.81 17.6445 387.837 17.543 387.892 17.4727C387.947 17.4023 388.048 17.3594 388.197 17.3438C389.103 17.2344 389.556 16.9844 389.556 16.5938V9.14062C389.556 8.77344 389.49 8.49609 389.357 8.30859C389.224 8.11328 389.064 7.98438 388.876 7.92188C388.697 7.85156 388.466 7.79297 388.185 7.74609C387.966 7.70703 387.841 7.68359 387.81 7.67578C387.716 7.63672 387.646 7.58203 387.599 7.51172C387.552 7.44141 387.529 7.33984 387.529 7.20703C387.529 7.09766 387.552 6.98828 387.599 6.87891C387.654 6.76172 387.724 6.69922 387.81 6.69141C389.068 6.61328 390.22 6.57422 391.267 6.57422C391.345 6.57422 391.419 6.60938 391.49 6.67969C391.56 6.75 391.603 6.87109 391.619 7.04297V8.35547C392.064 7.91016 392.63 7.46875 393.318 7.03125C394.013 6.59375 394.767 6.375 395.58 6.375C396.408 6.375 397.095 6.51562 397.642 6.79688C398.189 7.07031 398.544 7.57031 398.708 8.29688C398.927 8.0625 399.232 7.80078 399.623 7.51172C400.013 7.21484 400.474 6.95312 401.005 6.72656C401.544 6.49219 402.095 6.375 402.658 6.375C403.65 6.375 404.435 6.58203 405.013 6.99609C405.599 7.40234 405.892 8.16406 405.892 9.28125V16.207C405.892 16.5039 405.958 16.7305 406.091 16.8867C406.224 17.043 406.38 17.1484 406.56 17.2031C406.748 17.2578 406.978 17.2969 407.251 17.3203C407.306 17.3203 407.388 17.3281 407.498 17.3438C407.638 17.3594 407.736 17.3984 407.791 17.4609C407.853 17.5156 407.884 17.6211 407.884 17.7773C407.884 17.8867 407.849 17.9961 407.779 18.1055C407.708 18.207 407.611 18.2578 407.486 18.2578H402.482C402.357 18.2578 402.259 18.207 402.189 18.1055C402.119 17.9961 402.083 17.8867 402.083 17.7773C402.083 17.6445 402.107 17.543 402.154 17.4727C402.208 17.3945 402.306 17.3516 402.447 17.3438C402.736 17.3203 403.013 17.2422 403.279 17.1094C403.552 16.9688 403.689 16.7969 403.689 16.5938V8.94141C403.689 8.63672 403.587 8.36328 403.384 8.12109C403.181 7.87891 402.779 7.75781 402.177 7.75781C401.044 7.75781 399.923 8.24609 398.814 9.22266V9.57422V16.207C398.814 16.6445 398.923 16.9297 399.142 17.0625C399.361 17.1953 399.587 17.2734 399.822 17.2969C400.064 17.3203 400.224 17.3359 400.302 17.3438C400.443 17.3594 400.541 17.3984 400.595 17.4609C400.658 17.5156 400.689 17.6211 400.689 17.7773C400.689 17.8867 400.654 17.9961 400.583 18.1055C400.513 18.207 400.416 18.2578 400.291 18.2578H395.404C395.279 18.2578 395.181 18.207 395.111 18.1055C395.041 17.9961 395.005 17.8867 395.005 17.7773C395.005 17.6445 395.029 17.543 395.076 17.4727C395.13 17.3945 395.228 17.3516 395.369 17.3438C395.658 17.3203 395.935 17.2422 396.201 17.1094C396.474 16.9688 396.611 16.7969 396.611 16.5938V8.94141C396.611 8.63672 396.509 8.36328 396.306 8.12109C396.103 7.87891 395.701 7.75781 395.099 7.75781C394.443 7.75781 393.822 7.90625 393.236 8.20312C392.65 8.5 392.15 8.83984 391.736 9.22266V16.207C391.736 16.5195 391.798 16.7578 391.923 16.9219C392.056 17.0781 392.208 17.1797 392.38 17.2266C392.56 17.2734 392.783 17.3125 393.048 17.3438C393.22 17.3594 393.333 17.3945 393.388 17.4492C393.443 17.4961 393.47 17.6055 393.47 17.7773C393.47 17.8789 393.431 17.9844 393.353 18.0938C393.283 18.2031 393.189 18.2578 393.072 18.2578H388.208Z" fill="#100F0F"/>
<path d="M409.337 18.2578C409.212 18.2578 409.115 18.207 409.044 18.1055C408.974 17.9961 408.939 17.8867 408.939 17.7773C408.939 17.6445 408.966 17.543 409.021 17.4727C409.076 17.4023 409.177 17.3594 409.326 17.3438C410.224 17.2344 410.673 16.9844 410.673 16.5938L410.685 9.14062C410.685 8.77344 410.619 8.49219 410.486 8.29688C410.353 8.10156 410.197 7.97266 410.017 7.91016C409.837 7.84766 409.603 7.79297 409.314 7.74609C409.275 7.73828 409.216 7.73047 409.138 7.72266C409.06 7.70703 408.994 7.69141 408.939 7.67578C408.845 7.63672 408.775 7.58203 408.728 7.51172C408.681 7.44141 408.658 7.33984 408.658 7.20703C408.658 7.09766 408.681 6.98828 408.728 6.87891C408.783 6.76172 408.853 6.69922 408.939 6.69141C410.236 6.61328 411.427 6.57422 412.513 6.57422C412.591 6.57422 412.666 6.60938 412.736 6.67969C412.806 6.75 412.849 6.87109 412.865 7.04297V16.207C412.865 16.5195 412.935 16.7539 413.076 16.9102C413.224 17.0664 413.392 17.1719 413.58 17.2266C413.775 17.2734 414.013 17.3125 414.294 17.3438C414.466 17.3594 414.58 17.3945 414.634 17.4492C414.689 17.4961 414.716 17.6055 414.716 17.7773C414.716 17.8789 414.677 17.9844 414.599 18.0938C414.529 18.2031 414.435 18.2578 414.318 18.2578H409.337ZM411.74 4.51172C411.318 4.51172 410.974 4.35938 410.708 4.05469C410.451 3.74219 410.322 3.35156 410.322 2.88281C410.322 2.41406 410.451 2.02734 410.708 1.72266C410.974 1.41016 411.318 1.25391 411.74 1.25391C412.162 1.25391 412.501 1.41016 412.759 1.72266C413.025 2.02734 413.158 2.41406 413.158 2.88281C413.158 3.35156 413.025 3.74219 412.759 4.05469C412.501 4.35938 412.162 4.51172 411.74 4.51172Z" fill="#100F0F"/>
<path d="M416.357 18.2578C416.232 18.2578 416.134 18.207 416.064 18.1055C415.994 17.9961 415.958 17.8867 415.958 17.7773C415.958 17.6445 415.986 17.543 416.041 17.4727C416.095 17.4023 416.197 17.3594 416.345 17.3438C417.251 17.2344 417.705 16.9844 417.705 16.5938V9.14062C417.705 8.77344 417.638 8.49609 417.505 8.30859C417.373 8.11328 417.212 7.98438 417.025 7.92188C416.845 7.85156 416.615 7.79297 416.333 7.74609C416.115 7.70703 415.99 7.68359 415.958 7.67578C415.865 7.63672 415.794 7.58203 415.748 7.51172C415.701 7.44141 415.677 7.33984 415.677 7.20703C415.677 7.09766 415.701 6.98828 415.748 6.87891C415.802 6.76172 415.873 6.69922 415.958 6.69141C417.216 6.61328 418.369 6.57422 419.416 6.57422C419.494 6.57422 419.568 6.60938 419.638 6.67969C419.708 6.75 419.751 6.87109 419.767 7.04297V8.35547C419.978 8.14453 420.298 7.88672 420.728 7.58203C421.158 7.27734 421.662 7 422.24 6.75C422.826 6.5 423.408 6.375 423.986 6.375C424.619 6.375 425.158 6.45312 425.603 6.60938C426.056 6.76562 426.416 7.05859 426.681 7.48828C426.955 7.91016 427.091 8.50781 427.091 9.28125V16.207C427.091 16.5039 427.158 16.7305 427.291 16.8867C427.423 17.043 427.58 17.1484 427.759 17.2031C427.947 17.2578 428.177 17.2969 428.451 17.3203C428.505 17.3203 428.587 17.3281 428.697 17.3438C428.837 17.3594 428.935 17.3984 428.99 17.4609C429.052 17.5156 429.083 17.6211 429.083 17.7773C429.083 17.8867 429.048 17.9961 428.978 18.1055C428.908 18.207 428.81 18.2578 428.685 18.2578H423.681C423.556 18.2578 423.458 18.207 423.388 18.1055C423.318 17.9961 423.283 17.8867 423.283 17.7773C423.283 17.6445 423.306 17.543 423.353 17.4727C423.408 17.3945 423.505 17.3516 423.646 17.3438C423.935 17.3203 424.212 17.2422 424.478 17.1094C424.751 16.9688 424.888 16.7969 424.888 16.5938V8.94141C424.888 8.63672 424.787 8.36328 424.583 8.12109C424.38 7.87891 423.978 7.75781 423.376 7.75781C422.712 7.75781 422.064 7.91016 421.431 8.21484C420.798 8.51953 420.283 8.85547 419.884 9.22266V16.207C419.884 16.5195 419.947 16.7578 420.072 16.9219C420.205 17.0781 420.357 17.1797 420.529 17.2266C420.708 17.2734 420.931 17.3125 421.197 17.3438C421.369 17.3594 421.482 17.3945 421.537 17.4492C421.591 17.4961 421.619 17.6055 421.619 17.7773C421.619 17.8789 421.58 17.9844 421.501 18.0938C421.431 18.2031 421.337 18.2578 421.22 18.2578H416.357Z" fill="#100F0F"/>
<path d="M253.688 18.6094C252.305 18.6094 251.008 18.332 249.797 17.7773C248.586 17.2227 247.59 16.3008 246.809 15.0117C246.027 13.7227 245.637 12.0469 245.637 9.98438C245.637 8.04688 246.031 6.42188 246.82 5.10938C247.617 3.79688 248.613 2.83203 249.809 2.21484C251.012 1.58984 252.223 1.27734 253.441 1.27734C254.387 1.27734 255.207 1.33203 255.902 1.44141C256.598 1.55078 257.145 1.67578 257.543 1.81641C257.941 1.94922 258.363 2.11328 258.809 2.30859L259.066 5.97656C259.082 6.10156 259.023 6.21094 258.891 6.30469C258.758 6.39844 258.637 6.44531 258.527 6.44531L258.398 6.45703C258.156 6.45703 258.02 6.34375 257.988 6.11719C257.676 5.01562 257.148 4.12109 256.406 3.43359C255.672 2.74609 254.676 2.40234 253.418 2.40234C252.582 2.40234 251.816 2.58203 251.121 2.94141C250.434 3.29297 249.848 4.02734 249.363 5.14453C248.887 6.26172 248.648 7.875 248.648 9.98438C248.648 11.9766 248.918 13.5312 249.457 14.6484C249.996 15.7578 250.637 16.5117 251.379 16.9102C252.129 17.3008 252.895 17.4961 253.676 17.4961C254.918 17.4961 255.879 17.1562 256.559 16.4766C257.246 15.7891 257.695 14.8867 257.906 13.7695C257.938 13.6211 257.984 13.5195 258.047 13.4648C258.109 13.4102 258.207 13.3828 258.34 13.3828C258.473 13.3828 258.625 13.4219 258.797 13.5C258.969 13.5703 259.055 13.6641 259.055 13.7812L258.68 16.9922C258.664 17.125 258.426 17.3242 257.965 17.5898C257.504 17.8555 256.895 18.0898 256.137 18.293C255.387 18.5039 254.57 18.6094 253.688 18.6094Z" fill="#C5BEBE"/>
<path d="M261.199 12.4922C261.199 11.3594 261.426 10.3281 261.879 9.39844C262.332 8.46875 262.984 7.73438 263.836 7.19531C264.688 6.64844 265.684 6.375 266.824 6.375C267.965 6.375 268.949 6.64844 269.777 7.19531C270.605 7.73438 271.238 8.46875 271.676 9.39844C272.113 10.3203 272.332 11.3516 272.332 12.4922C272.332 13.625 272.105 14.6562 271.652 15.5859C271.207 16.5156 270.562 17.25 269.719 17.7891C268.875 18.3281 267.883 18.5977 266.742 18.5977C265.602 18.5977 264.613 18.3281 263.777 17.7891C262.941 17.25 262.301 16.5195 261.855 15.5977C261.418 14.668 261.199 13.6328 261.199 12.4922ZM263.719 12.4922C263.719 13.5938 263.812 14.5078 264 15.2344C264.188 15.9609 264.504 16.5195 264.949 16.9102C265.402 17.293 266.012 17.4844 266.777 17.4844C267.543 17.4844 268.145 17.293 268.582 16.9102C269.027 16.5195 269.34 15.9609 269.52 15.2344C269.699 14.5078 269.789 13.5938 269.789 12.4922C269.789 10.8281 269.559 9.58203 269.098 8.75391C268.645 7.91797 267.855 7.5 266.73 7.5C265.965 7.5 265.359 7.69531 264.914 8.08594C264.477 8.46875 264.168 9.02344 263.988 9.75C263.809 10.4766 263.719 11.3906 263.719 12.4922Z" fill="#C5BEBE"/>
<path d="M274.137 12.4922C274.137 11.3594 274.363 10.3281 274.816 9.39844C275.27 8.46875 275.922 7.73438 276.773 7.19531C277.625 6.64844 278.621 6.375 279.762 6.375C280.902 6.375 281.887 6.64844 282.715 7.19531C283.543 7.73438 284.176 8.46875 284.613 9.39844C285.051 10.3203 285.27 11.3516 285.27 12.4922C285.27 13.625 285.043 14.6562 284.59 15.5859C284.145 16.5156 283.5 17.25 282.656 17.7891C281.812 18.3281 280.82 18.5977 279.68 18.5977C278.539 18.5977 277.551 18.3281 276.715 17.7891C275.879 17.25 275.238 16.5195 274.793 15.5977C274.355 14.668 274.137 13.6328 274.137 12.4922ZM276.656 12.4922C276.656 13.5938 276.75 14.5078 276.938 15.2344C277.125 15.9609 277.441 16.5195 277.887 16.9102C278.34 17.293 278.949 17.4844 279.715 17.4844C280.48 17.4844 281.082 17.293 281.52 16.9102C281.965 16.5195 282.277 15.9609 282.457 15.2344C282.637 14.5078 282.727 13.5938 282.727 12.4922C282.727 10.8281 282.496 9.58203 282.035 8.75391C281.582 7.91797 280.793 7.5 279.668 7.5C278.902 7.5 278.297 7.69531 277.852 8.08594C277.414 8.46875 277.105 9.02344 276.926 9.75C276.746 10.4766 276.656 11.3906 276.656 12.4922Z" fill="#C5BEBE"/>
<path d="M286.922 18.2578C286.797 18.2578 286.699 18.207 286.629 18.1055C286.559 17.9961 286.523 17.8867 286.523 17.7773C286.523 17.6445 286.551 17.543 286.605 17.4727C286.66 17.4023 286.762 17.3594 286.91 17.3438C287.277 17.3047 287.594 17.2305 287.859 17.1211C288.133 17.0039 288.27 16.8281 288.27 16.5938V2.56641C288.27 2.19922 288.203 1.91797 288.07 1.72266C287.938 1.52734 287.781 1.39844 287.602 1.33594C287.422 1.27344 287.188 1.21875 286.898 1.17188C286.859 1.16406 286.801 1.15625 286.723 1.14844C286.645 1.13281 286.578 1.11719 286.523 1.10156C286.43 1.0625 286.359 1.00781 286.312 0.9375C286.266 0.867188 286.242 0.765625 286.242 0.632812C286.242 0.523438 286.266 0.414062 286.312 0.304688C286.367 0.1875 286.438 0.125 286.523 0.117188C287.5 0.0625 288.602 0.0234375 289.828 0H290.098C290.176 0 290.25 0.0351562 290.32 0.105469C290.391 0.175781 290.434 0.296875 290.449 0.46875V12.7617L294.668 8.39062C294.785 8.30469 294.844 8.22266 294.844 8.14453C294.844 7.99609 294.684 7.88281 294.363 7.80469C294.043 7.71875 293.691 7.66406 293.309 7.64062C293.168 7.625 293.07 7.57422 293.016 7.48828C292.969 7.39453 292.945 7.27734 292.945 7.13672C292.945 7.02734 292.98 6.91406 293.051 6.79688C293.129 6.67188 293.227 6.60938 293.344 6.60938H298.113C298.238 6.60938 298.336 6.67188 298.406 6.79688C298.477 6.91406 298.512 7.02734 298.512 7.13672C298.512 7.28516 298.477 7.40625 298.406 7.5C298.344 7.59375 298.25 7.64062 298.125 7.64062C297.539 7.64062 296.809 7.98047 295.934 8.66016L293.836 10.9219L294.023 11.25C294.633 12.3359 295.215 13.3398 295.77 14.2617C296.332 15.1836 296.887 15.9805 297.434 16.6523C297.809 17.1133 298.172 17.3438 298.523 17.3438C298.656 17.3438 298.754 17.375 298.816 17.4375C298.879 17.5 298.91 17.6133 298.91 17.7773C298.91 17.8867 298.875 17.9961 298.805 18.1055C298.734 18.207 298.637 18.2578 298.512 18.2578H295.418C294.918 17.4062 294.348 16.4141 293.707 15.2812C293.074 14.1484 292.566 13.2188 292.184 12.4922L290.449 14.25V16.207C290.449 16.5195 290.512 16.7578 290.637 16.9219C290.77 17.0781 290.922 17.1797 291.094 17.2266C291.273 17.2734 291.496 17.3125 291.762 17.3438C291.934 17.3594 292.047 17.3945 292.102 17.4492C292.156 17.4961 292.184 17.6055 292.184 17.7773C292.184 17.8789 292.145 17.9844 292.066 18.0938C291.996 18.2031 291.902 18.2578 291.785 18.2578H286.922Z" fill="#C5BEBE"/>
<path d="M300.258 18.2578C300.133 18.2578 300.035 18.207 299.965 18.1055C299.895 17.9961 299.859 17.8867 299.859 17.7773C299.859 17.6445 299.887 17.543 299.941 17.4727C299.996 17.4023 300.098 17.3594 300.246 17.3438C301.145 17.2344 301.594 16.9844 301.594 16.5938L301.605 9.14062C301.605 8.77344 301.539 8.49219 301.406 8.29688C301.273 8.10156 301.117 7.97266 300.938 7.91016C300.758 7.84766 300.523 7.79297 300.234 7.74609C300.195 7.73828 300.137 7.73047 300.059 7.72266C299.98 7.70703 299.914 7.69141 299.859 7.67578C299.766 7.63672 299.695 7.58203 299.648 7.51172C299.602 7.44141 299.578 7.33984 299.578 7.20703C299.578 7.09766 299.602 6.98828 299.648 6.87891C299.703 6.76172 299.773 6.69922 299.859 6.69141C301.156 6.61328 302.348 6.57422 303.434 6.57422C303.512 6.57422 303.586 6.60938 303.656 6.67969C303.727 6.75 303.77 6.87109 303.785 7.04297V16.207C303.785 16.5195 303.855 16.7539 303.996 16.9102C304.145 17.0664 304.312 17.1719 304.5 17.2266C304.695 17.2734 304.934 17.3125 305.215 17.3438C305.387 17.3594 305.5 17.3945 305.555 17.4492C305.609 17.4961 305.637 17.6055 305.637 17.7773C305.637 17.8789 305.598 17.9844 305.52 18.0938C305.449 18.2031 305.355 18.2578 305.238 18.2578H300.258ZM302.66 4.51172C302.238 4.51172 301.895 4.35938 301.629 4.05469C301.371 3.74219 301.242 3.35156 301.242 2.88281C301.242 2.41406 301.371 2.02734 301.629 1.72266C301.895 1.41016 302.238 1.25391 302.66 1.25391C303.082 1.25391 303.422 1.41016 303.68 1.72266C303.945 2.02734 304.078 2.41406 304.078 2.88281C304.078 3.35156 303.945 3.74219 303.68 4.05469C303.422 4.35938 303.082 4.51172 302.66 4.51172Z" fill="#C5BEBE"/>
<path d="M307.277 18.2578C307.152 18.2578 307.055 18.207 306.984 18.1055C306.914 17.9961 306.879 17.8867 306.879 17.7773C306.879 17.6445 306.906 17.543 306.961 17.4727C307.016 17.4023 307.117 17.3594 307.266 17.3438C308.172 17.2344 308.625 16.9844 308.625 16.5938V9.14062C308.625 8.77344 308.559 8.49609 308.426 8.30859C308.293 8.11328 308.133 7.98438 307.945 7.92188C307.766 7.85156 307.535 7.79297 307.254 7.74609C307.035 7.70703 306.91 7.68359 306.879 7.67578C306.785 7.63672 306.715 7.58203 306.668 7.51172C306.621 7.44141 306.598 7.33984 306.598 7.20703C306.598 7.09766 306.621 6.98828 306.668 6.87891C306.723 6.76172 306.793 6.69922 306.879 6.69141C308.137 6.61328 309.289 6.57422 310.336 6.57422C310.414 6.57422 310.488 6.60938 310.559 6.67969C310.629 6.75 310.672 6.87109 310.688 7.04297V8.35547C310.898 8.14453 311.219 7.88672 311.648 7.58203C312.078 7.27734 312.582 7 313.16 6.75C313.746 6.5 314.328 6.375 314.906 6.375C315.539 6.375 316.078 6.45312 316.523 6.60938C316.977 6.76562 317.336 7.05859 317.602 7.48828C317.875 7.91016 318.012 8.50781 318.012 9.28125V16.207C318.012 16.5039 318.078 16.7305 318.211 16.8867C318.344 17.043 318.5 17.1484 318.68 17.2031C318.867 17.2578 319.098 17.2969 319.371 17.3203C319.426 17.3203 319.508 17.3281 319.617 17.3438C319.758 17.3594 319.855 17.3984 319.91 17.4609C319.973 17.5156 320.004 17.6211 320.004 17.7773C320.004 17.8867 319.969 17.9961 319.898 18.1055C319.828 18.207 319.73 18.2578 319.605 18.2578H314.602C314.477 18.2578 314.379 18.207 314.309 18.1055C314.238 17.9961 314.203 17.8867 314.203 17.7773C314.203 17.6445 314.227 17.543 314.273 17.4727C314.328 17.3945 314.426 17.3516 314.566 17.3438C314.855 17.3203 315.133 17.2422 315.398 17.1094C315.672 16.9688 315.809 16.7969 315.809 16.5938V8.94141C315.809 8.63672 315.707 8.36328 315.504 8.12109C315.301 7.87891 314.898 7.75781 314.297 7.75781C313.633 7.75781 312.984 7.91016 312.352 8.21484C311.719 8.51953 311.203 8.85547 310.805 9.22266V16.207C310.805 16.5195 310.867 16.7578 310.992 16.9219C311.125 17.0781 311.277 17.1797 311.449 17.2266C311.629 17.2734 311.852 17.3125 312.117 17.3438C312.289 17.3594 312.402 17.3945 312.457 17.4492C312.512 17.4961 312.539 17.6055 312.539 17.7773C312.539 17.8789 312.5 17.9844 312.422 18.0938C312.352 18.2031 312.258 18.2578 312.141 18.2578H307.277Z" fill="#C5BEBE"/>
<path d="M326.145 23.8828C325.129 23.8828 324.223 23.7227 323.426 23.4023C322.637 23.082 322.02 22.6406 321.574 22.0781C321.137 21.5234 320.918 20.9062 320.918 20.2266C320.918 19.5781 321.102 19.0625 321.469 18.6797C321.844 18.3047 322.301 18.0391 322.84 17.8828C322.02 17.5234 321.609 16.8516 321.609 15.8672C321.609 15.5469 321.688 15.2227 321.844 14.8945C322.008 14.5586 322.219 14.2695 322.477 14.0273C322.742 13.7773 323.02 13.6094 323.309 13.5234C322.793 13.1797 322.402 12.7148 322.137 12.1289C321.879 11.5352 321.75 10.9219 321.75 10.2891C321.75 9.55469 321.922 8.89062 322.266 8.29688C322.609 7.70312 323.102 7.23438 323.742 6.89062C324.391 6.54688 325.145 6.375 326.004 6.375C326.637 6.375 327.207 6.47266 327.715 6.66797C328.23 6.85547 328.672 7.125 329.039 7.47656C329.25 7.10938 329.52 6.82031 329.848 6.60938C330.184 6.39062 330.551 6.28125 330.949 6.28125C331.449 6.28125 331.84 6.44922 332.121 6.78516C332.402 7.12109 332.543 7.55469 332.543 8.08594C332.543 8.44531 332.453 8.73438 332.273 8.95312C332.094 9.17188 331.887 9.28125 331.652 9.28125L330.422 7.34766C330.25 7.38672 330.105 7.45312 329.988 7.54688C329.871 7.64062 329.715 7.80469 329.52 8.03906C329.957 8.67969 330.176 9.42969 330.176 10.2891C330.176 11.0078 330.004 11.668 329.66 12.2695C329.316 12.8711 328.824 13.3516 328.184 13.7109C327.543 14.0625 326.793 14.2383 325.934 14.2383C325.043 14.2383 324.422 14.1523 324.07 13.9805C323.797 14.0742 323.594 14.2188 323.461 14.4141C323.328 14.6094 323.262 14.832 323.262 15.082C323.262 15.4883 323.41 15.8086 323.707 16.043C324.004 16.2695 324.395 16.3828 324.879 16.3828H327.527C328.41 16.3828 329.129 16.4805 329.684 16.6758C330.238 16.8633 330.66 17.207 330.949 17.707C331.238 18.1992 331.383 18.8945 331.383 19.793C331.375 20.4883 331.172 21.1484 330.773 21.7734C330.375 22.3984 329.781 22.9062 328.992 23.2969C328.203 23.6875 327.254 23.8828 326.145 23.8828ZM325.98 13.1133C326.723 13.1133 327.238 12.8594 327.527 12.3516C327.824 11.8359 327.973 11.1406 327.973 10.2656C327.973 9.39062 327.816 8.70703 327.504 8.21484C327.199 7.71484 326.676 7.46484 325.934 7.46484C325.184 7.46484 324.66 7.71094 324.363 8.20312C324.074 8.69531 323.93 9.38281 323.93 10.2656C323.93 11.1406 324.082 11.8359 324.387 12.3516C324.691 12.8594 325.223 13.1133 325.98 13.1133ZM326.379 22.7461C326.879 22.7461 327.391 22.668 327.914 22.5117C328.445 22.3555 328.898 22.082 329.273 21.6914C329.656 21.3086 329.848 20.7969 329.848 20.1562C329.848 19.5625 329.625 19.1328 329.18 18.8672C328.734 18.6094 328.148 18.4805 327.422 18.4805H324.809C324.426 18.4805 324.035 18.4141 323.637 18.2812C323.465 18.4922 323.324 18.7305 323.215 18.9961C323.105 19.2695 323.051 19.6055 323.051 20.0039C323.051 20.6211 323.203 21.1328 323.508 21.5391C323.82 21.9531 324.227 22.2578 324.727 22.4531C325.234 22.6484 325.785 22.7461 326.379 22.7461Z" fill="#C5BEBE"/>
<path d="M340.699 16.8281C340.699 16.5391 340.77 16.2734 340.91 16.0312C341.059 15.7891 341.258 15.5977 341.508 15.457C341.758 15.3164 342.035 15.2461 342.34 15.2461C342.645 15.2461 342.922 15.3164 343.172 15.457C343.422 15.5977 343.621 15.7891 343.77 16.0312C343.918 16.2734 343.992 16.5391 343.992 16.8281C343.992 17.1172 343.918 17.3906 343.77 17.6484C343.621 17.9062 343.422 18.1094 343.172 18.2578C342.922 18.4141 342.645 18.4922 342.34 18.4922C342.035 18.4922 341.758 18.4141 341.508 18.2578C341.258 18.1094 341.059 17.9062 340.91 17.6484C340.77 17.3906 340.699 17.1172 340.699 16.8281ZM340.699 8.17969C340.699 7.89062 340.77 7.625 340.91 7.38281C341.059 7.14062 341.258 6.94922 341.508 6.80859C341.758 6.66797 342.035 6.59766 342.34 6.59766C342.645 6.59766 342.922 6.66797 343.172 6.80859C343.422 6.94922 343.621 7.14062 343.77 7.38281C343.918 7.625 343.992 7.89062 343.992 8.17969C343.992 8.46875 343.918 8.74219 343.77 9C343.621 9.25781 343.422 9.46484 343.172 9.62109C342.922 9.76953 342.645 9.84375 342.34 9.84375C342.035 9.84375 341.758 9.76953 341.508 9.62109C341.258 9.46484 341.059 9.25781 340.91 9C340.77 8.74219 340.699 8.46875 340.699 8.17969Z" fill="#C5BEBE"/>
</svg>
