<svg width="27" height="27" viewBox="0 0 27 27" fill="none" xmlns="http://www.w3.org/2000/svg">
<path fill-rule="evenodd" clip-rule="evenodd" d="M9.75 0C15.1348 0 19.5 4.36522 19.5 9.75C19.5 12.165 18.615 14.385 17.16 16.095L17.565 16.5H18.75L26.25 24L24 26.25L16.5 18.75V17.565L16.095 17.16C14.385 18.615 12.165 19.5 9.75 19.5C4.36522 19.5 0 15.1348 0 9.75C0 4.36522 4.36522 0 9.75 0ZM9.75 3C6 3 3 6 3 9.75C3 13.5 6 16.5 9.75 16.5C13.5 16.5 16.5 13.5 16.5 9.75C16.5 6 13.5 3 9.75 3Z" fill="#DB5A42"/>
<mask id="mask0_177_1667" style="mask-type:alpha" maskUnits="userSpaceOnUse" x="0" y="0" width="27" height="27">
<path fill-rule="evenodd" clip-rule="evenodd" d="M9.75 0C15.1348 0 19.5 4.36522 19.5 9.75C19.5 12.165 18.615 14.385 17.16 16.095L17.565 16.5H18.75L26.25 24L24 26.25L16.5 18.75V17.565L16.095 17.16C14.385 18.615 12.165 19.5 9.75 19.5C4.36522 19.5 0 15.1348 0 9.75C0 4.36522 4.36522 0 9.75 0ZM9.75 3C6 3 3 6 3 9.75C3 13.5 6 16.5 9.75 16.5C13.5 16.5 16.5 13.5 16.5 9.75C16.5 6 13.5 3 9.75 3Z" fill="white"/>
</mask>
<g mask="url(#mask0_177_1667)">
</g>
</svg>
