<svg width="17" height="4" viewBox="0 0 17 4" fill="none" xmlns="http://www.w3.org/2000/svg">
<path fill-rule="evenodd" clip-rule="evenodd" d="M12.5 2C12.5 0.89543 13.3954 -4.76837e-07 14.5 -4.76837e-07C15.6046 -4.76837e-07 16.5 0.89543 16.5 2C16.5 3.10457 15.6046 4 14.5 4C13.3954 4 12.5 3.10457 12.5 2ZM6.5 2C6.5 0.89543 7.39543 -4.76837e-07 8.5 -4.76837e-07C9.60457 -4.76837e-07 10.5 0.89543 10.5 2C10.5 3.10457 9.60457 4 8.5 4C7.39543 4 6.5 3.10457 6.5 2ZM0.5 2C0.5 0.89543 1.39543 -4.76837e-07 2.5 -4.76837e-07C3.60457 -4.76837e-07 4.5 0.89543 4.5 2C4.5 3.10457 3.60457 4 2.5 4C1.39543 4 0.5 3.10457 0.5 2Z" fill="#1E1F20"/>
</svg>
