<svg width="22" height="22" viewBox="0 0 22 22" fill="none" xmlns="http://www.w3.org/2000/svg">
<path d="M11 0.5C5.1996 0.5 0.5 5.1996 0.5 11C0.5 16.8004 5.1996 21.5 11 21.5C16.8004 21.5 21.5 16.8004 21.5 11C21.5 5.1996 16.8004 0.5 11 0.5ZM17.0968 12.1855C17.0968 12.4649 16.8681 12.6935 16.5887 12.6935H12.6935V16.5887C12.6935 16.8681 12.4649 17.0968 12.1855 17.0968H9.81452C9.53508 17.0968 9.30645 16.8681 9.30645 16.5887V12.6935H5.41129C5.13186 12.6935 4.90323 12.4649 4.90323 12.1855V9.81452C4.90323 9.53508 5.13186 9.30645 5.41129 9.30645H9.30645V5.41129C9.30645 5.13186 9.53508 4.90323 9.81452 4.90323H12.1855C12.4649 4.90323 12.6935 5.13186 12.6935 5.41129V9.30645H16.5887C16.8681 9.30645 17.0968 9.53508 17.0968 9.81452V12.1855Z" fill="#DB5A42"/>
</svg>
