<svg width="22" height="22" viewBox="0 0 22 22" fill="none" xmlns="http://www.w3.org/2000/svg">
<path d="M15.4444 10.9994V12.666C15.4444 13.4027 15.7371 14.1092 16.258 14.6301C16.779 15.151 17.4855 15.4436 18.2222 15.4436C18.9589 15.4436 19.6655 15.151 20.1864 14.6301C20.7073 14.1092 21 13.4027 21 12.666V10.9994C21 9.02174 20.4135 7.08845 19.3147 5.44405C18.2159 3.79965 16.6541 2.518 14.8268 1.76117C12.9996 1.00433 10.9889 0.80631 9.0491 1.19214C7.10929 1.57797 5.32746 2.53033 3.92894 3.92877C2.53041 5.32722 1.578 7.10895 1.19215 9.04865C0.8063 10.9884 1.00433 12.9989 1.76121 14.8261C2.51809 16.6532 3.79981 18.2149 5.4443 19.3137C7.08879 20.4124 9.02219 20.9989 11 20.9989M16 19.659C14.4808 20.5391 12.7558 21.0017 11 21M15.4444 10.9994C15.4444 9.82077 14.9762 8.69037 14.1427 7.85692C13.3092 7.02348 12.1787 6.55525 11 6.55525C9.82126 6.55525 8.6908 7.02348 7.85731 7.85692C7.02381 8.69037 6.55556 9.82077 6.55556 10.9994C6.55556 12.1781 7.02381 13.3085 7.85731 14.142C8.6908 14.9754 9.82126 15.4436 11 15.4436C12.1787 15.4436 13.3092 14.9754 14.1427 14.142C14.9762 13.3085 15.4444 12.1781 15.4444 10.9994Z" stroke="black" stroke-width="2" stroke-linecap="round" stroke-linejoin="round"/>
</svg>
