<svg width="26" height="22" viewBox="0 0 26 22" fill="none" xmlns="http://www.w3.org/2000/svg">
<path d="M7.66667 8.05882H7.68M13 8.05882H13.0133M18.3333 8.05882H18.3467M9 15.1176H3.66667C2.95942 15.1176 2.28115 14.8697 1.78105 14.4285C1.28095 13.9872 1 13.3887 1 12.7647V3.35294C1 2.7289 1.28095 2.13042 1.78105 1.68916C2.28115 1.2479 2.95942 1 3.66667 1H22.3333C23.0406 1 23.7189 1.2479 24.219 1.68916C24.719 2.13042 25 2.7289 25 3.35294V12.7647C25 13.3887 24.719 13.9872 24.219 14.4285C23.7189 14.8697 23.0406 15.1176 22.3333 15.1176H15.6667L9 21V15.1176Z" stroke="black" stroke-width="2" stroke-linecap="round" stroke-linejoin="round"/>
</svg>
