<svg width="26" height="22" viewBox="0 0 26 22" fill="none" xmlns="http://www.w3.org/2000/svg">
<path d="M25 12.25V3.5C25 2.83696 24.6839 2.20107 24.1213 1.73223C23.5587 1.26339 22.7956 1 22 1H4C3.20435 1 2.44129 1.26339 1.87868 1.73223C1.31607 2.20107 1 2.83696 1 3.5V12.25M25 12.25V18.5C25 19.163 24.6839 19.7989 24.1213 20.2678C23.5587 20.7366 22.7956 21 22 21H4C3.20435 21 2.44129 20.7366 1.87868 20.2678C1.31607 19.7989 1 19.163 1 18.5V12.25M25 12.25H21.121C20.7232 12.2501 20.3417 12.3818 20.0605 12.6163L16.4395 15.6337C16.1583 15.8682 15.7768 15.9999 15.379 16H10.621C10.2232 15.9999 9.84174 15.8682 9.5605 15.6337L5.9395 12.6163C5.65826 12.3818 5.27679 12.2501 4.879 12.25H1" stroke="black" stroke-width="2" stroke-linecap="round" stroke-linejoin="round"/>
</svg>
