<svg width="48" height="43" viewBox="0 0 48 43" fill="none" xmlns="http://www.w3.org/2000/svg">
<path d="M1 1H6.11111L7.13333 5.55556M11.2222 23.7778H36.7778L47 5.55556H7.13333M11.2222 23.7778L7.13333 5.55556M11.2222 23.7778L5.36233 29.0007C3.75233 30.4357 4.89211 32.8889 7.16911 32.8889H36.7778M36.7778 32.8889C35.4222 32.8889 34.1222 33.3688 33.1637 34.2232C32.2052 35.0775 31.6667 36.2362 31.6667 37.4444C31.6667 38.6527 32.2052 39.8114 33.1637 40.6657C34.1222 41.52 35.4222 42 36.7778 42C38.1333 42 39.4334 41.52 40.3919 40.6657C41.3504 39.8114 41.8889 38.6527 41.8889 37.4444C41.8889 36.2362 41.3504 35.0775 40.3919 34.2232C39.4334 33.3688 38.1333 32.8889 36.7778 32.8889ZM16.3333 37.4444C16.3333 38.6527 15.7948 39.8114 14.8363 40.6657C13.8778 41.52 12.5778 42 11.2222 42C9.86667 42 8.56664 41.52 7.60812 40.6657C6.6496 39.8114 6.11111 38.6527 6.11111 37.4444C6.11111 36.2362 6.6496 35.0775 7.60812 34.2232C8.56664 33.3688 9.86667 32.8889 11.2222 32.8889C12.5778 32.8889 13.8778 33.3688 14.8363 34.2232C15.7948 35.0775 16.3333 36.2362 16.3333 37.4444V37.4444Z" stroke="black" stroke-width="2" stroke-linecap="round" stroke-linejoin="round"/>
</svg>
